<svg width="148" height="102" viewBox="0 0 148 102" fill="none" xmlns="http://www.w3.org/2000/svg">
<g clip-path="url(#clip0_873_3990)">
<rect x="0.304688" y="15.0922" width="138.489" height="86.5556" rx="6.92445" transform="rotate(-6.12952 0.304688 15.0922)" fill="#0597D2"/>
<path opacity="0.35" d="M126.788 -104.115L149.154 104.152L66.2489 113.055L126.788 -104.115Z" fill="black" fill-opacity="0.15"/>
<path opacity="0.35" d="M-16.6563 121.958L149.154 104.152L141.997 37.5061L-16.6563 121.958Z" fill="black" fill-opacity="0.15"/>
<path d="M21.5704 80.4959C21.4856 79.7064 21.5703 79.0682 21.8244 78.5813C22.0832 78.0938 22.5522 77.8136 23.2315 77.7407C23.9108 77.6677 24.4263 77.8422 24.778 78.2641C25.1344 78.6854 25.3549 79.2909 25.4397 80.0803C25.5255 80.879 25.439 81.522 25.1802 82.0094C24.9261 82.4964 24.4594 82.7763 23.7801 82.8493C23.1008 82.9222 22.583 82.748 22.2266 82.3266C21.8749 81.9048 21.6562 81.2945 21.5704 80.4959ZM24.283 80.2045C24.2332 79.741 24.1446 79.3907 24.017 79.1537C23.8889 78.9121 23.6665 78.8083 23.3498 78.8423C23.0331 78.8763 22.8378 79.0249 22.7639 79.2882C22.6896 79.5469 22.6773 79.9081 22.7271 80.3716C22.7606 80.6838 22.8068 80.9411 22.8657 81.1437C22.9241 81.3417 23.0153 81.4991 23.1392 81.6158C23.2673 81.7274 23.4415 81.7713 23.6618 81.7477C23.8821 81.724 24.0407 81.6443 24.1375 81.5086C24.2385 81.3677 24.2965 81.1944 24.3115 80.9885C24.326 80.778 24.3165 80.5167 24.283 80.2045ZM30.8252 78.0673L28.6771 78.298L28.7791 79.2481C28.8601 79.1373 28.9797 79.0409 29.1381 78.9589C29.2964 78.8769 29.472 78.8255 29.6647 78.8048C30.009 78.7679 30.3019 78.8153 30.5436 78.9472C30.7898 79.0786 30.9791 79.2626 31.1113 79.4991C31.2434 79.7356 31.3251 79.9985 31.3561 80.2876C31.4138 80.8247 31.3082 81.2678 31.0392 81.617C30.7698 81.9617 30.3597 82.1636 29.8089 82.2227C29.4417 82.2622 29.1161 82.2344 28.832 82.1396C28.5474 82.0402 28.3195 81.8859 28.1485 81.6767C27.9775 81.4676 27.8693 81.2169 27.824 80.9246L28.9738 80.8012C29.0166 80.9405 29.096 81.0527 29.2119 81.1377C29.3273 81.2182 29.4768 81.2486 29.6604 81.2288C29.8761 81.2057 30.0294 81.1196 30.1202 80.9705C30.2109 80.8215 30.244 80.6322 30.2194 80.4028C30.1952 80.1778 30.1217 80.0116 29.9987 79.9041C29.8757 79.7966 29.7087 79.7542 29.4975 79.7769C29.3415 79.7936 29.2171 79.8465 29.1245 79.9353C29.0314 80.0196 28.9755 80.1254 28.9567 80.2528L27.8207 80.3748L27.499 77.3799L30.7143 77.0346L30.8252 78.0673ZM35.6085 74.9838L34.604 83.0101L33.468 83.1321L34.4725 75.1058L35.6085 74.9838ZM37.9248 80.397C38.0676 80.2564 38.1325 80.1913 38.1198 80.202C38.5296 79.7819 38.8503 79.4387 39.0817 79.1725C39.3177 78.9057 39.5111 78.6319 39.6621 78.351C39.813 78.0702 39.8751 77.8058 39.8485 77.558C39.8283 77.3698 39.7689 77.2276 39.6704 77.1314C39.5718 77.0352 39.4353 76.9965 39.2609 77.0152C39.0865 77.0339 38.956 77.1153 38.8693 77.2592C38.7867 77.3981 38.7582 77.5868 38.7838 77.8255L37.6478 77.9475C37.6151 77.5564 37.6627 77.2216 37.7907 76.9432C37.9232 76.6644 38.1114 76.4492 38.3551 76.2976C38.6034 76.1456 38.8859 76.0526 39.2026 76.0186C39.7488 75.9599 40.1747 76.0558 40.4801 76.3062C40.7902 76.5561 40.9694 76.906 41.0177 77.3558C41.0704 77.8469 40.9519 78.3216 40.6622 78.7799C40.372 79.2335 39.989 79.6879 39.5132 80.1429L41.3721 79.9433L41.4749 80.9003L38.0187 81.2714L37.9248 80.397ZM43.3091 79.8676L43.207 78.9175L45.0485 75.5719L46.3635 75.4307L46.6903 78.4738L47.2548 78.4131L47.3642 79.4321L46.7997 79.4927L46.8958 80.3878L45.7185 80.5142L45.6224 79.6192L43.3091 79.8676ZM45.4078 76.8426L44.4389 78.7155L45.5956 78.5913L45.4078 76.8426Z" fill="white"/>
<circle cx="21.0915" cy="68.1471" r="1.15407" transform="rotate(-6.12952 21.0915 68.1471)" fill="white"/>
<circle cx="25.6815" cy="67.6542" r="1.15407" transform="rotate(-6.12952 25.6815 67.6542)" fill="white"/>
<circle cx="30.2714" cy="67.1613" r="1.15407" transform="rotate(-6.12952 30.2714 67.1613)" fill="white"/>
<circle cx="34.8613" cy="66.6684" r="1.15407" transform="rotate(-6.12952 34.8613 66.6684)" fill="white"/>
<circle cx="44.041" cy="65.6826" r="1.15407" transform="rotate(-6.12952 44.041 65.6826)" fill="white"/>
<circle cx="48.6308" cy="65.1897" r="1.15407" transform="rotate(-6.12952 48.6308 65.1897)" fill="white"/>
<circle cx="53.2207" cy="64.6968" r="1.15407" transform="rotate(-6.12952 53.2207 64.6968)" fill="white"/>
<circle cx="57.8107" cy="64.2038" r="1.15407" transform="rotate(-6.12952 57.8107 64.2038)" fill="white"/>
<circle cx="66.9907" cy="63.218" r="1.15407" transform="rotate(-6.12952 66.9907 63.218)" fill="white"/>
<circle cx="71.5805" cy="62.7251" r="1.15407" transform="rotate(-6.12952 71.5805 62.7251)" fill="white"/>
<circle cx="76.1704" cy="62.2322" r="1.15407" transform="rotate(-6.12952 76.1704 62.2322)" fill="white"/>
<circle cx="80.7605" cy="61.7393" r="1.15407" transform="rotate(-6.12952 80.7605 61.7393)" fill="white"/>
<path d="M89.488 63.115L89.352 61.8482L91.8072 57.3874L93.5606 57.1991L93.9963 61.2566L94.7491 61.1757L94.895 62.5343L94.1422 62.6152L94.2704 63.8086L92.7006 63.9771L92.5725 62.7838L89.488 63.115ZM92.2863 59.0816L90.9945 61.5789L92.5367 61.4133L92.2863 59.0816ZM98.5394 62.078C98.7297 61.8904 98.8164 61.8037 98.7993 61.8179C99.3458 61.2578 99.7734 60.8002 100.082 60.4452C100.397 60.0895 100.655 59.7244 100.856 59.3499C101.057 58.9755 101.14 58.623 101.104 58.2925C101.077 58.0416 100.998 57.852 100.867 57.7238C100.735 57.5955 100.553 57.5438 100.321 57.5688C100.088 57.5938 99.9142 57.7022 99.7987 57.8942C99.6886 58.0793 99.6506 58.331 99.6848 58.6493L98.1701 58.8119C98.1265 58.2904 98.19 57.8441 98.3606 57.4729C98.5373 57.1011 98.7882 56.8141 99.1131 56.6121C99.4442 56.4094 99.8209 56.2854 100.243 56.24C100.971 56.1618 101.539 56.2896 101.946 56.6235C102.36 56.9568 102.599 57.4232 102.663 58.023C102.734 58.6778 102.576 59.3107 102.189 59.9217C101.802 60.5266 101.292 61.1324 100.657 61.7391L103.136 61.4729L103.273 62.7489L98.6646 63.2438L98.5394 62.078ZM106.45 57.6349C106.404 56.9774 106.564 56.4496 106.93 56.0512C107.296 55.6529 107.824 55.4166 108.516 55.3423C108.975 55.293 109.375 55.3305 109.716 55.4548C110.064 55.5784 110.335 55.7691 110.53 56.0267C110.731 56.2837 110.85 56.5836 110.887 56.9263C110.93 57.3302 110.865 57.6715 110.69 57.9502C110.515 58.2229 110.298 58.4195 110.039 58.5402L110.042 58.5769C110.404 58.6558 110.7 58.819 110.931 59.0665C111.162 59.3141 111.3 59.6491 111.345 60.0713C111.386 60.4508 111.333 60.7969 111.187 61.1097C111.047 61.4157 110.817 61.6695 110.498 61.8708C110.186 62.0716 109.8 62.1966 109.341 62.2459C108.606 62.3247 108 62.2073 107.52 61.8935C107.047 61.5791 106.759 61.0591 106.656 60.3335L108.18 60.1698C108.215 60.4384 108.315 60.6444 108.478 60.7878C108.642 60.925 108.864 60.9785 109.146 60.9482C109.384 60.9226 109.561 60.8356 109.675 60.6871C109.794 60.5319 109.842 60.3411 109.818 60.1147C109.786 59.8209 109.669 59.62 109.465 59.5118C109.267 59.3969 108.963 59.3614 108.553 59.4055L108.259 59.437L108.122 58.161L108.416 58.1295C108.728 58.096 108.973 58.017 109.152 57.8926C109.336 57.7614 109.413 57.5581 109.384 57.2827C109.36 57.0624 109.28 56.8976 109.145 56.7884C109.009 56.6791 108.834 56.636 108.62 56.659C108.388 56.684 108.221 56.7731 108.12 56.9263C108.024 57.0789 107.979 57.2602 107.983 57.4703L106.45 57.6349ZM114.679 56.3148L114.522 54.8552L117.065 54.5821L117.785 61.2834L116.151 61.4588L115.588 56.2172L114.679 56.3148Z" fill="white"/>
<g clip-path="url(#clip1_873_3990)">
<path d="M116.572 18.7223L114.248 18.9718L114.747 9.92942L117.071 9.67987L116.572 18.7223Z" fill="white"/>
<path d="M124.065 9.14852C123.588 9.01794 122.839 8.89749 121.94 8.99403C119.645 9.24047 118.159 10.624 118.335 12.355C118.453 13.6334 119.705 14.216 120.631 14.5471C121.577 14.8854 121.913 15.1364 121.954 15.524C122.009 16.1203 121.321 16.4718 120.652 16.5436C119.724 16.6433 119.212 16.5552 118.421 16.3051L118.1 16.196L117.989 18.2257C118.56 18.4127 119.588 18.5227 120.631 18.4203C123.07 18.1584 124.529 16.7967 124.35 14.9512C124.251 13.9386 123.546 13.2302 122.139 12.7406C121.283 12.4212 120.756 12.2005 120.711 11.7845C120.68 11.4053 121.05 10.9737 121.967 10.8752C122.721 10.7751 123.295 10.895 123.735 11.0296L123.955 11.1014L124.065 9.14852V9.14852Z" fill="white"/>
<path d="M127.747 14.3378C127.883 13.8067 128.408 11.7518 128.408 11.7518C128.4 11.7718 128.543 11.2114 128.622 10.8682L128.867 11.6165C128.867 11.6165 129.535 13.6963 129.678 14.1304C129.315 14.1694 128.206 14.2885 127.747 14.3378ZM129.999 8.29153L128.202 8.48457C127.647 8.54409 127.243 8.7499 127.066 9.3523L124.489 17.8719L126.928 17.61C126.928 17.61 127.211 16.4701 127.272 16.2246C127.54 16.1959 129.912 15.9412 130.256 15.9042C130.356 16.209 130.676 17.2074 130.676 17.2074L132.828 16.9764L129.999 8.29153V8.29153Z" fill="white"/>
<path d="M111.353 10.2939L109.728 16.5979L109.347 15.3957C108.774 14.0228 107.289 12.6238 105.734 12.0159L108.653 19.5631L111.111 19.2992L113.81 10.03L111.353 10.2939V10.2939Z" fill="white"/>
<path d="M106.964 10.7653L103.225 11.1668L103.206 11.3504C106.202 11.7747 108.324 13.3448 109.347 15.3961L108.096 11.3993C107.901 10.8461 107.473 10.7296 106.964 10.7653Z" fill="white"/>
</g>
</g>
<defs>
<clipPath id="clip0_873_3990">
<rect x="0.304688" y="15.0922" width="138.489" height="86.5556" rx="6.92445" transform="rotate(-6.12952 0.304688 15.0922)" fill="white"/>
</clipPath>
<clipPath id="clip1_873_3990">
<rect width="28.8519" height="9.2326" fill="white" transform="translate(103.169 11.0098) rotate(-6.12952)"/>
</clipPath>
</defs>
</svg>
