<svg viewBox="0 0 665 492" fill="none" xmlns="http://www.w3.org/2000/svg"><g filter="url(#prefix__filter0_dd_873_3982)"><g clip-path="url(#prefix__clip0_873_3982)"><rect x="385.156" y="128.702" width="138.489" height="86.556" rx="6.924" transform="rotate(-21.13 385.156 128.702)" fill="#636363"/><path opacity=".45" d="M482.925-2.495l62.611 162.011-64.589 24.961 1.978-186.972z" fill="#000" fill-opacity=".15"/><path opacity=".45" d="M416.358 209.438l129.178-49.922-20.036-51.844-109.142 101.766z" fill="#000" fill-opacity=".15"/><g clip-path="url(#prefix__clip1_873_3982)" fill="#fff"><path d="M476.924 101.455l-.184 4.884 1.173-.453.008-.967 1.934-.748.657.711 1.201-.464-3.42-3.492-1.369.529zm1.043.713l1.156 1.236-1.18.456.024-1.692zM481.833 104.367l-1.618-4.188 1.672-.638 2.012 2.325-.099-3.073 1.655-.64 1.619 4.189-1.047.405-1.193-3.085.081 3.514-.919.355-2.308-2.653 1.193 3.084-1.048.405zM487.793 102.064l-1.619-4.188 3.421-1.322.362.935-2.36.912.278.718 2.302-.89.341.882-2.306.891.287.743 2.359-.912.352.91-3.417 1.321zM490.201 96.324l1.618 4.188 1.048-.405-.575-1.489.439-.17 1.834 1.003 1.28-.495-1.976-1.009c.547-.264.945-.977.654-1.73-.341-.882-1.218-1.089-1.99-.79l-2.332.897zm1.409.53l1.197-.462c.286-.11.584.033.667.247.108.278-.102.544-.313.626l-1.212.468-.339-.878zM497.112 98.462l-1.068.413-1.619-4.188 1.069-.413 1.618 4.188zM499.65 97.481l-.232.09c-1.119.433-2.134-.185-2.596-1.38-.473-1.225-.144-2.37 1.265-2.915l1.158-.447.384.992-1.198.463c-.572.221-.807.825-.543 1.507.313.81.909.97 1.574.713l.275-.107-.087 1.084zM500.314 92.415l-.184 4.881 1.172-.453.009-.967 1.934-.748.656.71 1.198-.462-3.42-3.492-1.365.531zm1.041.715l1.155 1.236-1.18.456.025-1.692zM505.22 95.329l-1.618-4.188 1.333-.516 2.719 1.974-1.017-2.631 1.047-.405 1.619 4.188-1.291.499-2.787-2.025 1.043 2.7-1.048.404zM487.203 110.713l-1.619-4.188 3.421-1.322.362.935-2.36.912.278.717 2.306-.891.34.882-2.305.891.287.743 2.359-.912.352.911-3.421 1.322zM503.958 104.237l-1.618-4.188 3.421-1.322.362.935-2.36.912.277.718 2.296-.887.34.882-2.295.887.287.743 2.36-.912.352.91-3.422 1.322zM490.756 109.339l.867-2.711-2.525-1.461 1.32-.51 1.521.918.513-1.704 1.269-.491-.875 2.743 2.478 1.447-1.32.51-1.484-.908-.464 1.661-1.3.506zM493.833 103.341l1.619 4.188 1.076-.416-.511-1.321 1.105-.427c.933-.36 1.449-1.13 1.078-2.091-.308-.796-1.098-1.192-2.049-.825l-2.317.896-.001-.004zm1.442.53l1.162-.449c.3-.116.59-.014.704.282.108.278-.028.565-.335.684l-1.159.447-.372-.964zM498.104 101.686l1.618 4.189 1.048-.405-.576-1.489.44-.17 1.834 1.002 1.28-.494-1.976-1.009c.547-.265.945-.977.654-1.73-.341-.882-1.218-1.089-1.99-.791l-2.332.897zm1.414.533l1.197-.463c.286-.11.584.033.667.248.108.278-.102.544-.313.625l-1.212.469-.339-.879zM507.866 102.727l-.352-.91 2.099-.811c.311-.12.378-.339.308-.521-.068-.175-.269-.303-.58-.182l-.948.366c-.822.317-1.476-.004-1.767-.758-.26-.67-.088-1.48 1.135-1.953l2.041-.788-.075 1.112-1.766.683c-.336.13-.371.348-.306.516.067.175.269.314.527.215l.994-.384c.918-.355 1.517.013 1.78.695.283.731.071 1.503-.851 1.859l-2.238.865-.001-.004zM511.713 101.241l-.352-.911 2.098-.81c.311-.12.379-.34.308-.522-.067-.175-.269-.302-.58-.182l-.947.366c-.822.318-1.477-.004-1.768-.757-.259-.671-.087-1.48 1.136-1.953l2.041-.79-.076 1.114-1.766.682c-.336.13-.37.348-.305.516.067.175.269.315.526.215l.994-.384c.919-.355 1.517.013 1.781.695.283.732.071 1.503-.851 1.859l-2.238.865-.001-.003z"/></g><path d="M422.625 186.373c-.286-.741-.37-1.379-.25-1.915.124-.538.504-.93 1.141-1.176.638-.247 1.181-.212 1.63.105.453.315.823.842 1.109 1.583.289.749.372 1.393.249 1.93-.12.537-.498.928-1.135 1.174-.638.246-1.183.212-1.636-.103-.449-.316-.818-.849-1.108-1.598zm2.545-.984c-.168-.435-.345-.75-.529-.946-.186-.2-.428-.243-.725-.128-.297.115-.447.309-.451.582-.005.269.077.621.245 1.056.113.293.225.53.334.71.108.176.236.305.386.385.153.075.332.072.539-.007.207-.08.339-.198.398-.355a.996.996 0 00.033-.547 4.565 4.565 0 00-.23-.75zm5.403-3.773l-.118 4.515-1.13.436.185-4.399-2.009.776-.364-.943 3.119-1.205.317.82zm3.441-3.913l1.107 8.013-1.066.411-1.107-8.012 1.066-.412zm3.638 4.629a26.376 26.376 0 00.801-1.482 4.36 4.36 0 00.348-.944c.073-.31.065-.582-.025-.814-.069-.177-.163-.299-.283-.366-.12-.068-.262-.07-.425-.006a.493.493 0 00-.316.337c-.043.155-.022.345.065.569l-1.066.412c-.133-.37-.174-.705-.122-1.007.056-.304.182-.561.378-.77.2-.211.449-.374.746-.489.513-.198.949-.216 1.309-.053.364.161.628.453.791.875.178.461.186.95.025 1.468a7.5 7.5 0 01-.757 1.613l1.744-.673.347.897-3.243 1.253-.317-.82zm4.094-4.455c-.161-.467-.148-.881.04-1.24.187-.36.525-.634 1.011-.822.323-.124.62-.175.892-.151.276.022.509.107.7.256.196.147.34.342.433.583.11.284.129.544.057.78a1.165 1.165 0 01-.358.554l.01.025a1.25 1.25 0 01.739.183c.215.134.38.35.495.647.103.267.132.528.087.783a1.325 1.325 0 01-.351.685 1.985 1.985 0 01-.766.497c-.517.199-.979.232-1.388.098-.403-.136-.713-.457-.928-.963l1.072-.414c.077.188.19.318.336.39.145.067.317.063.515-.014.168-.065.278-.162.332-.292a.575.575 0 00-.007-.442c-.08-.207-.204-.329-.373-.368-.166-.045-.393-.012-.681.1l-.207.08-.347-.898.207-.08c.219-.085.382-.19.487-.315.108-.13.124-.293.049-.486-.06-.155-.149-.259-.269-.312a.515.515 0 00-.405.008c-.163.063-.267.16-.31.291a.717.717 0 00.006.42l-1.078.417z" fill="#fff"/><circle cx="418.966" cy="174.569" r="1.154" transform="rotate(-21.13 418.966 174.569)" fill="#fff"/><circle cx="423.272" cy="172.905" r="1.154" transform="rotate(-21.13 423.272 172.905)" fill="#fff"/><circle cx="427.578" cy="171.241" r="1.154" transform="rotate(-21.13 427.578 171.241)" fill="#fff"/><circle cx="431.884" cy="169.576" r="1.154" transform="rotate(-21.13 431.884 169.576)" fill="#fff"/><circle cx="440.496" cy="166.248" r="1.154" transform="rotate(-21.13 440.496 166.248)" fill="#fff"/><circle cx="444.802" cy="164.584" r="1.154" transform="rotate(-21.13 444.802 164.584)" fill="#fff"/><circle cx="449.108" cy="162.92" r="1.154" transform="rotate(-21.13 449.108 162.92)" fill="#fff"/><circle cx="453.414" cy="161.256" r="1.154" transform="rotate(-21.13 453.414 161.256)" fill="#fff"/><circle cx="457.72" cy="159.592" r="1.154" transform="rotate(-21.13 457.72 159.592)" fill="#fff"/><circle cx="462.026" cy="157.928" r="1.154" transform="rotate(-21.13 462.026 157.928)" fill="#fff"/><path d="M478.284 149.646l-2.687 1.039.459 1.188c.066-.171.187-.336.363-.496.175-.161.384-.287.625-.38.431-.167.824-.207 1.181-.12.362.084.67.256.921.515.252.259.448.569.588.931.26.671.276 1.278.051 1.821-.228.537-.687.938-1.376 1.205-.459.177-.888.254-1.287.23a2.002 2.002 0 01-1.04-.36 2.05 2.05 0 01-.677-.857l1.438-.556a.846.846 0 00.423.351c.176.064.379.052.609-.037.27-.104.437-.268.503-.491.065-.224.043-.479-.068-.766-.109-.281-.261-.47-.457-.566-.195-.096-.425-.093-.689.009a.83.83 0 00-.426.333.692.692 0 00-.106.467l-1.421.549-1.448-3.746 4.022-1.554.499 1.291zm4.172-1.048c-.215-.623-.197-1.174.053-1.654.251-.479.7-.844 1.349-1.095.43-.166.827-.234 1.189-.202a1.707 1.707 0 011.511 1.119c.146.378.171.725.075 1.039a1.545 1.545 0 01-.477.739l.014.034a1.67 1.67 0 01.984.243c.288.18.508.468.661.864.137.356.176.704.116 1.044a1.772 1.772 0 01-.468.913c-.251.275-.591.496-1.022.662-.688.266-1.305.31-1.849.131-.539-.181-.952-.609-1.239-1.283l1.43-.553c.103.25.253.424.448.52.193.09.422.084.686-.018.224-.087.372-.216.444-.389a.766.766 0 00-.011-.59c-.106-.276-.272-.439-.496-.491-.221-.06-.524-.015-.909.133l-.275.107-.463-1.197.276-.107c.292-.113.509-.253.649-.419.144-.174.166-.391.066-.649-.08-.207-.199-.345-.358-.416-.16-.07-.34-.067-.541.011-.218.084-.356.214-.414.388a.974.974 0 00.009.56l-1.438.556zm11.672-5.282l-.158 6.019-1.508.583.248-5.866-2.679 1.035-.486-1.258 4.16-1.607.423 1.094zm4.956 2.756l-.459-1.189 1.217-4.944 1.645-.636 1.471 3.807.706-.273.493 1.275-.707.272.433 1.12-1.472.569-.433-1.119-2.894 1.118zm1.659-4.62l-.601 2.746 1.447-.559-.846-2.187z" fill="#fff"/></g></g><defs><clipPath id="prefix__clip0_873_3982"><rect x="385.156" y="128.702" width="138.489" height="86.556" rx="6.924" transform="rotate(-21.13 385.156 128.702)" fill="#fff"/></clipPath><clipPath id="prefix__clip1_873_3982"><path fill="#fff" transform="rotate(-21.13 509.43 -1222.26)" d="M0 0h38.326v13.849H0z"/></clipPath><filter id="prefix__filter0_dd_873_3982" x="362.075" y="62.622" width="206.542" height="176.821" filterUnits="userSpaceOnUse" color-interpolation-filters="sRGB"><feFlood flood-opacity="0" result="BackgroundImageFix"/><feColorMatrix in="SourceAlpha" values="0 0 0 0 0 0 0 0 0 0 0 0 0 0 0 0 0 0 127 0" result="hardAlpha"/><feOffset dy="6.924"/><feGaussianBlur stdDeviation="11.541"/><feComposite in2="hardAlpha" operator="out"/><feColorMatrix values="0 0 0 0 0.411765 0 0 0 0 0.337255 0 0 0 0 0.215686 0 0 0 0.24 0"/><feBlend in2="BackgroundImageFix" result="effect1_dropShadow_873_3982"/><feColorMatrix in="SourceAlpha" values="0 0 0 0 0 0 0 0 0 0 0 0 0 0 0 0 0 0 127 0" result="hardAlpha"/><feMorphology radius="1.154" in="SourceAlpha" result="effect2_dropShadow_873_3982"/><feOffset dy="2.308"/><feGaussianBlur stdDeviation="1.731"/><feComposite in2="hardAlpha" operator="out"/><feColorMatrix values="0 0 0 0 0 0 0 0 0 0 0 0 0 0 0 0 0 0 0.08 0"/><feBlend in2="effect1_dropShadow_873_3982" result="effect2_dropShadow_873_3982"/><feBlend in="SourceGraphic" in2="effect2_dropShadow_873_3982" result="shape"/></filter></defs></svg>