<svg width="161" height="132" viewBox="0 0 161 132" fill="none" xmlns="http://www.w3.org/2000/svg">
<g clip-path="url(#clip0_873_3989)">
<rect x="0.15625" y="50.7016" width="138.489" height="86.5556" rx="6.92445" transform="rotate(-21.1295 0.15625 50.7016)" fill="#636363"/>
<path opacity="0.45" d="M97.925 -80.495L160.536 81.5158L95.9466 106.477L97.925 -80.495Z" fill="black" fill-opacity="0.15"/>
<path opacity="0.45" d="M31.3576 131.438L160.536 81.5158L140.5 29.6723L31.3576 131.438Z" fill="black" fill-opacity="0.15"/>
<g clip-path="url(#clip1_873_3989)">
<path d="M91.9236 23.455L91.7404 28.3394L92.9129 27.8863L92.9211 26.9188L94.8552 26.1713L95.5119 26.8819L96.7131 26.4177L93.2928 22.9259L91.9236 23.455ZM92.9674 24.1678L94.123 25.4037L92.9433 25.8597L92.9674 24.1678Z" fill="white"/>
<path d="M96.8331 26.3672L95.2146 22.179L96.8869 21.541L98.8988 23.8658L98.8003 20.7933L100.455 20.1537L102.074 24.3418L101.027 24.7466L99.8344 21.6617L99.9147 25.1762L98.996 25.5313L96.6884 22.8775L97.8806 25.9624L96.8331 26.3672Z" fill="white"/>
<path d="M102.793 24.0641L101.174 19.876L104.595 18.5538L104.957 19.4893L102.597 20.4011L102.875 21.1188L105.177 20.229L105.518 21.1109L103.212 22.002L103.499 22.7447L105.858 21.8329L106.21 22.7433L102.793 24.0641Z" fill="white"/>
<path d="M105.201 18.3239L106.819 22.512L107.867 22.1072L107.292 20.6184L107.731 20.4484L109.565 21.451L110.845 20.9564L108.869 19.9472C109.416 19.6825 109.814 18.9704 109.523 18.217C109.182 17.3351 108.305 17.1283 107.533 17.4267L105.201 18.3239ZM106.61 18.8546L107.807 18.3917C108.093 18.2812 108.391 18.4246 108.474 18.6389C108.582 18.9174 108.372 19.183 108.161 19.2645L106.949 19.7329L106.61 18.8546Z" fill="white"/>
<path d="M112.112 20.4623L111.044 20.8754L109.425 16.6873L110.494 16.2742L112.112 20.4623Z" fill="white"/>
<path d="M114.65 19.4814L114.418 19.5712C113.299 20.0037 112.284 19.3864 111.822 18.1904C111.349 16.9657 111.678 15.8205 113.087 15.2762L114.245 14.8285L114.629 15.8211L113.431 16.2839C112.859 16.505 112.624 17.1088 112.888 17.7907C113.201 18.6012 113.797 18.7608 114.462 18.5038L114.737 18.3975L114.65 19.4814Z" fill="white"/>
<path d="M115.314 14.4155L115.13 19.2963L116.302 18.8432L116.311 17.8756L118.245 17.1282L118.901 17.8388L120.099 17.3759L116.679 13.8841L115.314 14.4155ZM116.355 15.1297L117.51 16.3656L116.33 16.8215L116.355 15.1297Z" fill="white"/>
<path d="M120.22 17.329L118.602 13.1408L119.935 12.6255L122.654 14.5993L121.637 11.9679L122.684 11.5631L124.303 15.7512L123.012 16.2499L120.225 14.2249L121.268 16.9242L120.22 17.329Z" fill="white"/>
<path d="M102.203 32.7128L100.584 28.5247L104.005 27.2025L104.367 28.138L102.007 29.0498L102.285 29.7674L104.591 28.8763L104.931 29.7582L102.626 30.6493L102.913 31.392L105.272 30.4802L105.624 31.3906L102.203 32.7128Z" fill="white"/>
<path d="M118.958 26.2374L117.34 22.0493L120.761 20.7271L121.123 21.6625L118.763 22.5744L119.04 23.292L121.336 22.4051L121.676 23.287L119.381 24.1739L119.668 24.9166L122.028 24.0047L122.38 24.9152L118.958 26.2374Z" fill="white"/>
<path d="M105.756 31.3395L106.623 28.6284L104.098 27.1666L105.418 26.6568L106.939 27.5747L107.452 25.8707L108.721 25.3802L107.846 28.1232L110.324 29.5703L109.004 30.0801L107.52 29.1725L107.056 30.833L105.756 31.3395Z" fill="white"/>
<path d="M108.833 25.3409L110.452 29.5291L111.528 29.1132L111.017 27.7921L112.122 27.3652C113.055 27.0046 113.571 26.2348 113.2 25.2744C112.892 24.4782 112.102 24.0818 111.151 24.4493L108.834 25.3445L108.833 25.3409ZM110.275 25.8713L111.437 25.4222C111.737 25.3062 112.027 25.4076 112.141 25.7039C112.249 25.9824 112.113 26.2688 111.806 26.3876L110.647 26.8353L110.275 25.8713Z" fill="white"/>
<path d="M113.104 23.6864L114.722 27.8745L115.77 27.4697L115.194 25.9809L115.634 25.8109L117.468 26.8135L118.748 26.3189L116.772 25.3098C117.319 25.0451 117.717 24.3329 117.426 23.5795C117.085 22.6976 116.208 22.4908 115.436 22.7892L113.104 23.6864ZM114.518 24.2193L115.715 23.7564C116.001 23.6459 116.299 23.7893 116.382 24.0036C116.49 24.2821 116.28 24.5477 116.069 24.6292L114.857 25.0976L114.518 24.2193Z" fill="white"/>
<path d="M122.866 24.7273L122.514 23.8169L124.613 23.0059C124.924 22.8857 124.991 22.6668 124.921 22.4847C124.853 22.3097 124.652 22.1823 124.341 22.3025L123.393 22.6686C122.571 22.9864 121.917 22.6648 121.626 21.9114C121.366 21.2402 121.538 20.4309 122.761 19.9584L124.802 19.1695L124.727 20.282L122.961 20.9645C122.625 21.0944 122.59 21.313 122.655 21.4808C122.722 21.6557 122.924 21.7952 123.182 21.6958L124.176 21.3117C125.094 20.9566 125.693 21.3246 125.956 22.0065C126.239 22.7384 126.027 23.5096 125.105 23.866L122.867 24.7309L122.866 24.7273Z" fill="white"/>
<path d="M126.713 23.2408L126.361 22.3303L128.459 21.5193C128.77 21.3991 128.838 21.1802 128.767 20.9981C128.7 20.8231 128.498 20.6957 128.187 20.8159L127.24 21.1821C126.418 21.4998 125.763 21.1782 125.472 20.4248C125.213 19.7536 125.385 18.9443 126.608 18.4718L128.649 17.6829L128.573 18.7955L126.807 19.478C126.471 19.6078 126.437 19.8264 126.502 19.9942C126.569 20.1692 126.771 20.3087 127.028 20.2092L128.022 19.8251C128.941 19.4701 129.539 19.838 129.803 20.5199C130.086 21.2519 129.874 22.023 128.952 22.3795L126.714 23.2443L126.713 23.2408Z" fill="white"/>
</g>
<path d="M37.625 108.373C37.3388 107.632 37.2554 106.994 37.3749 106.458C37.4986 105.92 37.8791 105.528 38.5164 105.282C39.1537 105.035 39.6968 105.07 40.1457 105.387C40.599 105.702 40.9687 106.229 41.2549 106.97C41.5445 107.719 41.6274 108.363 41.5036 108.9C41.3842 109.437 41.0058 109.828 40.3685 110.074C39.7312 110.32 39.186 110.286 38.7327 109.971C38.2838 109.655 37.9146 109.122 37.625 108.373ZM40.1698 107.389C40.0018 106.954 39.8254 106.639 39.6408 106.443C39.4546 106.243 39.2129 106.2 38.9158 106.315C38.6187 106.43 38.4685 106.624 38.4653 106.897C38.4604 107.166 38.542 107.518 38.7101 107.953C38.8233 108.246 38.9345 108.483 39.0438 108.663C39.1515 108.839 39.2803 108.968 39.4303 109.048C39.5828 109.123 39.7625 109.12 39.9691 109.041C40.1758 108.961 40.3084 108.843 40.3668 108.686C40.4278 108.524 40.439 108.342 40.4002 108.139C40.3598 107.932 40.283 107.682 40.1698 107.389ZM45.5735 103.616L45.4549 108.131L44.3246 108.567L44.51 104.168L42.5012 104.944L42.1368 104.001L45.2565 102.796L45.5735 103.616ZM49.0139 99.7028L50.121 107.716L49.0553 108.127L47.9482 100.115L49.0139 99.7028ZM52.6523 104.332C52.7538 104.159 52.7997 104.08 52.7901 104.093C53.0773 103.581 53.2982 103.167 53.4528 102.85C53.6117 102.531 53.7277 102.216 53.8008 101.906C53.8739 101.596 53.8655 101.324 53.7756 101.092C53.7074 100.915 53.6133 100.793 53.4932 100.726C53.3731 100.658 53.2312 100.656 53.0676 100.72C52.904 100.783 52.7989 100.895 52.7525 101.057C52.7086 101.212 52.73 101.402 52.8165 101.626L51.7508 102.038C51.618 101.668 51.5773 101.333 51.6289 101.031C51.6847 100.727 51.8107 100.47 52.0069 100.261C52.2075 100.05 52.4563 99.8869 52.7534 99.7721C53.2658 99.574 53.7019 99.5564 54.0618 99.7193C54.426 99.8804 54.6896 100.172 54.8527 100.594C55.0307 101.055 55.0391 101.544 54.8779 102.062C54.715 102.575 54.4626 103.113 54.1208 103.675L55.8647 103.002L56.2117 103.899L52.9693 105.152L52.6523 104.332ZM56.7455 99.8773C56.5847 99.4099 56.5981 98.9964 56.7858 98.6369C56.9735 98.2773 57.3106 98.0035 57.7971 97.8154C58.1201 97.6906 58.4173 97.6401 58.6888 97.6639C58.9646 97.686 59.198 97.7714 59.3892 97.9203C59.5846 98.0674 59.729 98.2616 59.8221 98.5027C59.932 98.7869 59.9508 99.0469 59.8786 99.2827C59.8047 99.5141 59.6855 99.6987 59.521 99.8365L59.531 99.8624C59.8081 99.8493 60.0542 99.9101 60.2696 100.045C60.4849 100.179 60.6499 100.395 60.7648 100.692C60.8679 100.959 60.897 101.22 60.852 101.475C60.8097 101.724 60.6925 101.952 60.5007 102.16C60.3131 102.366 60.0578 102.532 59.7348 102.657C59.2181 102.856 58.7557 102.889 58.3475 102.755C57.9436 102.619 57.634 102.298 57.4187 101.792L58.4909 101.378C58.5684 101.566 58.6805 101.696 58.8271 101.768C58.9721 101.835 59.1436 101.831 59.3416 101.754C59.5096 101.689 59.6205 101.592 59.6743 101.462C59.7307 101.327 59.7282 101.179 59.6666 101.02C59.5867 100.813 59.4626 100.691 59.2941 100.652C59.1284 100.607 58.9012 100.64 58.6127 100.752L58.406 100.832L58.0591 99.9339L58.2658 99.854C58.4854 99.7691 58.6478 99.6643 58.7529 99.5395C58.8608 99.4087 58.8773 99.2465 58.8024 99.0527C58.7425 98.8977 58.6528 98.7938 58.5334 98.7409C58.414 98.6881 58.279 98.6908 58.1283 98.749C57.9646 98.8123 57.861 98.9092 57.8175 99.0399C57.7783 99.1689 57.7805 99.3091 57.8242 99.4604L56.7455 99.8773Z" fill="white"/>
<circle cx="33.9664" cy="96.5687" r="1.15407" transform="rotate(-21.1295 33.9664 96.5687)" fill="white"/>
<circle cx="38.2723" cy="94.9046" r="1.15407" transform="rotate(-21.1295 38.2723 94.9046)" fill="white"/>
<circle cx="42.5782" cy="93.2405" r="1.15407" transform="rotate(-21.1295 42.5782 93.2405)" fill="white"/>
<circle cx="46.8842" cy="91.5765" r="1.15407" transform="rotate(-21.1295 46.8842 91.5765)" fill="white"/>
<circle cx="55.4959" cy="88.2483" r="1.15407" transform="rotate(-21.1295 55.4959 88.2483)" fill="white"/>
<circle cx="59.8018" cy="86.5842" r="1.15407" transform="rotate(-21.1295 59.8018 86.5842)" fill="white"/>
<circle cx="64.1077" cy="84.9202" r="1.15407" transform="rotate(-21.1295 64.1077 84.9202)" fill="white"/>
<circle cx="68.4136" cy="83.2561" r="1.15407" transform="rotate(-21.1295 68.4136 83.2561)" fill="white"/>
<circle cx="72.7198" cy="81.592" r="1.15407" transform="rotate(-21.1295 72.7198 81.592)" fill="white"/>
<circle cx="77.0257" cy="79.928" r="1.15407" transform="rotate(-21.1295 77.0257 79.928)" fill="white"/>
<path d="M93.284 71.6463L90.597 72.6847L91.0563 73.8731C91.1223 73.7025 91.2432 73.537 91.4188 73.3767C91.5944 73.2165 91.8028 73.0898 92.0439 72.9966C92.4745 72.8302 92.8682 72.7902 93.2249 72.8767C93.5874 72.9609 93.8946 73.1326 94.1465 73.3916C94.3983 73.6506 94.5942 73.9609 94.734 74.3226C94.9935 74.9943 95.0104 75.6015 94.7846 76.1441C94.5566 76.6809 94.0981 77.0825 93.4091 77.3487C92.9498 77.5262 92.5208 77.6029 92.1222 77.5788C91.7213 77.549 91.3747 77.4289 91.0823 77.2186C90.7898 77.0082 90.564 76.7227 90.4048 76.3619L91.8429 75.8061C91.9462 75.9708 92.0871 76.0879 92.2657 76.1574C92.4422 76.2212 92.6452 76.2087 92.8749 76.12C93.1447 76.0157 93.3124 75.8519 93.3778 75.6286C93.4433 75.4054 93.4206 75.1502 93.3097 74.8631C93.2009 74.5818 93.0488 74.3932 92.8534 74.2971C92.6579 74.2011 92.4281 74.2041 92.164 74.3062C91.9688 74.3816 91.8269 74.4926 91.7383 74.639C91.6475 74.7796 91.612 74.9353 91.6317 75.1058L90.2107 75.6549L88.763 71.9088L92.7847 70.3545L93.284 71.6463ZM97.4557 70.5983C97.2413 69.9751 97.2592 69.4238 97.5094 68.9444C97.7596 68.4649 98.2091 68.0999 98.8579 67.8491C99.2885 67.6827 99.6848 67.6154 100.047 67.647C100.414 67.6765 100.726 67.7905 100.981 67.9889C101.241 68.1851 101.434 68.444 101.558 68.7655C101.704 69.1444 101.729 69.4911 101.633 69.8054C101.535 70.114 101.376 70.3602 101.156 70.544L101.17 70.5784C101.539 70.561 101.867 70.642 102.154 70.8214C102.442 71.0008 102.662 71.2886 102.815 71.6847C102.952 72.0407 102.991 72.3886 102.931 72.7286C102.875 73.0605 102.718 73.365 102.463 73.6421C102.212 73.9169 101.872 74.1375 101.441 74.3039C100.753 74.5702 100.136 74.6138 99.5916 74.4348C99.0531 74.2536 98.6403 73.8259 98.3533 73.1515L99.7829 72.5991C99.8863 72.8494 100.036 73.0227 100.231 73.1187C100.424 73.209 100.653 73.2031 100.917 73.101C101.141 73.0145 101.289 72.8848 101.361 72.7119C101.436 72.531 101.433 72.3344 101.35 72.1219C101.244 71.8463 101.078 71.6827 100.854 71.6309C100.633 71.5711 100.33 71.6156 99.9453 71.7642L99.6697 71.8707L99.2071 70.6737L99.4827 70.5672C99.7755 70.454 99.992 70.3143 100.132 70.1479C100.276 69.9735 100.298 69.7572 100.198 69.4988C100.118 69.2922 99.9988 69.1536 99.8396 69.0831C99.6804 69.0127 99.5003 69.0163 99.2994 69.0939C99.0812 69.1783 98.9431 69.3075 98.885 69.4817C98.8327 69.6537 98.8357 69.8406 98.8939 70.0425L97.4557 70.5983ZM109.128 65.3155L108.97 71.3352L107.462 71.9177L107.71 66.0516L105.031 67.0866L104.545 65.8293L108.705 64.2218L109.128 65.3155ZM114.084 68.0719L113.625 66.8834L114.842 61.9392L116.487 61.3035L117.958 65.1099L118.664 64.837L119.157 66.1116L118.45 66.3845L118.883 67.504L117.411 68.0731L116.978 66.9536L114.084 68.0719ZM115.743 63.4517L115.142 66.1982L116.589 65.6391L115.743 63.4517Z" fill="white"/>
</g>
<defs>
<clipPath id="clip0_873_3989">
<rect x="0.15625" y="50.7016" width="138.489" height="86.5556" rx="6.92445" transform="rotate(-21.1295 0.15625 50.7016)" fill="white"/>
</clipPath>
<clipPath id="clip1_873_3989">
<rect width="38.326" height="13.8489" fill="white" transform="translate(89.8474 23.463) rotate(-21.1295)"/>
</clipPath>
</defs>
</svg>
