<svg viewBox="0 0 665 492" fill="none" xmlns="http://www.w3.org/2000/svg"><g filter="url(#prefix__filter0_dd_873_3982)"><g clip-path="url(#prefix__clip0_873_3982)"><rect x="405.305" y="159.092" width="138.489" height="86.556" rx="6.924" transform="rotate(-6.13 405.305 159.092)" fill="#0597D2"/><path opacity=".35" d="M531.788 39.885l22.366 208.267-82.905 8.903 60.539-217.17z" fill="#000" fill-opacity=".15"/><path opacity=".35" d="M388.344 265.958l165.81-17.806-7.157-66.646-158.653 84.452z" fill="#000" fill-opacity=".15"/><path d="M426.57 224.496c-.084-.79 0-1.428.254-1.915.259-.487.728-.767 1.407-.84.68-.073 1.195.101 1.547.523.356.421.577 1.027.662 1.816.085.799-.001 1.442-.26 1.929-.254.487-.721.767-1.4.84-.679.073-1.197-.101-1.553-.522-.352-.422-.571-1.032-.657-1.831zm2.713-.291c-.05-.464-.138-.814-.266-1.051-.128-.242-.351-.346-.667-.312-.317.034-.512.183-.586.446-.074.259-.087.62-.037 1.084.034.312.08.569.139.772.058.198.149.355.273.472.128.111.302.155.523.132.22-.024.379-.104.476-.239.1-.141.158-.315.174-.521.014-.21.005-.471-.029-.783zm6.542-2.138l-2.148.231.102.95c.081-.111.201-.207.359-.289.158-.082.334-.133.527-.154.344-.037.637.01.879.142.246.132.435.316.567.552.132.237.214.499.245.789.058.537-.048.98-.317 1.329-.269.345-.679.547-1.23.606a2.316 2.316 0 01-.977-.083 1.5 1.5 0 01-.683-.463 1.524 1.524 0 01-.325-.752l1.15-.124a.642.642 0 00.238.337c.115.08.265.111.448.091.216-.023.369-.109.46-.258.091-.149.124-.339.099-.568-.024-.225-.097-.391-.22-.499-.123-.107-.29-.15-.501-.127a.612.612 0 00-.373.158.51.51 0 00-.168.318l-1.136.122-.322-2.995 3.215-.345.111 1.032zm4.784-3.083l-1.005 8.026-1.136.122 1.005-8.026 1.136-.122zm2.316 5.413a25.418 25.418 0 001.157-1.225c.236-.266.429-.54.58-.821.151-.281.213-.545.186-.793-.02-.188-.079-.33-.178-.427-.098-.096-.235-.135-.409-.116a.496.496 0 00-.392.244c-.082.139-.111.328-.085.567l-1.136.122c-.033-.392.015-.726.143-1.005.132-.279.32-.494.564-.645.248-.152.531-.245.848-.279.546-.059.972.037 1.277.287.31.25.489.6.538 1.05.052.491-.066.966-.356 1.424a7.49 7.49 0 01-1.149 1.363l1.859-.2.103.957-3.456.371-.094-.874zm5.384-.529l-.102-.951 1.841-3.345 1.315-.141.327 3.043.565-.061.109 1.019-.564.061.096.895-1.178.126-.096-.895-2.313.249zm2.099-3.025l-.969 1.873 1.157-.125-.188-1.748z" fill="#fff"/><circle cx="426.091" cy="212.147" r="1.154" transform="rotate(-6.13 426.091 212.147)" fill="#fff"/><circle cx="430.681" cy="211.654" r="1.154" transform="rotate(-6.13 430.681 211.654)" fill="#fff"/><circle cx="435.271" cy="211.161" r="1.154" transform="rotate(-6.13 435.271 211.161)" fill="#fff"/><circle cx="439.861" cy="210.668" r="1.154" transform="rotate(-6.13 439.861 210.668)" fill="#fff"/><circle cx="449.041" cy="209.683" r="1.154" transform="rotate(-6.13 449.041 209.683)" fill="#fff"/><circle cx="453.631" cy="209.19" r="1.154" transform="rotate(-6.13 453.631 209.19)" fill="#fff"/><circle cx="458.221" cy="208.697" r="1.154" transform="rotate(-6.13 458.221 208.697)" fill="#fff"/><circle cx="462.811" cy="208.204" r="1.154" transform="rotate(-6.13 462.811 208.204)" fill="#fff"/><circle cx="471.991" cy="207.218" r="1.154" transform="rotate(-6.13 471.991 207.218)" fill="#fff"/><circle cx="476.581" cy="206.725" r="1.154" transform="rotate(-6.13 476.581 206.725)" fill="#fff"/><circle cx="481.17" cy="206.232" r="1.154" transform="rotate(-6.13 481.17 206.232)" fill="#fff"/><circle cx="485.76" cy="205.739" r="1.154" transform="rotate(-6.13 485.76 205.739)" fill="#fff"/><path d="M494.488 207.115l-.136-1.267 2.455-4.461 1.754-.188.435 4.058.753-.081.146 1.358-.753.081.128 1.194-1.569.168-.129-1.193-3.084.331zm2.798-4.033l-1.291 2.497 1.542-.166-.251-2.331zm6.253 2.996a34.16 34.16 0 001.543-1.633c.315-.356.573-.721.774-1.095.201-.375.284-.727.248-1.057-.027-.251-.106-.441-.237-.569-.132-.129-.314-.18-.546-.155a.656.656 0 00-.522.325c-.11.185-.148.437-.114.755l-1.515.163c-.044-.522.02-.968.191-1.339.176-.372.427-.659.752-.861a2.675 2.675 0 011.13-.372c.728-.078 1.296.05 1.703.384.414.333.653.799.717 1.399.071.655-.087 1.288-.474 1.899-.387.605-.897 1.21-1.532 1.817l2.479-.266.137 1.276-4.608.495-.126-1.166zm7.911-4.443c-.046-.658.114-1.185.48-1.584.366-.398.894-.634 1.586-.709.459-.049.859-.011 1.2.113.348.123.619.314.814.572.201.257.32.557.357.899.043.404-.022.746-.197 1.024-.175.273-.392.47-.651.59l.003.037c.362.079.658.242.889.49.231.247.369.582.414 1.004.041.38-.012.726-.158 1.039-.14.306-.37.559-.689.761-.312.201-.698.326-1.157.375-.735.079-1.341-.039-1.821-.352-.473-.315-.761-.835-.864-1.561l1.524-.163c.035.268.135.474.298.618.164.137.386.19.668.16.238-.025.415-.112.529-.261a.771.771 0 00.143-.572c-.032-.294-.149-.495-.353-.603-.198-.115-.502-.151-.912-.107l-.294.032-.137-1.276.294-.032c.312-.033.557-.112.736-.236.184-.132.261-.335.232-.61-.024-.221-.104-.385-.239-.495-.136-.109-.311-.152-.525-.129-.232.025-.399.114-.5.267a.965.965 0 00-.137.544l-1.533.165zm8.229-1.32l-.157-1.46 2.543-.273.72 6.701-1.634.176-.563-5.242-.909.098z" fill="#fff"/><g clip-path="url(#prefix__clip1_873_3982)" fill="#fff"><path d="M521.572 162.722l-2.324.25.499-9.043 2.324-.249-.499 9.042zM529.065 153.149a5.795 5.795 0 00-2.125-.155c-2.295.246-3.781 1.63-3.605 3.361.118 1.278 1.37 1.861 2.296 2.192.946.338 1.282.589 1.323.977.055.596-.633.948-1.302 1.02-.928.099-1.44.011-2.231-.239l-.321-.109-.111 2.03c.571.187 1.599.297 2.642.194 2.439-.262 3.898-1.623 3.719-3.469-.099-1.012-.804-1.721-2.211-2.21-.856-.32-1.383-.54-1.428-.956-.031-.38.339-.811 1.256-.91.754-.1 1.328.02 1.768.155l.22.071.11-1.952zM532.747 158.338l.661-2.586c-.008.02.135-.541.214-.884l.245.748s.668 2.08.811 2.514l-1.931.208zm2.252-6.046l-1.797.193c-.555.059-.959.265-1.136.867l-2.577 8.52 2.439-.262.344-1.385 2.984-.321c.1.305.42 1.303.42 1.303l2.152-.231-2.829-8.684zM516.353 154.294l-1.625 6.304-.381-1.202c-.573-1.373-2.058-2.772-3.613-3.38l2.919 7.547 2.458-.264 2.699-9.269-2.457.264z"/><path d="M511.964 154.765l-3.739.402-.019.183c2.996.425 5.118 1.995 6.141 4.046l-1.251-3.997c-.195-.553-.623-.669-1.132-.634z"/></g></g></g><defs><clipPath id="prefix__clip0_873_3982"><rect x="405.305" y="159.092" width="138.489" height="86.556" rx="6.924" transform="rotate(-6.13 405.305 159.092)" fill="#fff"/></clipPath><clipPath id="prefix__clip1_873_3982"><path fill="#fff" transform="rotate(-6.13 1701.66 -4668.081)" d="M0 0h28.852v9.233H0z"/></clipPath><filter id="prefix__filter0_dd_873_3982" x="382.223" y="128.148" width="193.102" height="147.011" filterUnits="userSpaceOnUse" color-interpolation-filters="sRGB"><feFlood flood-opacity="0" result="BackgroundImageFix"/><feColorMatrix in="SourceAlpha" values="0 0 0 0 0 0 0 0 0 0 0 0 0 0 0 0 0 0 127 0" result="hardAlpha"/><feOffset dy="6.924"/><feGaussianBlur stdDeviation="11.541"/><feComposite in2="hardAlpha" operator="out"/><feColorMatrix values="0 0 0 0 0.411765 0 0 0 0 0.337255 0 0 0 0 0.215686 0 0 0 0.24 0"/><feBlend in2="BackgroundImageFix" result="effect1_dropShadow_873_3982"/><feColorMatrix in="SourceAlpha" values="0 0 0 0 0 0 0 0 0 0 0 0 0 0 0 0 0 0 127 0" result="hardAlpha"/><feMorphology radius="1.154" in="SourceAlpha" result="effect2_dropShadow_873_3982"/><feOffset dy="2.308"/><feGaussianBlur stdDeviation="1.731"/><feComposite in2="hardAlpha" operator="out"/><feColorMatrix values="0 0 0 0 0 0 0 0 0 0 0 0 0 0 0 0 0 0 0.08 0"/><feBlend in2="effect1_dropShadow_873_3982" result="effect2_dropShadow_873_3982"/><feBlend in="SourceGraphic" in2="effect2_dropShadow_873_3982" result="shape"/></filter></defs></svg>