<svg viewBox="0 0 140 87" fill="none" xmlns="http://www.w3.org/2000/svg"><g clip-path="url(#prefix__clip0_941_2558)"><rect width="140" height="87" rx="7" fill="#0597D2"/><path opacity=".35" d="M138.489-105.021v209.465H55.107l83.382-209.465z" fill="#000" fill-opacity=".15"/><path opacity=".35" d="M-28.275 104.444H138.49V37.415l-166.764 67.029z" fill="#000" fill-opacity=".15"/><path d="M14.16 67.3c0-.794.153-1.42.457-1.876.31-.457.806-.686 1.49-.686.683 0 1.176.229 1.481.686.31.457.464 1.082.464 1.876 0 .804-.155 1.434-.464 1.89-.305.458-.799.686-1.482.686-.683 0-1.18-.228-1.489-.685-.304-.457-.457-1.087-.457-1.89zm2.729 0c0-.466-.051-.824-.153-1.073-.101-.254-.311-.38-.63-.38-.318 0-.528.126-.63.38-.101.25-.152.607-.152 1.073 0 .314.018.575.055.783.037.203.111.37.222.498.115.125.284.187.505.187.222 0 .388-.062.499-.187a.998.998 0 00.228-.498c.037-.208.056-.469.056-.783zm6.733-1.426h-2.16v.956c.092-.102.22-.185.387-.25.166-.064.346-.097.54-.097.346 0 .633.079.859.236.23.157.399.36.505.61.106.248.16.518.16.81 0 .54-.153.969-.457 1.287-.305.314-.735.471-1.288.471-.37 0-.69-.062-.963-.187a1.498 1.498 0 01-.63-.533 1.535 1.535 0 01-.242-.783h1.156a.64.64 0 00.2.36c.107.093.252.139.437.139.217 0 .378-.07.485-.208.106-.138.159-.323.159-.554 0-.226-.055-.399-.166-.519-.111-.12-.273-.18-.485-.18a.615.615 0 00-.388.118.517.517 0 00-.2.297h-1.143v-3.012h3.234v1.039zm5.085-2.555l-1.856 7.873H25.71l1.855-7.873h1.143zm1.725 5.63a25.665 25.665 0 001.281-1.094c.263-.24.485-.492.665-.755.18-.263.27-.52.27-.769 0-.19-.044-.337-.132-.443-.087-.106-.22-.16-.395-.16a.493.493 0 00-.415.201c-.097.13-.145.314-.145.554h-1.143c.01-.392.092-.72.25-.983.161-.263.371-.457.63-.582.263-.124.554-.187.872-.187.55 0 .962.141 1.24.423.281.281.422.648.422 1.1 0 .495-.169.954-.506 1.379-.337.42-.766.83-1.288 1.232h1.87v.963h-3.476v-.88zm5.41.048v-.956l2.188-3.13h1.323v3.061h.567v1.025h-.567v.9h-1.184v-.9h-2.327zm2.41-2.784l-1.164 1.76h1.164v-1.76z" fill="#fff"/><circle cx="15.003" cy="54.971" r="1.154" fill="#fff"/><circle cx="19.619" cy="54.971" r="1.154" fill="#fff"/><circle cx="24.236" cy="54.971" r="1.154" fill="#fff"/><circle cx="28.852" cy="54.971" r="1.154" fill="#fff"/><circle cx="38.084" cy="54.971" r="1.154" fill="#fff"/><circle cx="42.701" cy="54.971" r="1.154" fill="#fff"/><circle cx="47.317" cy="54.971" r="1.154" fill="#fff"/><circle cx="51.933" cy="54.971" r="1.154" fill="#fff"/><circle cx="61.166" cy="54.971" r="1.154" fill="#fff"/><circle cx="65.782" cy="54.971" r="1.154" fill="#fff"/><circle cx="70.398" cy="54.971" r="1.154" fill="#fff"/><circle cx="75.015" cy="54.971" r="1.154" fill="#fff"/><path d="M83.546 57.27v-1.273l2.917-4.173h1.764v4.08h.757v1.367h-.757v1.2h-1.58v-1.2h-3.101zm3.213-3.71l-1.552 2.344h1.552V53.56zm5.897 3.646a34.194 34.194 0 001.708-1.459c.35-.32.646-.655.886-1.006.24-.35.36-.692.36-1.025 0-.252-.058-.449-.175-.59-.117-.142-.292-.213-.526-.213a.658.658 0 00-.554.268c-.13.172-.194.418-.194.739h-1.523c.012-.524.123-.96.332-1.312.215-.35.495-.609.84-.775.35-.166.739-.25 1.163-.25.733 0 1.284.188 1.653.564.375.375.563.865.563 1.468 0 .658-.224 1.27-.674 1.837-.45.56-1.022 1.108-1.717 1.644h2.493v1.283h-4.635v-1.173zm8.34-3.573c.024-.658.24-1.166.646-1.523s.957-.536 1.653-.536c.461 0 .855.08 1.181.24.333.16.582.379.748.656.173.277.259.588.259.932 0 .407-.102.739-.305.998a1.55 1.55 0 01-.711.517v.036c.351.117.628.311.831.582.203.271.305.619.305 1.043 0 .382-.089.72-.268 1.016-.172.29-.428.517-.766.683-.333.166-.73.25-1.191.25-.739 0-1.33-.182-1.773-.545-.437-.363-.668-.911-.692-1.644h1.532c.006.271.083.487.231.647.148.154.363.23.646.23.24 0 .425-.067.554-.203a.766.766 0 00.203-.554c0-.295-.095-.507-.286-.637-.184-.135-.483-.203-.895-.203h-.296v-1.283h.296c.314 0 .566-.052.757-.157.197-.11.295-.305.295-.582 0-.221-.061-.394-.185-.517-.123-.123-.292-.184-.507-.184-.234 0-.41.07-.527.212a.974.974 0 00-.193.526h-1.542zm8.323-.434v-1.468h2.557v6.74h-1.643V53.2h-.914z" fill="#fff"/><g clip-path="url(#prefix__clip1_941_2558)" fill="#fff"><path d="M115.215 16.024h-2.337l1.462-8.938h2.337l-1.462 8.938zM123.687 7.305a5.816 5.816 0 00-2.096-.38c-2.308 0-3.933 1.216-3.943 2.956-.019 1.284 1.164 1.997 2.048 2.425.904.437 1.212.723 1.212 1.113-.009.598-.731.874-1.404.874-.933 0-1.433-.142-2.193-.475l-.307-.143-.327 2.006c.548.247 1.558.466 2.606.476 2.452 0 4.049-1.198 4.068-3.052.009-1.018-.615-1.797-1.962-2.434-.817-.41-1.318-.685-1.318-1.103.01-.38.423-.77 1.346-.77a4.01 4.01 0 011.741.342l.212.095.317-1.93zM126.794 12.858l.933-2.501c-.01.02.192-.523.308-.856l.163.77s.443 2.14.539 2.587h-1.943zm2.885-5.772h-1.808c-.557 0-.981.162-1.221.742l-3.472 8.196h2.452l.491-1.34h3.001c.067.313.278 1.34.278 1.34h2.165l-1.886-8.938zM110.926 7.086l-2.289 6.095-.25-1.236c-.423-1.426-1.75-2.976-3.231-3.746l2.096 7.815h2.472l3.673-8.928h-2.471z"/><path d="M106.511 7.086h-3.76l-.038.181c2.933.742 4.876 2.53 5.674 4.678l-.818-4.107c-.134-.571-.548-.733-1.058-.752z"/></g></g><defs><clipPath id="prefix__clip0_941_2558"><rect width="140" height="87" rx="7" fill="#fff"/></clipPath><clipPath id="prefix__clip1_941_2558"><path fill="#fff" transform="translate(102.713 7)" d="M0 0h28.852v9.233H0z"/></clipPath></defs></svg>