<svg viewBox="0 0 140 87" fill="none" xmlns="http://www.w3.org/2000/svg"><g clip-path="url(#prefix__clip0_941_2557)"><rect width="140" height="87" rx="7" fill="#636363"/><path opacity=".45" d="M138.489-87.133V86.556H69.245l69.244-173.689z" fill="#000" fill-opacity=".15"/><path opacity=".45" d="M0 86.556H138.49v-55.58L0 86.555z" fill="#000" fill-opacity=".15"/><g clip-path="url(#prefix__clip1_941_2557)" fill="#fff"><path d="M95.42 7.665l-1.933 4.49h1.258l.356-.9h2.073l.357.9h1.288l-1.932-4.49H95.42zm.716 1.041l.632 1.57h-1.264l.632-1.57zM98.949 12.151v-4.49l1.79.008 1.038 2.894 1.016-2.902h1.775v4.49h-1.123V8.844l-1.192 3.307h-.985l-1.196-3.307v3.307h-1.123zM105.338 12.151v-4.49h3.668v1.003h-2.53v.77h2.469v.945h-2.472v.796h2.529v.976h-3.664zM109.654 7.665v4.49h1.123V10.56h.471l1.349 1.596h1.372l-1.479-1.653a1.368 1.368 0 001.234-1.378c0-.946-.744-1.455-1.572-1.455l-2.498-.004zm1.123 1.003h1.283c.307 0 .533.241.533.471 0 .299-.291.47-.517.47h-1.299v-.94zM115.33 12.151h-1.146v-4.49h1.146v4.49zM118.051 12.151h-.249c-1.2 0-1.924-.941-1.924-2.223 0-1.313.72-2.263 2.23-2.263h1.242V8.73h-1.284c-.613 0-1.05.479-1.05 1.21 0 .869.498 1.232 1.211 1.232h.295l-.471.98zM120.496 7.665l-1.932 4.486h1.258l.356-.9h2.073l.357.9h1.284l-1.932-4.49-1.464.004zm.713 1.041l.632 1.57h-1.264l.632-1.57zM124.022 12.151v-4.49h1.43l1.824 2.822V7.66h1.123v4.49h-1.384l-1.87-2.893v2.893h-1.123zM101.67 20.006v-4.49h3.668v1.003h-2.53v.77h2.472v.945h-2.472v.796h2.53v.976h-3.668zM119.634 20.006v-4.49h3.667v1.003h-2.529v.77h2.46v.945h-2.46v.796h2.529v.976h-3.667zM105.48 20.006l1.786-2.216-1.828-2.274h1.414l1.088 1.405 1.093-1.405h1.36l-1.805 2.243 1.79 2.243h-1.414l-1.058-1.382-1.031 1.382-1.395.004zM110.512 15.52v4.49h1.154v-1.416h1.184c1 0 1.759-.533 1.759-1.562 0-.854-.594-1.508-1.614-1.508h-2.483v-.004zm1.154 1.014h1.245c.322 0 .556.2.556.517 0 .299-.23.517-.56.517h-1.241v-1.034zM115.092 15.516v4.49h1.123V18.41h.471l1.349 1.596h1.373l-1.48-1.654a1.367 1.367 0 001.234-1.378c0-.945-.743-1.454-1.571-1.454l-2.499-.004zm1.127 1.007h1.284c.306 0 .532.24.532.47 0 .3-.291.471-.517.471h-1.299v-.941zM123.823 20.006v-.976h2.249c.334 0 .476-.18.476-.375 0-.188-.142-.38-.476-.38h-1.015c-.882 0-1.376-.535-1.376-1.343 0-.72.452-1.412 1.763-1.412h2.188l-.471 1.01h-1.893c-.361 0-.472.192-.472.372 0 .187.138.39.414.39h1.066c.985 0 1.41.559 1.41 1.29 0 .785-.475 1.428-1.464 1.428h-2.399v-.004zM127.946 20.006v-.976h2.25c.334 0 .475-.18.475-.375 0-.188-.141-.38-.475-.38h-1.015c-.882 0-1.376-.535-1.376-1.343 0-.72.452-1.412 1.763-1.412h2.188l-.471 1.01h-1.894c-.36 0-.471.192-.471.372 0 .187.138.39.414.39h1.065c.985 0 1.411.559 1.411 1.29 0 .785-.475 1.428-1.464 1.428h-2.4v-.004z"/></g><path d="M14.16 67.3c0-.794.153-1.42.457-1.876.31-.457.806-.686 1.49-.686.683 0 1.176.229 1.481.686.31.457.464 1.082.464 1.876 0 .804-.155 1.434-.464 1.89-.305.458-.799.686-1.482.686-.683 0-1.18-.228-1.489-.685-.304-.457-.457-1.087-.457-1.89zm2.729 0c0-.466-.051-.824-.153-1.073-.101-.254-.311-.38-.63-.38-.318 0-.528.126-.63.38-.101.25-.152.607-.152 1.073 0 .314.018.575.055.783.037.203.111.37.222.498.115.125.284.187.505.187.222 0 .388-.062.499-.187a.998.998 0 00.228-.498c.037-.208.056-.469.056-.783zm6.4-1.572l-1.738 4.17H20.34l1.758-4.038h-2.153v-1.01h3.344v.879zm4.62-2.41l-1.856 7.874h-1.142l1.855-7.873h1.143zm1.725 5.63a25.651 25.651 0 001.281-1.094c.263-.24.485-.491.665-.754.18-.263.27-.52.27-.769 0-.19-.044-.337-.132-.443-.087-.106-.219-.16-.394-.16a.494.494 0 00-.416.201c-.097.13-.145.314-.145.554H29.62c.01-.392.092-.72.25-.983.161-.263.371-.457.63-.582.263-.124.553-.187.872-.187.55 0 .963.141 1.24.423.281.281.422.648.422 1.1 0 .495-.169.954-.506 1.379a7.52 7.52 0 01-1.287 1.232h1.87v.963h-3.477v-.88zm5.424-2.68c.018-.493.18-.874.485-1.142.304-.268.717-.401 1.239-.401.346 0 .642.06.886.18a1.279 1.279 0 01.755 1.19c0 .305-.076.555-.228.748-.153.19-.33.319-.534.388v.028c.264.088.471.233.624.436.152.203.228.464.228.783 0 .286-.067.54-.2.761a1.33 1.33 0 01-.575.513c-.25.124-.547.187-.894.187-.554 0-.997-.137-1.33-.409-.327-.272-.5-.683-.519-1.233h1.15c.005.204.062.365.173.485.11.116.273.173.485.173.18 0 .318-.05.415-.152a.576.576 0 00.153-.415c0-.222-.072-.381-.215-.478-.139-.102-.362-.153-.672-.153h-.221v-.962h.221c.236 0 .425-.04.568-.118.148-.083.222-.228.222-.436a.524.524 0 00-.139-.388.515.515 0 00-.38-.138c-.176 0-.308.053-.395.159a.729.729 0 00-.146.395h-1.156z" fill="#fff"/><circle cx="15.003" cy="54.971" r="1.154" fill="#fff"/><circle cx="19.619" cy="54.971" r="1.154" fill="#fff"/><circle cx="24.236" cy="54.971" r="1.154" fill="#fff"/><circle cx="28.852" cy="54.971" r="1.154" fill="#fff"/><circle cx="38.084" cy="54.971" r="1.154" fill="#fff"/><circle cx="42.701" cy="54.971" r="1.154" fill="#fff"/><circle cx="47.317" cy="54.971" r="1.154" fill="#fff"/><circle cx="51.933" cy="54.971" r="1.154" fill="#fff"/><circle cx="56.55" cy="54.971" r="1.154" fill="#fff"/><circle cx="61.166" cy="54.971" r="1.154" fill="#fff"/><path d="M79.316 53.107h-2.88v1.274c.123-.135.295-.246.517-.332a1.97 1.97 0 01.72-.13c.462 0 .843.105 1.145.314.308.21.532.48.674.813.141.332.212.692.212 1.08 0 .72-.203 1.293-.61 1.717-.405.419-.978.628-1.716.628-.493 0-.92-.083-1.284-.25a1.997 1.997 0 01-.84-.71 2.045 2.045 0 01-.323-1.043h1.542c.037.19.126.35.267.48.142.123.336.184.582.184.29 0 .505-.092.646-.277.142-.184.213-.43.213-.738 0-.302-.074-.533-.222-.693-.148-.16-.363-.24-.646-.24a.82.82 0 00-.517.157.69.69 0 00-.268.397h-1.523v-4.016h4.311v1.385zm4.27.526c.024-.658.24-1.166.646-1.523s.957-.536 1.652-.536c.462 0 .856.08 1.182.24.332.16.582.379.748.656.172.277.259.588.259.932 0 .407-.102.739-.305.998-.203.252-.44.424-.711.517v.036c.35.117.628.311.83.582.204.271.305.619.305 1.043 0 .382-.089.72-.267 1.016a1.77 1.77 0 01-.767.683c-.332.166-.729.25-1.19.25-.74 0-1.33-.182-1.773-.545-.437-.363-.668-.911-.693-1.644h1.533c.006.271.083.487.23.647.148.154.364.23.647.23.24 0 .425-.067.554-.203a.768.768 0 00.203-.554c0-.295-.095-.507-.286-.637-.185-.135-.483-.203-.896-.203h-.295v-1.283h.295c.314 0 .567-.052.757-.157.197-.11.296-.305.296-.582 0-.221-.062-.394-.185-.517s-.292-.184-.508-.184c-.233 0-.409.07-.526.212a.972.972 0 00-.194.526h-1.542zm12.79-.72l-2.317 5.558h-1.615l2.345-5.382h-2.871V51.74h4.459v1.172zm3.631 4.358v-1.274l2.917-4.173h1.764v4.08h.757v1.367h-.757v1.2h-1.579v-1.2h-3.102zm3.213-3.712l-1.551 2.346h1.551v-2.346z" fill="#fff"/></g><defs><clipPath id="prefix__clip0_941_2557"><rect width="140" height="87" rx="6.924" fill="#fff"/></clipPath><clipPath id="prefix__clip1_941_2557"><path fill="#fff" transform="translate(93.48 6.924)" d="M0 0h38.326v13.849H0z"/></clipPath></defs></svg>