<svg viewBox="0 0 665 492" fill="none" xmlns="http://www.w3.org/2000/svg"><path fill="#3B3B7E" fill-opacity=".12" d="M496.978 331.793h108.329v12.935H496.978z"/><path stroke="#3B3B7E" stroke-opacity=".12" stroke-width=".808" d="M497.382 332.198h107.521v12.126H497.382z"/><path fill="#3B3B7E" fill-opacity=".12" d="M453.598 371.977h13.627v12.39h-13.627z"/><path stroke="#3B3B7E" stroke-opacity=".12" stroke-width=".808" d="M454.002 372.382h12.818v11.582h-12.818z"/><path fill="#3B3B7E" fill-opacity=".12" d="M429.069 315.747h5.996v32.882h-5.996z"/><path stroke="#3B3B7E" stroke-opacity=".12" stroke-width=".808" d="M429.474 316.152h5.187v32.073h-5.187z"/><path fill="#3B3B7E" fill-opacity=".12" d="M453.598 392.946h13.627v12.39h-13.627z"/><path stroke="#3B3B7E" stroke-opacity=".12" stroke-width=".808" d="M454.002 393.35h12.818v11.582h-12.818z"/><path fill="#3B3B7E" fill-opacity=".12" d="M453.598 413.915h13.627v12.39h-13.627z"/><path stroke="#3B3B7E" stroke-opacity=".12" stroke-width=".808" d="M454.002 414.319h12.818v11.582h-12.818z"/><path fill="#3B3B7E" fill-opacity=".12" d="M496.978 363h108.329v12.126H496.978z"/><path stroke="#3B3B7E" stroke-opacity=".12" stroke-width=".808" d="M497.382 363h107.521v11.318H497.382z"/><path fill="#3B3B7E" fill-opacity=".12" d="M496.978 394.856h108.329v12.126H496.978z"/><path stroke="#3B3B7E" stroke-opacity=".12" stroke-width=".808" d="M497.382 395.26h107.521v11.318H497.382z"/><mask id="prefix__a" fill="#fff"><path fill-rule="evenodd" clip-rule="evenodd" d="M497.203 300.498h142.866V436.316H497.204v-12.39h126.991V312.889H497.203v-12.391z"/></mask><path fill-rule="evenodd" clip-rule="evenodd" d="M497.203 300.498h142.866V436.316H497.204v-12.39h126.991V312.889H497.203v-12.391z" fill="#3B3B7E" fill-opacity=".12"/><path d="M497.203 300.498v-.808h-.808v.808h.808zm142.866 0h.809v-.808h-.809v.808zm0 123.428h.809-.809zm0 12.39v.809h.809v-.809h-.809zm-142.865 0h-.809v.809h.809v-.809zm0-12.39v-.808h-.809v.808h.809zm126.991 0v.808h.809v-.808h-.809zm0-111.037h.809v-.809h-.809v.809zm-126.992 0h-.808v.808h.808v-.808zm126.992-13.199H497.203v1.617h126.992v-1.617zm0 1.617h15.874v-1.617h-15.874v1.617zm15.066-.809v123.428h1.617V300.498h-1.617zm1.617 135.818v-12.39h-1.617v12.39h1.617zm-143.674.809h142.865v-1.617H497.204v1.617zm-.809-13.199v12.39h1.617v-12.39h-1.617zm127.8-.808H497.204v1.616h126.991v-1.616zm.809.808V312.889h-1.617v111.037h1.617zM497.203 313.697h126.992v-1.617H497.203v1.617zm-.808-13.199v12.391h1.617v-12.391h-1.617z" fill="#3B3B7E" fill-opacity=".12" mask="url(#prefix__a)"/><path style="transform:translateY(-1px)" d="M545.073 431.91H543.591L543.353 432.612H542.34L543.777 428.639H544.898L546.335 432.612H545.311L545.073 431.91ZM544.824 431.163L544.332 429.709L543.845 431.163H544.824ZM548.872 428.639V432.612H547.905V428.639H548.872ZM552.143 432.652C551.852 432.652 551.592 432.604 551.362 432.51C551.132 432.416 550.947 432.276 550.807 432.091C550.671 431.906 550.6 431.684 550.592 431.424H551.622C551.637 431.571 551.688 431.684 551.775 431.763C551.862 431.839 551.975 431.876 552.114 431.876C552.258 431.876 552.371 431.844 552.454 431.78C552.537 431.712 552.578 431.62 552.578 431.503C552.578 431.405 552.545 431.324 552.477 431.259C552.412 431.195 552.331 431.142 552.233 431.101C552.139 431.059 552.003 431.012 551.826 430.96C551.569 430.88 551.36 430.801 551.198 430.722C551.035 430.643 550.896 430.526 550.779 430.371C550.662 430.216 550.603 430.014 550.603 429.765C550.603 429.396 550.737 429.107 551.005 428.9C551.273 428.688 551.622 428.583 552.052 428.583C552.49 428.583 552.843 428.688 553.11 428.9C553.378 429.107 553.522 429.398 553.541 429.771H552.494C552.486 429.643 552.439 429.543 552.352 429.471C552.265 429.396 552.154 429.358 552.018 429.358C551.901 429.358 551.807 429.39 551.735 429.454C551.664 429.515 551.628 429.603 551.628 429.72C551.628 429.848 551.688 429.948 551.809 430.02C551.93 430.092 552.118 430.169 552.375 430.252C552.631 430.339 552.839 430.422 552.997 430.501C553.159 430.58 553.299 430.695 553.416 430.846C553.533 430.997 553.591 431.192 553.591 431.429C553.591 431.656 553.533 431.861 553.416 432.046C553.303 432.231 553.137 432.378 552.918 432.487C552.699 432.597 552.441 432.652 552.143 432.652ZM556.286 431.865H557.554V432.612H555.319V428.639H556.286V431.865ZM560.115 429.415V430.218H561.411V430.965H560.115V431.837H561.581V432.612H559.147V428.639H561.581V429.415H560.115Z" fill="#3B3B7E" fill-opacity="0.65"/><path style="transform:translateY(2.5px)" d="M545.073 336.516H543.591L543.353 337.217H542.34L543.777 333.245H544.898L546.335 337.217H545.311L545.073 336.516ZM544.824 335.769L544.332 334.314L543.845 335.769H544.824ZM548.872 333.245V337.217H547.905V333.245H548.872ZM552.143 337.257C551.852 337.257 551.592 337.21 551.362 337.115C551.132 337.021 550.947 336.882 550.807 336.697C550.671 336.512 550.6 336.289 550.592 336.029H551.622C551.637 336.176 551.688 336.289 551.775 336.368C551.862 336.444 551.975 336.482 552.114 336.482C552.258 336.482 552.371 336.45 552.454 336.385C552.537 336.318 552.578 336.225 552.578 336.108C552.578 336.01 552.545 335.929 552.477 335.865C552.412 335.801 552.331 335.748 552.233 335.706C552.139 335.665 552.003 335.618 551.826 335.565C551.569 335.486 551.36 335.406 551.198 335.327C551.035 335.248 550.896 335.131 550.779 334.976C550.662 334.822 550.603 334.62 550.603 334.371C550.603 334.001 550.737 333.713 551.005 333.505C551.273 333.294 551.622 333.188 552.052 333.188C552.49 333.188 552.843 333.294 553.11 333.505C553.378 333.713 553.522 334.003 553.541 334.376H552.494C552.486 334.248 552.439 334.148 552.352 334.077C552.265 334.001 552.154 333.963 552.018 333.963C551.901 333.963 551.807 333.995 551.735 334.06C551.664 334.12 551.628 334.209 551.628 334.326C551.628 334.454 551.688 334.554 551.809 334.625C551.93 334.697 552.118 334.775 552.375 334.858C552.631 334.944 552.839 335.027 552.997 335.107C553.159 335.186 553.299 335.301 553.416 335.452C553.533 335.603 553.591 335.797 553.591 336.035C553.591 336.261 553.533 336.467 553.416 336.651C553.303 336.836 553.137 336.983 552.918 337.093C552.699 337.202 552.441 337.257 552.143 337.257ZM556.286 336.47H557.554V337.217H555.319V333.245H556.286V336.47ZM560.115 334.02V334.824H561.411V335.571H560.115V336.442H561.581V337.217H559.147V333.245H561.581V334.02H560.115Z" fill="#3B3B7E" fill-opacity="0.65"/><path d="M545.073 308.221h-1.482l-.238.701h-1.013l1.437-3.972h1.121l1.437 3.972h-1.024l-.238-.701zm-.249-.747l-.492-1.455-.487 1.455h.979zm4.048-2.524v3.972h-.967v-3.972h.967zm3.271 4.012c-.291 0-.551-.047-.781-.142a1.292 1.292 0 01-.555-.418 1.16 1.16 0 01-.215-.668h1.03c.015.147.066.26.153.339.087.076.2.114.339.114a.537.537 0 00.34-.097.337.337 0 00.124-.277.319.319 0 00-.101-.243.781.781 0 00-.244-.159 3.83 3.83 0 00-.407-.141 4.428 4.428 0 01-.628-.238 1.15 1.15 0 01-.419-.351c-.117-.154-.176-.356-.176-.605 0-.37.134-.659.402-.866.268-.211.617-.317 1.047-.317.438 0 .791.106 1.058.317.268.207.412.498.431.871h-1.047a.399.399 0 00-.142-.299.489.489 0 00-.334-.114.405.405 0 00-.283.097c-.071.06-.107.149-.107.266 0 .128.06.228.181.299.121.072.309.149.566.232.256.087.464.17.622.249.162.08.302.195.419.346.117.151.175.345.175.583 0 .226-.058.432-.175.616a1.191 1.191 0 01-.498.442 1.72 1.72 0 01-.775.164zm4.143-.787h1.268v.747h-2.235v-3.972h.967v3.225zm3.829-2.45v.804h1.296v.747h-1.296v.871h1.466v.775h-2.434v-3.972h2.434v.775h-1.466zM545.073 369.661h-1.482l-.238.702h-1.013l1.437-3.973h1.121l1.437 3.973h-1.024l-.238-.702zm-.249-.747l-.492-1.454-.487 1.454h.979zm4.048-2.524v3.973h-.967v-3.973h.967zm3.271 4.013c-.291 0-.551-.048-.781-.142a1.294 1.294 0 01-.555-.419 1.156 1.156 0 01-.215-.667h1.03c.015.147.066.26.153.339.087.076.2.113.339.113a.543.543 0 00.34-.096.338.338 0 00.124-.277.322.322 0 00-.101-.244.762.762 0 00-.244-.158 3.582 3.582 0 00-.407-.142 4.44 4.44 0 01-.628-.237 1.15 1.15 0 01-.419-.351c-.117-.155-.176-.357-.176-.606 0-.369.134-.658.402-.865.268-.212.617-.317 1.047-.317.438 0 .791.105 1.058.317.268.207.412.498.431.871h-1.047a.402.402 0 00-.142-.3.493.493 0 00-.334-.113.41.41 0 00-.283.096c-.071.061-.107.149-.107.266 0 .128.06.228.181.3.121.072.309.149.566.232.256.087.464.17.622.249.162.079.302.194.419.345.117.151.175.345.175.583 0 .227-.058.432-.175.617a1.182 1.182 0 01-.498.441c-.219.11-.477.165-.775.165zm4.143-.787h1.268v.747h-2.235v-3.973h.967v3.226zm3.829-2.45v.803h1.296v.747h-1.296v.872h1.466v.775h-2.434v-3.973h2.434v.776h-1.466zM545.073 401.998h-1.482l-.238.702h-1.013l1.437-3.973h1.121l1.437 3.973h-1.024l-.238-.702zm-.249-.747l-.492-1.454-.487 1.454h.979zm4.048-2.524v3.973h-.967v-3.973h.967zm3.271 4.013c-.291 0-.551-.047-.781-.142a1.294 1.294 0 01-.555-.419 1.154 1.154 0 01-.215-.667h1.03c.015.147.066.26.153.339.087.076.2.113.339.113a.543.543 0 00.34-.096.338.338 0 00.124-.277.319.319 0 00-.101-.243.764.764 0 00-.244-.159 3.614 3.614 0 00-.407-.141 4.554 4.554 0 01-.628-.238 1.15 1.15 0 01-.419-.351c-.117-.155-.176-.356-.176-.605 0-.37.134-.659.402-.866.268-.212.617-.317 1.047-.317.438 0 .791.105 1.058.317.268.207.412.498.431.871h-1.047a.402.402 0 00-.142-.3.493.493 0 00-.334-.113.41.41 0 00-.283.096c-.071.061-.107.149-.107.266 0 .129.06.229.181.3.121.072.309.149.566.232.256.087.464.17.622.249.162.079.302.195.419.345.117.151.175.346.175.583 0 .227-.058.432-.175.617a1.191 1.191 0 01-.498.442 1.72 1.72 0 01-.775.164zm4.143-.787h1.268v.747h-2.235v-3.973h.967v3.226zm3.829-2.45v.803h1.296v.747h-1.296v.872h1.466v.775h-2.434v-3.973h2.434v.776h-1.466zM629.92 362.336v-1.482l-.701-.238v-1.013l3.972 1.437v1.121l-3.972 1.437v-1.024l.701-.238zm.747-.249l1.455-.492-1.455-.487v.979zm2.524 4.048h-3.972v-.968h3.972v.968zm-4.012 3.271c0-.291.047-.551.142-.781.094-.231.234-.415.418-.555a1.16 1.16 0 01.668-.215v1.03a.508.508 0 00-.339.153.495.495 0 00-.114.339c0 .144.032.257.097.34.068.083.16.124.277.124a.32.32 0 00.243-.102.765.765 0 00.159-.243 3.83 3.83 0 00.141-.407c.079-.257.159-.466.238-.629.079-.162.196-.301.351-.418.154-.117.356-.176.605-.176.37 0 .659.134.866.402.211.268.317.617.317 1.047 0 .438-.106.79-.317 1.058-.207.268-.498.411-.871.43v-1.047a.394.394 0 00.299-.141.489.489 0 00.114-.334.405.405 0 00-.097-.283c-.06-.072-.149-.107-.265-.107a.331.331 0 00-.3.181c-.072.12-.149.309-.232.566-.087.256-.17.464-.249.622-.08.162-.195.302-.346.419-.151.117-.345.175-.583.175-.226 0-.431-.058-.616-.175a1.191 1.191 0 01-.442-.498 1.72 1.72 0 01-.164-.775zm.787 4.143v1.268h-.747v-2.235h3.972v.967h-3.225zm2.45 3.829h-.803v1.296h-.747v-1.296h-.872v1.466h-.775v-2.434h3.972v2.434h-.775v-1.466zM462.556 379.494l-1.754 1.336h1.754v.967h-3.973v-.967h1.743l-1.743-1.324v-1.138l1.947 1.539 2.026-1.595v1.182zm-2.965-2.712c-.404-.015-.715-.147-.934-.396-.219-.249-.328-.587-.328-1.013 0-.283.049-.524.147-.724a1.044 1.044 0 01.973-.617c.249 0 .453.062.611.187a.94.94 0 01.317.435h.023c.072-.215.19-.384.356-.509.166-.124.379-.187.64-.187.234 0 .441.055.622.164.178.106.317.263.419.47.102.204.153.447.153.73 0 .453-.111.815-.334 1.087-.223.267-.558.409-1.007.424v-.939a.58.58 0 00.396-.142c.094-.09.141-.222.141-.396 0-.147-.041-.26-.124-.34a.471.471 0 00-.34-.124c-.181 0-.311.058-.39.175-.083.114-.125.297-.125.549v.181h-.786v-.181a.955.955 0 00-.097-.464c-.067-.12-.186-.181-.356-.181a.431.431 0 00-.317.113.425.425 0 00-.113.312c0 .143.043.251.13.322a.593.593 0 00.323.119v.945zM462.556 400.513l-1.754 1.336h1.754v.968h-3.973v-.968h1.743l-1.743-1.324v-1.138l1.947 1.54 2.026-1.596v1.182zm-.775-2.644c-.102-.128-.149-.187-.142-.175-.305-.37-.556-.66-.752-.872a3.587 3.587 0 00-.617-.543c-.215-.147-.425-.221-.628-.221a.553.553 0 00-.363.108c-.086.072-.13.179-.13.322 0 .144.055.257.164.34.106.079.257.119.453.119v.933c-.321-.007-.589-.075-.804-.203a1.223 1.223 0 01-.475-.515 1.643 1.643 0 01-.153-.713c0-.449.115-.787.345-1.013.231-.23.531-.345.9-.345.404 0 .779.137 1.126.413.344.275.679.626 1.008 1.052v-1.528h.786v2.841h-.718zM462.556 420.724l-1.754 1.336h1.754v.967h-3.973v-.967h1.743l-1.743-1.325v-1.137l1.947 1.539 2.026-1.596v1.183zm-3.231-2.576h-.9v-1.568h4.131v1.008h-3.231v.56z" fill="#3B3B7E" fill-opacity=".65"/><g opacity=".56" style="animation:move-vertical 10s ease-in-out infinite;animation-delay:-4s"><circle cx="478.5" cy="350.5" r="8.777" fill="#fff" stroke="#E1E0EE" stroke-width=".45" fill-opacity=".5"/><path d="M478.419 350.551c-.425 0-.786-.147-1.082-.441a1.472 1.472 0 01-.446-1.088c0-.425.149-.784.446-1.078a1.478 1.478 0 011.082-.441c.426 0 .787.147 1.083.441.297.294.446.653.446 1.078 0 .431-.149.794-.446 1.088a1.479 1.479 0 01-1.083.441zm-2.878 3.066v-1.097c0-.175.048-.341.145-.497.097-.157.23-.285.398-.385.351-.2.726-.356 1.126-.468.4-.113.803-.169 1.209-.169a4.574 4.574 0 012.335.637c.169.094.302.219.399.376a.939.939 0 01.145.506v1.097h-5.757z" fill="#554B92"/></g><g opacity=".56" style="animation:move-horizontal 10s ease-in-out infinite;animation-delay:-7.5s"><circle cx="512.25" cy="385.5" r="9" fill="#fff" stroke="#E1E0EE" stroke-width=".45" fill-opacity=".5"/><path d="M512.374 385.317c-.426 0-.787-.147-1.083-.442a1.468 1.468 0 01-.446-1.087c0-.425.149-.785.446-1.078a1.479 1.479 0 011.083-.441c.425 0 .786.147 1.082.441.298.293.446.653.446 1.078 0 .431-.148.794-.446 1.087a1.475 1.475 0 01-1.082.442zm-2.879 3.066v-1.097a.93.93 0 01.145-.498c.097-.156.23-.284.399-.384.35-.2.725-.356 1.125-.469.4-.112.803-.168 1.21-.168.412 0 .818.054 1.218.163.401.11.773.268 1.117.474.168.094.301.219.398.375a.942.942 0 01.145.507v1.097h-5.757z" fill="#554B92"/></g><g opacity=".56" style="animation:move-horizontal 10s ease-in-out infinite"><circle cx="580" cy="323" r="9" fill="#fff" stroke="#E1E0EE" stroke-width=".45" fill-opacity=".5"/><path d="M579.711 322.994c-.425 0-.786-.147-1.083-.442a1.467 1.467 0 01-.445-1.087c0-.425.148-.785.445-1.078a1.482 1.482 0 011.083-.441c.425 0 .786.147 1.083.441.297.293.445.653.445 1.078 0 .431-.148.794-.445 1.087a1.479 1.479 0 01-1.083.442zm-2.879 3.065v-1.096a.93.93 0 01.146-.498c.097-.156.229-.284.398-.384.35-.2.725-.356 1.125-.469.4-.112.804-.168 1.21-.168.413 0 .819.054 1.219.163.4.11.772.268 1.116.474.169.094.301.219.398.375a.943.943 0 01.146.507v1.096h-5.758z" fill="#554B92"/></g><defs></defs></svg>