<svg viewBox="0 0 665 492" fill="none" xmlns="http://www.w3.org/2000/svg">
<rect x="496.978" y="331.793" width="108.329" height="12.9349" fill="#3B3B7E" fill-opacity="0.12"/>
<rect x="497.382" y="332.198" width="107.521" height="12.1264" stroke="#3B3B7E" stroke-opacity="0.12" stroke-width="0.808429"/>
<rect x="453.598" y="371.977" width="13.6268" height="12.3902" fill="#3B3B7E" fill-opacity="0.12"/>
<rect x="454.002" y="372.382" width="12.8184" height="11.5818" stroke="#3B3B7E" stroke-opacity="0.12" stroke-width="0.808429"/>
<rect x="429.069" y="315.747" width="5.99579" height="32.8818" fill="#3B3B7E" fill-opacity="0.12"/>
<rect x="429.474" y="316.152" width="5.18736" height="32.0734" stroke="#3B3B7E" stroke-opacity="0.12" stroke-width="0.808429"/>
<rect x="453.598" y="392.946" width="13.6268" height="12.3902" fill="#3B3B7E" fill-opacity="0.12"/>
<rect x="454.002" y="393.35" width="12.8184" height="11.5818" stroke="#3B3B7E" stroke-opacity="0.12" stroke-width="0.808429"/>
<rect x="453.598" y="413.915" width="13.6268" height="12.3902" fill="#3B3B7E" fill-opacity="0.12"/>
<rect x="454.002" y="414.319" width="12.8184" height="11.5818" stroke="#3B3B7E" stroke-opacity="0.12" stroke-width="0.808429"/>
<rect x="496.978" y="363" width="108.329" height="12.1264" fill="#3B3B7E" fill-opacity="0.12"/>
<rect x="497.382" y="363" width="107.521" height="11.318" stroke="#3B3B7E" stroke-opacity="0.12" stroke-width="0.808429"/>
<rect x="496.978" y="394.856" width="108.329" height="12.1264" fill="#3B3B7E" fill-opacity="0.12"/>
<rect x="497.382" y="395.26" width="107.521" height="11.318" stroke="#3B3B7E" stroke-opacity="0.12" stroke-width="0.808429"/>
<mask id="path-15-inside-1_873_3982" fill="white">
<path fill-rule="evenodd" clip-rule="evenodd" d="M497.203 300.498H624.195H640.069L640.069 423.926V436.316H497.204V423.926H624.195V312.889H497.203V300.498Z"/>
</mask>
<path fill-rule="evenodd" clip-rule="evenodd" d="M497.203 300.498H624.195H640.069L640.069 423.926V436.316H497.204V423.926H624.195V312.889H497.203V300.498Z" fill="#3B3B7E" fill-opacity="0.12"/>
<path d="M497.203 300.498V299.69H496.395V300.498H497.203ZM640.069 300.498L640.878 300.498L640.878 299.69H640.069V300.498ZM640.069 423.926L640.878 423.926L640.878 423.926L640.069 423.926ZM640.069 436.316V437.125H640.878V436.316H640.069ZM497.204 436.316H496.395V437.125H497.204V436.316ZM497.204 423.926V423.118H496.395V423.926H497.204ZM624.195 423.926V424.734H625.004V423.926H624.195ZM624.195 312.889H625.004V312.08H624.195V312.889ZM497.203 312.889H496.395V313.697H497.203V312.889ZM624.195 299.69H497.203V301.307H624.195V299.69ZM624.195 301.307H640.069V299.69H624.195V301.307ZM639.261 300.498L639.261 423.926L640.878 423.926L640.878 300.498L639.261 300.498ZM640.878 436.316V423.926H639.261V436.316H640.878ZM497.204 437.125H640.069V435.508H497.204V437.125ZM496.395 423.926V436.316H498.012V423.926H496.395ZM624.195 423.118H497.204V424.734H624.195V423.118ZM625.004 423.926V312.889H623.387V423.926H625.004ZM497.203 313.697H624.195V312.08H497.203V313.697ZM496.395 300.498V312.889H498.012V300.498H496.395Z" fill="#3B3B7E" fill-opacity="0.12" mask="url(#path-15-inside-1_873_3982)"/>
<path d="M545.073 308.221H543.591L543.353 308.922H542.34L543.777 304.95H544.898L546.335 308.922H545.311L545.073 308.221ZM544.824 307.474L544.332 306.019L543.845 307.474H544.824ZM548.872 304.95V308.922H547.905V304.95H548.872ZM552.143 308.962C551.852 308.962 551.592 308.915 551.362 308.82C551.132 308.726 550.947 308.587 550.807 308.402C550.671 308.217 550.6 307.994 550.592 307.734H551.622C551.637 307.881 551.688 307.994 551.775 308.073C551.862 308.149 551.975 308.187 552.114 308.187C552.258 308.187 552.371 308.155 552.454 308.09C552.537 308.023 552.578 307.93 552.578 307.813C552.578 307.715 552.545 307.634 552.477 307.57C552.412 307.506 552.331 307.453 552.233 307.411C552.139 307.37 552.003 307.323 551.826 307.27C551.569 307.191 551.36 307.111 551.198 307.032C551.035 306.953 550.896 306.836 550.779 306.681C550.662 306.527 550.603 306.325 550.603 306.076C550.603 305.706 550.737 305.417 551.005 305.21C551.273 304.999 551.622 304.893 552.052 304.893C552.49 304.893 552.843 304.999 553.11 305.21C553.378 305.417 553.522 305.708 553.541 306.081H552.494C552.486 305.953 552.439 305.853 552.352 305.782C552.265 305.706 552.154 305.668 552.018 305.668C551.901 305.668 551.807 305.7 551.735 305.765C551.664 305.825 551.628 305.914 551.628 306.031C551.628 306.159 551.688 306.259 551.809 306.33C551.93 306.402 552.118 306.479 552.375 306.562C552.631 306.649 552.839 306.732 552.997 306.811C553.159 306.891 553.299 307.006 553.416 307.157C553.533 307.308 553.591 307.502 553.591 307.74C553.591 307.966 553.533 308.172 553.416 308.356C553.303 308.541 553.137 308.688 552.918 308.798C552.699 308.907 552.441 308.962 552.143 308.962ZM556.286 308.175H557.554V308.922H555.319V304.95H556.286V308.175ZM560.115 305.725V306.529H561.411V307.276H560.115V308.147H561.581V308.922H559.147V304.95H561.581V305.725H560.115Z" fill="#3B3B7E" fill-opacity="0.65"/>
<path style="transform:translateY(2.5px)" d="M545.073 336.516H543.591L543.353 337.217H542.34L543.777 333.245H544.898L546.335 337.217H545.311L545.073 336.516ZM544.824 335.769L544.332 334.314L543.845 335.769H544.824ZM548.872 333.245V337.217H547.905V333.245H548.872ZM552.143 337.257C551.852 337.257 551.592 337.21 551.362 337.115C551.132 337.021 550.947 336.882 550.807 336.697C550.671 336.512 550.6 336.289 550.592 336.029H551.622C551.637 336.176 551.688 336.289 551.775 336.368C551.862 336.444 551.975 336.482 552.114 336.482C552.258 336.482 552.371 336.45 552.454 336.385C552.537 336.318 552.578 336.225 552.578 336.108C552.578 336.01 552.545 335.929 552.477 335.865C552.412 335.801 552.331 335.748 552.233 335.706C552.139 335.665 552.003 335.618 551.826 335.565C551.569 335.486 551.36 335.406 551.198 335.327C551.035 335.248 550.896 335.131 550.779 334.976C550.662 334.822 550.603 334.62 550.603 334.371C550.603 334.001 550.737 333.713 551.005 333.505C551.273 333.294 551.622 333.188 552.052 333.188C552.49 333.188 552.843 333.294 553.11 333.505C553.378 333.713 553.522 334.003 553.541 334.376H552.494C552.486 334.248 552.439 334.148 552.352 334.077C552.265 334.001 552.154 333.963 552.018 333.963C551.901 333.963 551.807 333.995 551.735 334.06C551.664 334.12 551.628 334.209 551.628 334.326C551.628 334.454 551.688 334.554 551.809 334.625C551.93 334.697 552.118 334.775 552.375 334.858C552.631 334.944 552.839 335.027 552.997 335.107C553.159 335.186 553.299 335.301 553.416 335.452C553.533 335.603 553.591 335.797 553.591 336.035C553.591 336.261 553.533 336.467 553.416 336.651C553.303 336.836 553.137 336.983 552.918 337.093C552.699 337.202 552.441 337.257 552.143 337.257ZM556.286 336.47H557.554V337.217H555.319V333.245H556.286V336.47ZM560.115 334.02V334.824H561.411V335.571H560.115V336.442H561.581V337.217H559.147V333.245H561.581V334.02H560.115Z" fill="#3B3B7E" fill-opacity="0.65"/>
<path d="M545.073 369.661H543.591L543.353 370.363H542.34L543.777 366.39H544.898L546.335 370.363H545.311L545.073 369.661ZM544.824 368.914L544.332 367.46L543.845 368.914H544.824ZM548.872 366.39V370.363H547.905V366.39H548.872ZM552.143 370.403C551.852 370.403 551.592 370.355 551.362 370.261C551.132 370.167 550.947 370.027 550.807 369.842C550.671 369.657 550.6 369.435 550.592 369.175H551.622C551.637 369.322 551.688 369.435 551.775 369.514C551.862 369.59 551.975 369.627 552.114 369.627C552.258 369.627 552.371 369.595 552.454 369.531C552.537 369.463 552.578 369.371 552.578 369.254C552.578 369.156 552.545 369.075 552.477 369.01C552.412 368.946 552.331 368.893 552.233 368.852C552.139 368.81 552.003 368.763 551.826 368.71C551.569 368.631 551.36 368.552 551.198 368.473C551.035 368.394 550.896 368.277 550.779 368.122C550.662 367.967 550.603 367.765 550.603 367.516C550.603 367.147 550.737 366.858 551.005 366.651C551.273 366.439 551.622 366.334 552.052 366.334C552.49 366.334 552.843 366.439 553.11 366.651C553.378 366.858 553.522 367.149 553.541 367.522H552.494C552.486 367.394 552.439 367.294 552.352 367.222C552.265 367.147 552.154 367.109 552.018 367.109C551.901 367.109 551.807 367.141 551.735 367.205C551.664 367.266 551.628 367.354 551.628 367.471C551.628 367.599 551.688 367.699 551.809 367.771C551.93 367.843 552.118 367.92 552.375 368.003C552.631 368.09 552.839 368.173 552.997 368.252C553.159 368.331 553.299 368.446 553.416 368.597C553.533 368.748 553.591 368.942 553.591 369.18C553.591 369.407 553.533 369.612 553.416 369.797C553.303 369.982 553.137 370.129 552.918 370.238C552.699 370.348 552.441 370.403 552.143 370.403ZM556.286 369.616H557.554V370.363H555.319V366.39H556.286V369.616ZM560.115 367.166V367.969H561.411V368.716H560.115V369.588H561.581V370.363H559.147V366.39H561.581V367.166H560.115Z" fill="#3B3B7E" fill-opacity="0.65"/>
<path d="M545.073 401.998H543.591L543.353 402.7H542.34L543.777 398.727H544.898L546.335 402.7H545.311L545.073 401.998ZM544.824 401.251L544.332 399.797L543.845 401.251H544.824ZM548.872 398.727V402.7H547.905V398.727H548.872ZM552.143 402.74C551.852 402.74 551.592 402.693 551.362 402.598C551.132 402.504 550.947 402.364 550.807 402.179C550.671 401.995 550.6 401.772 550.592 401.512H551.622C551.637 401.659 551.688 401.772 551.775 401.851C551.862 401.927 551.975 401.964 552.114 401.964C552.258 401.964 552.371 401.932 552.454 401.868C552.537 401.8 552.578 401.708 552.578 401.591C552.578 401.493 552.545 401.412 552.477 401.348C552.412 401.283 552.331 401.231 552.233 401.189C552.139 401.148 552.003 401.1 551.826 401.048C551.569 400.968 551.36 400.889 551.198 400.81C551.035 400.731 550.896 400.614 550.779 400.459C550.662 400.304 550.603 400.103 550.603 399.854C550.603 399.484 550.737 399.195 551.005 398.988C551.273 398.776 551.622 398.671 552.052 398.671C552.49 398.671 552.843 398.776 553.11 398.988C553.378 399.195 553.522 399.486 553.541 399.859H552.494C552.486 399.731 552.439 399.631 552.352 399.559C552.265 399.484 552.154 399.446 552.018 399.446C551.901 399.446 551.807 399.478 551.735 399.542C551.664 399.603 551.628 399.691 551.628 399.808C551.628 399.937 551.688 400.037 551.809 400.108C551.93 400.18 552.118 400.257 552.375 400.34C552.631 400.427 552.839 400.51 552.997 400.589C553.159 400.668 553.299 400.784 553.416 400.934C553.533 401.085 553.591 401.28 553.591 401.517C553.591 401.744 553.533 401.949 553.416 402.134C553.303 402.319 553.137 402.466 552.918 402.576C552.699 402.685 552.441 402.74 552.143 402.74ZM556.286 401.953H557.554V402.7H555.319V398.727H556.286V401.953ZM560.115 399.503V400.306H561.411V401.053H560.115V401.925H561.581V402.7H559.147V398.727H561.581V399.503H560.115Z" fill="#3B3B7E" fill-opacity="0.65"/>
<path d="M545.073 431.91H543.591L543.353 432.612H542.34L543.777 428.639H544.898L546.335 432.612H545.311L545.073 431.91ZM544.824 431.163L544.332 429.709L543.845 431.163H544.824ZM548.872 428.639V432.612H547.905V428.639H548.872ZM552.143 432.652C551.852 432.652 551.592 432.604 551.362 432.51C551.132 432.416 550.947 432.276 550.807 432.091C550.671 431.906 550.6 431.684 550.592 431.424H551.622C551.637 431.571 551.688 431.684 551.775 431.763C551.862 431.839 551.975 431.876 552.114 431.876C552.258 431.876 552.371 431.844 552.454 431.78C552.537 431.712 552.578 431.62 552.578 431.503C552.578 431.405 552.545 431.324 552.477 431.259C552.412 431.195 552.331 431.142 552.233 431.101C552.139 431.059 552.003 431.012 551.826 430.96C551.569 430.88 551.36 430.801 551.198 430.722C551.035 430.643 550.896 430.526 550.779 430.371C550.662 430.216 550.603 430.014 550.603 429.765C550.603 429.396 550.737 429.107 551.005 428.9C551.273 428.688 551.622 428.583 552.052 428.583C552.49 428.583 552.843 428.688 553.11 428.9C553.378 429.107 553.522 429.398 553.541 429.771H552.494C552.486 429.643 552.439 429.543 552.352 429.471C552.265 429.396 552.154 429.358 552.018 429.358C551.901 429.358 551.807 429.39 551.735 429.454C551.664 429.515 551.628 429.603 551.628 429.72C551.628 429.848 551.688 429.948 551.809 430.02C551.93 430.092 552.118 430.169 552.375 430.252C552.631 430.339 552.839 430.422 552.997 430.501C553.159 430.58 553.299 430.695 553.416 430.846C553.533 430.997 553.591 431.192 553.591 431.429C553.591 431.656 553.533 431.861 553.416 432.046C553.303 432.231 553.137 432.378 552.918 432.487C552.699 432.597 552.441 432.652 552.143 432.652ZM556.286 431.865H557.554V432.612H555.319V428.639H556.286V431.865ZM560.115 429.415V430.218H561.411V430.965H560.115V431.837H561.581V432.612H559.147V428.639H561.581V429.415H560.115Z" style="transform:translateY(-1px)" fill="#3B3B7E" fill-opacity="0.65"/>
<path d="M629.92 362.336L629.92 360.854L629.219 360.616L629.219 359.603L633.191 361.04L633.191 362.161L629.219 363.598L629.219 362.574L629.92 362.336ZM630.667 362.087L632.122 361.595L630.667 361.108L630.667 362.087ZM633.191 366.135L629.219 366.135L629.219 365.167L633.191 365.167L633.191 366.135ZM629.179 369.406C629.179 369.115 629.226 368.855 629.321 368.625C629.415 368.394 629.555 368.21 629.739 368.07C629.924 367.934 630.147 367.863 630.407 367.855L630.407 368.885C630.26 368.9 630.147 368.951 630.068 369.038C629.992 369.124 629.954 369.238 629.954 369.377C629.954 369.521 629.986 369.634 630.051 369.717C630.119 369.8 630.211 369.841 630.328 369.841C630.426 369.841 630.507 369.807 630.571 369.739C630.635 369.675 630.688 369.594 630.73 369.496C630.771 369.402 630.818 369.266 630.871 369.089C630.95 368.832 631.03 368.623 631.109 368.46C631.188 368.298 631.305 368.159 631.46 368.042C631.614 367.925 631.816 367.866 632.065 367.866C632.435 367.866 632.724 368 632.931 368.268C633.142 368.536 633.248 368.885 633.248 369.315C633.248 369.753 633.142 370.105 632.931 370.373C632.724 370.641 632.433 370.784 632.06 370.803L632.06 369.756C632.188 369.749 632.288 369.702 632.359 369.615C632.435 369.528 632.473 369.417 632.473 369.281C632.473 369.164 632.441 369.07 632.376 368.998C632.316 368.926 632.227 368.891 632.111 368.891C631.982 368.891 631.882 368.951 631.811 369.072C631.739 369.192 631.662 369.381 631.579 369.638C631.492 369.894 631.409 370.102 631.33 370.26C631.25 370.422 631.135 370.562 630.984 370.679C630.833 370.796 630.639 370.854 630.401 370.854C630.175 370.854 629.97 370.796 629.785 370.679C629.6 370.566 629.453 370.4 629.343 370.181C629.234 369.962 629.179 369.704 629.179 369.406ZM629.966 373.549L629.966 374.817L629.219 374.817L629.219 372.582L633.191 372.582L633.191 373.549L629.966 373.549ZM632.416 377.378L631.613 377.378L631.613 378.674L630.866 378.674L630.866 377.378L629.994 377.378L629.994 378.844L629.219 378.844L629.219 376.41L633.191 376.41L633.191 378.844L632.416 378.844L632.416 377.378Z" fill="#3B3B7E" fill-opacity="0.65"/>
<path d="M462.556 379.494L460.802 380.83L462.556 380.83L462.556 381.797L458.583 381.797L458.583 380.83L460.326 380.83L458.583 379.506L458.583 378.368L460.53 379.907L462.556 378.312L462.556 379.494ZM459.591 376.782C459.187 376.767 458.876 376.635 458.657 376.386C458.438 376.137 458.329 375.799 458.329 375.373C458.329 375.09 458.378 374.849 458.476 374.649C458.574 374.445 458.708 374.292 458.878 374.19C459.047 374.085 459.238 374.032 459.449 374.032C459.698 374.032 459.902 374.094 460.06 374.219C460.215 374.343 460.321 374.488 460.377 374.654L460.4 374.654C460.472 374.439 460.59 374.27 460.756 374.145C460.922 374.021 461.135 373.958 461.396 373.958C461.63 373.958 461.837 374.013 462.018 374.122C462.196 374.228 462.335 374.385 462.437 374.592C462.539 374.796 462.59 375.039 462.59 375.322C462.59 375.775 462.479 376.137 462.256 376.409C462.033 376.676 461.698 376.818 461.249 376.833L461.249 375.894C461.415 375.89 461.547 375.843 461.645 375.752C461.739 375.662 461.786 375.53 461.786 375.356C461.786 375.209 461.745 375.096 461.662 375.016C461.575 374.933 461.462 374.892 461.322 374.892C461.141 374.892 461.011 374.95 460.932 375.067C460.849 375.181 460.807 375.364 460.807 375.616L460.807 375.797L460.021 375.797L460.021 375.616C460.021 375.424 459.989 375.269 459.924 375.152C459.857 375.032 459.738 374.971 459.568 374.971C459.432 374.971 459.327 375.009 459.251 375.084C459.176 375.16 459.138 375.264 459.138 375.396C459.138 375.539 459.181 375.647 459.268 375.718C459.355 375.786 459.462 375.826 459.591 375.837L459.591 376.782Z" fill="#3B3B7E" fill-opacity="0.65"/>
<path d="M462.556 400.513L460.802 401.849L462.556 401.849L462.556 402.817L458.583 402.817L458.583 401.849L460.326 401.849L458.583 400.525L458.583 399.387L460.53 400.927L462.556 399.331L462.556 400.513ZM461.781 397.869C461.679 397.741 461.632 397.682 461.639 397.694C461.334 397.324 461.083 397.034 460.887 396.822C460.69 396.607 460.485 396.426 460.27 396.279C460.055 396.132 459.845 396.058 459.642 396.058C459.487 396.058 459.366 396.094 459.279 396.166C459.193 396.238 459.149 396.345 459.149 396.488C459.149 396.632 459.204 396.745 459.313 396.828C459.419 396.907 459.57 396.947 459.766 396.947L459.766 397.88C459.445 397.873 459.177 397.805 458.962 397.677C458.747 397.545 458.589 397.373 458.487 397.162C458.385 396.947 458.334 396.709 458.334 396.449C458.334 396 458.449 395.662 458.679 395.436C458.91 395.206 459.21 395.091 459.579 395.091C459.983 395.091 460.358 395.228 460.705 395.504C461.049 395.779 461.384 396.13 461.713 396.556L461.713 395.028L462.499 395.028L462.499 397.869L461.781 397.869Z" fill="#3B3B7E" fill-opacity="0.65"/>
<path d="M462.556 420.724L460.802 422.06L462.556 422.06L462.556 423.027L458.583 423.027L458.583 422.06L460.326 422.06L458.583 420.735L458.583 419.598L460.53 421.137L462.556 419.541L462.556 420.724ZM459.325 418.148L458.425 418.148L458.425 416.58L462.556 416.58L462.556 417.588L459.325 417.588L459.325 418.148Z" fill="#3B3B7E" fill-opacity="0.65"/>
<g id="person-3" opacity="0.56">
<circle cx="478.5" cy="350.5" width="18" height="18" r="8.77653" fill="white" stroke="#E1E0EE" stroke-width="0.45"  fill-opacity="0.5"/>
<path d="M478.419 350.551C477.994 350.551 477.633 350.404 477.337 350.11C477.04 349.816 476.891 349.453 476.891 349.022C476.891 348.597 477.04 348.238 477.337 347.944C477.633 347.65 477.994 347.503 478.419 347.503C478.845 347.503 479.206 347.65 479.502 347.944C479.799 348.238 479.948 348.597 479.948 349.022C479.948 349.453 479.799 349.816 479.502 350.11C479.206 350.404 478.845 350.551 478.419 350.551ZM475.541 353.617L475.541 352.52C475.541 352.345 475.589 352.179 475.686 352.023C475.783 351.866 475.916 351.738 476.084 351.638C476.435 351.438 476.81 351.282 477.21 351.17C477.61 351.057 478.013 351.001 478.419 351.001C478.832 351.001 479.238 351.055 479.638 351.165C480.039 351.274 480.411 351.432 480.754 351.638C480.923 351.732 481.056 351.857 481.153 352.014C481.25 352.17 481.298 352.338 481.298 352.52L481.298 353.617L475.541 353.617Z" fill="#554B92"/>
</g>
<g id="person-2" opacity="0.56">
<circle cx="512.25" cy="385.5" width="18" height="18" r="9" fill="white" stroke="#E1E0EE" stroke-width="0.45" fill-opacity="0.5"/>
<path d="M512.374 385.317C511.948 385.317 511.587 385.17 511.291 384.875C510.994 384.582 510.845 384.219 510.845 383.788C510.845 383.363 510.994 383.003 511.291 382.71C511.587 382.416 511.948 382.269 512.374 382.269C512.799 382.269 513.16 382.416 513.456 382.71C513.754 383.003 513.902 383.363 513.902 383.788C513.902 384.219 513.754 384.582 513.456 384.875C513.16 385.17 512.799 385.317 512.374 385.317ZM509.495 388.383L509.495 387.286C509.495 387.11 509.543 386.945 509.64 386.788C509.737 386.632 509.87 386.504 510.039 386.404C510.389 386.204 510.764 386.048 511.164 385.935C511.564 385.823 511.967 385.767 512.374 385.767C512.786 385.767 513.192 385.821 513.592 385.93C513.993 386.04 514.365 386.198 514.709 386.404C514.877 386.498 515.01 386.623 515.107 386.779C515.204 386.935 515.252 387.104 515.252 387.286L515.252 388.383L509.495 388.383Z" fill="#554B92"/>
</g>
<g id="person-1" opacity="0.56">
<circle cx="580" cy="323" width="18" height="18" r="9" fill="white" stroke="#E1E0EE" stroke-width="0.45" fill-opacity="0.5"/>
<path d="M579.711 322.994C579.286 322.994 578.925 322.847 578.628 322.552C578.331 322.259 578.183 321.896 578.183 321.465C578.183 321.04 578.331 320.68 578.628 320.387C578.925 320.093 579.286 319.946 579.711 319.946C580.136 319.946 580.497 320.093 580.794 320.387C581.091 320.68 581.239 321.04 581.239 321.465C581.239 321.896 581.091 322.259 580.794 322.552C580.497 322.847 580.136 322.994 579.711 322.994ZM576.832 326.059L576.832 324.963C576.832 324.787 576.881 324.622 576.978 324.465C577.075 324.309 577.207 324.181 577.376 324.081C577.726 323.881 578.101 323.725 578.501 323.612C578.901 323.5 579.305 323.444 579.711 323.444C580.124 323.444 580.53 323.498 580.93 323.607C581.33 323.717 581.702 323.875 582.046 324.081C582.215 324.175 582.347 324.3 582.444 324.456C582.541 324.612 582.59 324.781 582.59 324.963L582.59 326.059L576.832 326.059Z" fill="#554B92"/>
</g>
</svg>
