<svg width="236" height="137" fill="none" xmlns="http://www.w3.org/2000/svg"><path fill="#3B3B7E" fill-opacity=".12" d="M67.978 31.793h108.329v12.935H67.978z"/><path stroke="#3B3B7E" stroke-opacity=".12" stroke-width=".808" d="M68.382 32.198h107.521v12.126H68.382z"/><path fill="#3B3B7E" fill-opacity=".12" d="M24.598 71.977h13.627v12.39H24.598z"/><path stroke="#3B3B7E" stroke-opacity=".12" stroke-width=".808" d="M25.002 72.382H37.82v11.582H25.002z"/><path fill="#3B3B7E" fill-opacity=".12" d="M.069 15.747h5.996v32.882H.069z"/><path stroke="#3B3B7E" stroke-opacity=".12" stroke-width=".808" d="M.474 16.152h5.187v32.073H.474z"/><path fill="#3B3B7E" fill-opacity=".12" d="M24.598 92.946h13.627v12.39H24.598z"/><path stroke="#3B3B7E" stroke-opacity=".12" stroke-width=".808" d="M25.002 93.35H37.82v11.582H25.002z"/><path fill="#3B3B7E" fill-opacity=".12" d="M24.598 113.915h13.627v12.39H24.598z"/><path stroke="#3B3B7E" stroke-opacity=".12" stroke-width=".808" d="M25.002 114.319H37.82v11.582H25.002z"/><path fill="#3B3B7E" fill-opacity=".12" d="M67.978 63.729h108.329v12.126H67.978z"/><path stroke="#3B3B7E" stroke-opacity=".12" stroke-width=".808" d="M68.382 64.133h107.521v11.318H68.382z"/><path fill="#3B3B7E" fill-opacity=".12" d="M67.978 94.856h108.329v12.126H67.978z"/><path stroke="#3B3B7E" stroke-opacity=".12" stroke-width=".808" d="M68.382 95.26h107.521v11.318H68.382z"/><mask id="prefix__a" fill="#fff"><path fill-rule="evenodd" clip-rule="evenodd" d="M68.203.498H211.07V136.316H68.204v-12.39h126.991V12.889H68.203V.499z"/></mask><path fill-rule="evenodd" clip-rule="evenodd" d="M68.203.498H211.07V136.316H68.204v-12.39h126.991V12.889H68.203V.499z" fill="#3B3B7E" fill-opacity=".12"/><path d="M68.203.498V-.31h-.808v.808h.808zm142.866 0h.809V-.31h-.809v.808zm0 123.428h.809-.809zm0 12.39v.809h.809v-.809h-.809zm-142.865 0h-.809v.809h.809v-.809zm0-12.39v-.808h-.809v.808h.809zm126.991 0v.808h.809v-.808h-.809zm0-111.037h.809v-.809h-.809v.809zm-126.992 0h-.808v.808h.808v-.808zM195.195-.31H68.203v1.617h126.992V-.31zm0 1.617h15.874V-.31h-15.874v1.617zm15.066-.809v123.428h1.617V.498h-1.617zm1.617 135.818v-12.39h-1.617v12.39h1.617zm-143.674.809h142.865v-1.617H68.204v1.617zm-.809-13.199v12.39h1.617v-12.39h-1.617zm127.8-.808H68.204v1.616h126.991v-1.616zm.809.808V12.889h-1.617v111.037h1.617zM68.204 13.697h126.991V12.08H68.203v1.617zM67.393.498v12.39h1.618V.499h-1.617z" fill="#3B3B7E" fill-opacity=".12" mask="url(#prefix__a)"/><path d="M116.073 8.22h-1.482l-.238.702h-1.013l1.437-3.972h1.121l1.437 3.972h-1.024l-.238-.701zm-.249-.746l-.492-1.455-.487 1.455h.979zm4.048-2.524v3.972h-.967V4.95h.967zm3.271 4.012c-.291 0-.551-.047-.781-.142a1.297 1.297 0 01-.555-.418 1.157 1.157 0 01-.215-.668h1.03a.51.51 0 00.153.34c.087.075.2.113.339.113a.542.542 0 00.34-.097.339.339 0 00.124-.277.32.32 0 00-.101-.243.77.77 0 00-.244-.159 3.664 3.664 0 00-.407-.141 4.432 4.432 0 01-.628-.238 1.155 1.155 0 01-.419-.35c-.117-.155-.176-.357-.176-.606 0-.37.134-.659.402-.866.268-.211.617-.317 1.047-.317.438 0 .791.106 1.058.317.268.207.412.498.431.871h-1.047a.401.401 0 00-.142-.3.49.49 0 00-.334-.113.409.409 0 00-.283.097c-.071.06-.107.149-.107.266 0 .128.06.228.181.3.121.071.309.148.566.231.256.087.464.17.622.25.162.079.302.194.419.345.117.15.175.345.175.583 0 .226-.058.432-.175.616a1.187 1.187 0 01-.498.442c-.219.11-.477.164-.775.164zm4.143-.787h1.268v.747h-2.235V4.95h.967v3.225zm3.829-2.45v.804h1.296v.747h-1.296v.871h1.466v.775h-2.434V4.95h2.434v.775h-1.466zM116.073 39.798h-1.482l-.238.702h-1.013l1.437-3.973h1.121l1.437 3.973h-1.024l-.238-.702zm-.249-.747l-.492-1.454-.487 1.454h.979zm4.048-2.524V40.5h-.967v-3.973h.967zm3.271 4.013a2.04 2.04 0 01-.781-.142 1.297 1.297 0 01-.555-.419 1.158 1.158 0 01-.215-.667h1.03a.51.51 0 00.153.34c.087.075.2.112.339.112a.542.542 0 00.34-.096.339.339 0 00.124-.277.32.32 0 00-.101-.243.77.77 0 00-.244-.159 3.663 3.663 0 00-.407-.141 4.444 4.444 0 01-.628-.238 1.155 1.155 0 01-.419-.351c-.117-.155-.176-.356-.176-.605 0-.37.134-.659.402-.866.268-.212.617-.317 1.047-.317.438 0 .791.105 1.058.317.268.207.412.498.431.871h-1.047a.401.401 0 00-.142-.3.49.49 0 00-.334-.113.409.409 0 00-.283.096c-.071.06-.107.15-.107.266 0 .129.06.229.181.3.121.072.309.15.566.232.256.087.464.17.622.25.162.078.302.194.419.344.117.151.175.346.175.583 0 .227-.058.432-.175.617a1.187 1.187 0 01-.498.442c-.219.109-.477.164-.775.164zm4.143-.787h1.268v.747h-2.235v-3.973h.967v3.226zm3.829-2.45v.803h1.296v.747h-1.296v.872h1.466v.775h-2.434v-3.973h2.434v.776h-1.466zM116.073 71.298h-1.482l-.238.702h-1.013l1.437-3.973h1.121L117.335 72h-1.024l-.238-.702zm-.249-.747l-.492-1.454-.487 1.454h.979zm4.048-2.524V72h-.967v-3.973h.967zm3.271 4.013a2.04 2.04 0 01-.781-.142 1.297 1.297 0 01-.555-.419 1.158 1.158 0 01-.215-.667h1.03a.51.51 0 00.153.34c.087.075.2.112.339.112a.542.542 0 00.34-.096.339.339 0 00.124-.277.32.32 0 00-.101-.244.77.77 0 00-.244-.158 3.663 3.663 0 00-.407-.141 4.444 4.444 0 01-.628-.238 1.155 1.155 0 01-.419-.351c-.117-.155-.176-.356-.176-.606 0-.37.134-.658.402-.865.268-.212.617-.317 1.047-.317.438 0 .791.105 1.058.317.268.207.412.498.431.871h-1.047a.401.401 0 00-.142-.3.49.49 0 00-.334-.113.409.409 0 00-.283.096c-.071.06-.107.15-.107.266 0 .129.06.228.181.3.121.072.309.15.566.232.256.087.464.17.622.25.162.078.302.194.419.344.117.151.175.346.175.583 0 .227-.058.432-.175.617a1.187 1.187 0 01-.498.442c-.219.109-.477.164-.775.164zm4.143-.787h1.268V72h-2.235v-3.973h.967v3.226zm3.829-2.45v.803h1.296v.747h-1.296v.872h1.466V72h-2.434v-3.973h2.434v.776h-1.466zM116.073 101.998h-1.482l-.238.702h-1.013l1.437-3.972h1.121l1.437 3.972h-1.024l-.238-.702zm-.249-.747l-.492-1.454-.487 1.454h.979zm4.048-2.523v3.972h-.967v-3.972h.967zm3.271 4.012c-.291 0-.551-.047-.781-.142a1.294 1.294 0 01-.555-.419 1.154 1.154 0 01-.215-.667h1.03c.015.147.066.26.153.339.087.076.2.113.339.113a.543.543 0 00.34-.096.338.338 0 00.124-.277.319.319 0 00-.101-.243.764.764 0 00-.244-.159 3.614 3.614 0 00-.407-.141 4.554 4.554 0 01-.628-.238 1.15 1.15 0 01-.419-.351c-.117-.155-.176-.356-.176-.605 0-.37.134-.659.402-.866.268-.212.617-.317 1.047-.317.438 0 .791.105 1.058.317.268.207.412.498.431.871h-1.047a.401.401 0 00-.142-.3.491.491 0 00-.334-.113.41.41 0 00-.283.096c-.071.06-.107.15-.107.266 0 .129.06.229.181.3.121.072.309.149.566.232.256.087.464.17.622.249.162.079.302.195.419.345.117.151.175.346.175.583 0 .227-.058.432-.175.617a1.191 1.191 0 01-.498.442 1.72 1.72 0 01-.775.164zm4.143-.787h1.268v.747h-2.235v-3.972h.967v3.225zm3.829-2.45v.803h1.296v.747h-1.296v.872h1.466v.775h-2.434v-3.972h2.434v.775h-1.466zM116.073 131.91h-1.482l-.238.702h-1.013l1.437-3.973h1.121l1.437 3.973h-1.024l-.238-.702zm-.249-.747l-.492-1.454-.487 1.454h.979zm4.048-2.524v3.973h-.967v-3.973h.967zm3.271 4.013c-.291 0-.551-.048-.781-.142a1.294 1.294 0 01-.555-.419 1.156 1.156 0 01-.215-.667h1.03c.015.147.066.26.153.339.087.076.2.113.339.113a.543.543 0 00.34-.096.338.338 0 00.124-.277.322.322 0 00-.101-.244.762.762 0 00-.244-.158 3.423 3.423 0 00-.407-.141 4.554 4.554 0 01-.628-.238 1.15 1.15 0 01-.419-.351c-.117-.155-.176-.357-.176-.606 0-.369.134-.658.402-.865.268-.212.617-.317 1.047-.317.438 0 .791.105 1.058.317.268.207.412.498.431.871h-1.047a.402.402 0 00-.142-.3.493.493 0 00-.334-.113.41.41 0 00-.283.096c-.071.061-.107.149-.107.266 0 .128.06.228.181.3.121.072.309.149.566.232.256.087.464.17.622.249.162.079.302.194.419.345.117.151.175.346.175.583 0 .227-.058.432-.175.617a1.182 1.182 0 01-.498.441c-.219.11-.477.165-.775.165zm4.143-.787h1.268v.747h-2.235v-3.973h.967v3.226zm3.829-2.45v.803h1.296v.747h-1.296v.872h1.466v.775h-2.434v-3.973h2.434v.776h-1.466zM200.92 62.336v-1.483l-.701-.237v-1.013l3.972 1.437v1.12l-3.972 1.438v-1.024l.701-.238zm.747-.249l1.455-.492-1.455-.487v.98zm2.524 4.048h-3.972v-.968h3.972v.968zm-4.012 3.27c0-.29.047-.55.142-.78.094-.23.234-.415.418-.555.185-.136.408-.207.668-.215v1.03a.51.51 0 00-.339.153.497.497 0 00-.114.34c0 .143.032.256.097.339.068.083.16.124.277.124a.32.32 0 00.243-.102.766.766 0 00.159-.243c.041-.094.088-.23.141-.407.079-.257.159-.466.238-.629.079-.162.196-.301.351-.418.154-.117.356-.176.605-.176.37 0 .659.134.866.402.211.268.317.617.317 1.047 0 .438-.106.79-.317 1.058-.207.268-.498.411-.871.43v-1.047a.397.397 0 00.299-.141.488.488 0 00.114-.334.405.405 0 00-.097-.283c-.06-.072-.149-.107-.265-.107-.129 0-.229.06-.3.18-.072.121-.149.31-.232.567a5.12 5.12 0 01-.249.622c-.08.162-.195.302-.346.419-.151.117-.345.175-.583.175-.226 0-.431-.058-.616-.175a1.194 1.194 0 01-.442-.498 1.72 1.72 0 01-.164-.775zm.787 4.144v1.268h-.747v-2.235h3.972v.967h-3.225zm2.45 3.829h-.803v1.296h-.747v-1.296h-.872v1.466h-.775V76.41h3.972v2.434h-.775v-1.466zM33.556 79.494l-1.754 1.336h1.754v.968h-3.973v-.968h1.743l-1.743-1.324v-1.138l1.947 1.54 2.026-1.597v1.183zm-2.965-2.712c-.404-.015-.715-.147-.934-.396-.219-.249-.328-.587-.328-1.013 0-.283.049-.524.147-.724a1.044 1.044 0 01.973-.617c.25 0 .453.062.611.187.155.124.26.27.317.435h.023c.072-.215.19-.385.356-.509.166-.124.38-.187.64-.187.234 0 .441.055.622.164.178.106.317.263.42.47.1.204.152.447.152.73 0 .453-.111.815-.334 1.087-.223.267-.558.409-1.007.424v-.94a.581.581 0 00.396-.14c.094-.091.141-.223.141-.397 0-.147-.041-.26-.124-.34a.471.471 0 00-.34-.124c-.18 0-.311.059-.39.175-.083.114-.125.297-.125.55v.18h-.786v-.18a.965.965 0 00-.097-.465c-.067-.12-.186-.18-.356-.18a.429.429 0 00-.317.112.42.42 0 00-.113.312c0 .143.043.25.13.322a.597.597 0 00.323.12v.944zM33.556 100.513l-1.754 1.336h1.754v.968h-3.973v-.968h1.743l-1.743-1.324v-1.138l1.947 1.54 2.026-1.596v1.182zm-.775-2.644a20.786 20.786 0 00-.894-1.047 3.558 3.558 0 00-.617-.543c-.215-.147-.425-.22-.628-.22a.553.553 0 00-.363.107c-.086.072-.13.179-.13.322 0 .144.055.257.164.34.106.08.257.119.453.119v.933c-.32-.007-.588-.075-.804-.203a1.221 1.221 0 01-.475-.515 1.644 1.644 0 01-.153-.713c0-.45.115-.787.346-1.013.23-.23.53-.345.9-.345.403 0 .778.137 1.125.413.344.275.68.626 1.008 1.052v-1.528h.786v2.841h-.718zM33.556 120.724l-1.754 1.336h1.754v.967h-3.973v-.967h1.743l-1.743-1.325v-1.137l1.947 1.539 2.026-1.596v1.183zm-3.231-2.576h-.9v-1.568h4.13v1.008h-3.23v.56z" fill="#3B3B7E" fill-opacity=".65"/><g opacity=".56" style="animation:move-vertical 10s ease-in-out infinite;animation-delay:-4s"><rect x="40.476" y="41.705" width="17.553" height="17.553" rx="8.777" fill="#fff" fill-opacity=".5"/><rect x="40.476" y="41.705" width="17.553" height="17.553" rx="8.777" stroke="#E1E0EE" stroke-width=".45"/><path d="M49.42 50.55a1.48 1.48 0 01-1.083-.44 1.469 1.469 0 01-.446-1.088c0-.425.148-.784.446-1.078.296-.294.657-.44 1.082-.44.426 0 .787.146 1.083.44.297.294.446.653.446 1.078 0 .431-.149.794-.446 1.088a1.481 1.481 0 01-1.083.44zm-2.88 3.067V52.52c0-.175.05-.341.146-.498.097-.155.23-.284.398-.384.35-.2.726-.356 1.126-.468.4-.113.803-.17 1.21-.17a4.604 4.604 0 012.334.638c.17.094.302.22.399.376a.942.942 0 01.145.506v1.097h-5.757z" fill="#554B92"/></g><g opacity=".56" style="animation:move-horizontal 10s ease-in-out infinite;animation-delay:-7.5s"><rect x="74.43" y="76.47" width="17.553" height="17.553" rx="8.777" fill="#fff" fill-opacity=".5"/><rect x="74.43" y="76.47" width="17.553" height="17.553" rx="8.777" stroke="#E1E0EE" stroke-width=".45"/><path d="M83.374 85.317c-.426 0-.787-.147-1.083-.441a1.469 1.469 0 01-.446-1.088c0-.425.149-.784.446-1.078.296-.294.657-.44 1.083-.44.425 0 .786.146 1.083.44.297.294.445.653.445 1.078 0 .431-.148.794-.445 1.088a1.481 1.481 0 01-1.083.44zm-2.88 3.066v-1.097c0-.176.05-.341.146-.498.097-.156.23-.284.399-.384.35-.2.725-.356 1.125-.469.4-.112.803-.168 1.21-.168a4.608 4.608 0 012.335.637c.168.094.301.219.398.375a.942.942 0 01.145.507v1.096h-5.757z" fill="#554B92"/></g><g opacity=".56" style="animation:move-horizontal 10s ease-in-out infinite"><rect x="141.767" y="14.147" width="17.553" height="17.553" rx="8.777" fill="#fff" fill-opacity=".5"/><rect x="141.767" y="14.147" width="17.553" height="17.553" rx="8.777" stroke="#E1E0EE" stroke-width=".45"/><path d="M150.711 22.994c-.425 0-.786-.148-1.083-.442a1.469 1.469 0 01-.445-1.087c0-.425.148-.785.445-1.078.297-.294.658-.44 1.083-.44.425 0 .786.146 1.083.44.297.293.445.653.445 1.078 0 .431-.148.794-.445 1.087a1.482 1.482 0 01-1.083.442zm-2.879 3.066v-1.097c0-.176.049-.341.146-.498a1.15 1.15 0 01.398-.384c.35-.2.725-.356 1.125-.469.4-.112.804-.168 1.21-.168a4.603 4.603 0 012.335.637c.169.094.301.219.398.375a.942.942 0 01.146.507v1.096h-5.758z" fill="#554B92"/></g><defs><style>@keyframes move-horizontal{0%,to{transform:translateX(0)}50%{transform:translateX(30px)}}@keyframes move-vertical{0%,to{transform:translateY(0)}50%{transform:translateY(30px)}}</style></defs></svg>