<svg viewBox="0 0 163 70" fill="none" xmlns="http://www.w3.org/2000/svg"><rect width="163" height="70" rx="6" fill="#fff"/><path d="M13.032 22.536v-7.894h2.882c.728 0 1.323.227 1.785.682.466.452.699 1.048.699 1.79 0 .743-.233 1.346-.699 1.808-.466.462-1.06.693-1.785.693h-1.78v2.92h-1.102zm1.102-3.882h1.6c.473 0 .846-.136 1.119-.41.277-.276.415-.652.415-1.13 0-.472-.137-.842-.41-1.107-.269-.27-.64-.404-1.113-.404h-1.61v3.051zm5.465 3.882V16.88h1.048v.983l-.022.426h.022c.135-.434.36-.788.677-1.065.32-.276.691-.415 1.113-.415l.279.027v1.07a1.496 1.496 0 00-1.277.322c-.288.237-.495.563-.623.978a3.48 3.48 0 00-.136 1.015v2.315h-1.081zm4.181-6.786v-1.108h1.092v1.108h-1.091zm.011 6.786V16.88h1.081v5.656h-1.08zm2.38-2.828c0-.844.284-1.549.852-2.113.572-.567 1.297-.851 2.178-.851.266 0 .519.029.759.087.244.055.444.124.6.207.16.08.3.162.42.246.121.08.208.15.263.207l.082.082-.513.76a1.834 1.834 0 00-.279-.225 1.954 1.954 0 00-.322-.196 2.193 2.193 0 00-.437-.158 2.018 2.018 0 00-.53-.071c-.57 0-1.042.19-1.413.573-.367.378-.551.859-.551 1.441 0 .582.187 1.068.562 1.457.375.386.853.58 1.436.58a2.276 2.276 0 001.07-.268c.134-.077.254-.151.36-.224.11-.077.19-.14.24-.191l.076-.082.437.797a1.836 1.836 0 01-.093.098c-.04.04-.132.113-.278.218a3.176 3.176 0 01-.459.273c-.16.08-.369.153-.627.219a3.253 3.253 0 01-.803.098c-.884 0-1.61-.28-2.178-.84-.568-.561-.851-1.269-.851-2.124zm6.126 0c0-.888.265-1.603.797-2.145.535-.546 1.211-.82 2.03-.82.517 0 .963.123 1.338.366.378.24.658.559.84.956.182.393.273.837.273 1.332l-.038.47h-4.121c.025.592.222 1.053.59 1.38.37.324.822.486 1.353.486a2.27 2.27 0 001.01-.235c.13-.065.247-.129.35-.19.105-.066.185-.122.24-.17l.076-.065.448.791c-.022.022-.055.051-.099.087a3.66 3.66 0 01-.284.197c-.142.091-.293.173-.453.246-.156.069-.358.133-.606.19a3.255 3.255 0 01-.747.088c-.583 0-1.103-.13-1.562-.387a2.77 2.77 0 01-1.064-1.065 3.092 3.092 0 01-.371-1.512zm1.151-.66h3.02c-.015-.466-.152-.823-.41-1.07a1.316 1.316 0 00-.956-.372c-.425 0-.79.128-1.091.382-.299.251-.486.604-.563 1.06zm8.538 3.488v-7.894h1.103v3.466h4.094v-3.466h1.108v7.894h-1.108v-3.467H43.09v3.467h-1.103zm8.216-6.786v-1.108h1.092v1.108h-1.092zm.01 6.786V16.88h1.082v5.656h-1.081zm2.326-.694l.525-.77a1.763 1.763 0 00.283.23c.11.076.222.144.339.202.12.058.27.11.453.158.182.047.364.071.546.071.25 0 .47-.062.655-.185.19-.128.284-.3.284-.519a.512.512 0 00-.164-.371 1.333 1.333 0 00-.415-.29 7.14 7.14 0 00-.568-.245 9.2 9.2 0 01-.622-.268 4.035 4.035 0 01-.562-.338 1.513 1.513 0 01-.42-.486 1.428 1.428 0 01-.159-.677c0-.498.195-.892.584-1.18.39-.287.877-.43 1.463-.43.233 0 .453.021.66.065.212.044.385.097.52.159.134.058.252.118.354.18.102.061.175.114.219.158l.07.065-.436.814a1.17 1.17 0 00-.06-.055 1.968 1.968 0 00-.175-.12 1.99 1.99 0 00-.677-.273 2.137 2.137 0 00-.486-.054 1.2 1.2 0 00-.66.174.58.58 0 00-.268.519c0 .135.053.256.159.366.109.109.249.203.42.284.171.076.358.154.562.234.208.077.415.166.622.268.208.102.397.216.568.344.171.123.31.285.415.486.11.196.164.42.164.671 0 .477-.19.87-.568 1.18-.375.308-.868.463-1.48.463-.258 0-.509-.029-.753-.087a2.805 2.805 0 01-.605-.202 5.333 5.333 0 01-.426-.246 1.935 1.935 0 01-.273-.213l-.088-.082zm4.963-4.012v-.873h.775v-1.633h1.048v1.633h1.365v.873h-1.365v2.517c0 .214.029.404.087.567.058.16.13.284.213.371.087.088.19.159.306.213a1.308 1.308 0 00.6.12l.262-.021v.96a3.295 3.295 0 01-.89-.016 2.292 2.292 0 01-.562-.164 1.807 1.807 0 01-.546-.344c-.152-.145-.283-.353-.393-.622a2.58 2.58 0 01-.158-.944V17.83h-.742zm4.1 1.867a2.92 2.92 0 01.89-2.118c.276-.259.6-.462.97-.611.376-.15.772-.224 1.19-.224.42 0 .814.074 1.186.224.374.149.698.352.971.61.277.26.495.572.655.94.16.367.24.76.24 1.179 0 .56-.136 1.07-.409 1.529-.273.454-.642.81-1.108 1.064a3.145 3.145 0 01-1.534.382 3.145 3.145 0 01-1.534-.382 2.885 2.885 0 01-1.108-1.064 2.932 2.932 0 01-.41-1.529zm1.108 0c0 .586.189 1.072.567 1.457.379.386.837.58 1.376.58a1.85 1.85 0 001.381-.58c.375-.385.562-.871.562-1.457 0-.579-.187-1.06-.562-1.441a1.86 1.86 0 00-1.381-.573c-.539 0-.997.19-1.376.573-.378.382-.568.862-.568 1.441zm6.283 2.839V16.88h1.048v.983l-.022.426h.022c.134-.434.36-.788.677-1.065.32-.276.691-.415 1.113-.415l.279.027v1.07a1.496 1.496 0 00-1.277.322c-.288.237-.496.563-.623.978a3.479 3.479 0 00-.136 1.015v2.315h-1.081zm3.362-5.656h1.218l1.42 3.701c.032.088.065.188.097.3.037.113.064.206.082.279l.033.104h.022c.062-.255.126-.479.191-.672l1.376-3.712h1.173l-2.647 6.671c-.168.43-.415.759-.743.988-.324.23-.688.344-1.091.344-.19 0-.375-.03-.557-.087a1.824 1.824 0 01-.41-.175l-.13-.082.381-.83c.212.157.432.235.66.235.216 0 .41-.075.585-.224.178-.145.322-.347.431-.606l.279-.644-2.37-5.59z" fill="#22282A"/><path d="M17.626 45.184l-5.67.443v13.642h138.682V44.446l-10.758-4.343-8.867 3.925-8.577-4.216-8.722-3.634-9.013-2.617-8.431 2.18-8.868 7.27-8.576-2.763-8.722-.727-8.868 2.326-8.431-5.67-9.013.582-8.722-2.035-8.722 5.524-8.722 4.936z" fill="url(#prefix__paint0_linear_730_2277)"/><path stroke="#DADADA" stroke-opacity=".4" stroke-width=".291" d="M11.835 58.269h139.263"/><path stroke="#D8DBDB" stroke-width=".291" stroke-dasharray="1.16 1.16" d="M11.835 43.269h139.554M11.835 28.765h139.554"/><path d="M11.956 45.481l5.67-.443 8.867-4.79 8.577-5.524 8.722 2.035 8.867-.581 8.432 5.814 8.722-2.326 9.013.437 8.576 2.616 8.722-6.977 8.723-2.036 8.722 2.472 8.722 3.99 8.431 3.86 9.885-3.86 10.031 4.132" stroke="#A35BFF" stroke-width=".581"/><circle cx="43.937" cy="36.759" r="1.454" fill="#2A1852"/><circle cx="70.104" cy="39.667" r="1.454" fill="#2A1852"/><circle cx="96.27" cy="35.888" r="1.454" fill="#2A1852"/><circle cx="122.436" cy="39.957" r="1.454" fill="#2A1852"/><circle cx="149.765" cy="44.318" r="1.454" fill="#854ABF"/><circle cx="17.771" cy="44.9" r="1.454" fill="#854ABF"/><path d="M27.947 40.249a1.454 1.454 0 11-2.907 0 1.454 1.454 0 012.907 0z" fill="#854ABF"/><circle cx="35.215" cy="34.725" r="1.454" fill="#371562"/><circle cx="52.659" cy="36.178" r="1.454" fill="#2A1852"/><circle cx="61.382" cy="41.993" r="1.454" fill="#854ABF"/><circle cx="78.826" cy="40.249" r="1.454" fill="#2A1852"/><circle cx="87.548" cy="42.864" r="1.454" fill="#854ABF"/><circle cx="104.992" cy="33.561" r="1.454" fill="#371562"/><circle cx="113.714" cy="36.178" r="1.454" fill="#2A1852"/><circle cx="131.158" cy="44.028" r="1.454" fill="#854ABF"/><circle cx="139.88" cy="39.957" r="1.454" fill="#2A1852"/><defs><linearGradient id="prefix__paint0_linear_730_2277" x1="81.297" y1="35.015" x2="81.297" y2="77.317" gradientUnits="userSpaceOnUse"><stop stop-color="#854ABF" stop-opacity=".13"/><stop offset="1" stop-color="#854ABF" stop-opacity="0"/></linearGradient></defs></svg>