<svg viewBox="0 0 725 530" fill="none" xmlns="http://www.w3.org/2000/svg"><g filter="url(#prefix__filter0_dd_858_2795)"><rect x="44.757" y="41.515" width="377" height="54" rx="12" fill="#EBF3E5"/><path d="M75.84 75.711c0-2.472 1.872-4.368 4.38-4.368 2.076 0 3.144 1.164 3.144 1.164l-.744 1.152s-.972-.9-2.328-.9c-1.8 0-2.856 1.344-2.856 2.928 0 1.62 1.092 3.048 2.868 3.048 1.476 0 2.472-1.08 2.472-1.08l.816 1.116s-1.176 1.38-3.348 1.38c-2.604 0-4.404-1.932-4.404-4.44zm8.938 4.296v-8.52h1.524v2.952c0 .3-.024.516-.024.516h.024c.3-.588 1.044-1.212 2.112-1.212 1.356 0 2.124.708 2.124 2.328v3.936h-1.512v-3.624c0-.744-.192-1.248-.972-1.248-.804 0-1.428.528-1.656 1.272-.072.24-.096.504-.096.792v2.808h-1.524zm7.359 0v-6.12H93.6v1.056c0 .228-.024.432-.024.432h.024c.276-.876 1.008-1.572 1.944-1.572.144 0 .276.024.276.024v1.5s-.156-.024-.36-.024c-.648 0-1.38.372-1.668 1.284a3.28 3.28 0 00-.132.996v2.424h-1.524zm4.71-7.164v-1.356h1.513v1.356h-1.512zm0 7.164v-6.12h1.525v6.12h-1.524zm2.684-.756l.696-1.068s.672.672 1.668.672c.432 0 .804-.192.804-.552 0-.912-2.976-.792-2.976-2.76 0-1.14 1.02-1.8 2.34-1.8 1.38 0 2.052.696 2.052.696l-.564 1.128s-.564-.528-1.5-.528c-.396 0-.78.168-.78.552 0 .864 2.976.756 2.976 2.724 0 1.02-.888 1.836-2.34 1.836-1.524 0-2.376-.9-2.376-.9zm8.512-3.564c0-2.436 1.896-4.344 4.404-4.344s4.404 1.908 4.404 4.344c0 2.508-1.896 4.464-4.404 4.464s-4.404-1.956-4.404-4.464zm1.596 0c0 1.752 1.248 3.048 2.808 3.048 1.56 0 2.808-1.296 2.808-3.048 0-1.68-1.248-2.928-2.808-2.928-1.56 0-2.808 1.248-2.808 2.928zm8.549 4.32v-8.52h1.524v2.952c0 .3-.024.516-.024.516h.024c.3-.588 1.044-1.212 2.112-1.212 1.356 0 2.124.708 2.124 2.328v3.936h-1.512v-3.624c0-.744-.192-1.248-.972-1.248-.804 0-1.428.528-1.656 1.272-.072.24-.096.504-.096.792v2.808h-1.524zM204.299 77.577l.556-.747.088.083c.039.033.121.093.244.18.124.089.251.165.381.23a3 3 0 00.498.18 2.2 2.2 0 00.591.084c.345 0 .635-.093.869-.278.235-.186.352-.44.352-.762 0-.156-.041-.3-.122-.43a1.107 1.107 0 00-.318-.337 3.289 3.289 0 00-.459-.278 10.2 10.2 0 00-.547-.259c-.192-.084-.384-.17-.576-.259a4.774 4.774 0 01-.542-.307 3.21 3.21 0 01-.459-.376 1.58 1.58 0 01-.322-.493 1.658 1.658 0 01-.117-.63c0-.489.172-.913.517-1.275.346-.361.793-.582 1.343-.664v-.942h.713v.933a2.8 2.8 0 01.601.102c.195.052.356.11.483.176.13.065.244.128.342.19.098.062.169.114.215.157l.068.063-.449.82a2.004 2.004 0 00-.288-.21 2.42 2.42 0 00-.332-.185 2.214 2.214 0 00-.425-.147 1.946 1.946 0 00-.508-.068c-.374 0-.682.1-.923.303-.237.198-.356.44-.356.727 0 .15.039.287.117.41.081.124.189.231.322.323.134.09.287.179.459.263.173.082.353.163.542.244.192.079.384.163.576.254.193.088.375.19.547.308.173.117.326.246.459.386.134.14.24.31.318.512.081.199.122.419.122.66 0 .51-.171.95-.513 1.318-.338.365-.797.581-1.377.65v.922h-.713v-.923a3.803 3.803 0 01-.693-.141 3.02 3.02 0 01-.952-.484 1.763 1.763 0 01-.249-.205l-.083-.078zm5.693-1.23c0-.202.034-.4.103-.596.068-.199.146-.363.234-.493.088-.13.194-.257.317-.381.124-.127.217-.215.279-.264.065-.052.13-.1.195-.146-.527-.381-.791-.851-.791-1.411 0-.192.028-.376.083-.552a1.794 1.794 0 01.698-.913c.17-.117.376-.21.62-.279a2.96 2.96 0 01.801-.102c.661 0 1.196.17 1.607.513.41.341.615.8.615 1.377 0 .602-.28 1.214-.84 1.836.303.185.537.397.703.634.169.238.254.528.254.87 0 .367-.098.707-.293 1.02-.195.313-.48.566-.854.762a2.728 2.728 0 01-1.27.288c-.71 0-1.297-.202-1.763-.606-.465-.403-.698-.923-.698-1.557zm1.011-.059c0 .39.143.71.429.957.29.248.63.371 1.021.371.384 0 .713-.112.986-.337.274-.228.41-.519.41-.874a.718.718 0 00-.087-.346 1.04 1.04 0 00-.21-.279 1.856 1.856 0 00-.352-.249 4.157 4.157 0 00-.4-.21 13.34 13.34 0 00-.474-.215c-.202-.09-.36-.164-.474-.22-.566.398-.849.865-.849 1.402zm.307-3.208c0 .085.01.166.03.244a.636.636 0 00.102.215c.049.065.096.125.142.18.049.056.115.113.2.172l.225.141c.065.04.154.087.268.142.117.052.21.093.279.122l.307.127c.134.055.233.097.298.127.049-.049.098-.104.146-.166.053-.065.119-.16.201-.283.081-.124.146-.269.195-.435a1.69 1.69 0 00.078-.508.947.947 0 00-.351-.771c-.232-.192-.534-.288-.909-.288-.377 0-.673.092-.888.278a.89.89 0 00-.323.703zm4.815 1.768c0-.42.026-.806.078-1.158.052-.354.138-.686.259-.996.12-.312.273-.576.459-.79.189-.215.426-.385.713-.508a2.45 2.45 0 01.981-.186c.368 0 .695.062.982.186.289.123.529.293.717.507.189.215.344.479.464.791.121.31.207.642.259.996.052.352.078.738.078 1.158 0 .423-.026.812-.078 1.167a4.616 4.616 0 01-.259 1c-.12.313-.275.578-.464.796a2.01 2.01 0 01-.717.513 2.459 2.459 0 01-.982.186 2.45 2.45 0 01-.981-.186 2.021 2.021 0 01-.713-.513 2.712 2.712 0 01-.459-.795 4.616 4.616 0 01-.259-1.001 8.075 8.075 0 01-.078-1.167zm1.011 0c0 .407.022.768.068 1.084.049.315.127.603.234.864.111.257.264.456.459.596.199.136.438.205.718.205.228 0 .428-.047.601-.142.172-.094.314-.221.425-.38.11-.16.201-.359.273-.597a3.91 3.91 0 00.146-.751c.03-.264.044-.557.044-.88 0-.318-.014-.608-.044-.868a3.813 3.813 0 00-.146-.748 2.138 2.138 0 00-.273-.595 1.188 1.188 0 00-.425-.376 1.234 1.234 0 00-.601-.142c-.224 0-.423.047-.596.142a1.177 1.177 0 00-.424.376 2.11 2.11 0 00-.274.595 4.407 4.407 0 00-.146.748c-.026.26-.039.55-.039.869zm5.097-1.28c0-.693.213-1.26.64-1.699.426-.44.97-.659 1.631-.659.371 0 .718.08 1.04.24.325.159.605.382.84.668.237.283.423.635.556 1.055.137.416.205.872.205 1.367 0 .371-.039.74-.117 1.108a4.51 4.51 0 01-.376 1.075c-.169.345-.376.65-.62.913-.241.263-.54.475-.898.635-.355.159-.744.239-1.167.239a3.456 3.456 0 01-1.216-.22l-.156-.073.322-.86.137.069c.061.026.18.062.356.107.176.043.347.064.513.064.312 0 .597-.067.854-.2.257-.137.471-.32.64-.547.169-.228.306-.479.41-.752a3.64 3.64 0 00.22-.87h-.02c-.143.2-.361.359-.654.479-.29.12-.593.18-.908.18-.661 0-1.198-.219-1.612-.659-.413-.442-.62-.996-.62-1.66zm.982 0c0 .44.13.798.39 1.075.261.276.614.415 1.06.415.391 0 .727-.101 1.011-.303.286-.205.429-.435.429-.689 0-.306-.07-.608-.21-.908-.136-.3-.33-.547-.581-.742a1.253 1.253 0 00-.8-.298c-.401 0-.718.137-.953.41-.231.27-.346.617-.346 1.04zm5.278 4.82v-1.03h1.021v1.03h-1.021zm2.085-1.89v-.62l3.262-4.55h1.133v4.33h.957v.84h-.957v1.89h-.972v-1.89h-3.423zm1.094-.84h2.329V73.09a7.654 7.654 0 01.029-.6l.01-.103h-.02a3.36 3.36 0 01-.351.58l-1.997 2.672v.02zm4.97.84v-.62l3.262-4.55h1.133v4.33h.957v.84h-.957v1.89h-.972v-1.89h-3.423zm1.094-.84h2.329V73.09a6.415 6.415 0 01.03-.6l.009-.103h-.019a3.425 3.425 0 01-.352.58l-1.997 2.672v.02z" fill="#382E29"/><path d="M203.796 56.554v-.688h4.664v.688h-1.934v4.96h-.793v-4.96h-1.937zm5.015 2.93a2.1 2.1 0 01.637-1.516c.198-.185.43-.331.695-.438.269-.107.552-.16.852-.16a2.256 2.256 0 011.543.598c.198.185.354.409.469.672a2.1 2.1 0 01.172.843 2.07 2.07 0 01-1.086 1.855c-.334.183-.7.274-1.098.274-.399 0-.764-.09-1.098-.273a2.07 2.07 0 01-1.086-1.856zm.793 0c0 .419.136.766.407 1.042.27.276.599.414.984.414.391 0 .72-.138.988-.414.268-.276.403-.623.403-1.043 0-.414-.135-.757-.403-1.03a1.329 1.329 0 00-.988-.411c-.385 0-.714.137-.984.41-.271.274-.407.617-.407 1.031zm4.133-1.337v-.624h.555v-1.169h.75v1.169h.976v.624h-.976v1.801c0 .154.021.29.062.407a.755.755 0 00.153.265.761.761 0 00.218.153.952.952 0 00.43.085l.188-.015v.687a2.36 2.36 0 01-.637-.012 1.646 1.646 0 01-.402-.117 1.282 1.282 0 01-.391-.246 1.264 1.264 0 01-.281-.445 1.836 1.836 0 01-.114-.676v-1.886h-.531zm2.902 2.23a1.154 1.154 0 01.36-.86 1.38 1.38 0 01.387-.244 2.57 2.57 0 01.441-.157 4.664 4.664 0 01.894-.121c.11-.005.228-.008.356-.008h.176v-.074c0-.591-.296-.887-.887-.887-.117 0-.236.015-.355.043-.12.026-.224.059-.313.098a2.73 2.73 0 00-.406.207l-.055.043-.32-.566c.015-.013.038-.03.066-.051a2.66 2.66 0 01.512-.262c.109-.042.249-.08.418-.113.169-.037.341-.055.516-.055.513 0 .907.137 1.183.41.279.274.418.666.418 1.176v2.559h-.719v-.383l.016-.32h-.016l-.023.046c-.008.019-.03.056-.067.114a1.372 1.372 0 01-.292.324 1.308 1.308 0 01-.235.16c-.083.044-.185.08-.305.11a1.446 1.446 0 01-.375.046c-.372 0-.695-.11-.968-.328-.271-.221-.407-.523-.407-.906zm.782-.038c0 .177.066.33.199.457.135.127.323.191.562.191a.895.895 0 00.567-.199c.169-.133.297-.295.383-.488.086-.195.129-.396.129-.602v-.129h-.2a4.11 4.11 0 00-.582.027 1.978 1.978 0 00-.597.137.838.838 0 00-.243.137.645.645 0 00-.156.2.587.587 0 00-.062.269zm3.722.07v-4.543h.778v4.41c0 .224.037.377.113.457a.425.425 0 00.32.118l.133-.008v.687a1.93 1.93 0 01-.254.016c-.104 0-.199-.007-.285-.02a1.11 1.11 0 01-.285-.09.822.822 0 01-.266-.187.961.961 0 01-.179-.332 1.543 1.543 0 01-.075-.508zm4.383 1.106v-5.649h1.727c.466 0 .817.043 1.054.13.292.108.524.299.696.57.172.27.258.59.258.956 0 .36-.093.68-.278.961a1.371 1.371 0 01-.738.567v.015c.042.05.098.136.168.258l1.199 2.192h-.894l-1.192-2.246h-1.211v2.246h-.789zm.789-2.938h1.137c.31 0 .553-.091.73-.273.18-.185.27-.435.27-.75 0-.414-.15-.705-.449-.871-.167-.086-.425-.13-.774-.13h-.914v2.024zm3.895.914c0-.635.19-1.147.57-1.535.383-.39.867-.586 1.453-.586.37 0 .689.087.957.262.271.172.472.4.602.683.13.282.195.6.195.954l-.027.336h-2.949c.018.424.158.753.421.988.266.231.589.347.969.347a1.674 1.674 0 00.723-.167c.094-.047.177-.093.25-.137.075-.047.133-.088.172-.121l.054-.047.321.566a1.084 1.084 0 01-.071.063 2.611 2.611 0 01-.203.14 2.505 2.505 0 01-.324.176 2.51 2.51 0 01-.434.137 2.323 2.323 0 01-.535.062c-.416 0-.789-.092-1.117-.277a1.986 1.986 0 01-.762-.762 2.213 2.213 0 01-.265-1.082zm.824-.472h2.16c-.01-.334-.108-.589-.293-.766a.94.94 0 00-.683-.266c-.305 0-.566.091-.782.274-.213.18-.347.432-.402.758zm3.34-1.551h.824l.984 2.734c.024.065.046.145.067.238.021.092.036.167.047.227a.478.478 0 00.023.086h.016c.002 0 .01-.029.023-.086l.051-.227c.023-.093.047-.173.07-.238l.985-2.734h.816l-1.496 4.047h-.898l-1.512-4.047zm4.289 2.023c0-.635.19-1.147.57-1.535.383-.39.867-.586 1.453-.586.37 0 .689.087.957.262.271.172.472.4.602.683.13.282.195.6.195.954l-.027.336h-2.949c.018.424.159.753.422.988.265.231.588.347.968.347a1.668 1.668 0 00.723-.167c.094-.047.177-.093.25-.137.075-.047.133-.088.172-.121l.055-.047.32.566a1.332 1.332 0 01-.07.063 2.701 2.701 0 01-.204.14 2.505 2.505 0 01-.324.176c-.112.05-.256.095-.433.137a2.332 2.332 0 01-.536.062c-.416 0-.789-.092-1.117-.277a1.976 1.976 0 01-.761-.762 2.203 2.203 0 01-.266-1.082zm.824-.472h2.16c-.01-.334-.108-.589-.293-.766a.94.94 0 00-.683-.266c-.305 0-.565.091-.782.274-.213.18-.347.432-.402.758zm3.895 2.496v-4.047h.75v.535l-.016.297h.016c.044-.1.105-.198.183-.297.081-.099.181-.198.301-.297.122-.099.273-.18.453-.242.18-.063.374-.094.582-.094.474 0 .824.129 1.051.387.229.258.344.646.344 1.164v2.594h-.778V59.1c0-.157-.01-.29-.031-.403a1.12 1.12 0 00-.109-.316.497.497 0 00-.239-.223.867.867 0 00-.39-.078c-.305 0-.573.091-.805.273a1.387 1.387 0 00-.473.72 1.975 1.975 0 00-.066.546v1.895h-.773zm4.761-1.457v-2.59h.778v2.414c0 .154.009.286.027.398.021.11.057.214.109.313.053.096.131.17.235.222.104.05.234.075.39.075.396 0 .713-.15.95-.45.239-.299.359-.658.359-1.078v-1.894h.777v4.047h-.75v-.535l.016-.297h-.016c-.099.234-.281.447-.547.64-.265.193-.579.29-.941.29-.461 0-.807-.127-1.039-.38-.232-.255-.348-.647-.348-1.175zm4.559-.567c0-.635.19-1.147.57-1.535.383-.39.867-.586 1.453-.586.37 0 .689.087.957.262.271.172.472.4.602.683.13.282.195.6.195.954l-.027.336h-2.949c.018.424.159.753.422.988.265.231.588.347.968.347a1.668 1.668 0 00.723-.167c.094-.047.177-.093.25-.137.076-.047.133-.088.172-.121l.055-.047.32.566a1.332 1.332 0 01-.07.063 2.701 2.701 0 01-.204.14 2.505 2.505 0 01-.324.176c-.112.05-.256.095-.433.137a2.332 2.332 0 01-.536.062c-.416 0-.789-.092-1.117-.277a1.976 1.976 0 01-.761-.762 2.214 2.214 0 01-.266-1.082zm.824-.472h2.16c-.01-.334-.108-.589-.293-.766a.94.94 0 00-.683-.266 1.17 1.17 0 00-.781.274c-.214.18-.348.432-.403.758z" fill="#85827E"/><path d="M281.142 77.577l.557-.747c.019.02.049.047.088.083.039.033.12.093.244.18.124.089.251.165.381.23.133.065.299.126.498.18.198.056.395.084.591.084.345 0 .634-.093.869-.278.234-.186.351-.44.351-.762a.79.79 0 00-.122-.43 1.116 1.116 0 00-.317-.337 3.41 3.41 0 00-.459-.278 10.986 10.986 0 00-.547-.259c-.192-.084-.384-.17-.576-.259a4.607 4.607 0 01-.542-.307 3.103 3.103 0 01-.459-.376 1.562 1.562 0 01-.44-1.123c0-.489.173-.913.518-1.275.345-.361.793-.582 1.343-.664v-.942h.713v.933c.208.013.408.047.6.102.196.052.357.11.484.176.13.065.244.128.341.19.098.062.17.114.215.157l.069.063-.45.82a.644.644 0 00-.078-.063 1.799 1.799 0 00-.21-.147 2.363 2.363 0 00-.757-.332 1.939 1.939 0 00-.507-.068c-.375 0-.682.1-.923.303-.238.198-.357.44-.357.727 0 .15.039.287.118.41.081.124.188.231.322.323.133.09.286.179.459.263.172.082.353.163.542.244.192.079.384.163.576.254.192.088.374.19.547.308.172.117.325.246.459.386.133.14.239.31.317.512.082.199.122.419.122.66 0 .51-.171.95-.512 1.318-.339.365-.798.581-1.377.65v.922h-.713v-.923a3.813 3.813 0 01-.694-.141 3.037 3.037 0 01-.952-.484 1.763 1.763 0 01-.249-.205l-.083-.078zm5.43-1.079v-.62l3.262-4.55h1.132v4.33h.957v.84h-.957v1.89h-.971v-1.89h-3.423zm1.094-.84h2.329V73.09a6.342 6.342 0 01.029-.6l.01-.103h-.02a3.36 3.36 0 01-.351.58l-1.997 2.672v.02zm5.254-.478c0-.371.039-.74.117-1.109.078-.367.202-.724.371-1.069.172-.348.379-.654.62-.918a2.74 2.74 0 01.898-.635c.358-.16.749-.239 1.172-.239.248 0 .485.024.713.073.228.049.394.096.498.142l.161.073-.322.85a2.646 2.646 0 00-.142-.064 2.414 2.414 0 00-.356-.102 2.192 2.192 0 00-.513-.064 1.79 1.79 0 00-.854.205 1.844 1.844 0 00-.64.542 3.116 3.116 0 00-.41.752 3.78 3.78 0 00-.215.87h.02c.146-.2.364-.36.654-.484.293-.124.596-.186.908-.186.658 0 1.193.223 1.607.67.413.442.62.995.62 1.66 0 .693-.213 1.26-.64 1.704-.423.439-.965.659-1.626.659-.765 0-1.396-.306-1.894-.918-.498-.615-.747-1.42-.747-2.412zm1.04.468c0 .306.068.61.205.909.136.3.328.548.576.747.25.195.519.293.805.293.398 0 .713-.137.948-.41.237-.274.356-.62.356-1.04 0-.437-.132-.793-.395-1.07-.261-.28-.612-.42-1.055-.42-.394 0-.732.101-1.016.303-.283.199-.424.428-.424.688zm5.117 2.74v-1.03h1.02v1.03h-1.02zm2.265-4.82c0-.693.214-1.26.64-1.699.426-.44.97-.659 1.631-.659.371 0 .718.08 1.04.24.325.159.605.382.84.668.237.283.423.635.556 1.055.137.416.205.872.205 1.367 0 .371-.039.74-.117 1.108a4.51 4.51 0 01-.376 1.075c-.169.345-.376.65-.62.913-.241.263-.54.475-.898.635-.355.159-.744.239-1.167.239a3.456 3.456 0 01-1.216-.22l-.156-.073.322-.86.137.069c.062.026.18.062.356.107.176.043.347.064.513.064.312 0 .597-.067.854-.2.257-.137.471-.32.64-.547.169-.228.306-.479.41-.752.108-.274.181-.564.22-.87h-.02c-.143.2-.361.359-.654.479-.29.12-.592.18-.908.18-.661 0-1.198-.219-1.612-.659-.413-.442-.62-.996-.62-1.66zm.982 0c0 .44.13.798.39 1.075.261.276.614.415 1.06.415.391 0 .728-.101 1.011-.303.286-.205.429-.435.429-.689 0-.306-.07-.608-.21-.908-.136-.3-.33-.547-.581-.742a1.253 1.253 0 00-.8-.298c-.401 0-.718.137-.952.41-.232.27-.347.617-.347 1.04zm5.005 0c0-.693.213-1.26.639-1.699.427-.44.97-.659 1.631-.659.371 0 .718.08 1.04.24.326.159.606.382.84.668.238.283.423.635.557 1.055.136.416.205.872.205 1.367 0 .371-.039.74-.117 1.108a4.555 4.555 0 01-.376 1.075c-.17.345-.376.65-.62.913a2.673 2.673 0 01-.899.635c-.355.159-.744.239-1.167.239-.247 0-.487-.025-.718-.074a2.491 2.491 0 01-.498-.146l-.156-.073.322-.86.137.069c.062.026.181.062.356.107.176.043.347.064.513.064.313 0 .597-.067.855-.2.257-.137.47-.32.639-.547.17-.228.306-.479.41-.752.108-.274.181-.564.22-.87h-.019c-.144.2-.362.359-.655.479-.289.12-.592.18-.908.18-.661 0-1.198-.219-1.611-.659-.414-.442-.62-.996-.62-1.66zm.981 0c0 .44.13.798.391 1.075.26.276.613.415 1.059.415.391 0 .728-.101 1.011-.303.287-.205.43-.435.43-.689 0-.306-.07-.608-.21-.908a1.961 1.961 0 00-.581-.742 1.257 1.257 0 00-.801-.298c-.4 0-.718.137-.952.41-.231.27-.347.617-.347 1.04z" fill="#382E29"/><path d="M280.639 56.554v-.688h4.664v.688h-1.933v4.96h-.793v-4.96h-1.938zm5.016 2.93a2.083 2.083 0 01.637-1.516c.197-.185.429-.331.695-.438.268-.107.552-.16.851-.16a2.252 2.252 0 011.543.598 2.083 2.083 0 01.641 1.516 2.1 2.1 0 01-.293 1.093c-.195.326-.46.58-.793.762a2.249 2.249 0 01-1.098.273c-.398 0-.764-.09-1.097-.273a2.056 2.056 0 01-.793-.762 2.1 2.1 0 01-.293-1.094zm.793 0c0 .419.135.766.406 1.042s.599.414.984.414c.391 0 .72-.138.989-.414.268-.276.402-.623.402-1.043 0-.414-.134-.757-.402-1.03a1.333 1.333 0 00-.989-.411c-.385 0-.713.137-.984.41-.271.274-.406.617-.406 1.031zm4.133-1.337v-.624h.554v-1.169h.75v1.169h.977v.624h-.977v1.801c0 .154.021.29.063.407a.74.74 0 00.152.265.78.78 0 00.219.153.924.924 0 00.43.085l.187-.015v.687a2.382 2.382 0 01-.637-.012 1.646 1.646 0 01-.402-.117 1.307 1.307 0 01-.391-.246 1.264 1.264 0 01-.281-.445 1.857 1.857 0 01-.113-.676v-1.886h-.531zm2.902 2.23a1.168 1.168 0 01.359-.86c.105-.095.233-.177.387-.244a2.57 2.57 0 01.441-.157 4.68 4.68 0 01.895-.121c.109-.005.228-.008.355-.008h.176v-.074c0-.591-.295-.887-.886-.887-.118 0-.236.015-.356.043a1.62 1.62 0 00-.312.098 2.626 2.626 0 00-.407.207l-.054.043-.321-.566a1.412 1.412 0 01.262-.168c.102-.055.207-.103.316-.145.11-.042.249-.08.418-.113.17-.037.342-.055.516-.055.513 0 .908.137 1.184.41.278.274.418.666.418 1.176v2.559h-.719v-.383l.015-.32h-.015a1.488 1.488 0 01-.207.316c-.042.05-.1.105-.176.168a1.3 1.3 0 01-.234.16c-.084.044-.185.08-.305.11a1.446 1.446 0 01-.375.046c-.372 0-.695-.11-.969-.328-.271-.221-.406-.523-.406-.906zm.781-.038c0 .177.067.33.199.457.136.127.323.191.563.191a.894.894 0 00.566-.199c.17-.133.297-.295.383-.488.086-.195.129-.396.129-.602v-.129h-.199c-.102 0-.194.002-.277.004a4.07 4.07 0 00-.305.024 1.978 1.978 0 00-.598.137.832.832 0 00-.242.136.617.617 0 00-.219.469zm3.723.07v-4.543h.777v4.41c0 .224.038.377.114.457.075.079.182.118.32.118l.133-.008v.687a1.93 1.93 0 01-.254.016c-.104 0-.199-.007-.285-.02a1.128 1.128 0 01-.286-.09.818.818 0 01-.265-.187.962.962 0 01-.18-.332 1.571 1.571 0 01-.074-.508zm3.996-1.75c0-.404.073-.784.219-1.14.148-.357.349-.663.601-.918.253-.256.558-.457.914-.606a2.941 2.941 0 011.141-.222c.253 0 .496.025.73.078.235.05.429.11.582.183.154.073.29.146.407.219.117.073.203.134.258.184l.078.078-.391.593a1.805 1.805 0 00-.293-.215 2.677 2.677 0 00-.344-.187 2.553 2.553 0 00-.453-.148 2.252 2.252 0 00-.543-.067c-.411 0-.777.098-1.097.293a1.953 1.953 0 00-.739.781 2.322 2.322 0 00-.254 1.086c0 .404.086.775.258 1.114.172.336.419.606.742.812.323.203.689.305 1.098.305a2.348 2.348 0 001.074-.258 4.51 4.51 0 00.356-.215c.106-.073.185-.134.234-.183l.078-.078.426.566a2.391 2.391 0 01-.094.098c-.039.039-.129.11-.269.214a2.994 2.994 0 01-.446.274c-.156.078-.36.15-.613.215-.25.065-.506.097-.769.097-.555 0-1.054-.13-1.496-.39a2.76 2.76 0 01-1.032-1.067 3.11 3.11 0 01-.363-1.496zm5.703.824a2.083 2.083 0 01.637-1.515c.198-.185.43-.331.695-.438a2.28 2.28 0 01.852-.16c.299 0 .582.053.847.16.269.107.5.253.696.438a2.083 2.083 0 01.64 1.516c0 .4-.097.765-.293 1.093-.195.326-.459.58-.793.762a2.248 2.248 0 01-1.097.273c-.399 0-.765-.09-1.098-.273a2.063 2.063 0 01-.793-.762 2.1 2.1 0 01-.293-1.094zm.793 0c0 .42.135.767.406 1.043.271.276.599.414.985.414.39 0 .72-.138.988-.414.268-.276.402-.623.402-1.043 0-.414-.134-.757-.402-1.03a1.33 1.33 0 00-.988-.411c-.386 0-.714.137-.985.41-.271.274-.406.617-.406 1.031zm4.168 1.536l.375-.551a2.328 2.328 0 00.203.164c.078.055.159.103.242.144a1.772 1.772 0 00.715.164c.18 0 .336-.044.469-.132a.426.426 0 00.203-.371.367.367 0 00-.117-.266.966.966 0 00-.297-.207 5.125 5.125 0 00-.406-.176 6.574 6.574 0 01-.446-.191 2.914 2.914 0 01-.402-.242 1.086 1.086 0 01-.301-.348 1.028 1.028 0 01-.113-.484c0-.357.139-.639.418-.844.279-.206.628-.309 1.047-.309.167 0 .324.016.473.047.151.031.274.069.371.113.096.042.181.085.254.13a.892.892 0 01.156.113l.051.046-.313.582a.723.723 0 00-.168-.125 1.406 1.406 0 00-.484-.195 1.528 1.528 0 00-.348-.039.862.862 0 00-.473.125.415.415 0 00-.191.371.37.37 0 00.113.262c.078.078.179.146.301.203.122.055.257.11.402.168.149.055.297.118.446.191.148.073.284.155.406.246a1 1 0 01.297.348c.078.14.117.3.117.48 0 .342-.135.623-.406.844-.268.222-.621.332-1.059.332-.185 0-.364-.02-.539-.062a1.998 1.998 0 01-.433-.145 3.67 3.67 0 01-.305-.175 1.315 1.315 0 01-.195-.153l-.063-.058zm3.551-2.871v-.626h.555v-1.167h.75v1.168h.976v.624h-.976v1.801c0 .154.02.29.062.407a.754.754 0 00.152.265.78.78 0 00.219.153.938.938 0 00.43.085l.187-.015v.687a2.36 2.36 0 01-.636-.012 1.64 1.64 0 01-.403-.117 1.29 1.29 0 01-.39-.246 1.25 1.25 0 01-.282-.445 1.857 1.857 0 01-.113-.676v-1.886h-.531z" fill="#85827E"/><path d="M341.873 77.577l.557-.747c.019.02.049.047.088.083.039.033.12.093.244.18.124.089.251.165.381.23.133.065.299.126.498.18.198.056.395.084.591.084.345 0 .634-.093.869-.278.234-.186.351-.44.351-.762a.79.79 0 00-.122-.43 1.116 1.116 0 00-.317-.337 3.41 3.41 0 00-.459-.278 10.986 10.986 0 00-.547-.259c-.192-.084-.384-.17-.576-.259a4.607 4.607 0 01-.542-.307 3.103 3.103 0 01-.459-.376 1.562 1.562 0 01-.44-1.123c0-.489.173-.913.518-1.275.345-.361.793-.582 1.343-.664v-.942h.713v.933c.208.013.408.047.6.102.196.052.357.11.484.176.13.065.244.128.342.19.097.062.169.114.214.157l.069.063-.45.82a.644.644 0 00-.078-.063 1.799 1.799 0 00-.21-.147 2.363 2.363 0 00-.756-.332 1.952 1.952 0 00-.508-.068c-.375 0-.682.1-.923.303-.238.198-.357.44-.357.727 0 .15.04.287.118.41.081.124.188.231.322.323.133.09.286.179.459.263.172.082.353.163.542.244.192.079.384.163.576.254.192.088.374.19.547.308.172.117.325.246.459.386.133.14.239.31.317.512.082.199.122.419.122.66 0 .51-.171.95-.512 1.318-.339.365-.798.581-1.377.65v.922h-.713v-.923a3.813 3.813 0 01-.694-.141 3.037 3.037 0 01-.952-.484 1.763 1.763 0 01-.249-.205l-.083-.078zm5.523-.03l.542-.751.078.083a2.955 2.955 0 00.586.42c.127.068.285.13.473.185.189.056.38.083.572.083.403 0 .744-.12 1.02-.36.28-.245.42-.554.42-.929 0-.413-.158-.732-.473-.957-.316-.228-.705-.341-1.167-.341h-.494l-.229-.533 1.543-1.811a6.312 6.312 0 01.381-.4l.058-.06v-.019c-.14.02-.34.03-.6.03h-2.393v-.86h4.224v.63l-1.924 2.212c.195.02.386.06.571.122.189.059.375.145.557.259.182.11.342.242.478.395.14.153.253.342.337.567.085.221.127.464.127.727 0 .303-.058.593-.176.87a2.244 2.244 0 01-.478.722c-.202.205-.456.37-.762.493-.302.124-.63.186-.981.186a3.158 3.158 0 01-1.084-.19 4.007 4.007 0 01-.42-.186 2.57 2.57 0 01-.342-.205 27.38 27.38 0 00-.244-.19 1.407 1.407 0 01-.151-.137l-.049-.054zm5.752-.019l.551-.722c.017.02.038.047.064.083.029.032.093.092.19.18a2.4 2.4 0 00.318.235c.11.065.254.125.429.18.179.056.362.083.547.083.427 0 .791-.133 1.094-.4.306-.267.459-.61.459-1.03 0-.42-.155-.767-.464-1.04-.306-.274-.688-.41-1.147-.41-.205 0-.407.029-.606.087a1.89 1.89 0 00-.439.176l-.147.088-.566-.21.347-3.5h3.559v.858h-2.7l-.166 1.49c-.003.062-.01.123-.02.185a.761.761 0 01-.024.142l-.01.044h.02c.029-.016.07-.036.122-.059.055-.026.163-.058.322-.097.16-.043.316-.064.469-.064.729 0 1.321.222 1.777.664.456.443.684.988.684 1.636 0 .68-.238 1.248-.713 1.704-.475.453-1.071.679-1.787.679a2.95 2.95 0 01-.781-.103 2.413 2.413 0 01-.611-.239 4.467 4.467 0 01-.425-.293 1.841 1.841 0 01-.263-.249l-.083-.098zm5.556.02l.542-.752c.02.02.046.047.078.083a3.15 3.15 0 00.586.42c.127.068.285.13.474.185.189.056.379.083.571.083.404 0 .744-.12 1.021-.36.28-.245.42-.554.42-.929 0-.413-.158-.732-.474-.957-.316-.228-.705-.341-1.167-.341h-.493l-.23-.533 1.543-1.811c.069-.078.139-.155.21-.23.075-.078.132-.135.171-.17l.059-.06v-.019c-.14.02-.34.03-.601.03h-2.392v-.86h4.223v.63l-1.923 2.212c.195.02.385.06.571.122.189.059.374.145.556.259.183.11.342.242.479.395.14.153.252.342.337.567a2.21 2.21 0 01-.049 1.597 2.26 2.26 0 01-.478.722c-.202.205-.456.37-.762.493-.303.124-.63.186-.982.186a3.166 3.166 0 01-1.084-.19 4.2 4.2 0 01-.42-.186 2.62 2.62 0 01-.341-.205l-.244-.19a1.437 1.437 0 01-.152-.137l-.049-.054zm6.036.84v-1.03h1.02v1.03h-1.02zm2.285-5.42l1.694-1.64h.879v6.2h1.538v.86h-4.058v-.86h1.558v-4.56l.01-.44h-.02c-.055.108-.169.244-.342.41l-.659.65-.6-.62zm4.785 4.58l.542-.752.078.083a3.065 3.065 0 00.586.42c.127.068.285.13.474.185.188.056.379.083.571.083.403 0 .744-.12 1.02-.36.28-.245.42-.554.42-.929 0-.413-.158-.732-.473-.957-.316-.228-.705-.341-1.167-.341h-.494l-.229-.533 1.543-1.811a6.312 6.312 0 01.381-.4l.058-.06v-.019c-.14.02-.34.03-.6.03h-2.393v-.86h4.224v.63l-1.924 2.212c.195.02.386.06.571.122.189.059.375.145.557.259.182.11.342.242.478.395.14.153.253.342.337.567a2.209 2.209 0 01-.048 1.597 2.263 2.263 0 01-.479.722c-.202.205-.456.37-.762.493-.302.124-.63.186-.981.186a3.166 3.166 0 01-1.084-.19 4.007 4.007 0 01-.42-.186 2.636 2.636 0 01-.342-.205 27.38 27.38 0 00-.244-.19 1.407 1.407 0 01-.151-.137l-.049-.054z" fill="#382E29"/><path d="M341.37 56.554v-.688h4.664v.688h-1.933v4.96h-.793v-4.96h-1.938zm5.016 2.93a2.083 2.083 0 01.637-1.516c.198-.185.429-.331.695-.438a2.28 2.28 0 01.852-.16c.299 0 .582.053.847.16.269.107.5.253.696.438a2.083 2.083 0 01.64 1.516c0 .4-.097.765-.293 1.093-.195.326-.459.58-.793.762a2.248 2.248 0 01-1.097.273c-.399 0-.765-.09-1.098-.273a2.063 2.063 0 01-.793-.762 2.1 2.1 0 01-.293-1.094zm.793 0c0 .419.135.766.406 1.042s.599.414.985.414c.39 0 .72-.138.988-.414.268-.276.402-.623.402-1.043 0-.414-.134-.757-.402-1.03a1.33 1.33 0 00-.988-.411c-.386 0-.714.137-.985.41-.271.274-.406.617-.406 1.031zm4.133-1.337v-.624h.555v-1.169h.75v1.169h.976v.624h-.976v1.801c0 .154.02.29.062.407a.754.754 0 00.152.265.78.78 0 00.219.153.938.938 0 00.43.085l.187-.015v.687a2.36 2.36 0 01-.636-.012 1.64 1.64 0 01-.403-.117 1.29 1.29 0 01-.39-.246 1.25 1.25 0 01-.282-.445 1.857 1.857 0 01-.113-.676v-1.886h-.531zm2.902 2.23a1.154 1.154 0 01.36-.86 1.39 1.39 0 01.386-.244c.157-.07.304-.123.442-.157a4.68 4.68 0 01.894-.121c.11-.005.228-.008.356-.008h.175v-.074c0-.591-.295-.887-.886-.887-.117 0-.236.015-.356.043a1.62 1.62 0 00-.312.098c-.089.036-.17.074-.242.113a1.25 1.25 0 00-.164.094l-.055.043-.32-.566a.961.961 0 01.066-.051 2.674 2.674 0 01.512-.262 2.64 2.64 0 01.418-.113c.169-.037.341-.055.515-.055.513 0 .908.137 1.184.41.278.274.418.666.418 1.176v2.559h-.719v-.383l.016-.32h-.016l-.023.046c-.008.019-.03.056-.067.114a1.39 1.39 0 01-.293.324 1.3 1.3 0 01-.234.16c-.083.044-.185.08-.305.11a1.446 1.446 0 01-.375.046c-.372 0-.695-.11-.969-.328-.27-.221-.406-.523-.406-.906zm.781-.038c0 .177.067.33.2.457.135.127.323.191.562.191a.899.899 0 00.567-.199c.169-.133.296-.295.382-.488.086-.195.129-.396.129-.602v-.129h-.199c-.102 0-.194.002-.277.004a4.07 4.07 0 00-.305.024 1.95 1.95 0 00-.598.137.832.832 0 00-.242.136.645.645 0 00-.156.2.575.575 0 00-.063.269zm3.723.07v-4.543h.777v4.41c0 .224.038.377.114.457.075.079.182.118.32.118l.133-.008v.687a1.93 1.93 0 01-.254.016c-.104 0-.199-.007-.285-.02a1.11 1.11 0 01-.285-.09.811.811 0 01-.266-.187.979.979 0 01-.18-.332 1.571 1.571 0 01-.074-.508zm4.004-1.726c0-.404.073-.784.219-1.141.148-.36.349-.668.601-.926a2.8 2.8 0 01.918-.617c.36-.151.741-.227 1.145-.227.252 0 .496.024.73.07.235.048.427.105.578.173.154.065.289.131.407.199.119.065.207.121.261.168l.078.07-.398.59a1.497 1.497 0 00-.285-.191 2.457 2.457 0 00-.774-.3 2.47 2.47 0 00-.535-.06c-.429 0-.808.098-1.136.293a1.942 1.942 0 00-.743.785c-.166.328-.25.694-.25 1.098 0 .43.092.814.274 1.152.182.339.431.6.746.785.318.185.672.278 1.062.278a2.092 2.092 0 00.989-.246c.122-.07.23-.14.324-.207.096-.07.168-.13.215-.18l.07-.07v-.817h-.918v-.687h1.641v2.84h-.699v-.352l.011-.242h-.019a2.064 2.064 0 01-.289.242c-.11.078-.227.149-.352.211-.122.06-.284.115-.484.164a2.732 2.732 0 01-1.684-.14 2.83 2.83 0 01-.887-.598 2.824 2.824 0 01-.597-.934 3.174 3.174 0 01-.219-1.183zm6.297 2.832v-4.047h.75v.703l-.016.305h.016a1.63 1.63 0 01.484-.762c.229-.198.495-.297.797-.297l.199.02v.765a1.073 1.073 0 00-.914.23 1.42 1.42 0 00-.445.7 2.494 2.494 0 00-.098.726v1.657h-.773zm2.703-2.032a2.083 2.083 0 01.637-1.515c.198-.185.429-.331.695-.438a2.28 2.28 0 01.852-.16c.299 0 .582.053.847.16.268.107.5.253.696.438a2.083 2.083 0 01.64 1.516c0 .4-.097.765-.293 1.093-.195.326-.459.58-.793.762a2.248 2.248 0 01-1.097.273c-.399 0-.765-.09-1.098-.273a2.063 2.063 0 01-.793-.762 2.1 2.1 0 01-.293-1.094zm.793 0c0 .42.135.767.406 1.043.271.276.599.414.985.414.39 0 .72-.138.988-.414.268-.276.402-.623.402-1.043 0-.414-.134-.757-.402-1.03a1.33 1.33 0 00-.988-.411c-.386 0-.714.137-.985.41-.271.274-.406.617-.406 1.031zm4.168 1.536l.375-.551a2.328 2.328 0 00.203.164c.078.055.159.103.242.144a1.786 1.786 0 00.715.164c.18 0 .336-.044.469-.132a.426.426 0 00.203-.371.367.367 0 00-.117-.266.966.966 0 00-.297-.207 5.291 5.291 0 00-.406-.176 6.574 6.574 0 01-.446-.191 2.855 2.855 0 01-.402-.242 1.086 1.086 0 01-.301-.348 1.028 1.028 0 01-.113-.484c0-.357.139-.639.418-.844.279-.206.627-.309 1.047-.309.166 0 .324.016.472.047.151.031.275.069.372.113.096.042.181.085.253.13a.908.908 0 01.157.113l.05.046-.312.582a.723.723 0 00-.168-.125 1.406 1.406 0 00-.484-.195 1.528 1.528 0 00-.348-.039.862.862 0 00-.473.125.415.415 0 00-.191.371.37.37 0 00.113.262c.078.078.179.146.301.203.122.055.256.11.402.168.149.055.297.118.446.191.148.073.283.155.406.246a1 1 0 01.297.348c.078.14.117.3.117.48 0 .342-.135.623-.406.844-.269.222-.621.332-1.059.332-.185 0-.365-.02-.539-.062a2.027 2.027 0 01-.434-.145 3.81 3.81 0 01-.304-.175 1.391 1.391 0 01-.196-.153l-.062-.058zm3.586 0l.375-.551a2.056 2.056 0 00.445.309 1.786 1.786 0 00.715.163c.18 0 .336-.044.469-.132a.426.426 0 00.203-.371.367.367 0 00-.117-.266.966.966 0 00-.297-.207 5.291 5.291 0 00-.406-.176 6.574 6.574 0 01-.446-.191 2.855 2.855 0 01-.402-.242 1.086 1.086 0 01-.301-.348 1.028 1.028 0 01-.113-.484c0-.357.139-.639.418-.844.278-.206.627-.309 1.047-.309.166 0 .324.016.472.047.151.031.275.069.371.113.097.042.181.085.254.13a.908.908 0 01.157.113l.05.046-.312.582a1.29 1.29 0 00-.043-.039 1.375 1.375 0 00-.125-.086 1.406 1.406 0 00-.484-.195 1.528 1.528 0 00-.348-.039.86.86 0 00-.473.125.415.415 0 00-.191.371.37.37 0 00.113.262c.078.078.178.146.301.203.122.055.256.11.402.168.149.055.297.118.446.191.148.073.283.155.406.246a1 1 0 01.297.348c.078.14.117.3.117.48 0 .342-.136.623-.406.844-.269.222-.621.332-1.059.332-.185 0-.365-.02-.539-.062a2.027 2.027 0 01-.434-.145 3.81 3.81 0 01-.304-.175 1.391 1.391 0 01-.196-.153l-.062-.058zm6.129.496v-5.649h2.062c.521 0 .947.163 1.278.489.333.322.5.75.5 1.28 0 .532-.167.963-.5 1.294-.334.33-.76.496-1.278.496h-1.273v2.09h-.789zm.789-2.778h1.144c.339 0 .606-.097.801-.293.198-.198.297-.467.297-.808 0-.339-.098-.603-.293-.793-.193-.193-.458-.29-.797-.29h-1.152v2.184zm3.91 2.778v-4.047h.75v.703l-.016.305h.016a1.63 1.63 0 01.484-.762c.23-.198.495-.297.797-.297l.199.02v.765a1.073 1.073 0 00-.914.23 1.42 1.42 0 00-.445.7 2.494 2.494 0 00-.098.726v1.657h-.773zm2.703-2.032a2.083 2.083 0 01.637-1.515c.198-.185.43-.331.695-.438a2.28 2.28 0 01.852-.16c.299 0 .582.053.847.16.269.107.5.253.696.438a2.083 2.083 0 01.64 1.516c0 .4-.097.765-.293 1.093-.195.326-.459.58-.793.762a2.248 2.248 0 01-1.097.273c-.399 0-.765-.09-1.098-.273a2.063 2.063 0 01-.793-.762 2.1 2.1 0 01-.293-1.094zm.793 0c0 .42.135.767.406 1.043.271.276.599.414.985.414.39 0 .72-.138.988-.414.268-.276.402-.623.402-1.043 0-.414-.134-.757-.402-1.03a1.33 1.33 0 00-.988-.411c-.386 0-.714.137-.985.41-.271.274-.406.617-.406 1.031zm4.207-1.394v-.621h.504v-.137c0-.253.036-.474.109-.664.076-.193.167-.34.274-.441.109-.105.237-.188.383-.25.148-.066.28-.106.394-.121.117-.019.237-.028.36-.028.052 0 .102.003.152.008.049.003.086.005.109.008l.035.008v.664a1.287 1.287 0 00-.402 0 .953.953 0 00-.223.07.694.694 0 00-.211.137.688.688 0 00-.152.25 1.093 1.093 0 00-.058.375v.12h2.476v4.048h-.773v-3.426h-1.703v3.426h-.77v-3.426h-.504zm2.969-1.43v-.793h.781v.793h-.781zm1.637 1.489v-.626h.554v-1.167h.75v1.168h.977v.624h-.977v1.801c0 .154.021.29.063.407a.74.74 0 00.152.265.78.78 0 00.219.153.924.924 0 00.43.085l.187-.015v.687a2.382 2.382 0 01-.637-.012 1.646 1.646 0 01-.402-.117 1.307 1.307 0 01-.391-.246 1.264 1.264 0 01-.281-.445 1.857 1.857 0 01-.113-.676v-1.886h-.531z" fill="#85827E"/><path d="M67.292 75.824l-4.648 4.293V71.53l4.648 4.294z" fill="#382E29"/><path d="M75.684 60.866l.449-.597.066.066c.032.026.097.074.196.145.099.07.2.131.304.183.107.052.24.1.399.145.159.044.316.066.472.066.276 0 .508-.074.696-.223a.735.735 0 00.28-.609.69.69 0 00-.093-.355.916.916 0 00-.254-.278 2.49 2.49 0 00-.363-.222 6.599 6.599 0 00-.43-.204 34.31 34.31 0 01-.453-.199 3.67 3.67 0 01-.433-.238 2.43 2.43 0 01-.364-.297 1.245 1.245 0 01-.25-.395 1.336 1.336 0 01-.093-.507c0-.443.171-.815.515-1.117.346-.305.783-.457 1.309-.457.195 0 .384.019.566.058.182.04.332.086.45.14.12.055.225.111.316.169.094.054.161.101.203.14l.062.059-.359.656a1.54 1.54 0 00-.23-.168 1.744 1.744 0 00-.602-.265 1.559 1.559 0 00-.406-.055c-.297 0-.542.08-.735.242a.729.729 0 00-.289.582c0 .125.032.238.094.34a.883.883 0 00.25.262c.107.072.228.142.363.207.138.065.283.129.434.191.151.063.302.129.453.2.151.067.294.146.43.238.138.09.259.192.363.304.107.112.192.249.254.41.063.162.094.34.094.536 0 .45-.163.829-.489 1.136-.325.305-.76.457-1.304.457a2.71 2.71 0 01-.653-.078c-.21-.05-.386-.11-.527-.183a4.587 4.587 0 01-.375-.223 1.638 1.638 0 01-.238-.184l-.078-.078zm4.312-.488a1.166 1.166 0 01.36-.86c.104-.096.233-.178.386-.245a2.58 2.58 0 01.442-.157 4.67 4.67 0 01.894-.121 7.52 7.52 0 01.356-.008h.175v-.074c0-.591-.295-.887-.886-.887-.117 0-.236.015-.356.043-.12.026-.224.059-.312.098a2.654 2.654 0 00-.407.207l-.054.043-.32-.566a1.342 1.342 0 01.261-.168 2.68 2.68 0 01.317-.145c.109-.042.248-.08.418-.113.169-.037.34-.055.515-.055.513 0 .908.137 1.184.41.279.274.418.666.418 1.176v2.559h-.719v-.383l.016-.32h-.016l-.023.046c-.008.019-.03.056-.067.114a1.4 1.4 0 01-.293.324 1.286 1.286 0 01-.234.16c-.084.044-.185.08-.305.11a1.448 1.448 0 01-.375.046c-.372 0-.695-.11-.969-.328-.27-.221-.406-.523-.406-.906zm.781-.04c0 .178.067.33.2.458.135.127.322.191.562.191a.895.895 0 00.567-.199 1.27 1.27 0 00.382-.488c.086-.195.13-.396.13-.602v-.129h-.2a4.084 4.084 0 00-.582.027 1.977 1.977 0 00-.598.137.83.83 0 00-.242.137.634.634 0 00-.156.2.579.579 0 00-.063.269zm3.723.071v-4.543h.777v4.41c0 .224.038.377.114.457a.425.425 0 00.32.118l.133-.008v.687c-.078.01-.163.016-.254.016-.104 0-.2-.007-.285-.02a1.114 1.114 0 01-.285-.09.817.817 0 01-.266-.187.965.965 0 01-.18-.332 1.558 1.558 0 01-.074-.508zm1.887-.918c0-.635.19-1.147.57-1.535.383-.39.867-.586 1.453-.586.37 0 .689.087.957.262.271.172.472.4.602.683.13.282.195.6.195.954l-.027.336h-2.95c.019.424.16.753.422.988.266.231.589.347.97.347a1.671 1.671 0 00.722-.167c.094-.047.177-.093.25-.137.075-.047.133-.088.172-.121l.054-.047.32.566a1.116 1.116 0 01-.07.063 2.641 2.641 0 01-.203.14c-.101.065-.21.124-.324.176a2.53 2.53 0 01-.433.137 2.328 2.328 0 01-.536.062c-.416 0-.789-.092-1.117-.277a1.982 1.982 0 01-.762-.762 2.212 2.212 0 01-.265-1.082zm.824-.472h2.16c-.01-.334-.108-.589-.293-.766a.942.942 0 00-.683-.266c-.305 0-.566.091-.782.274-.213.18-.347.432-.402.758zm3.566 2l.375-.551a1.417 1.417 0 00.204.164c.078.055.158.103.242.144a1.783 1.783 0 00.715.164c.18 0 .335-.044.468-.132a.426.426 0 00.203-.371.366.366 0 00-.117-.266.954.954 0 00-.297-.207 5.118 5.118 0 00-.406-.176 6.558 6.558 0 01-.445-.191 2.894 2.894 0 01-.402-.242 1.082 1.082 0 01-.301-.348 1.023 1.023 0 01-.114-.484c0-.357.14-.639.418-.844.279-.206.628-.309 1.047-.309.167 0 .325.016.473.047.15.031.275.069.371.113.096.042.181.085.254.13a.874.874 0 01.156.113l.05.046-.312.582a.785.785 0 00-.167-.125 1.412 1.412 0 00-.485-.195 1.527 1.527 0 00-.348-.039.859.859 0 00-.472.125.414.414 0 00-.192.371c0 .096.038.184.114.262.078.078.178.146.3.203.123.055.257.11.403.168.148.055.297.118.445.191.149.073.284.155.406.246a.991.991 0 01.297.348c.078.14.117.3.117.48 0 .342-.135.623-.406.844-.268.222-.62.332-1.058.332-.185 0-.365-.02-.54-.062a2.01 2.01 0 01-.433-.145 3.832 3.832 0 01-.305-.175 1.39 1.39 0 01-.195-.153l-.063-.058zm6.13.496v-5.649h1.726c.466 0 .818.043 1.055.13.291.108.523.299.695.57.172.27.258.59.258.956 0 .36-.093.68-.278.961a1.37 1.37 0 01-.738.567v.015c.042.05.098.136.168.258l1.199 2.192h-.894l-1.192-2.246h-1.21v2.246h-.79zm.788-2.938h1.137c.31 0 .553-.091.73-.273.18-.185.27-.435.27-.75 0-.414-.15-.705-.45-.871-.166-.086-.424-.13-.773-.13h-.914v2.024zm3.895.914c0-.635.19-1.147.57-1.535.383-.39.867-.586 1.453-.586.37 0 .689.087.957.262.271.172.472.4.602.683.13.282.195.6.195.954l-.027.336h-2.949c.018.424.159.753.422.988.265.231.588.347.968.347a1.668 1.668 0 00.723-.167c.094-.047.177-.093.25-.137.075-.047.133-.088.172-.121l.055-.047.32.566a1.332 1.332 0 01-.07.063 2.701 2.701 0 01-.204.14 2.505 2.505 0 01-.324.176c-.112.05-.256.095-.433.137a2.332 2.332 0 01-.536.062c-.416 0-.789-.092-1.117-.277a1.976 1.976 0 01-.761-.762 2.203 2.203 0 01-.266-1.082zm.824-.472h2.16c-.01-.334-.108-.589-.293-.766a.94.94 0 00-.683-.266c-.305 0-.565.091-.782.274-.213.18-.347.432-.402.758zm3.895 4.097v-5.648h.711v.343l-.016.297h.016a.913.913 0 01.043-.078c.02-.034.069-.092.144-.175a1.41 1.41 0 01.254-.227c.094-.065.223-.124.387-.176.164-.054.341-.082.531-.082.542 0 .973.195 1.293.586.323.39.484.902.484 1.535 0 .636-.172 1.149-.515 1.54a1.682 1.682 0 01-1.317.581c-.166 0-.323-.023-.468-.07a1.222 1.222 0 01-.356-.164 2.3 2.3 0 01-.234-.195.918.918 0 01-.145-.168l-.039-.067h-.016c.011.097.016.214.016.352v1.816h-.773zm.75-3.61c0 .248.041.48.125.696.086.214.217.392.394.535.18.14.388.211.625.211.334 0 .611-.13.832-.39.224-.26.336-.614.336-1.059 0-.435-.107-.785-.32-1.05a1.004 1.004 0 00-.824-.4c-.334 0-.612.123-.836.368-.222.242-.332.605-.332 1.09zm4.047 2.009v-4.047h.75v.703l-.016.305h.016c.096-.31.257-.564.484-.762.229-.198.495-.297.797-.297l.199.02v.765a1.07 1.07 0 00-.914.23c-.206.17-.354.403-.445.7a2.494 2.494 0 00-.098.726v1.657h-.773zm2.718-2.024c0-.635.19-1.147.571-1.535.382-.39.867-.586 1.453-.586.37 0 .689.087.957.262.271.172.471.4.601.683.131.282.196.6.196.954l-.028.336h-2.949c.018.424.159.753.422.988.266.231.588.347.969.347a1.666 1.666 0 00.722-.167c.094-.047.177-.093.25-.137.076-.047.133-.088.172-.121l.055-.047.32.566a1.016 1.016 0 01-.07.063 2.644 2.644 0 01-.527.316 2.54 2.54 0 01-.434.137 2.33 2.33 0 01-.535.062c-.417 0-.789-.092-1.117-.277a1.979 1.979 0 01-.762-.762 2.214 2.214 0 01-.266-1.082zm.824-.472h2.161c-.011-.334-.108-.589-.293-.766a.943.943 0 00-.684-.266 1.17 1.17 0 00-.781.274c-.214.18-.348.432-.403.758zm3.567 2l.375-.551a2.328 2.328 0 00.203.164c.078.055.159.103.242.144a1.786 1.786 0 00.715.164c.18 0 .336-.044.469-.132a.426.426 0 00.203-.371.367.367 0 00-.117-.266.966.966 0 00-.297-.207 5.291 5.291 0 00-.406-.176 6.574 6.574 0 01-.446-.191 2.855 2.855 0 01-.402-.242 1.086 1.086 0 01-.301-.348 1.028 1.028 0 01-.113-.484c0-.357.139-.639.418-.844.279-.206.627-.309 1.047-.309.166 0 .324.016.472.047.151.031.275.069.371.113.097.042.181.085.254.13a.908.908 0 01.157.113l.05.046-.312.582a.723.723 0 00-.168-.125 1.406 1.406 0 00-.484-.195 1.528 1.528 0 00-.348-.039.86.86 0 00-.473.125.415.415 0 00-.191.371.37.37 0 00.113.262c.078.078.179.146.301.203.122.055.256.11.402.168.149.055.297.118.446.191.148.073.283.155.406.246a1 1 0 01.297.348c.078.14.117.3.117.48 0 .342-.136.623-.406.844-.269.222-.621.332-1.059.332-.185 0-.365-.02-.539-.062a2.027 2.027 0 01-.434-.145 3.81 3.81 0 01-.304-.175 1.391 1.391 0 01-.196-.153l-.062-.058zm3.633-1.528c0-.635.19-1.147.57-1.535.383-.39.867-.586 1.453-.586.37 0 .689.087.957.262.271.172.472.4.602.683.13.282.195.6.195.954l-.027.336h-2.95c.019.424.159.753.422.988.266.231.589.347.969.347a1.674 1.674 0 00.723-.167c.094-.047.177-.093.25-.137.075-.047.133-.088.172-.121l.054-.047.321.566a1.084 1.084 0 01-.071.063 2.611 2.611 0 01-.203.14 2.505 2.505 0 01-.324.176 2.54 2.54 0 01-.434.137 2.323 2.323 0 01-.535.062c-.416 0-.789-.092-1.117-.277a1.986 1.986 0 01-.762-.762 2.213 2.213 0 01-.265-1.082zm.824-.472h2.16c-.01-.334-.108-.589-.293-.766a.94.94 0 00-.683-.266c-.305 0-.566.091-.782.274-.213.18-.347.432-.402.758zm3.894 2.496v-4.047h.75v.535l-.015.297h.015c.045-.1.106-.198.184-.297.081-.099.181-.198.301-.297.122-.099.273-.18.453-.242.18-.063.374-.094.582-.094.474 0 .824.129 1.051.387.229.258.344.646.344 1.164v2.594h-.778V59.1c0-.157-.01-.29-.031-.403a1.12 1.12 0 00-.109-.316.501.501 0 00-.239-.223.867.867 0 00-.39-.078c-.305 0-.573.091-.805.273a1.387 1.387 0 00-.473.72 1.975 1.975 0 00-.066.546v1.895h-.774zm4.457-3.367v-.626h.555v-1.167h.75v1.168h.977v.624h-.977v1.801c0 .154.021.29.063.407a.74.74 0 00.152.265.766.766 0 00.219.153.932.932 0 00.429.085l.188-.015v.687a2.372 2.372 0 01-.637-.012 1.646 1.646 0 01-.402-.117 1.307 1.307 0 01-.391-.246 1.264 1.264 0 01-.281-.445 1.857 1.857 0 01-.113-.676v-1.886h-.532zm2.903 2.23c0-.182.034-.348.101-.496.071-.149.157-.27.258-.363a1.38 1.38 0 01.387-.246 2.57 2.57 0 01.441-.157 4.652 4.652 0 01.895-.121c.109-.005.228-.008.355-.008h.176v-.074c0-.591-.295-.887-.887-.887-.117 0-.235.015-.355.043-.12.026-.224.059-.313.098a2.73 2.73 0 00-.406.207l-.055.043-.32-.566a1.412 1.412 0 01.262-.168 2.66 2.66 0 01.316-.145c.11-.042.249-.08.418-.113.17-.037.341-.055.516-.055.513 0 .907.137 1.183.41.279.274.418.666.418 1.176v2.559h-.718v-.383l.015-.32h-.015a1.488 1.488 0 01-.207.316c-.042.05-.101.105-.176.168a1.3 1.3 0 01-.234.16c-.084.044-.185.08-.305.11a1.446 1.446 0 01-.375.046c-.373 0-.695-.11-.969-.328-.271-.221-.406-.523-.406-.906zm.781-.04c0 .178.066.33.199.458.136.127.323.191.563.191a.894.894 0 00.566-.199c.169-.133.297-.295.383-.488.086-.195.129-.396.129-.602v-.129h-.199c-.102 0-.194.002-.278.004-.083.003-.185.01-.304.024a1.978 1.978 0 00-.598.137.832.832 0 00-.242.136.617.617 0 00-.219.469zm3.41-2.19v-.626h.555v-1.167h.75v1.168h.976v.624h-.976v1.801c0 .154.021.29.062.407a.755.755 0 00.153.265.753.753 0 00.219.153.932.932 0 00.429.085l.188-.015v.687a2.36 2.36 0 01-.637-.012 1.646 1.646 0 01-.402-.117 1.294 1.294 0 01-.391-.246 1.264 1.264 0 01-.281-.445 1.836 1.836 0 01-.114-.676v-1.886h-.531zm3.223-1.489v-.793h.781v.793h-.781zm.008 4.856v-4.047h.773v4.047h-.773zm1.437-4.047h.824l.985 2.734a4 4 0 01.113.465.351.351 0 00.024.086h.015a.351.351 0 00.024-.086l.05-.227c.024-.093.047-.173.071-.238l.984-2.734h.816l-1.496 4.047h-.898l-1.512-4.047zm4.289 2.023c0-.635.19-1.147.571-1.535.382-.39.867-.586 1.453-.586.37 0 .689.087.957.262.271.172.471.4.601.683.131.282.196.6.196.954l-.028.336h-2.949c.018.424.159.753.422.988.266.231.588.347.969.347a1.666 1.666 0 00.722-.167c.094-.047.177-.093.25-.137.076-.047.133-.088.172-.121l.055-.047.32.566a1.016 1.016 0 01-.07.063 2.644 2.644 0 01-.527.316 2.54 2.54 0 01-.434.137 2.33 2.33 0 01-.535.062c-.417 0-.789-.092-1.117-.277a1.979 1.979 0 01-.762-.762 2.214 2.214 0 01-.266-1.082zm.824-.472h2.161c-.011-.334-.108-.589-.293-.766a.943.943 0 00-.684-.266 1.17 1.17 0 00-.781.274c-.214.18-.348.432-.403.758z" fill="#85827E"/></g><defs><filter id="prefix__filter0_dd_858_2795" x="28" y="31" width="410" height="87" filterUnits="userSpaceOnUse" color-interpolation-filters="sRGB"><feFlood flood-opacity="0" result="BackgroundImageFix"/><feColorMatrix in="SourceAlpha" values="0 0 0 0 0 0 0 0 0 0 0 0 0 0 0 0 0 0 127 0" result="hardAlpha"/><feOffset dy="6"/><feGaussianBlur stdDeviation="8"/><feComposite in2="hardAlpha" operator="out"/><feColorMatrix values="0 0 0 0 0 0 0 0 0 0.399314 0 0 0 0 0.7125 0 0 0 0.12 0"/><feBlend in2="BackgroundImageFix" result="effect1_dropShadow_858_2795"/><feColorMatrix in="SourceAlpha" values="0 0 0 0 0 0 0 0 0 0 0 0 0 0 0 0 0 0 127 0" result="hardAlpha"/><feOffset dy="2"/><feGaussianBlur stdDeviation="3"/><feComposite in2="hardAlpha" operator="out"/><feColorMatrix values="0 0 0 0 0 0 0 0 0 0 0 0 0 0 0 0 0 0 0.08 0"/><feBlend in2="effect1_dropShadow_858_2795" result="effect2_dropShadow_858_2795"/><feBlend in="SourceGraphic" in2="effect2_dropShadow_858_2795" result="shape"/></filter></defs></svg>