<svg viewBox="0 0 377 55" fill="#EBF3E5" xmlns="http://www.w3.org/2000/svg"><rect width="377" height="55" rx="12"/><path d="M31.165 35.116c0-1.23.41-2.26 1.23-3.088.821-.828 1.848-1.242 3.083-1.242.383 0 .75.037 1.101.111.352.075.641.167.867.276.231.11.434.22.61.334.176.11.303.203.38.281l.124.111-.586.891a2.71 2.71 0 00-.316-.258c-.137-.101-.42-.238-.85-.41a3.404 3.404 0 00-1.283-.258c-.93 0-1.686.31-2.268.932-.578.617-.867 1.387-.867 2.309 0 .93.293 1.72.879 2.373.59.648 1.346.972 2.267.972.473 0 .926-.092 1.36-.275.437-.184.756-.367.955-.551l.299-.275.638.85a1.97 1.97 0 01-.14.152 3.937 3.937 0 01-.41.316c-.211.152-.436.29-.674.41a4.791 4.791 0 01-.908.322 4.515 4.515 0 01-1.155.147c-1.258 0-2.295-.424-3.111-1.272-.817-.847-1.225-1.9-1.225-3.158zm9 4.283v-8.472h1.16v3.111l-.023.504h.023c.16-.352.436-.666.827-.943.394-.278.867-.416 1.418-.416 1.39 0 2.087.775 2.091 2.326v3.89h-1.166v-3.62c0-.489-.08-.866-.24-1.132-.16-.265-.465-.398-.914-.398-.445 0-.846.14-1.201.422-.352.281-.59.64-.715 1.078a3.08 3.08 0 00-.1.809v2.841h-1.16zm7.23 0v-6.07h1.126v1.055l-.024.457h.024c.144-.465.386-.846.726-1.143a1.76 1.76 0 011.196-.445l.299.03v1.148a1.584 1.584 0 00-1.365.352c-.313.253-.538.6-.675 1.042a3.66 3.66 0 00-.146 1.09v2.484h-1.16zm4.489-7.283v-1.19h1.172v1.19h-1.172zm.012 7.283v-6.07h1.16v6.07h-1.16zm2.496-.744l.562-.826c.047.055.117.121.211.2.098.073.3.177.604.31.305.133.613.2.926.2.273 0 .51-.07.709-.206.199-.137.298-.32.298-.55 0-.2-.109-.376-.328-.528a3.237 3.237 0 00-.779-.404 16.24 16.24 0 01-.908-.387 2.232 2.232 0 01-.785-.604 1.463 1.463 0 01-.323-.949c0-.535.207-.957.621-1.266.418-.308.944-.462 1.577-.462.39 0 .75.056 1.078.17.332.109.56.22.685.334l.194.17-.47.873a1.716 1.716 0 00-.175-.147c-.074-.063-.242-.143-.504-.24a2.217 2.217 0 00-.82-.153 1.27 1.27 0 00-.71.188c-.19.125-.286.31-.286.557 0 .199.107.37.322.515.219.145.479.276.78.393.304.113.609.24.913.38.305.141.565.344.78.61.218.262.328.578.328.95 0 .51-.203.933-.61 1.265-.402.332-.931.498-1.587.498-.442 0-.854-.074-1.237-.223-.383-.148-.656-.297-.82-.445l-.246-.223zm8.613-3.55c0-1.215.42-2.239 1.26-3.07.84-.833 1.871-1.249 3.094-1.249 1.226 0 2.258.416 3.093 1.248.836.832 1.254 1.856 1.254 3.07 0 1.247-.418 2.3-1.254 3.159-.835.855-1.867 1.283-3.093 1.283-1.223 0-2.254-.428-3.094-1.283-.84-.86-1.26-1.912-1.26-3.158zm1.225 0c0 .945.302 1.74.908 2.384.61.64 1.35.961 2.22.961.876 0 1.614-.322 2.215-.967.606-.644.909-1.437.909-2.378 0-.922-.303-1.692-.909-2.31-.601-.62-1.34-.93-2.214-.93-.871 0-1.612.31-2.221.93-.606.618-.908 1.388-.908 2.31zm8.97 4.294v-8.472h1.16v3.111l-.023.504h.024c.16-.352.435-.666.826-.943.394-.278.867-.416 1.418-.416 1.39 0 2.088.775 2.091 2.326v3.89h-1.165v-3.62c0-.489-.08-.866-.24-1.132-.16-.265-.466-.398-.915-.398-.445 0-.846.14-1.201.422-.352.281-.59.64-.715 1.078a3.08 3.08 0 00-.1.809v2.841H73.2zM159.542 36.97l.557-.748c.019.02.048.047.088.083.039.033.12.093.244.18.123.089.25.165.381.23.133.065.299.126.498.181.198.055.395.083.59.083.345 0 .635-.093.87-.278.234-.186.351-.44.351-.762 0-.156-.041-.3-.122-.43a1.116 1.116 0 00-.317-.337 3.42 3.42 0 00-.459-.278 11.077 11.077 0 00-.547-.259c-.192-.084-.384-.17-.576-.258a4.593 4.593 0 01-.542-.308 3.096 3.096 0 01-.459-.376 1.582 1.582 0 01-.323-.493 1.659 1.659 0 01-.117-.63c0-.489.173-.913.518-1.275.345-.36.792-.582 1.343-.664v-.942h.712v.933c.209.013.409.047.601.102.195.052.356.11.483.176.131.065.245.129.342.19.098.062.169.114.215.157l.068.063-.449.82a.644.644 0 00-.078-.063 1.799 1.799 0 00-.21-.147 2.353 2.353 0 00-.757-.332 1.94 1.94 0 00-.508-.068c-.374 0-.682.1-.922.303-.238.198-.357.44-.357.727 0 .15.039.287.117.41.082.124.189.232.323.323.133.09.286.179.459.263.172.082.353.163.542.245.192.078.384.162.576.253.192.088.374.19.547.308.172.117.325.246.459.386.133.14.239.31.317.513.081.198.122.418.122.659 0 .51-.171.95-.513 1.318-.338.365-.797.581-1.377.65v.922h-.712v-.923a3.797 3.797 0 01-.694-.141 3.001 3.001 0 01-.561-.234 4.785 4.785 0 01-.391-.25 1.757 1.757 0 01-.249-.205l-.083-.078zm5.693-1.231c0-.202.035-.4.103-.596.068-.199.146-.363.234-.493.088-.13.194-.257.318-.381.123-.127.216-.215.278-.264.065-.052.13-.1.195-.146-.527-.381-.791-.851-.791-1.411 0-.192.028-.376.083-.552a1.747 1.747 0 01.699-.913c.169-.117.375-.21.62-.278.244-.069.511-.103.8-.103.661 0 1.197.17 1.607.513.41.341.615.8.615 1.377 0 .602-.28 1.214-.84 1.836.303.185.537.397.703.634.17.238.254.528.254.87 0 .367-.097.708-.293 1.02-.195.313-.48.567-.854.762a2.722 2.722 0 01-1.27.288c-.709 0-1.297-.202-1.762-.606-.466-.403-.699-.922-.699-1.557zm1.011-.059c0 .39.143.71.43.957.289.248.63.371 1.02.371.384 0 .713-.112.987-.337.273-.227.41-.519.41-.874a.72.72 0 00-.088-.346 1.04 1.04 0 00-.21-.279 1.824 1.824 0 00-.352-.249 4.022 4.022 0 00-.4-.21 13.16 13.16 0 00-.474-.215 21.29 21.29 0 01-.473-.22c-.567.398-.85.865-.85 1.402zm.308-3.208a.98.98 0 00.029.244c.02.075.054.147.103.215.048.065.096.126.141.18.049.056.116.113.2.172l.225.141c.065.04.155.087.269.142.117.052.209.093.278.122l.307.127c.134.055.233.098.298.127.049-.049.098-.104.147-.166.052-.065.119-.16.2-.283.081-.124.146-.269.195-.435a1.69 1.69 0 00.078-.508.947.947 0 00-.351-.771c-.231-.192-.534-.288-.908-.288-.378 0-.674.093-.889.278a.889.889 0 00-.322.703zm4.814 1.768c0-.42.026-.806.078-1.157.052-.355.139-.687.259-.997.121-.312.274-.576.459-.79.189-.215.426-.385.713-.508.286-.124.614-.186.981-.186.368 0 .695.062.982.186.29.123.529.293.718.507.188.215.343.479.463.791.121.31.207.642.259.997.052.351.078.737.078 1.157 0 .423-.026.812-.078 1.167a4.616 4.616 0 01-.259 1c-.12.313-.275.579-.463.797a2.014 2.014 0 01-.718.512 2.459 2.459 0 01-.982.186c-.367 0-.695-.062-.981-.186a2.021 2.021 0 01-.713-.512 2.757 2.757 0 01-.459-.796 4.674 4.674 0 01-.259-1.001 8.075 8.075 0 01-.078-1.167zm1.011 0c0 .407.023.768.068 1.084.049.316.127.604.235.864.11.257.263.456.459.596.198.136.437.205.717.205.228 0 .428-.047.601-.142.173-.094.314-.221.425-.38.11-.16.202-.359.273-.596.072-.238.121-.489.147-.752.029-.264.044-.557.044-.88 0-.318-.015-.608-.044-.868a3.813 3.813 0 00-.147-.748 2.11 2.11 0 00-.273-.595 1.18 1.18 0 00-.425-.376 1.234 1.234 0 00-.601-.142 1.218 1.218 0 00-1.02.518 2.11 2.11 0 00-.274.596 4.407 4.407 0 00-.146.747c-.026.26-.039.55-.039.869zm5.098-1.28c0-.693.213-1.26.639-1.699.427-.44.97-.659 1.631-.659.371 0 .718.08 1.04.24.326.159.606.382.84.668.238.284.423.635.557 1.055.136.417.205.872.205 1.367 0 .371-.039.74-.118 1.108a4.55 4.55 0 01-.375 1.075c-.17.345-.376.65-.621.913-.24.264-.54.475-.898.635-.355.16-.744.239-1.167.239a3.47 3.47 0 01-.718-.073 2.491 2.491 0 01-.498-.147l-.156-.073.322-.86.137.069c.062.026.181.062.356.107.176.043.347.064.513.064.313 0 .597-.067.855-.2.257-.137.47-.32.639-.547.169-.228.306-.479.41-.752a3.59 3.59 0 00.22-.87h-.019c-.144.2-.362.359-.655.48-.29.12-.592.18-.908.18-.661 0-1.198-.22-1.611-.66-.414-.442-.62-.995-.62-1.66zm.981 0c0 .44.13.798.391 1.075.26.276.613.415 1.059.415.391 0 .728-.101 1.011-.303.286-.205.43-.435.43-.688 0-.306-.07-.61-.21-.909a1.961 1.961 0 00-.581-.742 1.257 1.257 0 00-.801-.298c-.401 0-.718.137-.952.41-.231.27-.347.617-.347 1.04zm5.278 4.82v-1.03h1.021v1.03h-1.021zm2.085-1.89v-.62l3.262-4.55h1.133v4.33h.957v.84h-.957v1.89h-.972v-1.89h-3.423zm1.094-.84h2.329v-2.568a7.678 7.678 0 01.029-.6l.01-.103h-.019a3.43 3.43 0 01-.352.58l-1.997 2.672v.02zm4.971.84v-.62l3.261-4.55h1.133v4.33h.957v.84h-.957v1.89h-.971v-1.89h-3.423zm1.093-.84h2.33v-2.568a6.342 6.342 0 01.029-.6l.01-.103h-.02a3.364 3.364 0 01-.351.58l-1.998 2.672v.02z" fill="#382E29"/><path d="M159.039 15.946v-.688h4.664v.688h-1.933v4.96h-.793v-4.96h-1.938zm5.016 2.93c0-.3.057-.581.172-.844.114-.263.269-.487.464-.672a2.279 2.279 0 011.547-.598 2.252 2.252 0 011.543.598 2.083 2.083 0 01.641 1.516 2.1 2.1 0 01-.293 1.093c-.195.326-.46.58-.793.762a2.25 2.25 0 01-1.098.273c-.398 0-.764-.09-1.097-.273a2.056 2.056 0 01-.793-.762 2.091 2.091 0 01-.293-1.094zm.793 0c0 .419.135.766.406 1.043.271.276.599.413.984.413.391 0 .72-.137.989-.413.268-.277.402-.624.402-1.044 0-.414-.134-.757-.402-1.03a1.333 1.333 0 00-.989-.41c-.385 0-.713.136-.984.41-.271.273-.406.616-.406 1.03zm4.132-1.336v-.625h.555v-1.168h.75v1.168h.977v.625h-.977v1.8c0 .154.021.29.063.407a.74.74 0 00.152.265.753.753 0 00.219.153.936.936 0 00.429.085l.188-.015v.687a2.356 2.356 0 01-.637-.012 1.64 1.64 0 01-.402-.116 1.307 1.307 0 01-.391-.247 1.264 1.264 0 01-.281-.445 1.837 1.837 0 01-.113-.676V17.54h-.532zm2.903 2.23c0-.182.034-.348.101-.496.071-.149.157-.27.258-.363.104-.097.233-.179.387-.246a2.57 2.57 0 01.441-.157 4.652 4.652 0 01.895-.121c.109-.005.228-.008.355-.008h.176v-.074c0-.591-.295-.886-.887-.886-.117 0-.235.014-.355.042-.12.027-.224.059-.313.098a2.701 2.701 0 00-.406.207l-.055.043-.32-.566a1.412 1.412 0 01.262-.168c.101-.055.207-.103.316-.145.11-.041.249-.08.418-.113.17-.037.341-.055.516-.055.513 0 .907.137 1.183.41.279.274.418.666.418 1.176v2.559h-.718v-.383l.015-.32h-.015l-.024.046c-.008.019-.03.056-.066.114a1.144 1.144 0 01-.117.156c-.042.05-.101.105-.176.168a1.295 1.295 0 01-.234.16c-.084.044-.185.08-.305.11a1.446 1.446 0 01-.375.046c-.373 0-.696-.109-.969-.328-.271-.221-.406-.523-.406-.906zm.781-.039c0 .177.066.33.199.457.136.128.323.191.563.191a.894.894 0 00.566-.199c.169-.133.297-.295.383-.488.086-.195.129-.396.129-.602v-.129h-.199c-.102 0-.194.002-.278.004-.083.003-.185.01-.304.024a1.992 1.992 0 00-.598.137.83.83 0 00-.242.136.617.617 0 00-.219.469zm3.723.07v-4.543h.777v4.41c0 .224.038.377.113.457a.427.427 0 00.321.118l.132-.008v.687a1.919 1.919 0 01-.539-.004 1.11 1.11 0 01-.285-.09.818.818 0 01-.265-.187.945.945 0 01-.18-.332 1.545 1.545 0 01-.074-.508zm4.383 1.106v-5.649h1.726c.466 0 .818.043 1.055.13.291.109.523.299.695.57.172.27.258.59.258.957 0 .359-.093.68-.277.96a1.37 1.37 0 01-.739.567v.015c.042.05.098.136.168.258l1.199 2.192h-.894l-1.191-2.246h-1.211v2.246h-.789zm.789-2.938h1.136c.31 0 .554-.09.731-.273.179-.185.269-.435.269-.75 0-.414-.149-.705-.449-.871-.167-.086-.424-.13-.773-.13h-.914v2.024zm3.894.914c0-.635.19-1.147.57-1.535.383-.39.868-.586 1.454-.586.369 0 .688.087.957.262.27.172.471.4.601.683.13.282.195.6.195.954l-.027.336h-2.949c.018.424.159.753.422.988.265.232.588.348.969.348a1.66 1.66 0 00.722-.168c.094-.047.177-.093.25-.137.076-.047.133-.087.172-.121l.055-.047.32.566a1.332 1.332 0 01-.273.203c-.102.066-.21.124-.325.176-.112.05-.256.095-.433.137a2.33 2.33 0 01-.535.062c-.417 0-.789-.092-1.118-.277a1.977 1.977 0 01-.761-.762 2.214 2.214 0 01-.266-1.082zm.824-.472h2.161c-.011-.334-.109-.589-.293-.766a.945.945 0 00-.684-.266 1.17 1.17 0 00-.781.274c-.214.18-.348.432-.403.758zm3.34-1.551h.824l.985 2.734a4 4 0 01.113.465.478.478 0 00.023.086h.016a.351.351 0 00.024-.086l.05-.227c.024-.093.047-.173.071-.238l.984-2.734h.816l-1.496 4.047h-.898l-1.512-4.047zm4.289 2.023c0-.635.19-1.147.571-1.535.382-.39.867-.586 1.453-.586.369 0 .688.087.957.262.271.172.471.4.601.683.13.282.196.6.196.954l-.028.336h-2.949c.018.424.159.753.422.988.266.232.588.348.969.348a1.66 1.66 0 00.722-.168c.094-.047.177-.093.25-.137.076-.047.133-.087.172-.121l.055-.047.32.566a1.016 1.016 0 01-.07.063 2.644 2.644 0 01-.527.316 2.54 2.54 0 01-.434.137 2.33 2.33 0 01-.535.062c-.417 0-.789-.092-1.117-.277a1.98 1.98 0 01-.762-.762 2.214 2.214 0 01-.266-1.082zm.824-.472h2.161c-.011-.334-.108-.589-.293-.766a.943.943 0 00-.684-.266 1.17 1.17 0 00-.781.274c-.214.18-.348.432-.403.758zm3.895 2.496V16.86h.75v.535l-.016.297h.016a1.37 1.37 0 01.184-.297 2.17 2.17 0 01.3-.297c.123-.099.274-.18.453-.242.18-.063.374-.094.583-.094.473 0 .824.13 1.05.387.229.258.344.646.344 1.164v2.594h-.777v-2.414c0-.157-.011-.29-.032-.403a1.09 1.09 0 00-.109-.316.494.494 0 00-.238-.223.871.871 0 00-.391-.078c-.304 0-.573.091-.804.274a1.38 1.38 0 00-.473.718 1.972 1.972 0 00-.067.547v1.895h-.773zm4.762-1.457v-2.59h.777v2.414c0 .154.009.286.027.398.021.11.058.214.11.313.052.096.13.17.234.223a.91.91 0 00.391.074c.396 0 .712-.15.949-.45.24-.299.359-.658.359-1.078V16.86h.778v4.047h-.75v-.535l.015-.297h-.015c-.099.234-.282.448-.547.64-.266.193-.58.29-.942.29-.461 0-.807-.127-1.039-.38-.231-.255-.347-.647-.347-1.175zm4.558-.567c0-.635.19-1.147.571-1.535.382-.39.867-.586 1.453-.586.37 0 .689.087.957.262.271.172.471.4.601.683.131.282.196.6.196.954l-.028.336h-2.949c.018.424.159.753.422.988.266.232.589.348.969.348a1.66 1.66 0 00.722-.168c.094-.047.177-.093.25-.137.076-.047.133-.087.172-.121l.055-.047.32.566a1.016 1.016 0 01-.07.063 2.644 2.644 0 01-.527.316 2.54 2.54 0 01-.434.137 2.323 2.323 0 01-.535.062c-.417 0-.789-.092-1.117-.277a1.986 1.986 0 01-.762-.762 2.214 2.214 0 01-.266-1.082zm.825-.472h2.16c-.011-.334-.108-.589-.293-.766a.943.943 0 00-.684-.266 1.17 1.17 0 00-.781.274c-.214.18-.348.432-.402.758z" fill="#85827E"/><path d="M236.385 36.97l.557-.748.088.083c.039.033.12.093.244.18.124.089.251.165.381.23.133.065.3.126.498.181a2.2 2.2 0 00.591.083c.345 0 .635-.093.869-.278.234-.186.352-.44.352-.762 0-.156-.041-.3-.122-.43a1.12 1.12 0 00-.318-.337 3.299 3.299 0 00-.459-.278 10.662 10.662 0 00-.547-.259c-.192-.084-.384-.17-.576-.258a4.675 4.675 0 01-.542-.308 3.203 3.203 0 01-.459-.376 1.58 1.58 0 01-.322-.493 1.659 1.659 0 01-.117-.63c0-.489.172-.913.517-1.275.345-.36.793-.582 1.343-.664v-.942h.713v.933c.208.013.408.047.601.102.195.052.356.11.483.176.13.065.244.129.342.19.097.062.169.114.215.157l.068.063-.449.82a2.004 2.004 0 00-.288-.21 2.41 2.41 0 00-.757-.332 1.946 1.946 0 00-.508-.068c-.374 0-.682.1-.923.303a.913.913 0 00-.356.727c0 .15.039.287.117.41.081.124.189.232.322.323.134.09.287.179.459.263.173.082.353.163.542.245.192.078.384.162.576.253.192.088.375.19.547.308.173.117.326.246.459.386.134.14.239.31.318.513.081.198.122.418.122.659 0 .51-.171.95-.513 1.318-.339.365-.798.581-1.377.65v.922h-.713v-.923a3.769 3.769 0 01-.693-.141 3.013 3.013 0 01-.952-.484 1.757 1.757 0 01-.249-.205l-.084-.078zm5.43-1.08v-.62l3.262-4.55h1.133v4.33h.957v.84h-.957v1.89h-.972v-1.89h-3.423zm1.094-.84h2.329v-2.568a7.678 7.678 0 01.029-.6l.01-.103h-.019a3.43 3.43 0 01-.352.58l-1.997 2.672v.02zm5.254-.478c0-.371.039-.74.117-1.109.078-.367.202-.724.371-1.069a3.96 3.96 0 01.62-.918c.244-.264.544-.475.899-.635.358-.16.748-.239 1.172-.239.247 0 .485.024.712.073.228.05.394.096.498.142l.162.073-.323.85a2.313 2.313 0 00-.141-.064 2.467 2.467 0 00-.357-.102 2.177 2.177 0 00-.512-.064 1.853 1.853 0 00-1.495.747 3.114 3.114 0 00-.41.752 3.832 3.832 0 00-.215.87h.02c.146-.2.365-.36.654-.484.293-.124.596-.186.909-.186.657 0 1.193.223 1.606.67.413.442.62.995.62 1.66 0 .693-.213 1.261-.64 1.704-.423.44-.965.659-1.626.659-.765 0-1.396-.306-1.894-.918-.498-.615-.747-1.42-.747-2.412zm1.04.468c0 .306.068.61.205.909.137.3.329.548.576.747.251.195.519.293.806.293.397 0 .713-.137.947-.41.238-.274.357-.62.357-1.04 0-.437-.132-.793-.396-1.07-.26-.28-.612-.42-1.055-.42-.394 0-.732.101-1.015.303-.284.199-.425.428-.425.689zm5.117 2.74v-1.03h1.021v1.03h-1.021zm2.266-4.82c0-.693.213-1.26.639-1.699.427-.44.97-.659 1.631-.659.371 0 .718.08 1.04.24.326.159.606.382.84.668.238.284.423.635.557 1.055.136.417.205.872.205 1.367 0 .371-.039.74-.117 1.108a4.598 4.598 0 01-.376 1.075c-.17.345-.376.65-.62.913a2.673 2.673 0 01-.899.635c-.355.16-.744.239-1.167.239a3.47 3.47 0 01-.718-.073 2.491 2.491 0 01-.498-.147l-.156-.073.322-.86.137.069c.062.026.181.062.356.107.176.043.347.064.513.064.313 0 .597-.067.855-.2.257-.137.47-.32.639-.547a3.08 3.08 0 00.41-.752 3.59 3.59 0 00.22-.87h-.019c-.144.2-.362.359-.655.48-.289.12-.592.18-.908.18-.661 0-1.198-.22-1.611-.66-.414-.442-.62-.995-.62-1.66zm.981 0c0 .44.13.798.391 1.075.26.276.613.415 1.059.415.391 0 .728-.101 1.011-.303.287-.205.43-.435.43-.688 0-.306-.07-.61-.21-.909a1.961 1.961 0 00-.581-.742 1.257 1.257 0 00-.801-.298c-.4 0-.718.137-.952.41-.231.27-.347.617-.347 1.04zm5.005 0c0-.693.213-1.26.64-1.699.426-.44.97-.659 1.631-.659.371 0 .717.08 1.04.24.325.159.605.382.839.668.238.284.424.635.557 1.055.137.417.205.872.205 1.367 0 .371-.039.74-.117 1.108a4.553 4.553 0 01-.376 1.075c-.169.345-.376.65-.62.913a2.808 2.808 0 01-2.066.874 3.46 3.46 0 01-1.215-.22l-.157-.073.323-.86.136.069c.062.026.181.062.357.107.176.043.346.064.512.064.313 0 .598-.067.855-.2a1.9 1.9 0 00.64-.547c.169-.228.306-.479.41-.752.107-.274.18-.563.219-.87h-.019c-.143.2-.361.359-.654.48-.29.12-.593.18-.909.18-.66 0-1.197-.22-1.611-.66-.413-.442-.62-.995-.62-1.66zm.981 0c0 .44.131.798.391 1.075.261.276.614.415 1.06.415.39 0 .727-.101 1.01-.303.287-.205.43-.435.43-.688 0-.306-.07-.61-.21-.909-.137-.3-.33-.547-.581-.742a1.253 1.253 0 00-.801-.298c-.4 0-.717.137-.952.41-.231.27-.347.617-.347 1.04z" fill="#382E29"/><path d="M235.883 15.946v-.688h4.664v.688h-1.934v4.96h-.793v-4.96h-1.937zm5.015 2.93a2.083 2.083 0 01.637-1.516c.198-.185.43-.33.695-.438a2.28 2.28 0 01.852-.16c.299 0 .582.054.847.16.269.107.5.253.696.438.198.185.354.409.469.672a2.1 2.1 0 01.171.843c0 .401-.097.766-.293 1.094-.195.326-.459.58-.793.762a2.249 2.249 0 01-1.097.273 2.25 2.25 0 01-1.098-.273 2.063 2.063 0 01-.793-.762 2.1 2.1 0 01-.293-1.094zm.793 0c0 .419.136.766.406 1.043.271.276.599.413.985.413.39 0 .72-.137.988-.413.268-.277.402-.624.402-1.044 0-.414-.134-.757-.402-1.03a1.33 1.33 0 00-.988-.41c-.386 0-.714.136-.985.41-.27.273-.406.616-.406 1.03zm4.133-1.336v-.625h.555v-1.168h.75v1.168h.976v.625h-.976v1.8c0 .154.02.29.062.407a.755.755 0 00.153.265.761.761 0 00.218.153.957.957 0 00.43.085l.187-.015v.687a2.346 2.346 0 01-.636-.012 1.647 1.647 0 01-.403-.116 1.29 1.29 0 01-.39-.247 1.25 1.25 0 01-.281-.445 1.836 1.836 0 01-.114-.676V17.54h-.531zm2.902 2.23a1.156 1.156 0 01.36-.86c.104-.096.233-.178.386-.245.157-.07.304-.123.442-.157a4.71 4.71 0 01.894-.121c.11-.005.228-.008.356-.008h.176v-.074c0-.591-.296-.886-.887-.886-.117 0-.236.014-.356.042a1.643 1.643 0 00-.312.098 2.577 2.577 0 00-.242.113 1.25 1.25 0 00-.164.094l-.055.043-.32-.566a.961.961 0 01.066-.051 2.658 2.658 0 01.512-.262 2.63 2.63 0 01.418-.113c.169-.037.341-.055.515-.055.513 0 .908.137 1.184.41.279.274.418.666.418 1.176v2.559h-.719v-.383l.016-.32h-.016l-.023.046c-.008.019-.03.056-.067.114a1.39 1.39 0 01-.293.324 1.295 1.295 0 01-.234.16c-.083.044-.185.08-.305.11a1.446 1.446 0 01-.375.046c-.372 0-.695-.109-.968-.328-.271-.221-.407-.523-.407-.906zm.782-.039c0 .177.066.33.199.457.135.128.323.191.562.191a.897.897 0 00.567-.199c.169-.133.297-.295.383-.488.085-.195.128-.396.128-.602v-.129h-.199c-.101 0-.194.002-.277.004-.083.003-.185.01-.305.024a1.953 1.953 0 00-.597.137.823.823 0 00-.243.136.645.645 0 00-.156.2.575.575 0 00-.062.269zm3.722.07v-4.543h.778v4.41c0 .224.037.377.113.457.075.079.182.118.32.118l.133-.008v.687a1.93 1.93 0 01-.254.016c-.104 0-.199-.006-.285-.02a1.11 1.11 0 01-.285-.09.822.822 0 01-.266-.187.979.979 0 01-.18-.332 1.571 1.571 0 01-.074-.508zm3.996-1.75c0-.403.073-.784.219-1.14.149-.357.349-.663.602-.918.252-.255.557-.457.914-.606a2.936 2.936 0 011.14-.222c.253 0 .496.026.731.078.234.05.428.11.582.183.153.073.289.146.406.219.117.073.203.134.258.184l.078.078-.391.593a1.813 1.813 0 00-.293-.215 2.759 2.759 0 00-.343-.187 2.59 2.59 0 00-.453-.148 2.264 2.264 0 00-.543-.067c-.412 0-.778.098-1.098.293-.32.193-.566.453-.738.782a2.31 2.31 0 00-.254 1.086c0 .403.086.774.258 1.113.171.336.419.607.742.812.323.203.689.305 1.097.305a2.38 2.38 0 001.075-.258 4.67 4.67 0 00.355-.215 1.66 1.66 0 00.234-.183l.079-.078.425.566c-.02.023-.052.056-.093.098-.039.039-.129.11-.27.215a3.036 3.036 0 01-.445.273 3.16 3.16 0 01-.614.215c-.25.065-.506.097-.769.097-.555 0-1.053-.13-1.496-.39a2.752 2.752 0 01-1.031-1.067 3.1 3.1 0 01-.364-1.496zm5.703.825a2.1 2.1 0 01.637-1.516c.198-.185.43-.33.695-.438.269-.106.553-.16.852-.16a2.252 2.252 0 011.543.598c.198.185.354.409.469.672a2.1 2.1 0 01.172.843 2.07 2.07 0 01-1.086 1.856c-.334.182-.7.273-1.098.273-.398 0-.764-.09-1.098-.273a2.07 2.07 0 01-1.086-1.856zm.793 0c0 .419.136.766.407 1.043.27.276.599.413.984.413.391 0 .72-.137.988-.413.269-.277.403-.624.403-1.044 0-.414-.134-.757-.403-1.03a1.329 1.329 0 00-.988-.41c-.385 0-.714.136-.984.41-.271.273-.407.616-.407 1.03zm4.168 1.535l.375-.551.055.05a2.4 2.4 0 00.149.114c.078.055.158.103.242.145a1.786 1.786 0 00.715.163.825.825 0 00.468-.132.424.424 0 00.203-.371.367.367 0 00-.117-.266.941.941 0 00-.297-.207 4.97 4.97 0 00-.406-.176 6.552 6.552 0 01-.445-.191 2.926 2.926 0 01-.403-.242 1.083 1.083 0 01-.3-.348 1.017 1.017 0 01-.114-.484c0-.357.14-.639.418-.844.279-.206.628-.309 1.047-.309.167 0 .324.016.473.047.151.031.275.07.371.113.096.042.181.085.254.13a.85.85 0 01.156.113l.051.046-.313.583a.486.486 0 00-.043-.04 1.237 1.237 0 00-.125-.085 1.406 1.406 0 00-.484-.196 1.534 1.534 0 00-.348-.039.857.857 0 00-.472.125.414.414 0 00-.192.371c0 .096.038.184.114.262.078.078.178.146.3.203.123.055.257.11.403.168.148.055.297.119.445.191.149.073.284.155.406.246a.98.98 0 01.297.348c.078.14.117.3.117.48 0 .342-.135.623-.406.844-.268.222-.621.332-1.058.332-.185 0-.365-.02-.54-.062a2.017 2.017 0 01-.433-.145 3.842 3.842 0 01-.305-.175 1.432 1.432 0 01-.195-.153l-.063-.058zm3.551-2.871v-.625h.555v-1.168h.75v1.168h.976v.625h-.976v1.8c0 .154.021.29.062.407a.755.755 0 00.153.265.761.761 0 00.218.153.957.957 0 00.43.085l.188-.015v.687a2.346 2.346 0 01-.637-.012 1.64 1.64 0 01-.402-.116 1.294 1.294 0 01-.391-.247 1.264 1.264 0 01-.281-.445 1.836 1.836 0 01-.114-.676V17.54h-.531z" fill="#85827E"/><path d="M297.117 36.97l.556-.748.088.083c.039.033.121.093.244.18.124.089.251.165.381.23a3 3 0 00.498.181 2.2 2.2 0 00.591.083c.345 0 .635-.093.869-.278.235-.186.352-.44.352-.762 0-.156-.041-.3-.122-.43a1.107 1.107 0 00-.318-.337 3.299 3.299 0 00-.459-.278 10.278 10.278 0 00-.547-.259c-.192-.084-.384-.17-.576-.258a4.76 4.76 0 01-.542-.308 3.203 3.203 0 01-.459-.376 1.58 1.58 0 01-.322-.493 1.659 1.659 0 01-.117-.63c0-.489.172-.913.517-1.275.346-.36.793-.582 1.343-.664v-.942h.713v.933a2.8 2.8 0 01.601.102c.195.052.356.11.483.176.13.065.244.129.342.19.098.062.169.114.215.157l.068.063-.449.82a2.004 2.004 0 00-.288-.21 2.41 2.41 0 00-.757-.332 1.946 1.946 0 00-.508-.068c-.374 0-.682.1-.923.303-.237.198-.356.44-.356.727 0 .15.039.287.117.41.081.124.189.232.322.323.134.09.287.179.459.263.173.082.353.163.542.245.192.078.384.162.576.253.193.088.375.19.547.308.173.117.326.246.459.386.134.14.24.31.318.513.081.198.122.418.122.659 0 .51-.171.95-.513 1.318-.338.365-.797.581-1.377.65v.922h-.713v-.923a3.786 3.786 0 01-.693-.141 3.013 3.013 0 01-.952-.484 1.757 1.757 0 01-.249-.205l-.083-.078zm5.522-.03l.542-.752c.02.02.046.047.078.083a3.137 3.137 0 00.586.42c.127.068.285.13.474.185.189.056.379.084.571.084.404 0 .744-.121 1.021-.362.28-.244.42-.553.42-.928 0-.413-.158-.732-.474-.957-.316-.227-.705-.341-1.167-.341h-.493l-.23-.533 1.543-1.811c.069-.078.139-.155.21-.23a4.23 4.23 0 01.171-.17l.059-.06v-.019c-.14.02-.34.03-.601.03h-2.392v-.86h4.223v.63l-1.924 2.212c.196.02.386.06.572.122.188.059.374.145.556.259.183.11.342.242.479.395.14.153.252.342.337.567a2.21 2.21 0 01-.049 1.597 2.261 2.261 0 01-.479.722c-.201.205-.455.37-.761.493-.303.124-.63.186-.982.186a3.157 3.157 0 01-1.084-.19 4.2 4.2 0 01-.42-.186 2.706 2.706 0 01-.342-.205 27.38 27.38 0 00-.244-.19 1.513 1.513 0 01-.151-.137l-.049-.054zm5.752-.02l.552-.722c.016.02.037.047.063.083.03.032.093.093.191.18a2.4 2.4 0 00.317.235c.111.065.254.125.43.18.179.056.361.084.547.084.426 0 .791-.134 1.093-.4.306-.268.459-.611.459-1.031 0-.42-.154-.767-.463-1.04-.306-.274-.689-.41-1.148-.41-.205 0-.407.029-.605.087a1.902 1.902 0 00-.44.176l-.146.088-.567-.21.347-3.5h3.56v.859h-2.701l-.166 1.489a1.666 1.666 0 01-.019.185.837.837 0 01-.025.142l-.009.044h.019c.029-.016.07-.036.122-.059.056-.026.163-.058.323-.097.159-.043.315-.064.468-.064.729 0 1.322.222 1.778.664.455.443.683.988.683 1.636 0 .68-.237 1.248-.713 1.704-.475.453-1.071.679-1.787.679-.27 0-.53-.034-.781-.103a2.404 2.404 0 01-.61-.239 4.242 4.242 0 01-.425-.293 1.805 1.805 0 01-.264-.249l-.083-.098zm5.557.02l.542-.752.078.083a3.148 3.148 0 00.586.42c.127.068.285.13.473.185.189.056.38.084.572.084.403 0 .744-.121 1.02-.362.28-.244.42-.553.42-.928 0-.413-.158-.732-.473-.957-.316-.227-.705-.341-1.167-.341h-.494l-.229-.533 1.543-1.811a6.312 6.312 0 01.381-.4l.058-.06v-.019c-.14.02-.34.03-.6.03h-2.393v-.86h4.224v.63l-1.924 2.212c.195.02.386.06.571.122.189.059.375.145.557.259.182.11.342.242.478.395.14.153.253.342.337.567.085.221.127.464.127.727 0 .303-.058.593-.176.87a2.242 2.242 0 01-.478.722 2.22 2.22 0 01-.762.493c-.302.124-.63.186-.981.186a3.149 3.149 0 01-1.084-.19 4.007 4.007 0 01-.42-.186 2.57 2.57 0 01-.342-.205 27.38 27.38 0 00-.244-.19 1.407 1.407 0 01-.151-.137l-.049-.054zm6.035.84v-1.03h1.02v1.03h-1.02zm2.285-5.42l1.694-1.64h.879v6.2h1.538v.86h-4.057v-.86h1.557v-4.56l.01-.44h-.019c-.056.108-.17.245-.342.41l-.659.65-.601-.62zm4.785 4.58l.542-.752c.02.02.046.047.078.083a3.137 3.137 0 00.586.42c.127.068.285.13.474.185.189.056.379.084.571.084.404 0 .744-.121 1.021-.362.28-.244.42-.553.42-.928 0-.413-.158-.732-.474-.957-.316-.227-.705-.341-1.167-.341h-.493l-.23-.533 1.543-1.811c.069-.078.139-.155.21-.23a4.23 4.23 0 01.171-.17l.059-.06v-.019c-.14.02-.34.03-.601.03h-2.392v-.86h4.223v.63l-1.924 2.212c.196.02.386.06.572.122.189.059.374.145.556.259.183.11.342.242.479.395.14.153.252.342.337.567a2.21 2.21 0 01-.049 1.597 2.245 2.245 0 01-.479.722c-.201.205-.455.37-.761.493-.303.124-.63.186-.982.186a3.157 3.157 0 01-1.084-.19 4.2 4.2 0 01-.42-.186 2.62 2.62 0 01-.341-.205l-.245-.19a1.513 1.513 0 01-.151-.137l-.049-.054z" fill="#382E29"/><path d="M296.614 15.946v-.688h4.664v.688h-1.934v4.96h-.793v-4.96h-1.937zm5.015 2.93a2.1 2.1 0 01.637-1.516c.198-.185.43-.33.695-.438.269-.106.553-.16.852-.16a2.256 2.256 0 011.543.598c.198.185.354.409.469.672a2.1 2.1 0 01.172.843 2.07 2.07 0 01-1.086 1.856c-.334.182-.7.273-1.098.273-.398 0-.764-.09-1.098-.273a2.07 2.07 0 01-1.086-1.856zm.793 0c0 .419.136.766.407 1.043.27.276.599.413.984.413.391 0 .72-.137.988-.413.268-.277.403-.624.403-1.044 0-.414-.135-.757-.403-1.03a1.329 1.329 0 00-.988-.41c-.385 0-.714.136-.984.41-.271.273-.407.616-.407 1.03zm4.133-1.336v-.625h.555v-1.168h.75v1.168h.976v.625h-.976v1.8c0 .154.021.29.062.407a.755.755 0 00.153.265.761.761 0 00.218.153.957.957 0 00.43.085l.188-.015v.687a2.346 2.346 0 01-.637-.012 1.64 1.64 0 01-.402-.116 1.294 1.294 0 01-.391-.247 1.264 1.264 0 01-.281-.445 1.836 1.836 0 01-.114-.676V17.54h-.531zm2.903 2.23a1.156 1.156 0 01.359-.86c.104-.096.233-.178.387-.245a2.57 2.57 0 01.441-.157 4.652 4.652 0 01.895-.121c.109-.005.227-.008.355-.008h.176v-.074c0-.591-.296-.886-.887-.886-.117 0-.236.014-.355.042-.12.027-.224.059-.313.098a2.701 2.701 0 00-.406.207l-.055.043-.32-.566c.015-.013.038-.03.066-.051a2.644 2.644 0 01.512-.262 2.66 2.66 0 01.418-.113c.169-.037.341-.055.516-.055.513 0 .907.137 1.183.41.279.274.418.666.418 1.176v2.559h-.719v-.383l.016-.32h-.016l-.023.046c-.008.019-.03.056-.066.114a1.372 1.372 0 01-.293.324 1.268 1.268 0 01-.235.16 1.29 1.29 0 01-.304.11 1.457 1.457 0 01-.375.046c-.373 0-.696-.109-.969-.328-.271-.221-.406-.523-.406-.906zm.781-.039c0 .177.066.33.199.457.135.128.323.191.562.191a.895.895 0 00.567-.199c.169-.133.297-.295.383-.488.086-.195.129-.396.129-.602v-.129h-.2c-.101 0-.194.002-.277.004-.083.003-.185.01-.305.024a1.992 1.992 0 00-.597.137.817.817 0 00-.242.136.633.633 0 00-.157.2.587.587 0 00-.062.269zm3.722.07v-4.543h.778v4.41c0 .224.038.377.113.457a.425.425 0 00.32.118l.133-.008v.687a1.93 1.93 0 01-.254.016c-.104 0-.199-.006-.285-.02a1.11 1.11 0 01-.285-.09.822.822 0 01-.266-.187.961.961 0 01-.179-.332 1.543 1.543 0 01-.075-.508zm4.004-1.726c0-.404.073-.784.219-1.14.149-.36.349-.669.602-.927a2.79 2.79 0 01.918-.617 2.92 2.92 0 011.144-.226c.253 0 .496.023.731.07.234.047.427.104.578.172.153.065.289.131.406.199.12.065.207.121.262.168l.078.07-.399.59a1.497 1.497 0 00-.285-.191 2.443 2.443 0 00-.773-.3 2.478 2.478 0 00-.535-.06c-.43 0-.809.098-1.137.293a1.933 1.933 0 00-.742.785c-.167.329-.25.694-.25 1.098 0 .43.091.814.273 1.152.182.339.431.6.746.786.318.184.672.277 1.063.277a2.098 2.098 0 00.988-.246c.122-.07.231-.14.324-.207.097-.07.168-.13.215-.18l.07-.07v-.817h-.918v-.687h1.641v2.84h-.699v-.352l.012-.242h-.02c-.016.018-.04.043-.074.074a2.132 2.132 0 01-.215.168 2.602 2.602 0 01-.352.211c-.122.06-.283.115-.484.164a2.733 2.733 0 01-1.684-.14 2.814 2.814 0 01-.886-.598 2.842 2.842 0 01-.598-.934 3.174 3.174 0 01-.219-1.183zm6.297 2.832V16.86h.75v.703l-.015.305h.015c.097-.31.258-.564.485-.762a1.18 1.18 0 01.796-.297l.2.02v.765a1.068 1.068 0 00-.914.23c-.206.17-.355.403-.446.7a2.495 2.495 0 00-.097.726v1.657h-.774zm2.703-2.032a2.1 2.1 0 01.637-1.515c.198-.185.43-.33.695-.438.269-.106.552-.16.852-.16a2.256 2.256 0 011.543.598c.198.185.354.409.469.672a2.1 2.1 0 01.172.843 2.07 2.07 0 01-1.086 1.856c-.334.182-.7.273-1.098.273-.399 0-.764-.09-1.098-.273a2.07 2.07 0 01-1.086-1.856zm.793 0c0 .42.136.767.407 1.044.27.276.599.413.984.413.391 0 .72-.137.988-.413.268-.277.403-.624.403-1.044 0-.414-.135-.757-.403-1.03a1.329 1.329 0 00-.988-.41c-.385 0-.714.136-.984.41-.271.273-.407.616-.407 1.03zm4.168 1.536l.375-.551.055.05a1.944 1.944 0 00.391.258 1.786 1.786 0 00.714.165c.18 0 .336-.045.469-.133a.424.424 0 00.203-.371.367.367 0 00-.117-.266.941.941 0 00-.297-.207 5.125 5.125 0 00-.406-.176 6.552 6.552 0 01-.445-.191 2.926 2.926 0 01-.403-.242 1.083 1.083 0 01-.3-.348 1.017 1.017 0 01-.114-.484c0-.357.14-.639.418-.844.279-.206.628-.309 1.047-.309.167 0 .324.016.473.047.151.031.275.07.371.113.096.042.181.085.254.13a.85.85 0 01.156.113l.051.046-.313.583a.486.486 0 00-.043-.04 1.375 1.375 0 00-.125-.085 1.406 1.406 0 00-.484-.196 1.534 1.534 0 00-.348-.039.855.855 0 00-.472.125.414.414 0 00-.192.371c0 .096.038.184.114.262.078.078.178.146.3.203.123.055.257.11.403.168.148.055.297.119.445.191.148.073.284.155.406.246a.98.98 0 01.297.348c.078.14.117.3.117.48 0 .342-.135.623-.406.844-.268.222-.621.332-1.059.332a2.32 2.32 0 01-.539-.062 1.998 1.998 0 01-.433-.145 3.842 3.842 0 01-.305-.175 1.371 1.371 0 01-.195-.153l-.063-.058zm3.586 0l.375-.551a2.278 2.278 0 00.203.164c.078.055.159.103.243.145a1.759 1.759 0 00.714.163c.18 0 .336-.044.469-.132a.424.424 0 00.203-.371.367.367 0 00-.117-.266.941.941 0 00-.297-.207 5.125 5.125 0 00-.406-.176 6.342 6.342 0 01-.445-.191 2.926 2.926 0 01-.403-.242 1.098 1.098 0 01-.301-.348 1.028 1.028 0 01-.113-.484c0-.357.14-.639.418-.844.279-.206.628-.309 1.047-.309.167 0 .324.016.473.047.151.031.274.07.371.113.096.042.181.085.254.13a.85.85 0 01.156.113l.051.046-.313.583a.69.69 0 00-.168-.125 1.406 1.406 0 00-.484-.196 1.534 1.534 0 00-.348-.039.855.855 0 00-.472.125.414.414 0 00-.192.371.37.37 0 00.113.262c.079.078.179.146.301.203.123.055.257.11.403.168.148.055.296.119.445.191.148.073.284.155.406.246a.99.99 0 01.297.348c.078.14.117.3.117.48 0 .342-.135.623-.406.844-.268.222-.621.332-1.059.332-.185 0-.364-.02-.539-.062a1.998 1.998 0 01-.433-.145 3.842 3.842 0 01-.305-.175 1.315 1.315 0 01-.195-.153l-.063-.058zm6.129.496v-5.649h2.063c.52 0 .946.163 1.277.489.333.323.5.75.5 1.28 0 .532-.167.963-.5 1.294-.333.33-.759.496-1.277.496h-1.274v2.09h-.789zm.789-2.778h1.145c.338 0 .605-.097.8-.293.198-.197.297-.467.297-.808 0-.339-.097-.603-.293-.793-.192-.193-.458-.29-.796-.29h-1.153v2.184zm3.91 2.778V16.86h.75v.703l-.015.305h.015c.097-.31.258-.564.485-.762a1.18 1.18 0 01.797-.297l.199.02v.765a1.07 1.07 0 00-.914.23 1.42 1.42 0 00-.446.7 2.495 2.495 0 00-.097.726v1.657h-.774zm2.703-2.032a2.1 2.1 0 01.637-1.515c.198-.185.43-.33.695-.438.269-.106.553-.16.852-.16a2.252 2.252 0 011.543.598c.198.185.354.409.469.672a2.1 2.1 0 01.172.843 2.07 2.07 0 01-1.086 1.856c-.334.182-.7.273-1.098.273-.398 0-.764-.09-1.098-.273a2.07 2.07 0 01-1.086-1.856zm.793 0c0 .42.136.767.407 1.044.271.276.599.413.984.413.391 0 .72-.137.988-.413.269-.277.403-.624.403-1.044 0-.414-.134-.757-.403-1.03a1.329 1.329 0 00-.988-.41c-.385 0-.713.136-.984.41-.271.273-.407.616-.407 1.03zm4.207-1.394v-.621h.504v-.137c0-.252.037-.474.11-.664a1.2 1.2 0 01.273-.441c.11-.104.237-.188.383-.25.148-.065.28-.106.395-.121.117-.019.236-.028.359-.028.052 0 .103.003.152.008.05.003.086.005.11.008l.035.008v.664a1.3 1.3 0 00-.403 0 .932.932 0 00-.433.207.676.676 0 00-.153.25 1.092 1.092 0 00-.058.375v.12h2.476v4.048h-.773V17.48h-1.703v3.426h-.77V17.48h-.504zm2.969-1.43v-.793h.781v.793h-.781zm1.637 1.489v-.625h.555v-1.168h.75v1.168h.976v.625h-.976v1.8c0 .154.02.29.062.407a.77.77 0 00.152.265.78.78 0 00.219.153.957.957 0 00.43.085l.187-.015v.687a2.346 2.346 0 01-.636-.012 1.635 1.635 0 01-.403-.116 1.29 1.29 0 01-.39-.247 1.265 1.265 0 01-.282-.445 1.858 1.858 0 01-.113-.676V17.54h-.531z" fill="#85827E"/><path d="M22.535 35.216l-4.648 4.294v-8.587l4.648 4.293z" fill="#382E29"/><path d="M30.927 20.258l.45-.597.066.066c.03.026.096.074.195.145.099.07.2.131.305.183.106.052.24.1.398.145.159.044.316.066.473.066.276 0 .508-.074.695-.222a.735.735 0 00.281-.61.69.69 0 00-.093-.355.915.915 0 00-.254-.278 2.47 2.47 0 00-.364-.222 6.62 6.62 0 00-.43-.204 34.32 34.32 0 01-.453-.199 3.686 3.686 0 01-.433-.238 2.43 2.43 0 01-.363-.297 1.245 1.245 0 01-.25-.394 1.336 1.336 0 01-.094-.508c0-.443.172-.815.515-1.117.347-.305.783-.457 1.31-.457.194 0 .383.02.566.058.182.04.332.086.449.14.12.056.225.111.316.169.094.054.162.101.203.14l.063.059-.36.656a1.52 1.52 0 00-.23-.168 1.767 1.767 0 00-.602-.266 1.56 1.56 0 00-.406-.054c-.297 0-.541.08-.734.242a.728.728 0 00-.29.582c0 .125.032.238.094.34a.884.884 0 00.25.262c.107.073.228.142.364.207.138.065.282.129.433.191.151.063.302.13.453.2.151.067.295.147.43.238a2 2 0 01.363.304c.107.112.192.249.254.41.063.162.094.34.094.536 0 .45-.163.83-.488 1.136-.326.305-.76.457-1.305.457a2.71 2.71 0 01-.652-.078 2.292 2.292 0 01-.528-.183 4.621 4.621 0 01-.375-.223 1.638 1.638 0 01-.238-.184l-.078-.078zm4.313-.488c0-.182.033-.348.101-.496.07-.149.156-.27.258-.363.104-.097.233-.179.387-.246a2.58 2.58 0 01.441-.157 4.669 4.669 0 01.895-.121 7.52 7.52 0 01.355-.008h.176v-.074c0-.591-.296-.886-.887-.886-.117 0-.236.014-.355.042-.12.027-.224.059-.313.098a2.63 2.63 0 00-.406.207l-.055.043-.32-.566a1.354 1.354 0 01.262-.168c.101-.055.207-.103.316-.145.11-.041.249-.08.418-.113a2.44 2.44 0 01.516-.055c.513 0 .907.137 1.183.41.279.274.418.666.418 1.176v2.559h-.719v-.383l.016-.32h-.016l-.023.046c-.008.019-.03.056-.066.114a1.392 1.392 0 01-.293.324 1.288 1.288 0 01-.235.16c-.083.044-.185.08-.304.11a1.448 1.448 0 01-.376.046c-.372 0-.695-.109-.968-.328-.271-.221-.407-.523-.407-.906zm.78-.039c0 .177.067.33.2.457.135.128.323.191.563.191a.895.895 0 00.566-.199c.17-.133.297-.295.383-.488a1.48 1.48 0 00.129-.602v-.129h-.2c-.101 0-.194.002-.277.004a4.03 4.03 0 00-.305.024 1.985 1.985 0 00-.598.137.827.827 0 00-.242.136.632.632 0 00-.156.2.579.579 0 00-.062.269zm3.723.07v-4.543h.778v4.41c0 .224.038.377.113.457a.425.425 0 00.32.118l.133-.008v.687a1.93 1.93 0 01-.254.016c-.104 0-.199-.006-.285-.02a1.115 1.115 0 01-.285-.09.818.818 0 01-.266-.187.965.965 0 01-.18-.332 1.558 1.558 0 01-.074-.508zm1.887-.918c0-.635.19-1.147.57-1.535.383-.39.868-.586 1.454-.586.37 0 .688.087.957.262.27.172.47.4.601.683.13.282.195.6.195.954l-.027.336h-2.95c.02.424.16.753.423.988.265.232.588.348.968.348a1.667 1.667 0 00.723-.168c.094-.047.177-.093.25-.137.076-.047.133-.087.172-.121l.055-.047.32.566c-.016.016-.039.037-.07.063a2.65 2.65 0 01-.203.14c-.102.066-.21.124-.325.176a2.53 2.53 0 01-.433.137 2.327 2.327 0 01-.535.062c-.417 0-.79-.092-1.117-.277a1.981 1.981 0 01-.762-.762 2.213 2.213 0 01-.266-1.082zm.824-.472h2.16c-.01-.334-.108-.589-.292-.766a.942.942 0 00-.684-.266c-.305 0-.565.091-.781.274-.214.18-.348.432-.403.758zm3.567 2l.375-.551a1.337 1.337 0 00.203.164c.078.055.159.103.242.145a1.78 1.78 0 00.715.163c.18 0 .336-.044.469-.132a.426.426 0 00.203-.371.366.366 0 00-.117-.266.953.953 0 00-.297-.207 5.131 5.131 0 00-.407-.176 6.537 6.537 0 01-.445-.191 2.889 2.889 0 01-.402-.242 1.083 1.083 0 01-.301-.348 1.023 1.023 0 01-.113-.484c0-.357.14-.639.418-.844.278-.206.627-.309 1.047-.309.166 0 .324.016.472.047.151.031.275.07.371.113.097.042.181.085.254.13a.864.864 0 01.157.113l.05.046-.312.583a.753.753 0 00-.168-.125 1.416 1.416 0 00-.485-.196 1.531 1.531 0 00-.347-.039.858.858 0 00-.473.125.414.414 0 00-.191.371c0 .096.038.184.113.262.078.078.178.146.3.203.123.055.257.11.403.168.149.055.297.119.445.191.149.073.284.155.407.246a.993.993 0 01.297.348c.078.14.117.3.117.48 0 .342-.136.623-.407.844-.268.222-.62.332-1.058.332-.185 0-.365-.02-.54-.062a2.009 2.009 0 01-.433-.145 3.815 3.815 0 01-.304-.175 1.377 1.377 0 01-.196-.153l-.062-.058zm6.129.496v-5.649h1.726c.466 0 .818.043 1.055.13.292.109.523.299.695.57.172.27.258.59.258.957 0 .359-.092.68-.277.96a1.37 1.37 0 01-.739.567v.015c.042.05.098.136.168.258l1.2 2.192h-.895L54.15 18.66h-1.211v2.246h-.79zm.789-2.938h1.136c.31 0 .554-.09.73-.273.18-.185.27-.435.27-.75 0-.414-.15-.705-.449-.871-.166-.086-.424-.13-.773-.13h-.914v2.024zm3.894.914c0-.635.19-1.147.57-1.535.383-.39.868-.586 1.454-.586.37 0 .688.087.957.262.27.172.471.4.601.683.13.282.196.6.196.954l-.028.336h-2.949c.018.424.159.753.422.988.266.232.588.348.969.348a1.666 1.666 0 00.722-.168c.094-.047.177-.093.25-.137.076-.047.133-.087.172-.121l.055-.047.32.566c-.015.016-.039.037-.07.063a2.663 2.663 0 01-.203.14c-.102.066-.21.124-.325.176-.111.05-.256.095-.433.137a2.326 2.326 0 01-.535.062c-.417 0-.79-.092-1.117-.277a1.983 1.983 0 01-.762-.762 2.212 2.212 0 01-.266-1.082zm.825-.472h2.16c-.01-.334-.108-.589-.293-.766a.942.942 0 00-.684-.266c-.305 0-.565.091-.781.274-.214.18-.348.432-.403.758zm3.894 4.097V16.86h.71v.344l-.015.296h.016l.043-.078c.02-.034.069-.092.144-.175.076-.086.16-.162.254-.227s.223-.124.387-.176c.164-.054.341-.082.531-.082.542 0 .973.195 1.293.586.323.39.485.902.485 1.535 0 .636-.172 1.149-.516 1.54a1.68 1.68 0 01-1.316.581c-.167 0-.323-.023-.47-.07a1.223 1.223 0 01-.355-.164 2.33 2.33 0 01-.234-.195.908.908 0 01-.145-.168l-.039-.067h-.015c.01.097.015.214.015.352v1.816h-.773zm.75-3.61c0 .248.042.48.125.696a1.3 1.3 0 00.395.535c.18.141.388.211.624.211.334 0 .611-.13.833-.39.224-.26.336-.614.336-1.059 0-.435-.107-.785-.32-1.05a1.003 1.003 0 00-.825-.4c-.333 0-.612.123-.836.368-.221.242-.332.606-.332 1.09zm4.047 2.009V16.86h.75v.703l-.016.305h.016c.096-.31.258-.564.484-.762.23-.198.495-.297.797-.297l.2.02v.765a1.07 1.07 0 00-.914.23c-.206.17-.355.403-.446.7a2.491 2.491 0 00-.098.726v1.657h-.773zm2.719-2.024c0-.635.19-1.147.57-1.535.383-.39.867-.586 1.453-.586.37 0 .689.087.957.262.27.172.471.4.602.683.13.282.195.6.195.954l-.027.336h-2.95c.019.424.16.753.422.988.266.232.589.348.969.348a1.667 1.667 0 00.723-.168c.093-.047.177-.093.25-.137.075-.047.133-.087.172-.121l.054-.047.32.566c-.015.016-.038.037-.07.063a2.65 2.65 0 01-.203.14c-.101.066-.21.124-.324.176a2.53 2.53 0 01-.434.137 2.327 2.327 0 01-.535.062c-.416 0-.789-.092-1.117-.277a1.981 1.981 0 01-.762-.762 2.213 2.213 0 01-.265-1.082zm.824-.472h2.16c-.01-.334-.108-.589-.293-.766a.942.942 0 00-.684-.266c-.304 0-.565.091-.78.274-.214.18-.349.432-.403.758zm3.566 2l.375-.551a1.337 1.337 0 00.203.164c.079.055.16.103.243.145a1.78 1.78 0 00.714.163c.18 0 .336-.044.47-.132a.426.426 0 00.202-.371.366.366 0 00-.117-.266.953.953 0 00-.297-.207 5.131 5.131 0 00-.406-.176 6.537 6.537 0 01-.445-.191 2.889 2.889 0 01-.403-.242 1.083 1.083 0 01-.3-.348 1.023 1.023 0 01-.114-.484c0-.357.14-.639.418-.844.279-.206.628-.309 1.047-.309.167 0 .324.016.473.047.15.031.275.07.37.113.097.042.182.085.255.13a.864.864 0 01.156.113l.05.046-.312.583a.753.753 0 00-.168-.125 1.416 1.416 0 00-.484-.196 1.531 1.531 0 00-.348-.039.858.858 0 00-.472.125.414.414 0 00-.192.371c0 .096.038.184.114.262.078.078.178.146.3.203.123.055.257.11.403.168.148.055.297.119.445.191.148.073.284.155.406.246a.993.993 0 01.297.348c.078.14.117.3.117.48 0 .342-.135.623-.406.844-.268.222-.621.332-1.059.332-.184 0-.364-.02-.539-.062a2.009 2.009 0 01-.433-.145 3.815 3.815 0 01-.305-.175 1.377 1.377 0 01-.195-.153l-.063-.058zm3.633-1.528c0-.635.19-1.147.57-1.535.383-.39.868-.586 1.454-.586.37 0 .688.087.957.262.27.172.47.4.601.683.13.282.195.6.195.954l-.027.336h-2.95c.02.424.16.753.423.988.265.232.588.348.969.348a1.666 1.666 0 00.722-.168c.094-.047.177-.093.25-.137.076-.047.133-.087.172-.121l.055-.047.32.566c-.016.016-.04.037-.07.063a2.663 2.663 0 01-.203.14c-.102.066-.21.124-.325.176a2.53 2.53 0 01-.433.137 2.328 2.328 0 01-.535.062c-.417 0-.79-.092-1.118-.277a1.983 1.983 0 01-.761-.762 2.212 2.212 0 01-.266-1.082zm.824-.472h2.16c-.01-.334-.108-.589-.293-.766a.942.942 0 00-.683-.266c-.305 0-.565.091-.781.274-.214.18-.348.432-.403.758zm3.895 2.496V16.86h.75v.535l-.016.297h.016c.044-.1.105-.198.183-.297.081-.099.181-.198.301-.297.123-.099.274-.18.453-.242a1.76 1.76 0 01.582-.094c.474 0 .825.13 1.051.387.23.258.344.646.344 1.164v2.594h-.778v-2.414c0-.157-.01-.29-.03-.403a1.115 1.115 0 00-.11-.316.496.496 0 00-.238-.223.869.869 0 00-.391-.078c-.305 0-.573.091-.805.274-.229.182-.386.422-.472.718a1.963 1.963 0 00-.067.547v1.895h-.773zm4.457-3.367v-.625h.555v-1.168h.75v1.168h.976v.625h-.977v1.8c0 .154.021.29.063.407a.751.751 0 00.152.265.768.768 0 00.22.153.945.945 0 00.429.085l.187-.015v.687a2.352 2.352 0 01-.637-.012 1.64 1.64 0 01-.402-.116 1.297 1.297 0 01-.39-.247 1.261 1.261 0 01-.282-.445 1.847 1.847 0 01-.113-.676V17.54h-.531zm2.902 2.23a1.166 1.166 0 01.36-.86c.104-.096.233-.178.386-.245a2.58 2.58 0 01.442-.157 4.67 4.67 0 01.894-.121 7.52 7.52 0 01.356-.008h.175v-.074c0-.591-.295-.886-.886-.886-.117 0-.236.014-.356.042-.12.027-.224.059-.312.098a2.618 2.618 0 00-.406.207l-.055.043-.32-.566a1.392 1.392 0 01.261-.168c.102-.055.207-.103.317-.145.109-.041.248-.08.418-.113a2.44 2.44 0 01.515-.055c.513 0 .908.137 1.184.41.279.274.418.666.418 1.176v2.559h-.719v-.383l.016-.32h-.016l-.023.046c-.008.019-.03.056-.067.114a1.392 1.392 0 01-.293.324 1.288 1.288 0 01-.234.16 1.29 1.29 0 01-.305.11 1.448 1.448 0 01-.375.046c-.372 0-.695-.109-.969-.328-.27-.221-.406-.523-.406-.906zm.781-.039c0 .177.067.33.2.457.135.128.323.191.562.191a.895.895 0 00.567-.199c.169-.133.296-.295.382-.488a1.48 1.48 0 00.13-.602v-.129h-.2c-.101 0-.194.002-.277.004a4.03 4.03 0 00-.305.024 1.985 1.985 0 00-.598.137.827.827 0 00-.242.136.634.634 0 00-.156.2.58.58 0 00-.063.269zm3.41-2.191v-.625h.555v-1.168h.75v1.168h.977v.625h-.977v1.8c0 .154.021.29.063.407a.75.75 0 00.152.265.767.767 0 00.219.153.943.943 0 00.43.085l.187-.015v.687a2.352 2.352 0 01-.637-.012 1.642 1.642 0 01-.402-.116 1.297 1.297 0 01-.39-.247 1.261 1.261 0 01-.282-.445 1.847 1.847 0 01-.113-.676V17.54h-.531zm3.223-1.489v-.793h.782v.793h-.782zm.008 4.856V16.86h.774v4.047h-.774zm1.438-4.047h.824l.984 2.734c.024.065.046.145.067.238.02.092.036.167.046.227.013.057.021.086.024.086h.016c.002 0 .01-.029.023-.086l.051-.227c.023-.093.047-.173.07-.238l.984-2.734h.817l-1.496 4.047h-.899L98.03 16.86zm4.289 2.023c0-.635.19-1.147.57-1.535.383-.39.867-.586 1.453-.586.37 0 .689.087.957.262.271.172.471.4.602.683.13.282.195.6.195.954l-.027.336h-2.95c.019.424.159.753.422.988.266.232.589.348.969.348a1.675 1.675 0 00.723-.168 3.69 3.69 0 00.25-.137c.075-.047.133-.087.172-.121l.054-.047.321.566a1.084 1.084 0 01-.071.063 2.611 2.611 0 01-.203.14c-.101.066-.21.124-.324.176a2.54 2.54 0 01-.434.137 2.323 2.323 0 01-.535.062c-.417 0-.789-.092-1.117-.277a1.986 1.986 0 01-.762-.762 2.213 2.213 0 01-.265-1.082zm.824-.472h2.16c-.01-.334-.108-.589-.293-.766a.941.941 0 00-.684-.266c-.304 0-.565.091-.781.274-.213.18-.347.432-.402.758z" fill="#85827E"/></svg>