<svg viewBox="0 0 485 28" fill="#CDECB5" xmlns="http://www.w3.org/2000/svg"><rect width="485" height="28" rx="4"/><rect x="408.717" y="8.625" width="20.557" height="11.101" rx="1.028" fill="#fff" fill-opacity=".75" stroke="#D8DBDB" stroke-width=".411"/><path d="M412.459 16.546l.334-.464.049.05a1.925 1.925 0 00.361.26c.078.042.176.08.292.114.117.035.234.052.353.052a.922.922 0 00.629-.223.726.726 0 00.26-.573.682.682 0 00-.293-.59 1.197 1.197 0 00-.72-.211h-.304l-.142-.329.952-1.117a5.896 5.896 0 01.235-.247l.037-.036v-.012a2.87 2.87 0 01-.371.018h-1.476v-.53h2.606v.388l-1.187 1.365a1.612 1.612 0 01.696.235c.112.068.211.15.295.244.086.094.156.21.208.35a1.366 1.366 0 01-.03.985 1.4 1.4 0 01-.296.445 1.363 1.363 0 01-.47.305 1.58 1.58 0 01-.605.114 1.957 1.957 0 01-.928-.232 1.63 1.63 0 01-.211-.127 10.698 10.698 0 00-.151-.117.875.875 0 01-.093-.084l-.03-.034zm3.724.518v-.636h.629v.636h-.629zm1.41-3.344l1.045-1.013h.542v3.826h.949v.53h-2.503v-.53h.961V13.72l.006-.272h-.012c-.034.067-.105.151-.211.254l-.407.4-.37-.382zm2.895 2.178v-.383l2.012-2.808h.699v2.673h.591v.518h-.591v1.166h-.599v-1.166h-2.112zm.675-.518h1.437v-1.585a3.622 3.622 0 01.018-.37l.006-.064h-.012a2.16 2.16 0 01-.217.359l-1.232 1.648v.012z" fill="#22282A"/><path d="M403.501 16.564l.344-.46.054.05c.024.02.074.058.15.112.077.054.155.101.235.141.082.04.185.078.307.112.123.034.244.05.365.05a.839.839 0 00.536-.17.567.567 0 00.216-.47.491.491 0 00-.075-.265.677.677 0 00-.196-.208 2.018 2.018 0 00-.283-.172 6.285 6.285 0 00-.337-.16 27.684 27.684 0 01-.355-.16 2.797 2.797 0 01-.334-.189 1.895 1.895 0 01-.283-.232.96.96 0 01-.271-.692 1.1 1.1 0 01.319-.786c.212-.223.489-.36.828-.41v-.58h.439v.574c.129.008.252.03.371.064.12.032.22.068.298.108.08.04.15.08.211.117.06.038.104.07.132.097l.042.039-.277.506a1.168 1.168 0 00-.177-.13 1.368 1.368 0 00-.467-.205 1.2 1.2 0 00-.313-.042.854.854 0 00-.569.187.563.563 0 00-.22.449c0 .092.024.176.072.253.05.076.117.142.199.198.082.057.176.11.283.163.106.05.218.1.334.15.119.049.237.1.355.157.119.054.231.118.338.19.106.072.2.151.283.238a1.066 1.066 0 01.271.723c0 .315-.106.586-.316.813-.209.224-.492.358-.85.4v.57h-.439v-.57a2.337 2.337 0 01-.428-.087 1.853 1.853 0 01-.587-.299 1.167 1.167 0 01-.154-.126l-.051-.048zM16.93 15.992l.313-.433.045.048a1.801 1.801 0 00.337.242c.073.039.164.074.273.106.108.032.218.048.328.048.233 0 .428-.07.588-.208a.678.678 0 00.241-.534.636.636 0 00-.272-.55 1.118 1.118 0 00-.672-.198h-.284l-.132-.306.888-1.043a4.204 4.204 0 01.22-.23l.033-.034v-.011c-.08.011-.196.017-.345.017h-1.378v-.495h2.431v.363l-1.107 1.273a1.516 1.516 0 01.65.22c.104.063.196.139.275.227.08.088.145.196.194.326a1.269 1.269 0 01-.028.919 1.297 1.297 0 01-.276.416 1.277 1.277 0 01-.438.284 1.48 1.48 0 01-.565.106 1.814 1.814 0 01-.624-.11 2.386 2.386 0 01-.242-.106 1.511 1.511 0 01-.337-.228.808.808 0 01-.087-.078l-.028-.031z" fill="#82898A"/><path d="M29.786 16.73a1.494 1.494 0 01.268-.862c.082-.114.176-.223.283-.325.108-.103.22-.197.337-.283.118-.087.236-.17.352-.25.119-.082.231-.164.337-.244.109-.08.204-.162.287-.244.082-.084.147-.177.195-.277a.715.715 0 00.073-.313.669.669 0 00-.22-.521.793.793 0 00-.563-.202c-.107 0-.21.02-.31.057a.892.892 0 00-.25.139 2.044 2.044 0 00-.178.162.828.828 0 00-.108.139l-.037.057-.448-.301a1.208 1.208 0 01.099-.16 1.75 1.75 0 01.13-.165c.048-.052.11-.11.19-.172a1.409 1.409 0 01.57-.28c.12-.032.25-.048.384-.048.403 0 .733.115.99.346.257.23.386.53.386.904a1.3 1.3 0 01-.114.542 1.465 1.465 0 01-.299.436 3.68 3.68 0 01-.406.35c-.147.11-.294.214-.443.313a6.035 6.035 0 00-.41.295 1.398 1.398 0 00-.3.328.724.724 0 00-.118.383h2.16v.53h-2.807c-.02-.131-.03-.242-.03-.335zm3.484-.197l.34-.445.039.051a1.497 1.497 0 00.313.256 1.298 1.298 0 00.602.163.985.985 0 00.675-.247.805.805 0 00.283-.636.819.819 0 00-.286-.641 1.023 1.023 0 00-.708-.253c-.126 0-.25.018-.373.054a1.161 1.161 0 00-.271.109l-.09.054-.35-.13.214-2.159h2.195v.53h-1.665l-.102.919a1.111 1.111 0 01-.012.114.5.5 0 01-.015.087l-.006.027h.012a.91.91 0 01.274-.096c.098-.026.194-.039.289-.039.45 0 .815.136 1.096.41.28.273.421.609.421 1.008 0 .42-.146.77-.44 1.051-.292.28-.66.419-1.101.419a1.82 1.82 0 01-.482-.063 1.483 1.483 0 01-.377-.148 2.706 2.706 0 01-.262-.18 1.129 1.129 0 01-.162-.154l-.051-.06zm3.48-2.442c0-.427.132-.776.395-1.047.263-.271.598-.407 1.006-.407.229 0 .442.05.641.147.201.099.374.236.518.413.147.175.261.392.343.65.085.257.127.539.127.844 0 .228-.024.456-.072.683a2.798 2.798 0 01-.232.663c-.105.212-.232.4-.383.563a1.735 1.735 0 01-1.274.54 2.138 2.138 0 01-.75-.137l-.096-.045.2-.53.084.042c.038.016.11.038.22.067.108.026.213.039.316.039a1.127 1.127 0 00.92-.461 1.92 1.92 0 00.254-.464c.066-.168.111-.347.135-.536h-.012a.905.905 0 01-.403.295 1.445 1.445 0 01-.56.112c-.408 0-.739-.136-.994-.407-.255-.273-.382-.614-.382-1.024zm.606 0c0 .271.08.492.24.663.161.17.38.256.654.256.241 0 .449-.062.623-.187.177-.126.266-.268.266-.425 0-.188-.044-.375-.13-.56a1.204 1.204 0 00-.358-.457.774.774 0 00-.494-.184.734.734 0 00-.587.253c-.143.167-.214.38-.214.641zm3.098-.37l1.045-1.012h.542v3.825h.949v.53h-2.503v-.53h.961V13.72l.006-.271h-.012c-.034.066-.104.15-.21.253l-.407.4-.37-.382zm3.093 1.16c0-.26.016-.498.048-.714a2.82 2.82 0 01.16-.615c.074-.192.168-.355.283-.487.116-.133.263-.237.44-.314.176-.076.378-.114.605-.114.227 0 .428.038.605.114.179.077.326.181.443.314.116.132.211.295.286.487.074.191.127.396.16.615.031.216.047.454.047.713 0 .261-.016.501-.048.72a2.88 2.88 0 01-.16.617 1.65 1.65 0 01-.285.491 1.244 1.244 0 01-.443.316 1.513 1.513 0 01-.605.115c-.227 0-.429-.038-.606-.115a1.25 1.25 0 01-.44-.316 1.688 1.688 0 01-.282-.49 2.88 2.88 0 01-.16-.618 4.975 4.975 0 01-.048-.72zm.623 0c0 .25.014.473.042.668.03.194.079.372.145.533a.853.853 0 00.283.367c.123.084.27.127.443.127a.76.76 0 00.37-.088.755.755 0 00.262-.235 1.3 1.3 0 00.169-.367c.044-.146.074-.301.09-.464.018-.162.027-.343.027-.542 0-.196-.009-.375-.027-.536a2.37 2.37 0 00-.09-.46 1.3 1.3 0 00-.169-.368.728.728 0 00-.262-.232.76.76 0 00-.37-.087.753.753 0 00-.63.32c-.068.098-.124.22-.168.367a2.712 2.712 0 00-.09.46 5.41 5.41 0 00-.025.536zm3.138 1.652l.34-.445.04.051a1.489 1.489 0 00.313.256 1.298 1.298 0 00.602.163.985.985 0 00.674-.247.804.804 0 00.283-.636.819.819 0 00-.286-.641 1.023 1.023 0 00-.707-.253c-.127 0-.251.018-.374.054a1.161 1.161 0 00-.27.109l-.091.054-.35-.13.214-2.159h2.196v.53h-1.666l-.102.919a1.111 1.111 0 01-.012.114.5.5 0 01-.015.087l-.006.027h.012a.91.91 0 01.274-.096c.098-.026.195-.039.29-.039.449 0 .814.136 1.095.41.281.273.422.609.422 1.008 0 .42-.147.77-.44 1.051-.293.28-.66.419-1.102.419-.167 0-.327-.021-.482-.063a1.483 1.483 0 01-.376-.148 2.706 2.706 0 01-.262-.18 1.129 1.129 0 01-.163-.154l-.051-.06zm3.52.196a1.494 1.494 0 01.268-.861c.082-.114.177-.223.283-.325.109-.103.221-.197.338-.283.118-.087.235-.17.352-.25.118-.082.23-.164.337-.244.108-.08.204-.162.286-.244a1.04 1.04 0 00.196-.277.715.715 0 00.072-.313.67.67 0 00-.22-.521.794.794 0 00-.563-.202c-.106 0-.21.02-.31.057a.89.89 0 00-.25.139 2.031 2.031 0 00-.178.162.833.833 0 00-.108.139l-.036.057-.449-.301a1.231 1.231 0 01.1-.16c.04-.058.083-.113.13-.165.047-.052.11-.11.189-.172a1.408 1.408 0 01.57-.28c.121-.032.25-.048.384-.048.404 0 .734.115.991.346.257.23.386.53.386.904a1.3 1.3 0 01-.115.542 1.461 1.461 0 01-.298.436 3.662 3.662 0 01-.407.35c-.146.11-.294.214-.442.313a6.063 6.063 0 00-.41.295 1.403 1.403 0 00-.3.328.724.724 0 00-.118.383h2.159v.53h-2.807a2.26 2.26 0 01-.03-.335z" fill="#1C6E31"/><path d="M73.074 17.064l1.568-4.355h.642l1.566 4.355h-.636l-.44-1.253h-1.638l-.433 1.253h-.63zm1.222-1.76h1.32l-.483-1.378a6.487 6.487 0 01-.142-.512l-.023-.105h-.012a7.896 7.896 0 01-.172.617l-.488 1.379zm3.072 2.994v-4.354h.548v.265l-.012.229h.012c.008-.016.019-.037.033-.06a1.17 1.17 0 01.111-.136 1.08 1.08 0 01.196-.175c.072-.05.172-.095.298-.135.126-.042.263-.064.41-.064.417 0 .75.151.996.452.25.301.374.696.374 1.184 0 .49-.133.885-.398 1.186-.265.3-.603.449-1.015.449-.128 0-.249-.018-.36-.054a.943.943 0 01-.275-.127c-.068-.05-.129-.1-.18-.15a.702.702 0 01-.112-.13l-.03-.051h-.012c.008.074.012.165.012.27v1.401h-.596zm.578-2.782c0 .19.032.37.096.536.066.164.168.302.304.412a.76.76 0 00.482.163c.257 0 .47-.1.641-.301.173-.201.26-.473.26-.816 0-.336-.083-.606-.248-.81a.773.773 0 00-.635-.307.838.838 0 00-.644.283c-.17.186-.256.466-.256.84zm3.12 2.782v-4.354h.547v.265l-.012.229h.013a1.04 1.04 0 01.033-.06 1.17 1.17 0 01.111-.136c.058-.066.124-.125.196-.175.072-.05.171-.095.298-.135.126-.042.263-.064.41-.064.417 0 .75.151.996.452.249.301.373.696.373 1.184 0 .49-.132.885-.397 1.186-.265.3-.603.449-1.015.449-.128 0-.249-.018-.361-.054a.943.943 0 01-.274-.127c-.068-.05-.129-.1-.18-.15a.702.702 0 01-.112-.13l-.03-.051h-.012c.008.074.012.165.012.27v1.401h-.597zm.578-2.782c0 .19.032.37.096.536.066.164.168.302.304.412a.76.76 0 00.482.163c.257 0 .47-.1.641-.301.173-.201.26-.473.26-.816 0-.336-.083-.606-.248-.81a.773.773 0 00-.635-.307.838.838 0 00-.644.283c-.171.186-.256.466-.256.84zm3.08.695V12.71h.6v3.4c0 .173.028.29.087.352.058.06.14.09.246.09l.103-.005v.53a1.471 1.471 0 01-.416-.003.855.855 0 01-.22-.07.631.631 0 01-.204-.144.742.742 0 01-.139-.256 1.2 1.2 0 01-.057-.392zm1.454-.707c0-.49.147-.885.44-1.184.295-.3.669-.452 1.12-.452.285 0 .531.068.738.202.209.133.363.309.464.527.1.217.15.462.15.735l-.02.259h-2.274c.014.327.122.581.325.762.205.178.454.268.747.268a1.286 1.286 0 00.557-.13 2.67 2.67 0 00.193-.105c.058-.036.102-.067.132-.093l.042-.037.247.437a.893.893 0 01-.054.048 2.054 2.054 0 01-.406.244 1.955 1.955 0 01-.335.106 1.796 1.796 0 01-.412.048c-.322 0-.609-.072-.862-.214a1.529 1.529 0 01-.587-.587 1.705 1.705 0 01-.204-.834zm.636-.365h1.665c-.008-.257-.083-.453-.226-.59a.726.726 0 00-.527-.205.903.903 0 00-.602.211.935.935 0 00-.31.584zM457.361 16.566l.343-.46.054.05a2.733 2.733 0 00.386.253c.082.04.184.078.307.112.122.034.244.05.364.05a.835.835 0 00.536-.17.566.566 0 00.217-.47.492.492 0 00-.075-.266.701.701 0 00-.196-.207 2.068 2.068 0 00-.283-.172 7.112 7.112 0 00-.337-.16 27.801 27.801 0 01-.356-.16 2.863 2.863 0 01-.334-.189 1.94 1.94 0 01-.283-.232.976.976 0 01-.199-.304 1.024 1.024 0 01-.072-.388 1.1 1.1 0 01.319-.786 1.39 1.39 0 01.828-.41v-.581h.44v.575c.128.008.252.03.37.063.121.033.22.069.298.109.081.04.151.08.211.117.06.038.104.07.133.097l.042.039-.277.506a1.34 1.34 0 00-.178-.13 1.415 1.415 0 00-.467-.205 1.193 1.193 0 00-.313-.042.856.856 0 00-.569.187.563.563 0 00-.22.449c0 .092.024.176.072.253a.736.736 0 00.199.198c.083.056.177.11.283.163.107.05.218.1.335.15.118.049.236.1.355.157.118.054.231.117.337.19.106.072.201.151.283.238a1.065 1.065 0 01.271.723c0 .314-.105.586-.316.812-.209.225-.492.359-.849.4v.57h-.44v-.57a2.344 2.344 0 01-.427-.086 1.872 1.872 0 01-.588-.299 1.09 1.09 0 01-.153-.126l-.051-.048zm3.499.165a1.5 1.5 0 01.072-.47c.048-.148.113-.278.196-.39.082-.115.176-.224.283-.326.108-.102.221-.197.337-.283.118-.086.236-.17.352-.25.119-.082.231-.164.338-.244.108-.08.203-.162.286-.244a1.04 1.04 0 00.195-.277.705.705 0 00.073-.313.671.671 0 00-.22-.521.794.794 0 00-.563-.202c-.107 0-.21.02-.31.057a.88.88 0 00-.25.139 1.915 1.915 0 00-.178.163.833.833 0 00-.108.138l-.037.057-.448-.3a1.208 1.208 0 01.099-.16c.04-.059.083-.114.13-.166a1.692 1.692 0 01.442-.337c.089-.046.194-.085.316-.115.123-.032.251-.048.386-.048.403 0 .734.116.991.346.257.23.385.53.385.904 0 .193-.038.373-.114.542a1.47 1.47 0 01-.299.437 3.584 3.584 0 01-.406.349 8.89 8.89 0 01-.443.313 6.07 6.07 0 00-.409.295 1.383 1.383 0 00-.301.328.718.718 0 00-.118.383h2.159v.53h-2.806a2.26 2.26 0 01-.03-.335zm3.49-2.637c0-.428.131-.777.394-1.048s.598-.407 1.006-.407c.229 0 .443.05.641.148.201.098.374.236.518.412.147.175.261.392.344.65a2.7 2.7 0 01.126.844c0 .229-.024.457-.072.683a2.808 2.808 0 01-.232.663c-.105.213-.232.4-.383.563a1.729 1.729 0 01-1.273.54 2.14 2.14 0 01-.75-.137l-.096-.045.198-.53.085.043c.038.015.111.038.219.066.109.026.214.039.317.039a1.13 1.13 0 00.921-.46c.104-.141.189-.296.253-.465a2.24 2.24 0 00.135-.536h-.012a.9.9 0 01-.403.295 1.444 1.444 0 01-.56.112c-.408 0-.739-.136-.994-.407-.255-.273-.382-.614-.382-1.023zm.605 0c0 .27.08.491.241.662.16.17.378.256.653.256.241 0 .449-.062.624-.187.176-.126.265-.268.265-.424 0-.189-.044-.376-.13-.56a1.206 1.206 0 00-.358-.458.775.775 0 00-.494-.184.732.732 0 00-.587.253c-.143.167-.214.38-.214.642zM188.868 13.721l1.045-1.012h.542v3.825h.948v.53h-2.502v-.53h.96V13.72l.006-.271h-.012c-.034.066-.104.15-.21.253l-.407.4-.37-.382zm3.044 3.008a1.5 1.5 0 01.072-.47c.048-.148.114-.279.196-.391.082-.114.177-.223.283-.325.108-.103.221-.197.337-.283.119-.087.236-.17.353-.25.118-.082.23-.164.337-.244a2.56 2.56 0 00.286-.244c.082-.084.147-.177.196-.277a.718.718 0 00.072-.313.668.668 0 00-.22-.521.792.792 0 00-.563-.202c-.106 0-.21.02-.31.057a.88.88 0 00-.25.139 2.052 2.052 0 00-.178.162.833.833 0 00-.108.139l-.036.057-.449-.301a1.208 1.208 0 01.099-.16c.041-.058.084-.113.13-.165.048-.052.111-.11.19-.172a1.391 1.391 0 01.569-.28c.122-.032.251-.048.385-.048.404 0 .734.115.991.346.257.23.385.53.385.904 0 .192-.038.373-.114.542a1.467 1.467 0 01-.298.436 3.686 3.686 0 01-.407.35c-.146.11-.294.214-.442.313a6.1 6.1 0 00-.41.295 1.404 1.404 0 00-.301.328.726.726 0 00-.117.383h2.159v.53h-2.807a2.26 2.26 0 01-.03-.335zm3.324.335l1.06-1.603-1.005-1.517h.686l.578.948.106.187h.012c.038-.07.073-.132.105-.187l.581-.948h.684l-1.006 1.517 1.06 1.603h-.677l-.654-1.042-.093-.172h-.012l-.094.172-.653 1.042h-.678zm3.243-.518l.335-.464.048.051a2.014 2.014 0 00.361.259c.079.042.176.08.292.114.117.035.234.052.353.052a.925.925 0 00.629-.223.725.725 0 00.259-.572.68.68 0 00-.292-.59 1.2 1.2 0 00-.72-.211h-.304l-.141-.329.951-1.117a3.522 3.522 0 01.235-.247l.036-.036v-.012c-.086.012-.21.018-.37.018h-1.476v-.53h2.605v.389l-1.186 1.364a1.63 1.63 0 01.695.235c.113.068.211.15.295.244.087.094.156.21.208.349a1.365 1.365 0 01-.03.985c-.07.168-.169.317-.295.445a1.37 1.37 0 01-.47.304 1.584 1.584 0 01-.605.115 1.957 1.957 0 01-.928-.232 1.614 1.614 0 01-.21-.127l-.151-.117a.886.886 0 01-.093-.084l-.031-.034zm5.267-.335V12.71h.599v3.4c0 .173.03.29.088.352.058.06.14.09.247.09l.102-.005v.53a1.491 1.491 0 01-.416-.003.85.85 0 01-.219-.07.623.623 0 01-.205-.144.761.761 0 01-.139-.256 1.206 1.206 0 01-.057-.392zm1.671.853v-4.355h.597v1.425l-.012.264h.012l.033-.057a.92.92 0 01.105-.126 1.12 1.12 0 01.19-.163 1.16 1.16 0 01.286-.126c.12-.038.249-.058.385-.058.418 0 .75.151.997.452.249.301.373.696.373 1.184 0 .492-.132.887-.397 1.186-.265.3-.605.449-1.021.449-.13 0-.253-.02-.367-.058a.971.971 0 01-.28-.132 1.66 1.66 0 01-.19-.157.772.772 0 01-.111-.138l-.033-.054h-.013c.008.066.013.144.013.235v.229h-.567zm.579-1.548c0 .192.031.371.093.536.062.162.162.299.298.41.139.11.302.165.491.165.257 0 .471-.1.641-.301.173-.201.259-.473.259-.816 0-.336-.082-.606-.247-.81a.772.772 0 00-.635-.307.836.836 0 00-.644.283c-.171.186-.256.466-.256.84zM227.038 16.546l.334-.464.048.051a1.83 1.83 0 00.362.259 1.5 1.5 0 00.644.166.922.922 0 00.629-.223.725.725 0 00.259-.572.68.68 0 00-.292-.59 1.193 1.193 0 00-.719-.211h-.304l-.142-.328.952-1.117a4.225 4.225 0 01.234-.247l.037-.037v-.012c-.087.012-.21.018-.371.018h-1.475v-.53h2.604v.389l-1.186 1.364a1.618 1.618 0 01.696.235c.112.068.21.15.295.244.086.094.155.21.207.35a1.349 1.349 0 01-.03.985c-.07.167-.168.316-.295.444a1.362 1.362 0 01-.47.305 1.58 1.58 0 01-.605.114 1.946 1.946 0 01-.927-.232 1.565 1.565 0 01-.211-.126 10.698 10.698 0 00-.151-.118.875.875 0 01-.093-.084l-.03-.033zm3.604-.741c0-.124.021-.247.064-.367.042-.123.09-.224.144-.305.054-.08.12-.158.196-.234a1.875 1.875 0 01.292-.253c-.325-.235-.488-.525-.488-.87 0-.119.017-.232.051-.34a1.074 1.074 0 01.431-.564c.104-.072.232-.13.382-.172.151-.042.316-.063.494-.063.408 0 .738.106.991.316.253.211.379.494.379.85 0 .37-.172.748-.518 1.132.187.114.332.245.434.391a.903.903 0 01.157.536c0 .227-.061.437-.181.63-.121.192-.296.349-.527.47-.229.118-.49.177-.783.177-.438 0-.8-.124-1.087-.373a1.214 1.214 0 01-.431-.961zm.624-.036c0 .24.088.437.265.59a.936.936 0 00.629.229c.237 0 .44-.07.608-.208a.67.67 0 00.253-.539.44.44 0 00-.054-.214.632.632 0 00-.129-.171 1.171 1.171 0 00-.217-.154 2.622 2.622 0 00-.247-.13 8.207 8.207 0 00-.292-.132 10.916 10.916 0 01-.292-.135c-.35.245-.524.533-.524.864zm.189-1.979c0 .053.006.103.018.151.013.046.034.09.064.133.03.04.059.077.087.111.03.034.071.07.124.105l.138.088c.04.024.095.053.166.087l.171.075.19.079.184.078c.03-.03.06-.064.09-.102.032-.04.073-.099.123-.175a.97.97 0 00.121-.268c.032-.102.048-.207.048-.313a.582.582 0 00-.217-.476c-.142-.118-.329-.178-.56-.178-.233 0-.415.057-.548.172a.55.55 0 00-.199.434zm4.596 2.422V12.71h.599v3.4c0 .172.029.29.087.352.058.06.141.09.247.09l.102-.006v.53a1.48 1.48 0 01-.415-.003.861.861 0 01-.22-.07.642.642 0 01-.205-.144.745.745 0 01-.138-.256 1.205 1.205 0 01-.057-.392zm1.671.852V12.71h.596v1.424l-.012.265h.012l.033-.057a.872.872 0 01.106-.127c.058-.062.121-.116.189-.162a1.19 1.19 0 01.286-.127c.121-.038.249-.057.386-.057.417 0 .75.15.996.451.249.302.374.696.374 1.184 0 .492-.133.887-.398 1.186-.265.3-.605.449-1.02.449a1.16 1.16 0 01-.368-.057.984.984 0 01-.28-.133 1.868 1.868 0 01-.19-.156.776.776 0 01-.111-.139l-.033-.054h-.012c.008.066.012.144.012.235v.229h-.566zm.578-1.548c0 .193.031.371.093.536a.97.97 0 00.298.41c.139.11.303.165.491.165.257 0 .471-.1.642-.301.172-.2.259-.473.259-.816 0-.335-.083-.605-.247-.81a.775.775 0 00-.636-.307.837.837 0 00-.644.283c-.171.187-.256.466-.256.84zM269.731 17.064v-4.355h1.59c.401 0 .729.126.984.377.257.249.386.578.386.987 0 .41-.129.742-.386.997s-.585.383-.984.383h-.982v1.61h-.608zm.608-2.142h.882c.261 0 .467-.075.618-.225.152-.153.228-.36.228-.624 0-.26-.075-.464-.225-.611-.149-.149-.354-.223-.615-.223h-.888v1.683zm3.014 2.142v-3.12h.578v.542l-.012.235h.012a1.26 1.26 0 01.374-.588.91.91 0 01.614-.228l.154.015v.59a.826.826 0 00-.705.178c-.159.13-.273.31-.343.539-.05.164-.076.35-.076.56v1.277h-.596zm2.096-1.56c0-.49.147-.885.44-1.184.295-.3.668-.452 1.12-.452.285 0 .531.068.738.202.208.133.363.309.463.527.101.217.151.462.151.735l-.021.259h-2.274c.014.327.123.581.326.762.204.178.453.268.746.268a1.278 1.278 0 00.557-.13c.073-.036.137-.07.193-.105.058-.036.102-.067.133-.093l.042-.037.247.437a.703.703 0 01-.055.048 2.042 2.042 0 01-.406.244 1.954 1.954 0 01-.334.106 1.8 1.8 0 01-.413.048c-.321 0-.608-.072-.861-.214a1.524 1.524 0 01-.587-.587 1.7 1.7 0 01-.205-.834zm.635-.365h1.666c-.008-.257-.084-.453-.226-.59a.727.727 0 00-.527-.205.901.901 0 00-.602.211c-.165.139-.268.333-.311.584zm3.003 1.925v-3.12h.578v.412l-.012.23h.012c.078-.194.218-.361.418-.504.203-.142.422-.214.657-.214.518 0 .83.237.936.711h.012a1.21 1.21 0 01.44-.503c.205-.138.429-.208.671-.208.35 0 .609.1.777.299.169.198.253.498.253.897v2h-.599v-1.87c0-.121-.007-.224-.021-.31a.81.81 0 00-.078-.242.376.376 0 00-.172-.171.602.602 0 00-.283-.06.766.766 0 00-.551.231 1.172 1.172 0 00-.325.567c-.03.13-.045.274-.045.43v1.425h-.597v-1.87a2.69 2.69 0 00-.009-.238 1.036 1.036 0 00-.042-.211.51.51 0 00-.09-.178.401.401 0 00-.16-.111.59.59 0 00-.241-.045.778.778 0 00-.566.234 1.276 1.276 0 00-.328.588 1.756 1.756 0 00-.039.406v1.425h-.596zm5.631-3.744v-.61h.602v.61h-.602zm.006 3.744v-3.12h.596v3.12h-.596zm1.49-1.124v-1.996h.599v1.86c0 .12.007.222.022.308a.862.862 0 00.084.24c.04.075.1.132.181.172.08.039.18.058.301.058a.884.884 0 00.731-.347c.185-.23.277-.508.277-.83v-1.461h.6v3.12h-.579v-.413l.013-.229h-.013c-.076.18-.216.345-.421.494a1.204 1.204 0 01-.726.223c-.355 0-.622-.098-.801-.292-.178-.197-.268-.5-.268-.907zm3.731 1.124v-3.12h.578v.412l-.012.23h.012c.079-.194.218-.361.419-.504.203-.142.421-.214.656-.214.518 0 .83.237.937.711h.012c.09-.199.237-.366.439-.503.205-.138.429-.208.672-.208.349 0 .608.1.777.299.169.198.253.498.253.897v2h-.599v-1.87c0-.121-.007-.224-.021-.31a.842.842 0 00-.079-.242.374.374 0 00-.171-.171.605.605 0 00-.283-.06.769.769 0 00-.552.231 1.18 1.18 0 00-.325.567c-.03.13-.045.274-.045.43v1.425h-.596v-1.87a2.69 2.69 0 00-.009-.238 1.036 1.036 0 00-.042-.211.51.51 0 00-.091-.178.397.397 0 00-.159-.111.597.597 0 00-.241-.045.777.777 0 00-.566.234 1.278 1.278 0 00-.329.588 1.756 1.756 0 00-.039.406v1.425h-.596zM313.57 13.24v-.53h3.596v.53h-1.491v3.824h-.611v-3.825h-1.494zm4.095 3.824v-3.12h.579v.542l-.012.235h.012a1.25 1.25 0 01.373-.588.911.911 0 01.614-.228l.154.015v.59a.826.826 0 00-.705.178c-.158.13-.273.31-.343.539-.05.164-.075.35-.075.56v1.277h-.597zm2.06-.877c0-.14.026-.268.078-.382a.919.919 0 01.199-.28c.08-.075.18-.138.298-.19.121-.054.234-.094.341-.12a3.629 3.629 0 01.689-.093c.084-.005.176-.007.274-.007h.136v-.057c0-.456-.228-.684-.684-.684-.09 0-.182.011-.274.034-.092.02-.173.045-.241.075a2.194 2.194 0 00-.313.16l-.042.033-.247-.437a1.022 1.022 0 01.202-.13c.078-.042.159-.079.244-.111.084-.032.191-.061.322-.087.13-.028.263-.043.397-.043.396 0 .7.106.913.317.214.21.322.513.322.906v1.973h-.554v-.296l.012-.247h-.012l-.018.037a.952.952 0 01-.142.208 1.073 1.073 0 01-.135.129.994.994 0 01-.181.123.984.984 0 01-.235.085c-.09.024-.187.036-.289.036a1.16 1.16 0 01-.747-.253c-.208-.17-.313-.404-.313-.699zm.602-.03c0 .137.052.254.154.352.104.099.249.148.434.148.16 0 .306-.051.436-.154a.973.973 0 00.295-.376c.067-.15.1-.305.1-.464v-.1h-.154c-.078 0-.149.002-.214.004a3.14 3.14 0 00-.475.054c-.071.016-.144.04-.22.07a.63.63 0 00-.187.105.489.489 0 00-.169.361zm2.452-2.213h.671l.783 2.041c.018.049.036.104.054.166.02.062.035.114.045.154l.018.057h.012c.035-.14.07-.264.106-.37l.759-2.048h.647l-1.46 3.68a1.158 1.158 0 01-.41.545 1.017 1.017 0 01-.909.141.99.99 0 01-.226-.096l-.072-.045.21-.458c.117.086.238.13.365.13a.484.484 0 00.322-.124.847.847 0 00.238-.334l.153-.356-1.306-3.083zM358.238 14.863c0-.312.057-.605.169-.88.115-.275.269-.51.464-.707.195-.197.429-.353.704-.467a2.27 2.27 0 01.88-.172c.194 0 .382.02.563.06.181.039.33.086.449.142.118.056.222.112.313.169.09.056.156.103.198.141l.061.06-.301.458-.061-.051a1.416 1.416 0 00-.165-.115 2.176 2.176 0 00-.265-.144 1.988 1.988 0 00-.35-.114 1.735 1.735 0 00-.418-.052c-.317 0-.599.075-.846.226-.247.149-.437.35-.569.602a1.78 1.78 0 00-.196.838c0 .31.066.597.199.858a1.556 1.556 0 001.418.861 1.82 1.82 0 00.828-.199c.102-.056.194-.111.274-.165.082-.057.142-.104.181-.142l.06-.06.328.436c-.016.018-.04.044-.072.076-.03.03-.1.085-.208.165-.108.08-.223.15-.343.211-.121.06-.278.116-.473.166-.193.05-.39.075-.593.075-.428 0-.812-.1-1.154-.301a2.122 2.122 0 01-.794-.822 2.394 2.394 0 01-.281-1.153zm4.373 1.324c0-.14.026-.268.078-.382a.9.9 0 01.497-.47c.12-.054.234-.094.34-.12a3.563 3.563 0 01.69-.093 5.77 5.77 0 01.274-.007h.135v-.057c0-.456-.228-.683-.683-.683-.091 0-.182.01-.274.033-.093.02-.173.045-.241.075a2.06 2.06 0 00-.313.16l-.042.033-.247-.437a1.013 1.013 0 01.201-.13c.079-.041.16-.079.244-.11.085-.033.192-.062.322-.088.131-.028.263-.042.398-.042.395 0 .7.105.912.316.215.21.323.513.323.906v1.973h-.555v-.295l.013-.247h-.013l-.018.036a.824.824 0 01-.051.087 1.024 1.024 0 01-.226.25.991.991 0 01-.18.124 1.018 1.018 0 01-.235.084 1.123 1.123 0 01-.289.036 1.16 1.16 0 01-.747-.253c-.209-.17-.313-.403-.313-.699zm.602-.03a.47.47 0 00.154.353c.104.098.249.147.433.147a.691.691 0 00.437-.153.981.981 0 00.295-.377c.066-.15.099-.305.099-.463v-.1h-.153a3.153 3.153 0 00-.69.057c-.07.016-.143.04-.22.07a.635.635 0 00-.186.105.475.475 0 00-.169.361zm2.87.055V12.71h.599v3.4c0 .172.029.29.087.352a.33.33 0 00.247.09l.103-.006v.53a1.506 1.506 0 01-.416-.003.873.873 0 01-.22-.07.642.642 0 01-.205-.144.745.745 0 01-.138-.256 1.205 1.205 0 01-.057-.392zm1.665-2.891v-.611h.602v.61h-.602zm.006 3.743v-3.12h.596v3.12h-.596zm1.313-2.596v-.482h.388v-.147c0-.195.028-.366.085-.512a.933.933 0 01.21-.34.994.994 0 01.296-.193c.114-.05.215-.082.304-.094a1.797 1.797 0 01.478-.009l.028.006v.512a1.009 1.009 0 00-.311 0 .721.721 0 00-.334.16.519.519 0 00-.117.193.844.844 0 00-.045.289v.135h.737v.482h-.737v2.596h-.594v-2.596h-.388zm2.066 1.03a1.616 1.616 0 01.49-1.168 1.726 1.726 0 011.193-.461c.231 0 .449.04.653.123.207.083.386.195.536.337.153.143.273.316.362.518.088.203.132.42.132.65 0 .31-.075.591-.226.844-.15.251-.354.447-.611.587-.257.14-.539.211-.846.211-.307 0-.589-.07-.846-.21a1.595 1.595 0 01-.837-1.431zm.611 0c0 .323.104.591.313.804.209.213.462.32.759.32.301 0 .555-.107.762-.32.206-.213.31-.48.31-.804 0-.32-.104-.584-.31-.795a1.027 1.027 0 00-.762-.316c-.297 0-.55.105-.759.316-.209.21-.313.476-.313.795zm3.466 1.566v-3.12h.578v.542l-.012.235h.012c.074-.239.199-.435.373-.587a.914.914 0 01.615-.23l.153.016v.59a.824.824 0 00-.704.178c-.159.13-.273.31-.344.539-.05.165-.075.351-.075.56v1.277h-.596zm2.312 0v-3.12h.579v.413l-.012.229h.012a1.09 1.09 0 01.141-.23c.062-.076.14-.152.232-.228a1.15 1.15 0 01.349-.187c.139-.048.288-.072.449-.072.365 0 .635.1.81.298.177.199.265.498.265.897v2h-.599v-1.861c0-.12-.008-.224-.024-.31a.832.832 0 00-.085-.244.381.381 0 00-.183-.172.673.673 0 00-.301-.06.977.977 0 00-.621.21 1.07 1.07 0 00-.364.555 1.519 1.519 0 00-.051.421v1.46h-.597zm3.71-3.743v-.611h.603v.61h-.603zm.006 3.743v-3.12h.597v3.12h-.597zm1.283-.877c0-.14.026-.268.078-.382a.917.917 0 01.199-.28c.08-.074.18-.138.298-.19.121-.054.234-.094.341-.12a3.591 3.591 0 01.689-.093 5.8 5.8 0 01.274-.007h.136v-.057c0-.456-.228-.683-.684-.683-.09 0-.182.01-.274.033-.092.02-.173.045-.241.075a2.195 2.195 0 00-.313.16l-.042.033-.247-.437a1.013 1.013 0 01.202-.13c.078-.041.159-.079.244-.11.084-.033.191-.062.322-.088.13-.028.263-.042.397-.042.396 0 .7.105.913.316.214.21.322.513.322.906v1.973h-.554v-.295l.012-.247h-.012l-.018.036a.951.951 0 01-.142.208 1.072 1.072 0 01-.135.13c-.057.047-.117.088-.181.123a1 1 0 01-.235.084c-.09.024-.187.036-.289.036a1.16 1.16 0 01-.747-.253c-.209-.17-.313-.403-.313-.699zm.602-.03c0 .137.052.254.154.353.104.098.249.147.434.147.16 0 .306-.051.436-.153a.972.972 0 00.295-.377c.067-.15.1-.305.1-.463v-.1h-.154a3.193 3.193 0 00-.689.057c-.071.016-.144.04-.22.07a.628.628 0 00-.187.105.486.486 0 00-.169.361zM121.31 17.064v-4.355h1.521c.375 0 .679.1.912.298.235.2.352.47.352.813 0 .211-.048.399-.144.563a.96.96 0 01-.398.374v.012a.92.92 0 01.527.388c.127.193.19.415.19.666 0 .199-.037.378-.111.539a1.087 1.087 0 01-.304.391 1.4 1.4 0 01-.443.232 1.824 1.824 0 01-.542.079h-1.56zm.608-.53h.982c.233 0 .415-.068.548-.202.132-.135.199-.314.199-.54a.725.725 0 00-.208-.538.731.731 0 00-.545-.208h-.976v1.488zm0-1.994h.913c.194 0 .35-.061.466-.184a.66.66 0 00.175-.475.635.635 0 00-.172-.467c-.114-.117-.275-.175-.481-.175h-.901v1.301zm3.177 2.524v-3.12h.578v.542l-.012.235h.012a1.26 1.26 0 01.374-.588.91.91 0 01.614-.228l.154.015v.59a.826.826 0 00-.705.178c-.159.13-.273.31-.343.539a1.892 1.892 0 00-.076.56v1.277h-.596zm2.06-.877c0-.14.026-.268.078-.382a.902.902 0 01.497-.47c.12-.054.234-.094.34-.12a3.629 3.629 0 01.69-.093c.084-.005.175-.007.274-.007h.135v-.057c0-.456-.228-.684-.683-.684-.091 0-.182.011-.274.034-.093.02-.173.045-.241.075a2.059 2.059 0 00-.313.16l-.042.033-.247-.437a1.022 1.022 0 01.201-.13c.079-.042.16-.079.244-.111.085-.032.192-.061.322-.087.131-.028.263-.043.398-.043.395 0 .7.106.912.317.215.21.323.513.323.906v1.973h-.554v-.296l.012-.247h-.012l-.019.037a.838.838 0 01-.051.087 1.024 1.024 0 01-.226.25.986.986 0 01-.18.123 1 1 0 01-.235.085c-.09.024-.187.036-.289.036a1.16 1.16 0 01-.747-.253c-.209-.17-.313-.404-.313-.699zm.602-.03a.47.47 0 00.154.352c.104.099.249.148.433.148a.691.691 0 00.437-.154.982.982 0 00.295-.376c.066-.15.099-.305.099-.464v-.1h-.153c-.078 0-.15.002-.214.004a3.1 3.1 0 00-.476.054c-.07.016-.143.04-.22.07a.637.637 0 00-.186.105.491.491 0 00-.121.153.448.448 0 00-.048.208zm2.692-.653c0-.49.147-.885.44-1.184.295-.3.668-.452 1.12-.452.285 0 .531.068.738.202.208.133.363.309.463.527.101.217.151.462.151.735l-.021.259h-2.274c.014.327.123.581.326.762.204.178.453.268.746.268a1.293 1.293 0 00.558-.13c.072-.036.136-.07.192-.105.058-.036.103-.067.133-.093l.042-.037.247.437a.877.877 0 01-.054.048 2.136 2.136 0 01-.407.244 1.954 1.954 0 01-.334.106 1.8 1.8 0 01-.413.048c-.321 0-.608-.072-.861-.214a1.524 1.524 0 01-.587-.587 1.7 1.7 0 01-.205-.834zm.636-.365h1.665c-.008-.257-.084-.453-.226-.59a.727.727 0 00-.527-.205.901.901 0 00-.602.211c-.165.139-.268.333-.31.584zm3.002 1.925v-4.355h.596v1.425l-.012.264h.012l.033-.057a1.16 1.16 0 01.295-.29c.07-.045.166-.087.286-.125.121-.038.249-.058.386-.058.417 0 .749.151.996.452.249.301.374.696.374 1.184 0 .492-.133.887-.398 1.186-.265.3-.605.449-1.021.449-.13 0-.252-.02-.367-.058a.984.984 0 01-.28-.132 1.855 1.855 0 01-.19-.157.772.772 0 01-.111-.138l-.033-.054h-.012c.008.066.012.144.012.235v.229h-.566zm.578-1.548c0 .192.031.371.093.536.062.162.162.299.298.41.139.11.302.165.491.165.257 0 .471-.1.642-.301.172-.201.259-.473.259-.816 0-.336-.083-.606-.247-.81a.775.775 0 00-.636-.307.836.836 0 00-.644.283c-.171.186-.256.466-.256.84zm3.074.424v-1.996h.6v1.86c0 .12.007.222.021.308a.862.862 0 00.084.24c.04.075.1.132.181.172.08.039.18.058.301.058a.887.887 0 00.732-.347c.184-.23.277-.508.277-.83v-1.461h.599v3.12h-.578v-.413l.012-.229h-.012c-.077.18-.217.345-.422.494a1.204 1.204 0 01-.726.223c-.355 0-.622-.098-.801-.292-.178-.197-.268-.5-.268-.907zm3.731 1.124v-3.12h.578v.542l-.012.235h.012a1.26 1.26 0 01.374-.588.91.91 0 01.614-.228l.154.015v.59a.826.826 0 00-.705.178c-.159.13-.273.31-.343.539-.05.164-.076.35-.076.56v1.277h-.596zm2.313 0v-3.12h.578v.412l-.012.23h.012c.034-.077.081-.153.142-.23a1.67 1.67 0 01.231-.229c.095-.076.211-.138.35-.186.138-.048.288-.073.448-.073.366 0 .636.1.81.299.177.198.265.498.265.897v2h-.599v-1.861c0-.12-.008-.224-.024-.31a.858.858 0 00-.084-.245.384.384 0 00-.184-.171.67.67 0 00-.301-.06.973.973 0 00-.62.21 1.07 1.07 0 00-.365.554 1.518 1.518 0 00-.051.422v1.46h-.596z" fill="#22282A"/><path d="M153.743 16.697a2.064 2.064 0 01-2.064-2.065c0-2.994 3.603-1.457 5.337-2.897a.13.13 0 01.132-.013.143.143 0 01.082.104c.529 3.1-1.753 4.87-3.487 4.87z" stroke="#689D7F" stroke-width=".617" stroke-linecap="round" stroke-linejoin="round"/><path d="M154.57 14.081a6.845 6.845 0 00-2.359 1.175l-1.07.913" stroke="#689D7F" stroke-width=".617" stroke-linecap="round" stroke-linejoin="round"/></svg>