<svg viewBox="0 0 725 530" fill="none" xmlns="http://www.w3.org/2000/svg"><g filter="url(#prefix__filter0_dd_858_2795)"><rect x="497.471" y="107.022" width="159" height="95.648" rx="6" fill="#fff"/><circle cx="511.394" cy="121.507" r="2.484" fill="#B50F04"/><path d="M519.116 123.389l.522-.723s.574.559 1.319.559c.402 0 .768-.209.768-.641 0-.947-2.497-.783-2.497-2.407 0-.88.76-1.536 1.774-1.536 1.043 0 1.58.567 1.58.567l-.418.782s-.506-.462-1.17-.462c-.447 0-.797.261-.797.634 0 .939 2.489.708 2.489 2.4 0 .842-.641 1.55-1.744 1.55-1.178 0-1.826-.723-1.826-.723zm5.126.633v-5.291h.961v2.243h2.422v-2.243h.962v5.291h-.962v-2.221h-2.422v2.221h-.961zm5.915-2.683c0-1.513 1.178-2.698 2.735-2.698 1.558 0 2.736 1.185 2.736 2.698 0 1.558-1.178 2.773-2.736 2.773-1.557 0-2.735-1.215-2.735-2.773zm.991 0c0 1.088.776 1.893 1.744 1.893.969 0 1.744-.805 1.744-1.893 0-1.043-.775-1.818-1.744-1.818-.968 0-1.744.775-1.744 1.818zm6.055 2.683v-5.291h1.707c.574 0 .835.044 1.066.149.529.238.864.745.864 1.446 0 .633-.335 1.222-.894 1.446v.015s.075.074.179.26l1.088 1.975h-1.073l-1.051-1.975h-.924v1.975h-.962zm.962-2.809h.864c.515 0 .835-.306.835-.835 0-.507-.216-.82-.969-.82h-.73v1.655zm5.636 2.809v-4.464h-1.737v-.827h4.435v.827h-1.737v4.464h-.961zm6.764 0l-.447-1.356h-1.856l-.447 1.356h-.992l1.864-5.291h1.006l1.863 5.291h-.991zm-1.364-4.375h-.015s-.119.522-.224.82l-.469 1.416h1.386l-.469-1.416c-.097-.298-.209-.82-.209-.82zm3.241 1.722c0-1.535 1.155-2.728 2.727-2.728 1.297 0 1.968.671 1.968.671l-.477.716s-.566-.507-1.409-.507c-1.185 0-1.818.82-1.818 1.818 0 1.148.782 1.893 1.774 1.893.797 0 1.326-.551 1.326-.551v-.619h-.812v-.827h1.677v2.787h-.82v-.253c0-.112.008-.224.008-.224h-.015s-.552.567-1.536.567c-1.393 0-2.593-1.081-2.593-2.743zm6.616 2.653v-5.291h3.168v.827h-2.206v1.386h1.781v.828h-1.781v1.423h2.325v.827h-3.287zM507.922 164.908c0-.252.036-.488.109-.71.073-.224.171-.421.296-.591.124-.173.267-.337.427-.491.164-.155.334-.297.51-.428.179-.13.356-.256.532-.377.179-.125.349-.248.51-.369.163-.121.307-.244.432-.368.124-.128.223-.267.295-.419.073-.151.11-.309.11-.473 0-.324-.111-.587-.333-.787-.218-.203-.501-.305-.85-.305-.161 0-.317.029-.469.087a1.334 1.334 0 00-.377.209c-.1.082-.19.164-.269.246-.076.082-.13.151-.163.209l-.055.086-.678-.455a1.752 1.752 0 01.15-.241c.061-.088.126-.171.196-.25.073-.079.168-.165.286-.259a2.082 2.082 0 01.86-.423c.185-.049.379-.073.582-.073.61 0 1.109.174 1.497.523.388.346.582.801.582 1.365 0 .291-.057.564-.172.819a2.234 2.234 0 01-.451.659 5.6 5.6 0 01-.614.528 13.16 13.16 0 01-.669.473c-.224.149-.43.297-.618.446a2.1 2.1 0 00-.455.496 1.094 1.094 0 00-.178.577h3.262v.801h-4.24a3.43 3.43 0 01-.045-.505zm5.263-.296l.514-.673c.015.018.035.044.059.078.028.03.087.086.178.168.094.082.192.155.295.218.103.061.237.117.401.169.166.051.336.077.509.077.397 0 .737-.124 1.019-.373.285-.249.428-.569.428-.96s-.144-.714-.432-.969c-.286-.255-.642-.382-1.069-.382-.192 0-.38.027-.565.082a1.715 1.715 0 00-.409.164l-.136.081-.528-.195.323-3.262h3.316v.801h-2.516l-.154 1.387a1.662 1.662 0 01-.018.173.755.755 0 01-.023.132l-.009.041h.018c.027-.015.065-.033.114-.055.051-.024.151-.054.3-.091a1.72 1.72 0 01.437-.059c.679 0 1.231.207 1.655.619.425.412.637.92.637 1.524 0 .634-.221 1.163-.664 1.587-.443.422-.998.633-1.665.633-.251 0-.494-.032-.728-.096-.23-.06-.42-.135-.568-.223a3.992 3.992 0 01-.396-.273 1.741 1.741 0 01-.246-.232l-.077-.091zm5.391-2.497c0-.391.024-.751.072-1.078.049-.331.129-.64.242-.928.112-.291.254-.537.427-.737.176-.2.397-.358.664-.473.267-.115.572-.173.915-.173.342 0 .647.058.914.173.27.115.493.273.669.473.176.2.32.446.432.737.112.288.192.597.241.928.048.327.073.687.073 1.078 0 .394-.025.757-.073 1.087a4.371 4.371 0 01-.241.933 2.477 2.477 0 01-.432.741c-.176.2-.399.36-.669.478a2.292 2.292 0 01-.914.173c-.343 0-.648-.058-.915-.173a1.885 1.885 0 01-.664-.478 2.533 2.533 0 01-.427-.741 4.314 4.314 0 01-.242-.933 7.586 7.586 0 01-.072-1.087zm.941 0c0 .379.022.716.064 1.01a3.5 3.5 0 00.218.805c.103.24.246.425.428.555.185.127.408.191.669.191.212 0 .398-.044.559-.132.161-.088.293-.206.396-.355.103-.148.188-.333.255-.555.066-.221.112-.454.136-.7.027-.246.041-.519.041-.819 0-.297-.014-.567-.041-.81a3.635 3.635 0 00-.136-.696 1.985 1.985 0 00-.255-.555 1.104 1.104 0 00-.396-.35 1.146 1.146 0 00-.559-.132 1.133 1.133 0 00-.951.482 1.985 1.985 0 00-.255.555 4.065 4.065 0 00-.136.696 7.973 7.973 0 00-.037.81zm7.388-2.356v-.924h.91v.924h-.91zm.009 5.654V160.7h.901v4.713h-.901zm2.32 0V160.7h.873v.624l-.018.345h.018c.052-.115.123-.23.214-.345.094-.116.211-.231.35-.346.143-.115.319-.209.528-.282.209-.073.435-.109.678-.109.552 0 .96.15 1.224.45.267.3.4.752.4 1.356v3.02h-.905v-2.811a2.54 2.54 0 00-.037-.469 1.275 1.275 0 00-.127-.368.582.582 0 00-.278-.26 1.016 1.016 0 00-.454-.091c-.355 0-.668.107-.938.319-.266.212-.45.491-.55.837a2.27 2.27 0 00-.077.637v2.206h-.901zm7.624-.578l.437-.641c.015.015.036.035.064.059a2.139 2.139 0 00.454.3c.101.049.226.093.378.132.152.04.303.059.455.059a.963.963 0 00.546-.154.494.494 0 00.236-.432.426.426 0 00-.136-.31 1.113 1.113 0 00-.346-.241c-.142-.07-.3-.138-.473-.205a7.704 7.704 0 01-.519-.222 3.303 3.303 0 01-.468-.283 1.257 1.257 0 01-.35-.404 1.191 1.191 0 01-.132-.564c0-.416.162-.743.486-.983.325-.24.731-.359 1.22-.359.194 0 .377.018.55.054.176.037.32.081.432.132.112.049.211.099.296.15.085.052.145.096.182.132l.059.055-.364.678a.63.63 0 00-.05-.046 1.536 1.536 0 00-.146-.1 1.533 1.533 0 00-.241-.127 1.78 1.78 0 00-.323-.101 1.793 1.793 0 00-.404-.045c-.216 0-.399.049-.551.146a.482.482 0 00-.223.432.43.43 0 00.132.305c.091.09.208.169.35.236.143.064.299.129.469.196.173.063.346.138.519.223.172.084.33.18.473.286.142.103.257.238.345.405.091.164.137.35.137.56 0 .397-.158.724-.473.982-.313.258-.724.387-1.233.387a2.67 2.67 0 01-.628-.073 2.366 2.366 0 01-.505-.168 4.697 4.697 0 01-.355-.205 1.643 1.643 0 01-.227-.177l-.073-.069zm4.135-3.343v-.728h.646v-1.36h.874v1.36h1.137v.728h-1.137v2.097c0 .179.024.337.072.473a.874.874 0 00.178.309.905.905 0 00.255.178 1.102 1.102 0 00.5.1l.218-.018v.8a2.77 2.77 0 01-.741-.013 1.94 1.94 0 01-.469-.137 1.524 1.524 0 01-.455-.286 1.485 1.485 0 01-.327-.519 2.148 2.148 0 01-.132-.787v-2.197h-.619zm3.417 1.556a2.424 2.424 0 01.741-1.765c.231-.216.5-.386.81-.51a2.66 2.66 0 01.991-.186 2.634 2.634 0 011.797.696 2.424 2.424 0 01.746 1.765c0 .467-.113.891-.341 1.273a2.398 2.398 0 01-.923.887 2.615 2.615 0 01-1.279.319c-.464 0-.89-.106-1.278-.319a2.398 2.398 0 01-.923-.887 2.435 2.435 0 01-.341-1.273zm.923 0c0 .488.158.893.473 1.214.316.322.698.482 1.146.482.455 0 .839-.16 1.151-.482.313-.321.469-.726.469-1.214 0-.483-.156-.883-.469-1.201a1.547 1.547 0 00-1.151-.478c-.448 0-.83.159-1.146.478-.315.318-.473.718-.473 1.201zm4.899.009c0-.704.237-1.291.71-1.761.476-.473 1.081-.709 1.815-.709.221 0 .432.024.632.072.204.046.37.103.501.173.133.067.25.135.35.205.1.067.173.124.218.173l.069.068-.428.632a1.399 1.399 0 00-.232-.186 1.645 1.645 0 00-.268-.164 1.915 1.915 0 00-.806-.191c-.476 0-.868.159-1.178.478-.306.315-.459.715-.459 1.201 0 .485.156.89.468 1.214.313.322.711.482 1.197.482a1.912 1.912 0 00.891-.223c.113-.063.213-.125.301-.186.091-.064.157-.117.2-.159l.063-.068.364.664a2.036 2.036 0 01-.077.082 2.768 2.768 0 01-.614.409 2.674 2.674 0 01-.523.182 2.694 2.694 0 01-.669.082c-.737 0-1.342-.234-1.815-.701-.473-.467-.71-1.057-.71-1.769zm5.432 2.356v-6.578h.901v3.598h.664l1.283-1.733h1.028l-1.565 2.075v.022l1.742 2.616h-1.055l-1.415-2.215h-.682v2.215h-.901z" fill="#4A5355"/><path d="M565.462 163.189v-.96h.924v.96h-.924zm6.906 1.442l.505-.701.073.077a2.924 2.924 0 00.545.392c.119.063.266.121.442.173.176.051.353.077.532.077.376 0 .693-.112.951-.337.261-.227.391-.515.391-.864 0-.385-.147-.682-.441-.892-.294-.212-.657-.318-1.088-.318h-.459l-.214-.496 1.438-1.688a6.56 6.56 0 01.355-.373l.054-.054v-.018a4.37 4.37 0 01-.559.027h-2.229v-.801h3.934v.587l-1.792 2.061a2.459 2.459 0 011.051.355c.17.103.318.225.446.368.13.143.235.318.314.528a2.056 2.056 0 01-.046 1.487 2.098 2.098 0 01-.446.673 2.048 2.048 0 01-.709.46 2.4 2.4 0 01-.915.173 2.976 2.976 0 01-1.401-.35 2.466 2.466 0 01-.318-.192l-.228-.177a1.464 1.464 0 01-.141-.127l-.045-.05zm5.445-1.119c0-.188.032-.373.096-.555.063-.185.136-.339.218-.46.082-.121.18-.239.296-.355.115-.118.201-.2.259-.245.061-.049.121-.094.182-.137-.491-.355-.737-.793-.737-1.314 0-.179.026-.351.077-.514a1.634 1.634 0 01.651-.851 1.89 1.89 0 01.578-.259c.227-.064.476-.096.746-.096.615 0 1.114.159 1.496.478.382.318.573.746.573 1.282 0 .562-.26 1.132-.782 1.711.282.173.5.37.655.591.158.222.237.492.237.81 0 .343-.091.66-.273.951a2.008 2.008 0 01-.796.709c-.346.179-.74.269-1.183.269-.661 0-1.209-.188-1.642-.564-.434-.376-.651-.86-.651-1.451zm.942-.055c0 .364.133.661.4.892.27.23.587.345.951.345.358 0 .664-.104.919-.314.254-.212.382-.483.382-.814a.66.66 0 00-.082-.323.965.965 0 00-.196-.259 1.722 1.722 0 00-.327-.232 3.98 3.98 0 00-.373-.196 13.615 13.615 0 00-.441-.2 15.574 15.574 0 01-.442-.205c-.527.37-.791.806-.791 1.306zm.286-2.989c0 .079.009.155.028.228a.62.62 0 00.095.2c.046.061.09.117.132.168.046.052.108.105.187.159l.209.132c.06.037.144.081.25.132l.259.114.287.118c.124.052.217.091.277.119.046-.046.091-.097.137-.155.048-.061.111-.149.186-.264.076-.115.137-.25.182-.405.049-.154.073-.312.073-.473 0-.3-.109-.54-.327-.719-.216-.179-.498-.268-.847-.268-.351 0-.627.086-.827.259a.826.826 0 00-.301.655zm4.185 3.185v-.578l3.039-4.24h1.056v4.035h.891v.783h-.891v1.76h-.906v-1.76h-3.189zm1.019-.783h2.17v-2.393a5.492 5.492 0 01.028-.559l.009-.096h-.019c-.1.207-.209.387-.327.542l-1.861 2.488v.018zm7.065 1.965l.437-.641a1.495 1.495 0 00.236.191c.091.064.185.12.282.168a2 2 0 00.378.132c.152.04.303.059.455.059a.963.963 0 00.546-.154.496.496 0 00.236-.432.426.426 0 00-.136-.31 1.113 1.113 0 00-.346-.241c-.143-.07-.3-.138-.473-.205a7.704 7.704 0 01-.519-.222 3.303 3.303 0 01-.468-.283 1.245 1.245 0 01-.35-.404 1.191 1.191 0 01-.132-.564c0-.416.162-.743.486-.983.325-.24.731-.359 1.219-.359.195 0 .378.018.551.054.176.037.32.081.432.132.112.049.211.099.296.15.085.052.145.096.182.132l.059.055-.364.678a.63.63 0 00-.05-.046 1.536 1.536 0 00-.146-.1 1.533 1.533 0 00-.241-.127 1.78 1.78 0 00-.323-.101 1.796 1.796 0 00-.405-.045 1 1 0 00-.55.146.482.482 0 00-.223.432.43.43 0 00.132.305c.091.09.208.169.35.236.143.064.299.129.469.196.173.063.346.138.518.223.173.084.331.18.473.286.143.103.258.238.346.405.091.164.137.35.137.56 0 .397-.158.724-.473.982-.313.258-.724.387-1.233.387-.216 0-.425-.024-.628-.073a2.366 2.366 0 01-.505-.168 4.507 4.507 0 01-.355-.205 1.643 1.643 0 01-.227-.177l-.073-.069zm4.212-1.787c0-.349.067-.677.201-.983.133-.306.313-.567.541-.782.23-.216.5-.386.81-.51a2.66 2.66 0 01.991-.186 2.625 2.625 0 011.797.696 2.424 2.424 0 01.746 1.765c0 .467-.113.891-.341 1.273a2.398 2.398 0 01-.923.887 2.618 2.618 0 01-1.279.319c-.464 0-.89-.106-1.278-.319a2.398 2.398 0 01-.923-.887 2.436 2.436 0 01-.342-1.273zm.924 0c0 .488.158.893.473 1.214.315.322.697.482 1.146.482.455 0 .839-.16 1.151-.482.313-.321.469-.726.469-1.214 0-.483-.156-.883-.469-1.201a1.547 1.547 0 00-1.151-.478 1.55 1.55 0 00-1.146.478c-.315.318-.473.718-.473 1.201zm5.177 1.078v-5.291h.905v5.136c0 .261.044.438.132.532a.495.495 0 00.373.137l.155-.009v.8c-.091.012-.19.018-.296.018-.121 0-.232-.007-.332-.022a1.27 1.27 0 01-.332-.105.938.938 0 01-.31-.218 1.128 1.128 0 01-.209-.387 1.806 1.806 0 01-.086-.591zm2.215-1.069c0-.743.199-1.341.596-1.793.397-.451.91-.677 1.538-.677.203 0 .392.025.568.077.176.051.316.114.419.186.103.073.192.146.268.219a.95.95 0 01.159.186l.041.078h.018a2.547 2.547 0 01-.018-.319v-2.179h.901v6.578h-.855v-.446l.009-.318h-.018a.6.6 0 01-.05.095c-.022.04-.075.11-.16.21-.085.1-.182.189-.291.268a1.684 1.684 0 01-.441.209 1.84 1.84 0 01-.605.096c-.634 0-1.139-.226-1.515-.678-.376-.455-.564-1.052-.564-1.792zm.924 0c0 .506.122.914.368 1.223.249.31.57.464.964.464.182 0 .352-.031.51-.095.158-.067.302-.165.432-.296a1.35 1.35 0 00.305-.537c.076-.224.114-.48.114-.768 0-.292-.047-.56-.141-.806a1.445 1.445 0 00-.455-.623 1.136 1.136 0 00-.737-.25c-.389 0-.713.152-.974.455-.258.303-.386.714-.386 1.233z" fill="#B50F04"/><path d="M508.483 149.022v-7.893h4.345v.961h-3.242v2.593h2.762v.966h-2.762v3.373h-1.103zm5.525-2.036v-3.619h1.086v3.374c0 .214.013.4.038.556.029.153.08.299.153.437a.73.73 0 00.327.311c.146.069.328.104.546.104.553 0 .996-.209 1.327-.628.335-.418.502-.92.502-1.506v-2.648h1.086v5.655h-1.048v-.747l.022-.415h-.022c-.138.327-.393.626-.764.895s-.81.404-1.316.404c-.644 0-1.128-.177-1.452-.53-.324-.356-.485-.904-.485-1.643zm5.295 3.39a2.097 2.097 0 00.535-.011c.091-.014.196-.047.316-.098a.954.954 0 00.306-.202.953.953 0 00.218-.366c.062-.156.093-.34.093-.551v-5.781h1.07v5.847c0 .258-.029.494-.087.709a1.83 1.83 0 01-.219.535 1.444 1.444 0 01-.322.377 1.638 1.638 0 01-.382.251 2.034 2.034 0 01-.415.147 2.35 2.35 0 01-.387.077 3.555 3.555 0 01-.344.016l-.382-.022v-.928zm1.457-8.139v-1.108h1.092v1.108h-1.092zm2.773 0v-1.108h1.092v1.108h-1.092zm.011 6.785v-5.655h1.081v5.655h-1.081zm4.891 0l2.844-7.893h1.163l2.839 7.893h-1.152l-.797-2.27h-2.97l-.786 2.27h-1.141zm2.216-3.187h2.391l-.873-2.501a13.242 13.242 0 01-.257-.928l-.043-.191h-.022c-.116.477-.22.85-.311 1.119l-.885 2.501zm5.568 5.426v-7.894h.994v.48l-.022.415h.022a3.34 3.34 0 01.06-.109c.029-.047.096-.129.202-.245.106-.121.224-.226.355-.317.131-.091.311-.173.54-.246.23-.076.477-.114.743-.114.757 0 1.359.273 1.807.818.451.546.676 1.261.676 2.146 0 .888-.24 1.605-.72 2.151-.481.542-1.094.813-1.84.813-.233 0-.451-.033-.655-.098a1.717 1.717 0 01-.497-.23 3.37 3.37 0 01-.327-.273 1.274 1.274 0 01-.202-.234l-.055-.093h-.021c.014.135.021.298.021.491v2.539h-1.081zm1.049-5.044c0 .345.058.669.174.971.12.299.304.548.552.748.251.197.542.295.873.295.466 0 .853-.182 1.163-.546.313-.364.469-.857.469-1.479 0-.608-.149-1.098-.447-1.469a1.404 1.404 0 00-1.152-.557 1.52 1.52 0 00-1.168.514c-.31.338-.464.846-.464 1.523zm5.655 5.044v-7.894h.993v.48l-.021.415h.021a3.34 3.34 0 01.06-.109c.03-.047.097-.129.202-.245.106-.121.224-.226.355-.317.131-.091.311-.173.541-.246a2.34 2.34 0 01.742-.114c.757 0 1.359.273 1.807.818.451.546.677 1.261.677 2.146 0 .888-.24 1.605-.721 2.151-.48.542-1.093.813-1.839.813a2.14 2.14 0 01-.655-.098 1.705 1.705 0 01-.497-.23 3.27 3.27 0 01-.328-.273 1.314 1.314 0 01-.202-.234l-.054-.093h-.022c.015.135.022.298.022.491v2.539h-1.081zm1.048-5.044c0 .345.058.669.175.971.12.299.304.548.551.748.251.197.542.295.873.295.466 0 .854-.182 1.163-.546.313-.364.47-.857.47-1.479 0-.608-.15-1.098-.448-1.469a1.404 1.404 0 00-1.152-.557 1.52 1.52 0 00-1.168.514c-.309.338-.464.846-.464 1.523zm5.584 1.261v-6.349h1.087v6.163c0 .313.052.526.158.639.106.109.255.163.448.163l.185-.01v.96a2.611 2.611 0 01-.355.022c-.145 0-.278-.009-.398-.027a1.538 1.538 0 01-.399-.126 1.143 1.143 0 01-.371-.262 1.35 1.35 0 01-.251-.464 2.176 2.176 0 01-.104-.709zm2.637-1.283c0-.888.266-1.603.797-2.146.535-.545 1.212-.818 2.031-.818.516 0 .962.122 1.337.365a2.2 2.2 0 01.841.956c.182.393.273.837.273 1.332l-.038.469h-4.122c.026.593.222 1.054.59 1.381.371.324.822.486 1.353.486a2.268 2.268 0 001.01-.235c.131-.065.248-.129.35-.191.105-.065.185-.122.24-.169l.076-.066.448.792a1.616 1.616 0 01-.098.087 3.766 3.766 0 01-.284.197 3.633 3.633 0 01-.453.246 3.65 3.65 0 01-.606.191 3.272 3.272 0 01-.748.087c-.582 0-1.103-.129-1.561-.388a2.764 2.764 0 01-1.065-1.064 3.096 3.096 0 01-.371-1.512zm1.152-.661h3.019c-.015-.466-.151-.822-.41-1.07a1.318 1.318 0 00-.955-.371c-.426 0-.79.128-1.092.382-.298.251-.486.604-.562 1.059z" fill="#22282A"/><path d="M577.413 180.251l1.473-1.426h.764v5.392h1.338v.747h-3.528v-.747h1.354v-3.966l.008-.382h-.017a1.555 1.555 0 01-.297.357l-.573.564-.522-.539zm4.161 3.983l.471-.654.068.072a2.626 2.626 0 00.509.365 2.134 2.134 0 00.909.234 1.3 1.3 0 00.887-.315 1.02 1.02 0 00.365-.806c0-.36-.137-.637-.411-.832-.275-.199-.613-.298-1.015-.298h-.429l-.199-.462 1.341-1.576a5.748 5.748 0 01.331-.348l.051-.051v-.017a4.014 4.014 0 01-.522.026h-2.08v-.747h3.672v.547l-1.673 1.924c.17.017.336.052.497.106.164.051.326.126.484.225.159.096.297.211.416.344.122.133.22.297.293.492a1.912 1.912 0 01-.042 1.388 1.966 1.966 0 01-.416.629 1.949 1.949 0 01-.663.429 2.24 2.24 0 01-.853.161 2.759 2.759 0 01-.943-.166 3.443 3.443 0 01-.365-.161 2.28 2.28 0 01-.297-.178l-.212-.166a1.172 1.172 0 01-.132-.119l-.042-.046zm4.853-.913v-.539l2.836-3.957h.985v3.765h.832v.731h-.832v1.643h-.845v-1.643h-2.976zm.951-.731h2.025v-2.233a5.785 5.785 0 01.025-.522l.009-.089h-.017a2.951 2.951 0 01-.306.505l-1.736 2.323v.016zm6.627.166a2.282 2.282 0 01.692-1.647 2.41 2.41 0 01.756-.476c.292-.116.6-.174.926-.174a2.45 2.45 0 011.677.65 2.265 2.265 0 01.696 1.647c0 .436-.106.832-.318 1.189-.213.354-.5.63-.862.828-.363.198-.76.297-1.193.297-.433 0-.831-.099-1.193-.297a2.234 2.234 0 01-.862-.828 2.275 2.275 0 01-.319-1.189zm.862 0c0 .456.147.834.442 1.134.294.3.651.45 1.07.45.424 0 .782-.15 1.074-.45.291-.3.437-.678.437-1.134 0-.45-.146-.824-.437-1.121a1.448 1.448 0 00-1.074-.446 1.45 1.45 0 00-1.07.446c-.295.297-.442.671-.442 1.121zm4.284-2.191h.896l1.07 2.972a4.131 4.131 0 01.123.506.522.522 0 00.025.093h.017a.39.39 0 00.026-.093l.055-.247c.026-.102.051-.188.077-.259l1.069-2.972h.888l-1.626 4.399h-.977l-1.643-4.399zm4.662 2.2c0-.691.207-1.247.62-1.669.416-.425.942-.637 1.579-.637.402 0 .749.095 1.04.285.295.186.513.434.654.743.142.305.213.651.213 1.036l-.03.365h-3.206c.02.461.173.819.459 1.074.289.252.64.378 1.053.378a1.807 1.807 0 00.785-.183c.102-.051.193-.1.272-.148.082-.051.144-.095.187-.132l.059-.051.348.616a1.416 1.416 0 01-.076.068 2.92 2.92 0 01-.221.152c-.11.071-.228.135-.352.191a2.72 2.72 0 01-.471.149 2.556 2.556 0 01-.582.068c-.453 0-.858-.1-1.214-.301a2.153 2.153 0 01-.828-.828 2.4 2.4 0 01-.289-1.176zm.896-.514h2.348c-.012-.362-.118-.64-.319-.832a1.022 1.022 0 00-.743-.289c-.331 0-.614.099-.849.297-.232.195-.378.47-.437.824zm4.233 2.713v-4.399h.815v.764l-.017.332h.017c.105-.337.28-.613.526-.828.25-.215.538-.323.867-.323l.216.021v.832a1.163 1.163 0 00-.993.251 1.534 1.534 0 00-.484.76 2.696 2.696 0 00-.107.79v1.8h-.84zm2.904-.539l.408-.599a.915.915 0 00.059.055 2.142 2.142 0 00.425.28c.093.046.21.087.352.124.141.036.283.055.424.055a.89.89 0 00.51-.145.462.462 0 00.221-.403.399.399 0 00-.128-.289 1.058 1.058 0 00-.322-.225 5.964 5.964 0 00-.442-.191 6.715 6.715 0 01-.484-.208 3.162 3.162 0 01-.437-.263 1.176 1.176 0 01-.327-.378 1.112 1.112 0 01-.123-.526c0-.388.151-.694.454-.917.303-.224.682-.336 1.138-.336.181 0 .352.017.514.051.164.034.298.075.403.123.105.045.197.092.276.14a.954.954 0 01.17.123l.055.051-.34.633-.046-.042a1.606 1.606 0 00-.361-.213 1.661 1.661 0 00-.302-.093 1.672 1.672 0 00-.378-.043.934.934 0 00-.513.136.45.45 0 00-.208.404.4.4 0 00.123.284c.085.085.194.159.327.221.133.059.279.12.437.182.161.06.323.129.484.208a2.9 2.9 0 01.442.268c.133.096.24.222.322.378.085.153.128.327.128.522 0 .371-.148.677-.442.917-.291.241-.675.361-1.151.361-.2 0-.396-.023-.585-.068a2.188 2.188 0 01-.472-.157 4.263 4.263 0 01-.331-.191 1.439 1.439 0 01-.212-.166l-.068-.063zm3.931-1.669a2.282 2.282 0 01.693-1.647c.215-.201.467-.36.755-.476.292-.116.6-.174.926-.174a2.45 2.45 0 011.677.65 2.265 2.265 0 01.696 1.647c0 .436-.106.832-.318 1.189-.212.354-.5.63-.862.828-.362.198-.76.297-1.193.297-.433 0-.831-.099-1.193-.297a2.234 2.234 0 01-.862-.828 2.285 2.285 0 01-.319-1.189zm.862 0c0 .456.148.834.442 1.134.294.3.651.45 1.07.45.424 0 .782-.15 1.074-.45.292-.3.437-.678.437-1.134 0-.45-.145-.824-.437-1.121a1.448 1.448 0 00-1.074-.446 1.45 1.45 0 00-1.07.446c-.294.297-.442.671-.442 1.121zm4.832 1.006v-4.937h.845v4.793c0 .243.041.409.123.497.082.085.198.127.348.127l.145-.008v.747a2.152 2.152 0 01-.586-.004 1.232 1.232 0 01-.31-.098.889.889 0 01-.289-.204 1.04 1.04 0 01-.195-.361 1.682 1.682 0 01-.081-.552zm2.068-.997c0-.694.185-1.252.556-1.673.371-.422.849-.633 1.435-.633.19 0 .367.024.531.072.164.048.294.106.39.174.097.068.18.136.251.204.071.068.12.126.148.174l.039.072h.017a2.204 2.204 0 01-.017-.297v-2.033h.84v6.139h-.798v-.416l.009-.297h-.017a.616.616 0 01-.047.089c-.02.037-.069.102-.149.195a1.58 1.58 0 01-.271.251c-.1.07-.237.135-.412.195a1.739 1.739 0 01-.565.089c-.592 0-1.063-.211-1.414-.633-.351-.424-.526-.982-.526-1.672zm.862 0c0 .472.114.853.344 1.142.232.288.532.433.9.433.169 0 .328-.03.475-.089.147-.063.282-.155.403-.276.122-.125.217-.292.285-.501.071-.21.106-.449.106-.718 0-.272-.044-.522-.132-.751a1.328 1.328 0 00-.424-.582 1.06 1.06 0 00-.688-.234 1.15 1.15 0 00-.908.425c-.241.283-.361.667-.361 1.151z" fill="#82898A"/><rect x="507.408" y="178.45" width="62.109" height="7.453" rx="3.727" fill="#B50F04"/><rect x="-.311" y=".311" width="40.785" height="6.832" rx="3.416" transform="matrix(-1 0 0 1 548.193 178.45)" fill="#FEEAE9" stroke="#B50F04" stroke-width=".621"/><path d="M565.087 146.294l-2.277 2.211a.287.287 0 01-.398 0l-.265-.258a.268.268 0 01-.001-.386l1.805-1.76-1.805-1.761a.268.268 0 01.001-.386l.265-.258a.289.289 0 01.398 0l2.277 2.211c.11.107.11.28 0 .387z" fill="#000" fill-opacity=".87"/></g><defs><filter id="prefix__filter0_dd_858_2795" x="481.471" y="97.022" width="191" height="127.648" filterUnits="userSpaceOnUse" color-interpolation-filters="sRGB"><feFlood flood-opacity="0" result="BackgroundImageFix"/><feColorMatrix in="SourceAlpha" values="0 0 0 0 0 0 0 0 0 0 0 0 0 0 0 0 0 0 127 0" result="hardAlpha"/><feOffset dy="6"/><feGaussianBlur stdDeviation="8"/><feComposite in2="hardAlpha" operator="out"/><feColorMatrix values="0 0 0 0 0.411765 0 0 0 0 0.337255 0 0 0 0 0.215686 0 0 0 0.12 0"/><feBlend in2="BackgroundImageFix" result="effect1_dropShadow_858_2795"/><feColorMatrix in="SourceAlpha" values="0 0 0 0 0 0 0 0 0 0 0 0 0 0 0 0 0 0 127 0" result="hardAlpha"/><feMorphology radius="2" in="SourceAlpha" result="effect2_dropShadow_858_2795"/><feOffset dy="2"/><feGaussianBlur stdDeviation="3"/><feComposite in2="hardAlpha" operator="out"/><feColorMatrix values="0 0 0 0 0 0 0 0 0 0 0 0 0 0 0 0 0 0 0.08 0"/><feBlend in2="effect1_dropShadow_858_2795" result="effect2_dropShadow_858_2795"/><feBlend in="SourceGraphic" in2="effect2_dropShadow_858_2795" result="shape"/></filter></defs></svg>