<svg viewBox="0 0 160 97" fill="none" xmlns="http://www.w3.org/2000/svg"><rect width="160" height="97" rx="6" fill="#fff"/><circle cx="14.638" cy="14.899" r="2.484" fill="#B50F04"/><path d="M22.404 16.81l.419-.556.061.058a2.611 2.611 0 00.47.313c.097.048.22.093.367.134.15.04.298.059.44.059.258 0 .474-.07.649-.208a.691.691 0 00.262-.567.637.637 0 00-.142-.408 1.176 1.176 0 00-.368-.306 4.73 4.73 0 00-.495-.244c-.18-.077-.36-.16-.542-.247a3.275 3.275 0 01-.495-.298 1.335 1.335 0 01-.364-.423 1.196 1.196 0 01-.142-.586c0-.412.16-.759.48-1.04.32-.284.727-.426 1.22-.426.288 0 .556.045.804.135.247.087.423.174.528.262l.156.13-.335.612a1.262 1.262 0 00-.153-.124 2.046 2.046 0 00-.4-.204 1.536 1.536 0 00-.6-.127c-.274 0-.503.075-.684.226a.678.678 0 00-.27.542c0 .199.086.369.259.51.174.138.387.257.636.356.253.097.504.206.754.328.252.118.464.288.637.51.174.22.262.487.262.8 0 .422-.152.775-.455 1.059-.303.284-.709.426-1.216.426-.208 0-.411-.025-.607-.073a2.132 2.132 0 01-.492-.171 3.714 3.714 0 01-.35-.204 1.97 1.97 0 01-.225-.175l-.069-.073zm5.069.605v-5.263h.735v2.311h2.73v-2.31h.738v5.262h-.739v-2.311h-2.729v2.31h-.735zm5.87-2.668c0-.755.26-1.39.782-1.907.521-.517 1.162-.775 1.921-.775.762 0 1.403.258 1.922.775.519.517.779 1.152.779 1.907 0 .774-.26 1.428-.78 1.962-.518.53-1.159.797-1.92.797-.76 0-1.4-.266-1.922-.797-.522-.534-.783-1.188-.783-1.962zm.76 0c0 .587.188 1.08.564 1.481.378.398.838.597 1.38.597.543 0 1.001-.2 1.375-.6.376-.4.564-.893.564-1.478 0-.573-.188-1.05-.564-1.434a1.84 1.84 0 00-1.376-.579c-.54 0-1 .193-1.379.58-.376.383-.564.86-.564 1.433zm6.317 2.668v-5.263h1.609c.441 0 .769.04.982.12.274.1.49.277.648.532.16.252.24.55.24.891 0 .338-.086.636-.258.896-.17.257-.4.433-.688.527v.015c.039.043.091.124.156.24l1.118 2.042h-.834l-1.11-2.093h-1.128v2.093h-.735zm.735-2.737h1.06c.288 0 .515-.085.68-.255.167-.172.25-.405.25-.699 0-.388-.139-.658-.418-.811-.148-.08-.388-.12-.72-.12h-.852v1.885zm5.76 2.737v-4.622H45.11v-.64h4.346v.64h-1.802v4.622h-.739zm6.707 0l-.531-1.514h-1.98l-.524 1.514h-.76l1.895-5.263h.776l1.892 5.263h-.768zm-1.507-4.539h-.014c-.08.318-.15.567-.208.747l-.59 1.666h1.595l-.583-1.666-.2-.747zm3.264 1.9c0-.764.256-1.407.768-1.929.512-.521 1.151-.782 1.918-.782a3.442 3.442 0 011.219.222c.146.06.273.122.382.185.11.061.188.113.237.157l.076.07-.371.549a1.883 1.883 0 00-.19-.142c-.082-.059-.253-.135-.512-.23a2.251 2.251 0 00-.783-.141c-.602 0-1.083.192-1.445.578-.359.383-.538.866-.538 1.449 0 .606.183 1.102.55 1.488.368.383.831.575 1.39.575a1.9 1.9 0 00.775-.164c.247-.109.428-.218.542-.327l.17-.164v-.76h-.854v-.641h1.528v2.646h-.651v-.328l.01-.226h-.017a2.5 2.5 0 00-.066.07c-.03.029-.096.08-.2.156-.105.075-.215.14-.331.197a2.497 2.497 0 01-.452.149 2.219 2.219 0 01-.567.073c-.72 0-1.332-.258-1.834-.772-.503-.514-.754-1.167-.754-1.958zm6.612 2.639v-5.263h3.053v.64h-2.318v1.65h1.889v.64h-1.889v1.692h2.446v.64H61.99zM11.165 58.3c0-.252.037-.488.11-.71a2.08 2.08 0 01.295-.59c.124-.174.267-.337.428-.492.163-.155.333-.297.51-.428.178-.13.356-.256.531-.377.18-.125.35-.247.51-.369a3.86 3.86 0 00.432-.368 1.57 1.57 0 00.296-.419c.073-.151.109-.309.109-.473 0-.324-.11-.587-.332-.787-.219-.203-.502-.305-.85-.305-.162 0-.318.03-.47.087a1.347 1.347 0 00-.377.21c-.1.081-.19.163-.268.245a1.25 1.25 0 00-.164.209l-.055.086-.677-.455c.009-.018.02-.04.036-.068.015-.03.053-.088.114-.173a2.63 2.63 0 01.195-.25c.073-.079.168-.165.287-.259.121-.097.248-.18.382-.25.133-.07.292-.128.477-.173.186-.049.38-.073.583-.073.61 0 1.108.174 1.496.523.389.346.583.8.583 1.365 0 .291-.058.564-.173.819a2.213 2.213 0 01-.45.66 5.54 5.54 0 01-.615.527c-.221.167-.444.325-.668.473-.225.149-.431.297-.619.446a2.118 2.118 0 00-.455.496 1.094 1.094 0 00-.177.578h3.261v.8h-4.24a3.39 3.39 0 01-.045-.505zm5.263-.295l.514-.674c.016.018.035.044.06.078.027.03.086.086.177.168.094.082.193.155.296.218a1.96 1.96 0 00.91.246c.397 0 .736-.124 1.018-.373.286-.249.428-.569.428-.96s-.144-.714-.432-.969c-.285-.255-.642-.382-1.07-.382-.19 0-.378.027-.563.082-.185.054-.322.11-.41.164l-.136.081-.528-.195.323-3.262h3.316v.8h-2.515l-.155 1.388c-.003.058-.009.116-.018.173a.77.77 0 01-.023.132l-.009.041h.018a1.373 1.373 0 01.414-.146 1.7 1.7 0 01.437-.059c.68 0 1.231.207 1.656.62.424.411.637.92.637 1.523 0 .634-.222 1.163-.664 1.588-.443.421-.998.632-1.665.632-.252 0-.495-.032-.728-.096-.23-.06-.42-.135-.569-.223a4.058 4.058 0 01-.396-.273 1.72 1.72 0 01-.245-.231l-.078-.091zm5.391-2.498c0-.391.024-.75.073-1.078.048-.33.129-.64.24-.928.113-.291.256-.537.428-.737.176-.2.398-.358.665-.473.266-.115.571-.173.914-.173.343 0 .648.058.914.173.27.115.493.273.669.473.176.2.32.446.432.737.112.288.193.597.241.928.049.328.073.687.073 1.078 0 .394-.024.757-.073 1.087-.048.33-.129.642-.24.933a2.488 2.488 0 01-.433.741c-.176.2-.399.36-.669.478a2.285 2.285 0 01-.914.173c-.343 0-.648-.058-.914-.173a1.887 1.887 0 01-.665-.478 2.545 2.545 0 01-.427-.741 4.334 4.334 0 01-.241-.933 7.5 7.5 0 01-.073-1.087zm.942 0c0 .38.02.716.063 1.01.046.294.119.563.219.805.103.24.245.425.427.555.185.127.408.191.669.191.212 0 .399-.044.56-.132a1.14 1.14 0 00.395-.355c.103-.148.188-.333.255-.555.067-.22.112-.454.136-.7a7.46 7.46 0 00.041-.819c0-.297-.013-.567-.04-.81a3.587 3.587 0 00-.137-.696 1.963 1.963 0 00-.255-.555 1.1 1.1 0 00-.396-.35 1.148 1.148 0 00-.559-.132 1.138 1.138 0 00-.95.482 1.963 1.963 0 00-.256.555 4.1 4.1 0 00-.136.696 8.209 8.209 0 00-.036.81zm7.387-2.356v-.924h.91v.924h-.91zm.01 5.654v-4.713h.9v4.713h-.9zm2.32 0v-4.713h.873v.624l-.018.345h.018c.051-.115.123-.23.214-.345.094-.116.21-.23.35-.346.142-.115.318-.21.528-.282.209-.073.435-.11.677-.11.552 0 .96.15 1.224.451.267.3.4.752.4 1.356v3.02h-.905v-2.811c0-.182-.012-.338-.036-.469a1.294 1.294 0 00-.128-.368.577.577 0 00-.277-.26 1.012 1.012 0 00-.455-.09c-.355 0-.667.106-.937.318-.267.212-.45.491-.55.837a2.285 2.285 0 00-.078.637v2.206h-.9zm7.623-.578l.437-.641a1.577 1.577 0 00.237.191c.09.064.185.12.282.168a2.075 2.075 0 00.832.191c.21 0 .392-.051.546-.154a.496.496 0 00.237-.432.427.427 0 00-.137-.31 1.112 1.112 0 00-.345-.24c-.143-.07-.3-.139-.474-.206a7.63 7.63 0 01-.518-.222 3.363 3.363 0 01-.469-.282 1.261 1.261 0 01-.35-.405 1.191 1.191 0 01-.132-.564c0-.416.162-.743.487-.983.324-.24.73-.36 1.219-.36.194 0 .377.019.55.055.176.037.32.08.433.132.112.049.21.099.295.15.085.052.146.096.182.132l.06.055-.365.678a.931.931 0 00-.05-.046 1.647 1.647 0 00-.145-.1 1.66 1.66 0 00-.564-.227 1.783 1.783 0 00-.405-.046 1 1 0 00-.55.146.482.482 0 00-.224.432c0 .112.044.214.133.305.09.09.207.17.35.236.142.064.299.129.468.196.173.063.346.138.519.223.173.085.33.18.473.286.142.103.258.238.346.405.09.164.136.35.136.56 0 .397-.157.725-.473.982-.312.258-.723.387-1.233.387-.215 0-.424-.024-.628-.073a2.341 2.341 0 01-.504-.168 4.432 4.432 0 01-.355-.205 1.616 1.616 0 01-.228-.177l-.072-.069zm4.136-3.343v-.728h.646v-1.36h.873v1.36h1.137v.728h-1.137v2.097c0 .179.024.337.073.473a.874.874 0 00.177.31.892.892 0 00.255.177 1.093 1.093 0 00.5.1l.219-.018v.8a2.74 2.74 0 01-.742-.014 1.917 1.917 0 01-.468-.136 1.51 1.51 0 01-.455-.286 1.467 1.467 0 01-.328-.519 2.149 2.149 0 01-.132-.787v-2.197h-.618zm3.416 1.556a2.432 2.432 0 01.741-1.765c.23-.216.5-.386.81-.51.313-.124.643-.186.992-.186s.678.062.987.186c.312.124.582.294.81.51.23.215.412.476.546.782.133.306.2.634.2.983 0 .467-.114.891-.341 1.273-.228.38-.536.675-.924.887a2.62 2.62 0 01-1.278.319 2.62 2.62 0 01-1.279-.319 2.403 2.403 0 01-.923-.887 2.443 2.443 0 01-.341-1.273zm.923 0c0 .488.158.893.474 1.214.315.322.697.482 1.146.482.455 0 .838-.16 1.15-.482.313-.321.47-.726.47-1.214 0-.482-.157-.883-.47-1.201a1.55 1.55 0 00-1.15-.478c-.449 0-.831.16-1.146.478-.316.318-.474.719-.474 1.2zm4.9.009c0-.704.236-1.29.71-1.76.475-.474 1.08-.71 1.814-.71.222 0 .432.024.633.072.203.046.37.104.5.173.133.067.25.135.35.205.1.067.173.124.219.173l.068.068-.428.632a1.521 1.521 0 00-.232-.186 1.625 1.625 0 00-.268-.164 1.834 1.834 0 00-.364-.132 1.681 1.681 0 00-.441-.059c-.476 0-.87.16-1.178.478-.307.315-.46.716-.46 1.2 0 .486.156.89.469 1.215.312.322.71.482 1.196.482a1.9 1.9 0 00.892-.222c.112-.064.212-.126.3-.187a1.57 1.57 0 00.2-.16l.064-.067.364.664a1.527 1.527 0 01-.078.082c-.033.033-.11.094-.232.182a2.65 2.65 0 01-.382.227 2.648 2.648 0 01-.523.182 2.71 2.71 0 01-.669.082c-.737 0-1.342-.234-1.815-.7-.473-.468-.71-1.058-.71-1.77zm5.431 2.356v-6.578h.9v3.599h.665l1.283-1.734h1.028l-1.565 2.075v.023l1.742 2.615h-1.055L60.49 56.59h-.682v2.215h-.9z" fill="#4A5355"/><path d="M68.706 56.58v-.96h.923v.96h-.923zm6.905 1.443l.505-.7c.018.017.043.043.073.077a2.885 2.885 0 00.546.391c.118.063.265.121.441.173.176.051.353.077.532.077.376 0 .693-.112.951-.337.26-.227.391-.515.391-.864 0-.385-.147-.682-.441-.892-.294-.212-.656-.318-1.087-.318h-.46l-.213-.496 1.437-1.688a6.382 6.382 0 01.355-.373l.054-.054V53c-.13.018-.316.027-.56.027h-2.228v-.8h3.935v.586l-1.793 2.06c.182.019.36.057.533.114.176.055.349.136.518.242.17.103.319.226.446.368.13.143.235.319.314.528a2.055 2.055 0 01-.046 1.488c-.106.254-.254.478-.445.673a2.067 2.067 0 01-.71.459 2.393 2.393 0 01-.914.173 2.952 2.952 0 01-1.01-.177 3.833 3.833 0 01-.391-.173 2.448 2.448 0 01-.319-.191 29.55 29.55 0 00-.227-.178 1.338 1.338 0 01-.141-.127l-.046-.05zm5.445-1.12c0-.187.032-.372.096-.554a1.97 1.97 0 01.218-.46c.082-.121.18-.24.296-.355.115-.118.202-.2.26-.245.06-.049.12-.094.181-.137-.491-.355-.737-.793-.737-1.314 0-.18.026-.35.078-.514.054-.167.136-.323.245-.469.112-.149.247-.276.405-.382.158-.11.35-.196.578-.26.227-.063.476-.095.746-.095.615 0 1.114.16 1.496.478.383.318.574.746.574 1.283 0 .56-.261 1.13-.783 1.71.282.173.5.37.655.591.158.222.237.492.237.81 0 .343-.091.66-.273.95a2.004 2.004 0 01-.796.71c-.346.18-.74.269-1.183.269-.661 0-1.208-.188-1.642-.564-.434-.376-.65-.86-.65-1.451zm.942-.054c0 .364.133.661.4.892.27.23.587.345.951.345a1.4 1.4 0 00.919-.313c.255-.213.382-.484.382-.815a.664.664 0 00-.082-.323.955.955 0 00-.195-.259 1.71 1.71 0 00-.328-.232 3.794 3.794 0 00-.373-.196 12.231 12.231 0 00-.441-.2 18.159 18.159 0 01-.441-.204c-.528.37-.792.805-.792 1.305zm.287-2.989c0 .08.009.155.027.228.018.07.05.136.096.2.045.06.089.117.131.168.046.052.108.105.187.16l.21.131c.06.037.143.08.25.132.108.049.195.087.259.114a65.596 65.596 0 01.564.237c.045-.046.09-.097.136-.155.049-.06.11-.149.187-.264.076-.115.136-.25.182-.405.048-.154.073-.312.073-.473 0-.3-.11-.54-.328-.719-.215-.178-.497-.268-.846-.268-.352 0-.628.087-.828.26-.2.172-.3.39-.3.654zm4.185 3.185v-.578l3.038-4.24h1.056v4.035h.892v.783h-.892v1.76h-.905v-1.76h-3.19zm1.019-.783h2.17V53.87a7.165 7.165 0 01.027-.56l.009-.096h-.018c-.1.207-.21.387-.328.542l-1.86 2.488v.018zm7.064 1.965l.437-.641a1.512 1.512 0 00.237.191c.09.064.185.12.282.168a2.07 2.07 0 00.832.191.96.96 0 00.546-.154.496.496 0 00.237-.432.427.427 0 00-.137-.31 1.111 1.111 0 00-.346-.24 6 6 0 00-.473-.206 7.608 7.608 0 01-.518-.222 3.37 3.37 0 01-.469-.282 1.26 1.26 0 01-.35-.405 1.19 1.19 0 01-.132-.564c0-.416.162-.743.487-.983.324-.24.73-.36 1.219-.36.194 0 .377.019.55.055.176.037.32.08.432.132.113.049.211.099.296.15.085.052.146.096.182.132l.06.055-.365.678a.901.901 0 00-.195-.146 1.66 1.66 0 00-.564-.227 1.783 1.783 0 00-.405-.046 1 1 0 00-.55.146.482.482 0 00-.224.432c0 .112.044.214.132.305.091.09.208.17.35.236.143.064.3.129.47.196.172.063.345.138.518.223.173.085.33.18.473.286.142.103.258.238.346.405.09.164.136.35.136.56 0 .397-.158.725-.473.982-.312.258-.723.387-1.233.387-.215 0-.424-.024-.628-.073a2.34 2.34 0 01-.505-.168 4.45 4.45 0 01-.354-.205 1.62 1.62 0 01-.228-.177l-.073-.069zm4.213-1.787a2.434 2.434 0 01.741-1.765c.23-.216.501-.386.81-.51.312-.124.643-.186.992-.186.348 0 .677.062.987.186.312.124.582.294.81.51a2.424 2.424 0 01.746 1.765c0 .467-.114.891-.342 1.273a2.4 2.4 0 01-.923.887 2.619 2.619 0 01-1.278.319c-.464 0-.89-.106-1.279-.319a2.404 2.404 0 01-.923-.887 2.443 2.443 0 01-.341-1.273zm.923 0c0 .488.158.893.473 1.214.316.322.698.482 1.147.482.455 0 .838-.16 1.151-.482.312-.321.468-.726.468-1.214 0-.482-.156-.883-.468-1.201a1.55 1.55 0 00-1.151-.478c-.449 0-.831.16-1.147.478-.315.318-.473.719-.473 1.2zm5.177 1.078v-5.29h.905v5.135c0 .26.044.438.132.532.088.091.212.137.373.137l.155-.01v.801c-.091.013-.19.019-.296.019-.121 0-.232-.008-.332-.023s-.211-.05-.332-.105a.954.954 0 01-.309-.218 1.127 1.127 0 01-.21-.387 1.832 1.832 0 01-.086-.591zm2.215-1.07c0-.742.199-1.34.596-1.791.398-.452.91-.678 1.538-.678.203 0 .393.025.569.077.175.052.315.114.418.187.103.072.193.145.268.218a.971.971 0 01.16.186l.041.078h.018a2.535 2.535 0 01-.018-.319v-2.179h.9v6.578h-.855v-.446l.009-.318h-.018a.61.61 0 01-.05.096c-.021.039-.074.109-.159.209-.085.1-.182.19-.291.268a1.738 1.738 0 01-.442.21 1.844 1.844 0 01-.605.095c-.634 0-1.138-.226-1.515-.678-.376-.455-.564-1.052-.564-1.792zm.924 0c0 .507.123.915.368 1.224.249.31.57.465.965.465.182 0 .352-.032.509-.096.158-.067.302-.165.432-.296.131-.133.232-.312.305-.536.076-.225.114-.481.114-.77 0-.29-.047-.559-.141-.804a1.432 1.432 0 00-.455-.624 1.135 1.135 0 00-.737-.25 1.23 1.23 0 00-.973.455c-.258.303-.387.714-.387 1.233z" fill="#B50F04"/><path d="M11.726 42.415V34.52h4.346v.96h-3.243v2.594h2.762v.966H12.83v3.374h-1.103zm5.525-2.037V36.76h1.086v3.374c0 .214.013.4.038.557.03.152.08.298.153.436a.734.734 0 00.328.311c.145.07.327.104.546.104.553 0 .995-.21 1.326-.628.335-.418.502-.92.502-1.506v-2.648h1.087v5.656h-1.048v-.748l.021-.415h-.021c-.139.327-.393.626-.765.895-.37.27-.81.404-1.315.404-.644 0-1.128-.177-1.452-.53-.324-.356-.486-.904-.486-1.643zm5.295 3.39a2.281 2.281 0 00.535-.01c.09-.015.196-.048.317-.099a.953.953 0 00.305-.202.947.947 0 00.219-.366c.061-.156.092-.34.092-.55v-5.782h1.07v5.847c0 .258-.029.494-.087.71a1.82 1.82 0 01-.218.534 1.462 1.462 0 01-.323.377 1.64 1.64 0 01-.382.251 2.068 2.068 0 01-.415.147 2.33 2.33 0 01-.387.077c-.113.01-.227.016-.344.016l-.382-.022v-.928zm1.457-8.139v-1.108h1.092v1.108h-1.092zm2.773 0v-1.108h1.092v1.108h-1.091zm.011 6.786v-5.656h1.081v5.656h-1.08zm4.892 0l2.844-7.894h1.162l2.839 7.894h-1.152l-.797-2.271h-2.97l-.786 2.27h-1.14zm2.216-3.188h2.39l-.873-2.5a11.585 11.585 0 01-.257-.928l-.043-.192h-.022c-.116.477-.22.85-.31 1.12l-.885 2.5zm5.568 5.426v-7.894h.993v.48l-.022.415h.022l.06-.109a2.1 2.1 0 01.202-.245c.106-.12.224-.226.355-.317.131-.091.311-.173.54-.246.23-.076.477-.114.743-.114.757 0 1.36.273 1.807.819.451.545.677 1.26.677 2.145 0 .888-.24 1.605-.72 2.15-.481.543-1.094.814-1.84.814-.233 0-.452-.033-.656-.098a1.708 1.708 0 01-.496-.23 3.252 3.252 0 01-.328-.272 1.27 1.27 0 01-.202-.235l-.054-.093h-.022c.014.135.022.298.022.491v2.539h-1.081zm1.048-5.044c0 .345.058.67.175.971.12.299.303.548.551.748.251.197.542.295.873.295.466 0 .854-.182 1.163-.546.313-.364.47-.857.47-1.48 0-.607-.15-1.096-.448-1.468a1.402 1.402 0 00-1.152-.556c-.466 0-.855.17-1.168.513-.31.338-.464.846-.464 1.523zm5.655 5.044v-7.894h.994v.48l-.022.415h.022c.014-.029.034-.065.06-.109.029-.047.096-.129.202-.245.105-.12.224-.226.355-.317a2.04 2.04 0 01.54-.246c.23-.076.477-.114.742-.114.757 0 1.36.273 1.807.819.452.545.677 1.26.677 2.145 0 .888-.24 1.605-.72 2.15-.48.543-1.094.814-1.84.814-.233 0-.451-.033-.655-.098a1.708 1.708 0 01-.497-.23 3.264 3.264 0 01-.327-.272 1.277 1.277 0 01-.202-.235l-.055-.093h-.022c.015.135.022.298.022.491v2.539h-1.08zm1.048-5.044c0 .345.059.67.175.971.12.299.304.548.551.748.252.197.543.295.874.295.466 0 .853-.182 1.163-.546.313-.364.469-.857.469-1.48 0-.607-.15-1.096-.448-1.468a1.402 1.402 0 00-1.151-.556c-.466 0-.856.17-1.169.513-.309.338-.464.846-.464 1.523zm5.585 1.26v-6.348h1.086v6.163c0 .313.053.526.158.639.106.109.255.163.448.163l.186-.01v.96c-.11.015-.228.022-.355.022a2.67 2.67 0 01-.399-.027 1.553 1.553 0 01-.398-.126 1.142 1.142 0 01-.371-.262 1.347 1.347 0 01-.252-.464c-.069-.2-.103-.436-.103-.71zm2.636-1.282c0-.888.266-1.603.797-2.145.535-.546 1.212-.82 2.031-.82.517 0 .963.123 1.337.367.379.24.66.558.841.955.182.393.273.837.273 1.332l-.038.47h-4.122c.026.592.222 1.053.59 1.38.371.324.823.486 1.354.486a2.27 2.27 0 001.01-.235c.13-.065.247-.129.349-.19.106-.066.186-.123.24-.17l.077-.065.447.791a1.579 1.579 0 01-.098.087 3.711 3.711 0 01-.284.197 3.6 3.6 0 01-.453.246c-.156.069-.358.133-.606.19a3.255 3.255 0 01-.748.088c-.582 0-1.102-.13-1.56-.388a2.77 2.77 0 01-1.065-1.064 3.092 3.092 0 01-.372-1.512zm1.152-.66h3.019c-.015-.466-.151-.823-.41-1.07a1.317 1.317 0 00-.955-.372c-.426 0-.79.128-1.091.382-.299.251-.486.605-.563 1.06z" fill="#22282A"/><path d="M80.656 73.643l1.473-1.426h.765v5.392h1.337v.747h-3.528v-.747h1.354v-3.966l.009-.382h-.017a1.54 1.54 0 01-.297.357l-.574.564-.522-.539zm4.161 3.983l.471-.654c.017.017.04.04.068.072a2.709 2.709 0 00.51.365c.11.06.247.113.412.162.164.048.33.072.496.072.351 0 .647-.105.888-.314.243-.213.365-.482.365-.807 0-.36-.138-.637-.412-.832-.275-.198-.613-.298-1.015-.298h-.429l-.2-.462 1.343-1.576a5.955 5.955 0 01.33-.348l.052-.05v-.018a4.042 4.042 0 01-.523.026h-2.08v-.747h3.673v.547l-1.673 1.924c.17.017.335.052.496.106.165.05.326.126.484.225.159.096.298.21.417.344.121.133.219.297.293.492a1.918 1.918 0 01-.042 1.388c-.1.238-.239.448-.417.629a1.929 1.929 0 01-.662.429 2.236 2.236 0 01-.854.161 2.754 2.754 0 01-.942-.166 3.556 3.556 0 01-.365-.16 2.288 2.288 0 01-.298-.18l-.212-.165a1.238 1.238 0 01-.132-.119l-.042-.046zm4.853-.913v-.54l2.836-3.956h.985v3.766h.832v.73h-.832v1.643h-.845v-1.643H89.67zm.951-.73h2.025v-2.234a6.265 6.265 0 01.026-.522l.008-.09h-.017a2.95 2.95 0 01-.305.506l-1.737 2.323v.017zm6.628.165a2.272 2.272 0 01.692-1.647c.215-.201.467-.36.755-.476.292-.116.6-.174.926-.174.326 0 .633.058.921.174.292.116.544.275.756.476.215.2.385.444.51.73.124.286.186.592.186.917 0 .436-.106.832-.318 1.189-.212.354-.5.63-.862.828-.362.198-.76.297-1.193.297-.433 0-.83-.099-1.193-.297a2.243 2.243 0 01-.862-.828 2.28 2.28 0 01-.318-1.189zm.862 0c0 .456.147.834.441 1.134.294.3.651.45 1.07.45.425 0 .783-.15 1.074-.45.292-.3.437-.678.437-1.134 0-.45-.145-.823-.437-1.12a1.444 1.444 0 00-1.074-.447 1.45 1.45 0 00-1.07.446c-.294.297-.442.671-.442 1.121zm4.283-2.19h.896l1.07 2.971a4.275 4.275 0 01.123.505.465.465 0 00.026.094h.017a.434.434 0 00.025-.093l.055-.247a2.72 2.72 0 01.077-.259l1.07-2.972h.887l-1.626 4.399h-.976l-1.644-4.399zm4.662 2.199c0-.691.207-1.247.62-1.669.416-.424.943-.637 1.58-.637.402 0 .748.095 1.04.285.294.187.512.434.654.743.141.305.212.65.212 1.036l-.03.365h-3.205c.019.461.172.82.458 1.074.289.252.64.378 1.053.378a1.778 1.778 0 00.786-.183c.102-.05.192-.1.271-.148.082-.051.145-.095.187-.132l.06-.05.348.615c-.017.017-.043.04-.077.068a2.808 2.808 0 01-.573.344 2.776 2.776 0 01-.471.148 2.532 2.532 0 01-.582.068c-.453 0-.857-.1-1.214-.301a2.15 2.15 0 01-.828-.828 2.41 2.41 0 01-.289-1.176zm.896-.514h2.348c-.011-.362-.117-.64-.318-.832a1.026 1.026 0 00-.743-.289c-.332 0-.615.1-.85.297-.232.195-.377.47-.437.824zm4.233 2.713v-4.399H113v.765l-.017.33H113c.105-.336.281-.612.527-.827.249-.215.538-.323.866-.323l.216.021v.833a1.163 1.163 0 00-.993.25 1.535 1.535 0 00-.484.76 2.7 2.7 0 00-.106.79v1.8h-.841zm2.904-.54l.408-.598.059.055c.026.023.08.064.162.123.085.06.172.112.263.157a1.932 1.932 0 00.777.179.895.895 0 00.509-.144.461.461 0 00.221-.404.397.397 0 00-.127-.289 1.04 1.04 0 00-.323-.225 5.614 5.614 0 00-.441-.19 7.115 7.115 0 01-.485-.209 3.173 3.173 0 01-.437-.263 1.179 1.179 0 01-.327-.378 1.112 1.112 0 01-.123-.526c0-.388.152-.694.454-.917.303-.224.683-.336 1.138-.336.181 0 .353.017.514.051.164.034.299.075.403.123.105.046.197.092.276.14.08.048.136.09.17.123l.055.052-.339.632-.047-.042a1.524 1.524 0 00-.136-.094 1.575 1.575 0 00-.526-.212 1.667 1.667 0 00-.378-.042.936.936 0 00-.514.135.45.45 0 00-.208.404.4.4 0 00.123.284c.085.085.194.159.327.22.133.06.279.121.437.183.162.06.323.13.484.208.162.08.309.169.442.268.133.096.241.222.323.378.085.153.127.327.127.522 0 .37-.147.677-.442.917-.291.24-.675.361-1.15.361-.201 0-.396-.023-.586-.068a2.176 2.176 0 01-.471-.157 4.23 4.23 0 01-.332-.191 1.498 1.498 0 01-.212-.166l-.068-.063zm3.932-1.668c0-.325.062-.631.187-.917a2.2 2.2 0 01.505-.73c.215-.201.467-.36.756-.476.291-.116.6-.174.925-.174a2.449 2.449 0 011.677.65c.215.2.385.444.51.73.124.286.187.592.187.917 0 .436-.107.832-.319 1.189-.212.354-.499.63-.862.828-.362.198-.76.297-1.193.297-.433 0-.831-.099-1.193-.297a2.25 2.25 0 01-1.18-2.017zm.862 0c0 .456.147.834.441 1.134.295.3.651.45 1.07.45.425 0 .783-.15 1.074-.45.292-.3.438-.678.438-1.134 0-.45-.146-.823-.438-1.12a1.444 1.444 0 00-1.074-.447c-.419 0-.775.15-1.07.446-.294.297-.441.671-.441 1.121zm4.831 1.006v-4.937h.845v4.793c0 .243.041.41.123.497a.465.465 0 00.349.127l.144-.008v.747a2.082 2.082 0 01-.276.017c-.113 0-.217-.007-.31-.021a1.21 1.21 0 01-.31-.098.898.898 0 01-.289-.204 1.06 1.06 0 01-.195-.36 1.688 1.688 0 01-.081-.553zm2.068-.997c0-.694.185-1.251.556-1.673.371-.422.849-.633 1.435-.633.19 0 .367.024.531.072.164.049.294.106.391.174.096.068.179.136.25.204.071.068.12.126.149.174l.038.073h.017a2.4 2.4 0 01-.017-.298v-2.033h.841v6.139h-.799v-.416l.009-.297h-.017a.577.577 0 01-.047.089c-.02.037-.069.102-.148.195-.08.093-.17.177-.272.25-.099.071-.236.136-.412.196-.173.06-.361.09-.565.09-.591 0-1.062-.212-1.413-.633-.351-.425-.527-.983-.527-1.673zm.862 0c0 .472.115.853.344 1.142.232.288.532.433.9.433.17 0 .328-.03.475-.09.148-.062.282-.154.404-.275.122-.125.216-.292.284-.501.071-.21.106-.449.106-.718a2.08 2.08 0 00-.131-.751 1.333 1.333 0 00-.425-.582 1.057 1.057 0 00-.688-.233c-.362 0-.665.141-.908.424-.241.283-.361.667-.361 1.15z" fill="#82898A"/><rect x="10.651" y="71.842" width="62.109" height="7.453" rx="3.727" fill="#B50F04"/><rect x="-.311" y=".311" width="40.785" height="6.832" rx="3.416" transform="matrix(-1 0 0 1 51.437 71.842)" fill="#FEEAE9" stroke="#B50F04" stroke-width=".621"/><path d="M68.33 39.686l-2.277 2.211a.287.287 0 01-.397 0l-.266-.258a.268.268 0 010-.386l1.804-1.76-1.805-1.761a.267.267 0 01.001-.386l.266-.258a.287.287 0 01.397 0l2.278 2.212c.11.106.11.28 0 .386z" fill="#000" fill-opacity=".87"/></svg>