<svg viewBox="0 0 124 32" fill="none" xmlns="http://www.w3.org/2000/svg"><rect width="124" height="32" rx="6" fill="#418A60"/><path fill-rule="evenodd" clip-rule="evenodd" d="M21.502 9.615a2.125 2.125 0 00-2.125 2.125v8.498a2.125 2.125 0 004.25 0V11.74a2.125 2.125 0 00-2.125-2.125zm0 11.95a1.328 1.328 0 110-2.655 1.328 1.328 0 010 2.656zm9.826-10.356h-6.64a.265.265 0 00-.265.265v8.764c0 .7-.252 1.376-.711 1.904a.133.133 0 00.1.22h7.516a.797.797 0 00.796-.796v-9.56a.797.797 0 00-.796-.797zm-5.311 9.56a.531.531 0 110-1.063.531.531 0 010 1.063zm0-2.39a.53.53 0 110-1.061.53.53 0 010 1.06zm0-2.39a.531.531 0 110-1.063.531.531 0 010 1.063zm0-2.39a.53.53 0 110-1.061.53.53 0 010 1.06zm2.124 7.17a.532.532 0 110-1.064.532.532 0 010 1.064zm0-2.39a.531.531 0 110-1.062.531.531 0 010 1.062zm0-2.39a.532.532 0 110-1.064.532.532 0 010 1.064zm0-2.39a.531.531 0 110-1.062.531.531 0 010 1.062zm2.125 7.17a.532.532 0 110-1.064.532.532 0 010 1.064zm0-2.39a.531.531 0 110-1.062.531.531 0 010 1.062zm0-2.39a.532.532 0 110-1.064.532.532 0 010 1.064zm0-2.39a.531.531 0 110-1.062.531.531 0 010 1.062zM20.939 20.8a.797.797 0 111.126-1.126.797.797 0 01-1.126 1.126z" fill="#fff" fill-opacity=".9"/><path d="M42.604 18.989v-6.75h2.465c.625 0 1.136.193 1.53.579.396.386.594.897.594 1.535 0 .638-.2 1.155-.598 1.55-.398.392-.907.588-1.526.588h-1.522v2.498h-.943zm.943-3.32h1.368c.407 0 .728-.116.961-.35.234-.236.35-.558.35-.966 0-.401-.116-.717-.35-.947-.233-.23-.55-.346-.952-.346h-1.377v2.61zm5.53.93v-4.36h.948v4.36c0 .51.153.91.458 1.2.305.289.719.434 1.242.434.529 0 .947-.145 1.255-.435.312-.289.467-.695.467-1.218V12.24h.948v4.36c0 .747-.246 1.352-.738 1.816-.492.46-1.133.69-1.923.69-.788 0-1.427-.23-1.919-.69-.491-.464-.737-1.07-.737-1.816zm7.819 2.39v-6.75h2.063c.567 0 .987.051 1.26.154.352.127.63.355.832.681.205.324.308.705.308 1.144 0 .433-.11.815-.332 1.148-.218.33-.512.556-.882.677v.019c.05.056.117.159.2.308l1.434 2.619h-1.07l-1.423-2.684H57.84v2.684h-.943zm.943-3.51h1.358c.37 0 .662-.11.873-.327.215-.221.322-.52.322-.897 0-.498-.179-.845-.536-1.04-.19-.103-.498-.155-.925-.155H57.84v2.418zm5.484.097c0-.98.327-1.8.98-2.46.654-.66 1.472-.99 2.456-.99.305 0 .597.03.877.09.28.059.51.132.691.219.184.087.346.176.486.266.14.087.241.162.303.224l.098.089-.467.71a2.153 2.153 0 00-.252-.206c-.109-.081-.334-.19-.677-.327a2.712 2.712 0 00-1.022-.205c-.74 0-1.343.247-1.806.742-.46.492-.691 1.105-.691 1.84 0 .74.233 1.37.7 1.89.47.516 1.072.775 1.806.775.377 0 .738-.074 1.083-.22.35-.146.603-.292.761-.439l.239-.219.508.677a1.588 1.588 0 01-.112.121c-.046.047-.155.13-.327.252-.167.122-.346.23-.536.327a3.816 3.816 0 01-.724.257 3.598 3.598 0 01-.92.116c-1.002 0-1.828-.337-2.478-1.012-.65-.676-.976-1.515-.976-2.517zm8.127 3.413v-6.75h.942v2.964h3.502v-2.964h.947v6.75h-.947v-2.964h-3.502v2.964h-.942zm12.014 0l-.681-1.942h-2.54l-.672 1.942h-.975l2.432-6.75h.994l2.427 6.75h-.985zm-1.932-5.821h-.019a15.72 15.72 0 01-.266.957l-.756 2.138h2.044l-.746-2.138-.257-.957zm4.158 5.046l.537-.714c.019.018.045.043.08.074a3.532 3.532 0 00.602.401c.124.063.281.12.471.174.193.05.381.074.565.074.33 0 .607-.088.83-.266a.886.886 0 00.337-.728c0-.196-.06-.37-.182-.523a1.507 1.507 0 00-.472-.392 6.044 6.044 0 00-.635-.313c-.23-.1-.462-.205-.695-.317a4.19 4.19 0 01-.635-.383 1.711 1.711 0 01-.467-.542 1.536 1.536 0 01-.182-.751c0-.53.206-.974.617-1.335.41-.364.931-.546 1.563-.546.37 0 .715.057 1.032.172.317.113.543.225.677.337l.2.168-.429.784a1.625 1.625 0 00-.196-.159c-.084-.065-.255-.152-.514-.261a1.97 1.97 0 00-.77-.164c-.351 0-.644.097-.877.29-.23.19-.346.421-.346.695 0 .255.11.473.332.654.224.177.496.33.817.457.323.125.645.265.966.42.324.153.596.37.817.654.224.283.336.625.336 1.027 0 .541-.195.994-.584 1.358-.389.364-.908.546-1.559.546-.267 0-.527-.03-.78-.093a2.737 2.737 0 01-.63-.22 4.769 4.769 0 01-.448-.26 2.517 2.517 0 01-.29-.225l-.088-.093zm6.502.775v-6.75h.943v6.75h-.943zm3.547 0v-6.75h.934l3.001 4.388c.078.109.162.244.252.406.094.162.17.297.229.406l.084.163h.019a9.358 9.358 0 01-.066-.975v-4.388h.948v6.75h-.929l-3.01-4.379a4.707 4.707 0 01-.258-.41c-.09-.166-.163-.302-.219-.411l-.089-.164h-.018c.043.402.065.73.065.985v4.379h-.943zm7.548-3.385c0-.98.328-1.804.985-2.474.656-.669 1.476-1.003 2.46-1.003.298 0 .588.028.868.084.28.056.512.123.695.2.187.078.35.158.491.239.14.077.241.144.303.2l.098.089-.476.705a2.412 2.412 0 00-.243-.182c-.106-.075-.325-.173-.658-.294a2.89 2.89 0 00-1.004-.182c-.772 0-1.389.247-1.853.742-.461.492-.691 1.11-.691 1.858 0 .778.235 1.414.705 1.909.473.492 1.067.738 1.783.738.346 0 .677-.07.995-.21.317-.14.549-.28.695-.42l.219-.21v-.976h-1.097v-.822h1.961v3.394h-.836v-.42l.014-.29h-.023a2.607 2.607 0 00-.084.089 2.507 2.507 0 01-.257.2c-.133.097-.275.181-.424.253-.147.068-.34.132-.579.191-.237.062-.48.093-.728.093-.925 0-1.709-.33-2.353-.99-.644-.659-.966-1.496-.966-2.51z" fill="#fff" fill-opacity=".9"/></svg>