<svg viewBox="0 0 725 530" fill="none" xmlns="http://www.w3.org/2000/svg"><g filter="url(#prefix__filter0_dd_858_2795)"><rect x="518.471" y="451.663" width="123.717" height="31.867" rx="6" fill="#418A60" shape-rendering="crispEdges"/><path fill-rule="evenodd" clip-rule="evenodd" d="M539.258 461.223a2.127 2.127 0 00-2.124 2.125v8.498a2.127 2.127 0 002.124 2.124 2.128 2.128 0 002.125-2.124v-8.498a2.128 2.128 0 00-2.125-2.125zm0 11.95a1.333 1.333 0 01-1.226-.819 1.326 1.326 0 011.735-1.735 1.323 1.323 0 01.819 1.227 1.326 1.326 0 01-1.328 1.327zm9.826-10.356h-6.639a.266.266 0 00-.265.265v8.764c0 .7-.253 1.376-.712 1.904a.137.137 0 00-.031.068.13.13 0 00.011.075c.01.023.027.042.049.056a.13.13 0 00.072.021h7.515a.8.8 0 00.797-.796v-9.561a.797.797 0 00-.797-.796zm-5.311 9.56a.526.526 0 01-.49-.328.53.53 0 01.693-.694.527.527 0 01.328.491.53.53 0 01-.531.531zm0-2.39a.526.526 0 01-.49-.328.53.53 0 01.693-.694.527.527 0 01.328.491.53.53 0 01-.531.531zm0-2.39a.526.526 0 01-.49-.328.53.53 0 01.693-.694.527.527 0 01.328.491.53.53 0 01-.531.531zm0-2.39a.526.526 0 01-.49-.328.53.53 0 01.693-.694.527.527 0 01.328.491.532.532 0 01-.531.531zm2.125 7.17a.526.526 0 01-.295-.09.524.524 0 01-.226-.545.528.528 0 01.724-.387c.097.04.18.108.238.196a.526.526 0 01-.066.67.527.527 0 01-.375.156zm0-2.39a.526.526 0 01-.295-.09.524.524 0 01-.226-.545.528.528 0 01.724-.387c.097.04.18.108.238.196a.526.526 0 01-.066.67.527.527 0 01-.375.156zm0-2.39a.526.526 0 01-.295-.09.524.524 0 01-.226-.545.528.528 0 01.724-.387c.097.04.18.108.238.196a.526.526 0 01-.066.67.527.527 0 01-.375.156zm0-2.39a.526.526 0 01-.295-.09.524.524 0 01-.226-.545.528.528 0 01.724-.387c.097.04.18.108.238.196a.526.526 0 01-.066.67.527.527 0 01-.375.156zm2.124 7.17a.537.537 0 01-.491-.328.537.537 0 01.116-.579.528.528 0 01.578-.115.532.532 0 01-.203 1.022zm0-2.39a.537.537 0 01-.491-.328.537.537 0 01.116-.579.528.528 0 01.578-.115.532.532 0 01-.203 1.022zm0-2.39a.537.537 0 01-.491-.328.537.537 0 01.116-.579.528.528 0 01.578-.115.532.532 0 01-.203 1.022zm0-2.39a.537.537 0 01-.491-.328.537.537 0 01.116-.579.528.528 0 01.578-.115.532.532 0 01-.203 1.022zm-9.327 7.202a.797.797 0 111.128-1.126.797.797 0 01-1.128 1.126z" fill="#fff" fill-opacity=".9"/><path d="M560.301 470.597v-6.788h2.62c1.271 0 2.161.889 2.161 2.208 0 1.32-.89 2.237-2.161 2.237h-1.386v2.343h-1.234zm1.234-3.413h1.156c.718 0 1.138-.459 1.138-1.167 0-.698-.42-1.147-1.118-1.147h-1.176v2.314zm5.308.975v-4.35h1.233v4.35c0 .908.593 1.424 1.501 1.424.909 0 1.511-.516 1.511-1.434v-4.34h1.233v4.35c0 1.52-1.099 2.552-2.734 2.552-1.645 0-2.744-1.032-2.744-2.552zm7.872 2.438v-6.788h2.189c.736 0 1.071.057 1.367.191.679.306 1.109.956 1.109 1.855 0 .812-.43 1.568-1.147 1.855v.019s.096.095.229.334l1.396 2.534h-1.376l-1.348-2.534h-1.186v2.534h-1.233zm1.233-3.605h1.109c.66 0 1.071-.391 1.071-1.07 0-.65-.277-1.052-1.243-1.052h-.937v2.122zm5.318.182c0-1.969 1.492-3.48 3.49-3.48 1.654 0 2.505.928 2.505.928l-.593.917s-.774-.717-1.855-.717c-1.434 0-2.275 1.071-2.275 2.333 0 1.291.87 2.428 2.285 2.428 1.176 0 1.969-.86 1.969-.86l.65.889s-.937 1.099-2.667 1.099c-2.075 0-3.509-1.539-3.509-3.537zm8.077 3.423v-6.788h1.233v2.878h3.107v-2.878h1.234v6.788h-1.234v-2.849h-3.107v2.849h-1.233zm12.005 0l-.574-1.74h-2.38l-.574 1.74h-1.271l2.39-6.788h1.29l2.39 6.788h-1.271zm-1.75-5.612h-.019s-.153.669-.287 1.051l-.602 1.817h1.778l-.602-1.817c-.124-.382-.268-1.051-.268-1.051zm4.137 4.799l.669-.927s.736.717 1.692.717c.517 0 .985-.268.985-.822 0-1.215-3.203-1.004-3.203-3.088 0-1.128.976-1.97 2.276-1.97 1.338 0 2.027.727 2.027.727l-.536 1.004s-.65-.593-1.501-.593c-.573 0-1.023.335-1.023.813 0 1.204 3.193.908 3.193 3.078 0 1.08-.822 1.988-2.237 1.988-1.51 0-2.342-.927-2.342-.927zm6.575.813v-6.788h1.233v6.788h-1.233zm3.715 0v-6.788h1.233l2.572 3.92c.258.392.564 1.051.564 1.051h.019s-.067-.65-.067-1.051v-3.92h1.224v6.788h-1.224l-2.572-3.91c-.258-.392-.564-1.052-.564-1.052h-.019s.067.65.067 1.052v3.91h-1.233zm7.569-3.404c0-1.969 1.482-3.499 3.499-3.499 1.664 0 2.524.861 2.524.861l-.612.917s-.726-.65-1.807-.65c-1.52 0-2.332 1.052-2.332 2.333 0 1.472 1.003 2.428 2.275 2.428 1.023 0 1.702-.707 1.702-.707v-.794h-1.042v-1.061h2.151v3.576H626.9v-.325c0-.144.01-.287.01-.287h-.02s-.707.726-1.969.726c-1.788 0-3.327-1.386-3.327-3.518z" fill="#fff" fill-opacity=".9"/></g><defs><filter id="prefix__filter0_dd_858_2795" x="478.471" y="423.663" width="203.717" height="111.867" filterUnits="userSpaceOnUse" color-interpolation-filters="sRGB"><feFlood flood-opacity="0" result="BackgroundImageFix"/><feColorMatrix in="SourceAlpha" values="0 0 0 0 0 0 0 0 0 0 0 0 0 0 0 0 0 0 127 0" result="hardAlpha"/><feOffset dy="12"/><feGaussianBlur stdDeviation="20"/><feComposite in2="hardAlpha" operator="out"/><feColorMatrix values="0 0 0 0 0.411765 0 0 0 0 0.337255 0 0 0 0 0.215686 0 0 0 0.24 0"/><feBlend in2="BackgroundImageFix" result="effect1_dropShadow_858_2795"/><feColorMatrix in="SourceAlpha" values="0 0 0 0 0 0 0 0 0 0 0 0 0 0 0 0 0 0 127 0" result="hardAlpha"/><feMorphology radius="2" in="SourceAlpha" result="effect2_dropShadow_858_2795"/><feOffset dy="4"/><feGaussianBlur stdDeviation="3"/><feComposite in2="hardAlpha" operator="out"/><feColorMatrix values="0 0 0 0 0 0 0 0 0 0 0 0 0 0 0 0 0 0 0.08 0"/><feBlend in2="effect1_dropShadow_858_2795" result="effect2_dropShadow_858_2795"/><feBlend in="SourceGraphic" in2="effect2_dropShadow_858_2795" result="shape"/></filter></defs></svg>