<svg viewBox="0 0 116 32" fill="none" xmlns="http://www.w3.org/2000/svg"><rect width="116" height="32" rx="6" fill="#418A60"/><path fill-rule="evenodd" clip-rule="evenodd" d="M25.084 11.084h4.15v2.594h-4.15v-2.594zm-2.076 3.372h3.632v3.631h-3.632v-3.63zm-.958 7.141a1.038 1.038 0 111.918-.794 1.038 1.038 0 01-1.918.794zm7.489.337a1.037 1.037 0 111.467-1.467 1.037 1.037 0 01-1.467 1.467zm1.51-7.478h-3.63v3.631h3.63v-3.63zm-8.556 4.41h9.075a.519.519 0 010 1.037h-9.337a1.038 1.038 0 01-1.038-1.038V13.16a.258.258 0 00-.26-.26h-1.037a.519.519 0 010-1.037h1.6a.735.735 0 01.737.735v.004a.14.14 0 000 .03v5.975a.26.26 0 00.26.26z" fill="#fff" fill-opacity=".9"/><path d="M42.604 19.66v-6.75h.943v6.75h-.943zm3.547 0v-6.75h.933l3.002 4.389c.078.108.162.244.252.406.093.162.17.297.229.406l.084.163h.019a9.439 9.439 0 01-.066-.975V12.91h.948v6.75h-.93l-3.01-4.379a4.684 4.684 0 01-.257-.41c-.09-.166-.163-.303-.22-.412l-.088-.163h-.018c.043.401.065.73.065.985v4.379h-.943zm9.634 0l-2.497-6.75h1.022l1.676 4.771.257.93h.018c.09-.377.177-.687.262-.93l1.69-4.77h1.003l-2.483 6.75h-.948zm5.172 0v-6.75h3.916v.822h-2.974v2.115h2.423v.821H61.9v2.171h3.137v.822h-4.08zm6.245 0v-6.75h.933l3.002 4.389c.078.108.162.244.252.406.093.162.17.297.229.406l.084.163h.018a9.463 9.463 0 01-.065-.975V12.91h.948v6.75h-.93l-3.01-4.379a4.707 4.707 0 01-.257-.41c-.09-.166-.163-.303-.22-.412l-.088-.163h-.019c.044.401.066.73.066.985v4.379h-.943zm9.442 0v-5.928H74.33v-.821h5.574v.821h-2.311v5.929h-.948zm4.434-3.421c0-.968.335-1.783 1.004-2.446.669-.663 1.49-.994 2.465-.994.977 0 1.798.331 2.464.994.666.663 1 1.478 1 2.446 0 .993-.334 1.831-1 2.516-.666.682-1.487 1.022-2.464 1.022-.974 0-1.796-.34-2.465-1.022-.67-.685-1.004-1.523-1.004-2.516zm.976 0c0 .753.241 1.386.723 1.9a2.35 2.35 0 001.77.765 2.32 2.32 0 001.764-.77c.482-.513.724-1.145.724-1.895 0-.735-.242-1.348-.724-1.84a2.36 2.36 0 00-1.764-.741c-.694 0-1.284.247-1.77.742-.482.492-.723 1.104-.723 1.839zm8.103 3.422v-6.75h2.063c.567 0 .987.051 1.26.154.352.127.63.354.831.681.206.324.308.705.308 1.144 0 .432-.11.815-.331 1.148-.218.33-.512.556-.882.677v.019c.05.056.116.158.2.308l1.434 2.619h-1.07l-1.423-2.684H91.1v2.684h-.943zm.943-3.51h1.358c.37 0 .662-.11.873-.328.215-.22.322-.52.322-.896 0-.498-.179-.845-.537-1.04-.19-.103-.498-.155-.924-.155H91.1v2.418zm7.314 3.51v-2.857l-2.269-3.893h1.074l1.25 2.217.412.854h.018c.134-.311.271-.596.411-.854l1.232-2.217h1.074l-2.254 3.893v2.857h-.948z" fill="#fff" fill-opacity=".9"/></svg>