<svg viewBox="0 0 162 32" fill="none" xmlns="http://www.w3.org/2000/svg"><rect width="162" height="32" rx="6" fill="#418A60"/><path fill-rule="evenodd" clip-rule="evenodd" d="M31.969 10.927c.1.1.155.235.155.376V19.8a.531.531 0 01-.53.532.265.265 0 01-.266-.266 1.86 1.86 0 00-3.718 0 .266.266 0 01-.266.266h-3.187a.265.265 0 01-.265-.266 1.86 1.86 0 00-3.718 0l.002.06.002.06a.136.136 0 01-.137.146.665.665 0 01-.663-.664v-2.279a.655.655 0 01.196-.473l.943-.94 1.146-2.07a.945.945 0 01.816-.479h.882a.265.265 0 00.265-.265v-1.86a.531.531 0 01.531-.53h7.436c.141 0 .276.055.376.155zm-8.382 4.851a.133.133 0 00.04-.094l-.002-1.134a.133.133 0 00-.133-.133h-.69a.266.266 0 00-.224.123l-.68 1.073a.132.132 0 00-.005.135.133.133 0 00.116.07h1.485a.133.133 0 00.093-.04zm6.335 1.024a.266.266 0 00.078-.188V15.02a.265.265 0 00-.266-.265h-3.718a.266.266 0 00-.265.265v1.594a.266.266 0 00.265.265h3.718c.07 0 .138-.028.188-.077zm.608-3.125a.266.266 0 00-.046-.135l-.91-1.328a.265.265 0 00-.219-.115h-2.96a.266.266 0 00-.218.115l-.91 1.328a.266.266 0 00.218.416h4.78a.265.265 0 00.265-.28zm-9.56 7.186a1.062 1.062 0 102.125 0 1.062 1.062 0 00-2.124 0zm7.436 0a1.062 1.062 0 102.125 0 1.062 1.062 0 00-2.125 0z" fill="#fff" fill-opacity=".9"/><path d="M42.086 18.573l.537-.714c.018.019.045.044.079.075a3.548 3.548 0 00.602.401c.125.062.282.12.472.173.193.05.38.075.564.075.33 0 .607-.09.831-.266a.887.887 0 00.337-.729c0-.196-.061-.37-.183-.523a1.506 1.506 0 00-.471-.392 6.023 6.023 0 00-.635-.312c-.23-.1-.462-.206-.696-.318a4.192 4.192 0 01-.634-.383 1.711 1.711 0 01-.467-.541 1.535 1.535 0 01-.182-.752c0-.529.205-.974.616-1.335.41-.364.932-.546 1.564-.546.37 0 .714.058 1.031.173.318.112.544.224.677.336l.201.168-.43.784a1.608 1.608 0 00-.196-.158c-.084-.066-.255-.153-.513-.262a1.97 1.97 0 00-.77-.163c-.352 0-.644.096-.878.29-.23.189-.345.42-.345.695 0 .255.11.473.331.653.224.178.497.33.817.458.324.124.646.264.966.42.324.152.596.37.817.653.224.284.336.626.336 1.027 0 .542-.194.995-.583 1.359-.39.364-.909.546-1.56.546-.267 0-.527-.031-.779-.093a2.739 2.739 0 01-.63-.22 4.788 4.788 0 01-.448-.261 2.53 2.53 0 01-.29-.224l-.088-.094zm6.502.775v-6.75h3.916v.822h-2.973v2.114h2.422v.822h-2.422v2.17h3.136v.822h-4.08zm6.245 0v-6.75h.943v5.929H58.8v.821h-3.968zm5.825 0v-6.75h.943v5.929h3.025v.821h-3.968zm5.825 0v-6.75h.943v6.75h-.943zm3.547 0v-6.75h.933l3.002 4.388c.078.109.162.244.252.406.093.162.17.297.229.406l.084.164h.018a9.463 9.463 0 01-.065-.976v-4.388h.948v6.75h-.93l-3.01-4.378a4.707 4.707 0 01-.257-.411c-.09-.165-.163-.302-.22-.411l-.088-.163h-.019c.044.401.066.73.066.985v4.378h-.943zm7.547-3.384c0-.98.329-1.805.985-2.474.657-.67 1.477-1.004 2.46-1.004.299 0 .588.028.868.084a3.65 3.65 0 011.186.439c.14.078.241.145.303.2l.099.09-.477.704a2.411 2.411 0 00-.242-.182c-.106-.075-.326-.172-.659-.294a2.886 2.886 0 00-1.003-.182c-.772 0-1.39.247-1.853.742-.46.492-.691 1.111-.691 1.858 0 .778.235 1.415.705 1.91.473.491 1.067.737 1.783.737.345 0 .677-.07.994-.21.318-.14.55-.28.696-.42l.22-.21v-.976h-1.098v-.822h1.96v3.394h-.835v-.42l.014-.29h-.023a3.377 3.377 0 00-.084.09 2.582 2.582 0 01-.257.2c-.134.096-.275.18-.425.252-.146.069-.339.132-.579.192-.236.062-.479.093-.728.093-.924 0-1.708-.33-2.353-.99-.644-.66-.966-1.497-.966-2.511zm11.3 1.489c0-.383.106-.736.317-1.06.215-.323.505-.546.869-.667v-.019a.595.595 0 01-.098-.037 3.123 3.123 0 01-.21-.145 1.592 1.592 0 01-.276-.266 1.614 1.614 0 01-.215-.43 1.907 1.907 0 01-.093-.606c0-.548.193-.974.579-1.28.386-.304.884-.457 1.494-.457.109 0 .232.01.368.028.137.019.248.036.332.052l.126.023-.243.756a2.549 2.549 0 00-.504-.056c-.345 0-.632.092-.859.275-.224.184-.336.436-.336.757 0 .121.017.238.051.35.035.109.094.22.178.336a.848.848 0 00.383.275c.17.066.38.098.63.098h1.25v-.92h.93v.92h.9v.822h-.9v.9c0 .748-.207 1.328-.621 1.742-.414.414-.985.62-1.713.62-.694 0-1.258-.19-1.69-.573a1.849 1.849 0 01-.649-1.438zm.962-.047c0 .33.127.61.382.84.256.23.587.346.995.346.445 0 .79-.126 1.036-.378s.369-.635.369-1.148v-.864h-1.289c-.479 0-.848.106-1.106.317-.258.209-.387.505-.387.887zm9.442 1.167l.536-.714.08.075a3.337 3.337 0 00.602.401c.124.062.282.12.471.173.193.05.382.075.565.075.33 0 .607-.09.831-.266a.887.887 0 00.336-.729c0-.196-.06-.37-.182-.523a1.499 1.499 0 00-.471-.392 6.085 6.085 0 00-.635-.312c-.23-.1-.462-.206-.696-.318a4.163 4.163 0 01-.634-.383 1.709 1.709 0 01-.467-.541 1.535 1.535 0 01-.182-.752c0-.529.205-.974.616-1.335.411-.364.932-.546 1.564-.546a3 3 0 011.031.173c.318.112.543.224.677.336l.201.168-.43.784a1.575 1.575 0 00-.196-.158c-.084-.066-.255-.153-.513-.262a1.969 1.969 0 00-.77-.163c-.352 0-.645.096-.878.29-.23.189-.345.42-.345.695 0 .255.11.473.331.653.224.178.496.33.817.458.324.124.646.264.966.42.324.152.596.37.817.653.224.284.336.626.336 1.027 0 .542-.194.995-.583 1.359-.389.364-.909.546-1.559.546-.268 0-.528-.031-.78-.093a2.737 2.737 0 01-.63-.22 4.767 4.767 0 01-.448-.261 2.53 2.53 0 01-.29-.224l-.088-.094zm6.501.775v-6.75h.943v2.964h3.501v-2.964h.948v6.75h-.948v-2.964h-3.501v2.964h-.943zm7.991 0v-6.75h.943v6.75h-.943zm3.547 0v-6.75h2.465c.626 0 1.136.193 1.531.579.395.386.593.898.593 1.536s-.199 1.154-.597 1.55c-.399.392-.908.588-1.527.588h-1.522v2.497h-.943zm.943-3.319h1.368c.408 0 .728-.117.962-.35.233-.236.35-.559.35-.966 0-.402-.117-.718-.35-.948-.234-.23-.551-.345-.953-.345h-1.377v2.61zm5.629 3.32v-6.75h2.465c.626 0 1.136.192 1.531.578.395.386.593.898.593 1.536s-.199 1.154-.598 1.55c-.398.392-.907.588-1.526.588h-1.522v2.497h-.943zm.943-3.32h1.368c.408 0 .728-.117.962-.35.233-.236.35-.559.35-.966 0-.402-.117-.718-.35-.948-.234-.23-.551-.345-.953-.345h-1.377v2.61zm5.629 3.32v-6.75h.943v6.75h-.943zm3.547 0v-6.75h.934l3.001 4.387c.078.109.162.244.252.406.094.162.17.297.229.406l.084.164h.019a9.354 9.354 0 01-.066-.976v-4.388h.948v6.75h-.929l-3.011-4.378a4.801 4.801 0 01-.257-.411c-.09-.165-.163-.302-.219-.411l-.089-.163h-.018c.043.401.065.73.065.985v4.378h-.943zm7.548-3.385c0-.98.328-1.805.985-2.474.656-.67 1.476-1.004 2.46-1.004.298 0 .588.028.868.084.28.056.512.123.695.2.187.079.351.158.491.239.14.078.241.145.303.2l.098.09-.476.704a2.398 2.398 0 00-.243-.182c-.106-.075-.325-.172-.658-.294a2.885 2.885 0 00-1.004-.182c-.771 0-1.389.247-1.853.742-.46.492-.691 1.111-.691 1.858 0 .778.235 1.415.705 1.91.473.491 1.068.737 1.783.737.346 0 .677-.07.995-.21.317-.14.549-.28.695-.42l.22-.21v-.976h-1.097v-.822h1.96v3.394h-.835v-.42l.014-.29h-.024l-.084.09a2.537 2.537 0 01-.257.2c-.133.096-.275.18-.424.252-.147.069-.34.132-.579.192a2.852 2.852 0 01-.728.093c-.925 0-1.709-.33-2.353-.99-.644-.66-.966-1.497-.966-2.511z" fill="#fff" fill-opacity=".9"/></svg>