<svg viewBox="0 0 751 491" fill="none" xmlns="http://www.w3.org/2000/svg"><g filter="url(#prefix__drop-shadow)"><rect x="79" y="239.5" width="168.714" height="84.522" rx="6" fill="#fff" shape-rendering="crispEdges"/><path d="M90.934 265.154v-6.71h2.346c.467 0 .853.081 1.156.243.304.159.53.374.679.645.148.269.222.567.222.894 0 .289-.051.527-.154.715-.1.188-.233.336-.4.445-.163.11-.341.19-.533.243v.065c.205.013.411.086.619.217.207.131.381.319.52.563.14.245.21.544.21.898a1.8 1.8 0 01-.229.907c-.153.269-.394.482-.724.639-.33.158-.759.236-1.288.236h-2.424zm.812-.721h1.612c.531 0 .908-.102 1.13-.308a.986.986 0 00.338-.753c0-.227-.058-.437-.173-.629a1.247 1.247 0 00-.495-.465 1.55 1.55 0 00-.76-.177h-1.652v2.332zm0-3.04h1.508c.244 0 .465-.048.661-.144.2-.096.356-.232.472-.407.118-.174.177-.38.177-.616 0-.294-.103-.544-.308-.75-.205-.207-.53-.311-.976-.311h-1.534v2.228zm7.194 3.866c-.485 0-.903-.107-1.255-.321a2.157 2.157 0 01-.81-.904c-.187-.389-.281-.841-.281-1.357 0-.515.094-.97.282-1.363.19-.395.454-.703.793-.924.34-.222.738-.334 1.192-.334.262 0 .521.044.777.131.255.088.488.23.698.426.209.195.376.452.501.773.124.321.187.717.187 1.186v.328h-3.88v-.668h3.093c0-.284-.056-.538-.17-.76a1.286 1.286 0 00-1.206-.721c-.308 0-.574.076-.8.229a1.508 1.508 0 00-.514.59 1.73 1.73 0 00-.18.78v.445c0 .38.066.702.197.967.133.262.318.462.553.599.236.136.51.204.823.204.203 0 .386-.029.55-.086.166-.059.31-.146.43-.262a1.19 1.19 0 00.278-.439l.747.21a1.667 1.667 0 01-.396.668c-.186.19-.415.339-.689.446-.272.105-.58.157-.92.157zm4.033-3.132v3.027h-.773v-6.71h.773v2.464h.066c.118-.26.295-.466.53-.619.239-.155.555-.233.951-.233.343 0 .643.069.901.207.257.135.457.344.599.625.144.28.217.636.217 1.068v3.198h-.774v-3.145c0-.4-.103-.709-.311-.927-.205-.221-.49-.331-.855-.331-.254 0-.481.053-.682.16a1.168 1.168 0 00-.471.469 1.516 1.516 0 00-.171.747zm6.159 3.145c-.319 0-.608-.06-.868-.18a1.482 1.482 0 01-.619-.527 1.49 1.49 0 01-.23-.839c0-.289.057-.522.171-.701.113-.182.265-.324.455-.426.19-.103.4-.179.629-.23.232-.052.464-.094.698-.124.306-.04.554-.069.744-.089.192-.022.332-.058.419-.108.09-.05.134-.137.134-.262v-.026c0-.323-.088-.575-.265-.754-.175-.179-.44-.268-.796-.268-.369 0-.659.08-.868.242a1.44 1.44 0 00-.443.518l-.734-.262c.131-.306.306-.544.525-.715.22-.172.461-.292.72-.36.263-.07.52-.105.774-.105.161 0 .347.02.557.059.212.037.416.115.612.233.199.118.364.296.495.534.131.238.197.557.197.957v3.315h-.774v-.681h-.039c-.052.109-.14.226-.262.35a1.496 1.496 0 01-.488.318 1.87 1.87 0 01-.744.131zm.118-.694c.306 0 .564-.06.773-.181a1.226 1.226 0 00.642-1.064v-.708c-.032.039-.104.075-.216.108a3.53 3.53 0 01-.38.082 19.761 19.761 0 01-.74.098 2.944 2.944 0 00-.564.128.973.973 0 00-.419.259c-.105.113-.158.268-.158.465 0 .269.1.472.299.609.201.136.455.204.763.204zm7.535-4.456l-1.861 5.032h-.786l-1.861-5.032h.838l1.39 4.01h.052l1.389-4.01h.839zm1.021 5.032v-5.032h.773v5.032h-.773zm.393-5.871a.548.548 0 01-.39-.154.496.496 0 01-.161-.37c0-.145.054-.268.161-.371a.552.552 0 01.39-.154c.151 0 .279.052.387.154a.49.49 0 01.163.371.49.49 0 01-.163.37.54.54 0 01-.387.154zm3.841 5.976c-.455 0-.853-.108-1.196-.324a2.207 2.207 0 01-.8-.908c-.19-.389-.285-.843-.285-1.363 0-.524.095-.982.285-1.373a2.21 2.21 0 01.8-.911 2.195 2.195 0 011.196-.324c.454 0 .852.108 1.192.324.343.217.61.52.8.911.192.391.288.849.288 1.373 0 .52-.096.974-.288 1.363-.19.389-.457.692-.8.908-.34.216-.738.324-1.192.324zm0-.694c.345 0 .629-.089.852-.266.222-.177.387-.409.494-.698.107-.288.161-.6.161-.937 0-.336-.054-.65-.161-.94a1.594 1.594 0 00-.494-.705c-.223-.179-.507-.268-.852-.268s-.629.089-.852.268c-.223.18-.388.414-.495.705-.107.29-.16.604-.16.94 0 .337.053.649.16.937.107.289.272.521.495.698.223.177.507.266.852.266zm3.461.589v-5.032h.747v.76h.052a1.21 1.21 0 01.498-.606c.24-.155.511-.233.813-.233l.213.003c.085.002.149.006.193.01v.786a2.615 2.615 0 00-.18-.029 1.81 1.81 0 00-.292-.023c-.245 0-.463.051-.655.154a1.125 1.125 0 00-.616 1.026v3.184h-.773z" fill="#000"/><g filter="url(#prefix__filter1_d_850_1986)"><rect x="208.913" y="250.621" width="27.68" height="23.066" rx="2.307" fill="#70C391" shape-rendering="crispEdges"/><path d="M222.753 256.388a5.769 5.769 0 00-5.767 5.766 5.77 5.77 0 005.767 5.767 5.769 5.769 0 005.766-5.767 5.768 5.768 0 00-5.766-5.766zm-1.154 8.65l-2.883-2.884.813-.813 2.07 2.065 4.377-4.377.813.819-5.19 5.19z" fill="#fff"/><rect x="209.201" y="250.909" width="27.103" height="22.49" rx="2.018" stroke="#000" stroke-opacity=".16" stroke-width=".577" shape-rendering="crispEdges"/></g><rect x="94.735" y="289.833" width="73.812" height="2.307" rx="1.153" fill="#3674ED"/><rect x="168.547" y="289.833" width="63.432" height="2.307" rx="1.153" fill="#4776BA" fill-opacity=".2"/><g clip-path="url(#prefix__clip0_850_1986)"><circle cx="98.194" cy="290.987" r="2.883" fill="#fff" stroke="#3674ED" stroke-width="1.153"/></g><path d="M99.104 301.197v6.71h-.813v-5.858h-.04l-1.637 1.088v-.826l1.677-1.114h.813z" fill="#4776BA" fill-opacity=".5"/><g clip-path="url(#prefix__clip1_850_1986)"><circle cx="130.776" cy="290.987" r="2.883" fill="#fff" stroke="#3674ED" stroke-width="1.153"/></g><g filter="url(#prefix__filter2_d_850_1986)"><rect x="154.707" y="282.337" width="17.3" height="17.3" rx="8.65" fill="#3674ED"/><rect x="155.572" y="283.202" width="15.57" height="15.57" rx="7.785" stroke="#fff" stroke-width="1.73"/></g><path d="M163.381 307.999c-.432 0-.818-.074-1.156-.223a1.977 1.977 0 01-.803-.619 1.66 1.66 0 01-.321-.927h.826a.97.97 0 00.222.56c.131.155.303.275.515.36.212.086.447.128.704.128.289 0 .544-.05.767-.151.223-.1.398-.24.524-.419.127-.179.19-.387.19-.622 0-.247-.061-.465-.183-.653a1.219 1.219 0 00-.538-.445c-.235-.107-.524-.161-.865-.161h-.537v-.72h.537c.267 0 .501-.049.702-.145.203-.096.361-.231.475-.406.115-.175.173-.38.173-.616 0-.227-.05-.425-.15-.593a1.038 1.038 0 00-.426-.393 1.383 1.383 0 00-.643-.141 1.7 1.7 0 00-.655.128 1.225 1.225 0 00-.498.363.95.95 0 00-.21.571h-.786c.013-.352.119-.66.318-.924.199-.267.459-.474.78-.623a2.527 2.527 0 011.065-.223c.415 0 .771.084 1.068.253.297.166.525.385.685.658.159.273.239.568.239.885 0 .378-.1.7-.298.966a1.515 1.515 0 01-.803.554v.052c.424.07.754.251.993.541.238.288.357.646.357 1.072 0 .364-.1.692-.298.982a2.029 2.029 0 01-.806.682 2.626 2.626 0 01-1.164.249z" fill="#3674ED"/><g clip-path="url(#prefix__clip2_850_1986)"><circle cx="195.938" cy="290.987" r="2.883" fill="#fff" stroke="#3674ED" stroke-width="1.153"/></g><g clip-path="url(#prefix__clip3_850_1986)"><circle cx="228.519" cy="290.987" r="2.883" fill="#fff" stroke="#3674ED" stroke-width="1.153"/></g><path d="M228.504 307.999c-.384 0-.731-.076-1.039-.229a1.935 1.935 0 01-.74-.629 1.72 1.72 0 01-.305-.911h.787c.03.303.168.554.412.753.247.197.542.295.885.295a1.373 1.373 0 001.242-.724c.124-.227.187-.484.187-.77 0-.293-.065-.554-.194-.783a1.407 1.407 0 00-.524-.547 1.481 1.481 0 00-.763-.203 2.088 2.088 0 00-.633.095 1.766 1.766 0 00-.534.245l-.76-.091.406-3.303h3.486v.721h-2.804l-.236 1.979h.039a1.964 1.964 0 011.167-.38c.41 0 .776.098 1.097.295.324.194.577.461.76.799.186.339.279.725.279 1.16 0 .428-.096.81-.288 1.147-.19.334-.453.598-.787.793a2.246 2.246 0 01-1.14.288z" fill="#4776BA" fill-opacity=".5"/></g><defs><clipPath id="prefix__clip0_850_1986"><path fill="#fff" transform="translate(94.734 287.527)" d="M0 0h6.92v6.92H0z"/></clipPath><clipPath id="prefix__clip1_850_1986"><path fill="#fff" transform="translate(127.316 287.527)" d="M0 0h6.92v6.92H0z"/></clipPath><clipPath id="prefix__clip2_850_1986"><path fill="#fff" transform="translate(192.478 287.527)" d="M0 0h6.92v6.92H0z"/></clipPath><clipPath id="prefix__clip3_850_1986"><path fill="#fff" transform="translate(225.059 287.527)" d="M0 0h6.92v6.92H0z"/></clipPath><filter id="prefix__drop-shadow" x="63" y="229.5" width="200.714" height="116.521" filterUnits="userSpaceOnUse" color-interpolation-filters="sRGB"><feFlood flood-opacity="0" result="BackgroundImageFix"/><feColorMatrix in="SourceAlpha" values="0 0 0 0 0 0 0 0 0 0 0 0 0 0 0 0 0 0 127 0" result="hardAlpha"/><feOffset dy="6"/><feGaussianBlur stdDeviation="8"/><feComposite in2="hardAlpha" operator="out"/><feColorMatrix values="0 0 0 0 0 0 0 0 0 0.399314 0 0 0 0 0.7125 0 0 0 0.12 0"/><feBlend in2="BackgroundImageFix" result="effect1_dropShadow_850_1986"/><feColorMatrix in="SourceAlpha" values="0 0 0 0 0 0 0 0 0 0 0 0 0 0 0 0 0 0 127 0" result="hardAlpha"/><feOffset dy="2"/><feGaussianBlur stdDeviation="3"/><feComposite in2="hardAlpha" operator="out"/><feColorMatrix values="0 0 0 0 0 0 0 0 0 0 0 0 0 0 0 0 0 0 0.08 0"/><feBlend in2="effect1_dropShadow_850_1986" result="effect2_dropShadow_850_1986"/><feBlend in="SourceGraphic" in2="effect2_dropShadow_850_1986" result="shape"/></filter><filter id="prefix__filter1_d_850_1986" x="208.913" y="250.621" width="27.68" height="23.643" filterUnits="userSpaceOnUse" color-interpolation-filters="sRGB"><feFlood flood-opacity="0" result="BackgroundImageFix"/><feColorMatrix in="SourceAlpha" values="0 0 0 0 0 0 0 0 0 0 0 0 0 0 0 0 0 0 127 0" result="hardAlpha"/><feOffset dy=".577"/><feComposite in2="hardAlpha" operator="out"/><feColorMatrix values="0 0 0 0 0 0 0 0 0 0 0 0 0 0 0 0 0 0 0.05 0"/><feBlend in2="BackgroundImageFix" result="effect1_dropShadow_850_1986"/><feBlend in="SourceGraphic" in2="effect1_dropShadow_850_1986" result="shape"/></filter><filter id="prefix__filter2_d_850_1986" x="154.707" y="282.337" width="17.3" height="17.877" filterUnits="userSpaceOnUse" color-interpolation-filters="sRGB"><feFlood flood-opacity="0" result="BackgroundImageFix"/><feColorMatrix in="SourceAlpha" values="0 0 0 0 0 0 0 0 0 0 0 0 0 0 0 0 0 0 127 0" result="hardAlpha"/><feOffset dy=".577"/><feComposite in2="hardAlpha" operator="out"/><feColorMatrix values="0 0 0 0 0 0 0 0 0 0 0 0 0 0 0 0 0 0 0.05 0"/><feBlend in2="BackgroundImageFix" result="effect1_dropShadow_850_1986"/><feBlend in="SourceGraphic" in2="effect1_dropShadow_850_1986" result="shape"/></filter></defs></svg>