<svg viewBox="0 0 169 86" fill="none" xmlns="http://www.w3.org/2000/svg"><rect width="169" height="86" rx="6" fill="#fff"/><path d="M11.934 26.154v-6.71h2.346c.467 0 .853.08 1.156.243.304.159.53.374.679.645.148.269.222.567.222.895 0 .288-.051.526-.154.714a1.2 1.2 0 01-.4.445c-.163.11-.341.19-.533.243v.065c.205.014.411.085.619.217.207.13.381.319.52.563.14.245.21.544.21.898 0 .336-.076.639-.229.907-.153.27-.394.482-.724.64-.33.157-.759.235-1.288.235h-2.424zm.812-.72h1.612c.531 0 .908-.103 1.13-.309a.988.988 0 00.338-.753c0-.227-.058-.437-.173-.63a1.256 1.256 0 00-.495-.464 1.55 1.55 0 00-.76-.177h-1.652v2.332zm0-3.041h1.508c.244 0 .465-.048.661-.144.2-.096.356-.232.472-.406.118-.175.177-.38.177-.616 0-.295-.103-.546-.308-.75-.205-.208-.53-.312-.976-.312h-1.534v2.228zm7.194 3.866c-.485 0-.903-.107-1.255-.32a2.155 2.155 0 01-.81-.905c-.187-.39-.281-.841-.281-1.357 0-.515.094-.97.282-1.363.19-.395.454-.703.793-.924a2.13 2.13 0 011.192-.334c.262 0 .521.044.777.131.255.087.488.23.698.426.21.195.376.452.5.773.125.322.188.717.188 1.186v.328h-3.88v-.668h3.093a1.65 1.65 0 00-.17-.76 1.284 1.284 0 00-.478-.528 1.34 1.34 0 00-.728-.193c-.308 0-.574.076-.8.23a1.51 1.51 0 00-.514.589c-.12.242-.18.502-.18.78v.445c0 .38.066.702.197.967.133.262.317.462.553.6.236.135.51.203.823.203.203 0 .386-.029.55-.086.166-.059.31-.146.43-.262a1.19 1.19 0 00.278-.439l.747.21c-.079.253-.21.476-.396.668-.186.19-.415.339-.689.446-.273.105-.58.157-.92.157zm4.033-3.132v3.027H23.2v-6.71h.773v2.464h.066c.118-.26.295-.466.53-.62.239-.154.555-.232.95-.232.344 0 .644.069.902.206.257.136.457.345.6.626.143.28.215.636.215 1.068v3.198h-.773V23.01c0-.4-.104-.709-.311-.927-.205-.221-.49-.331-.855-.331-.253 0-.48.053-.682.16a1.174 1.174 0 00-.471.469c-.114.205-.17.454-.17.747zm6.16 3.145c-.32 0-.61-.06-.87-.18a1.49 1.49 0 01-.618-.527 1.488 1.488 0 01-.23-.84c0-.288.057-.521.17-.7.114-.182.266-.324.456-.426.19-.103.4-.18.63-.23.23-.052.463-.094.697-.124.306-.04.554-.069.744-.089.192-.021.332-.058.42-.108.089-.05.134-.137.134-.262v-.026c0-.323-.089-.575-.266-.754-.175-.179-.44-.268-.796-.268-.37 0-.659.08-.868.242-.21.162-.358.334-.443.518l-.734-.262c.131-.306.306-.544.525-.715.22-.172.46-.292.72-.36.263-.07.52-.105.774-.105.161 0 .347.02.557.06.212.036.416.114.612.232.2.118.364.296.495.534.131.238.197.557.197.956v3.316h-.773v-.681h-.04c-.052.109-.14.226-.262.35-.122.125-.285.23-.488.318a1.88 1.88 0 01-.744.131zm.117-.694c.306 0 .564-.06.773-.18a1.227 1.227 0 00.643-1.065v-.708c-.033.04-.105.075-.217.108-.109.03-.236.058-.38.082a17.673 17.673 0 01-.74.098 2.952 2.952 0 00-.564.128.972.972 0 00-.42.259c-.104.113-.156.268-.156.465 0 .269.099.472.298.61.2.135.455.203.763.203zm7.535-4.456l-1.86 5.032h-.787l-1.861-5.032h.838l1.39 4.01h.052l1.39-4.01h.838zm1.02 5.032v-5.032h.774v5.032h-.773zm.394-5.871a.55.55 0 01-.39-.154.495.495 0 01-.16-.37c0-.145.053-.268.16-.37a.55.55 0 01.39-.155c.15 0 .28.052.387.154a.49.49 0 01.163.37.49.49 0 01-.163.37.539.539 0 01-.387.155zm3.84 5.976c-.454 0-.852-.108-1.195-.324a2.204 2.204 0 01-.8-.908c-.19-.389-.285-.843-.285-1.363 0-.524.095-.982.285-1.373a2.2 2.2 0 01.8-.91 2.194 2.194 0 011.196-.325c.454 0 .852.108 1.192.325.343.216.61.52.8.91.192.391.288.849.288 1.373 0 .52-.096.974-.288 1.363-.19.389-.457.691-.8.908-.34.216-.738.324-1.192.324zm0-.695c.346 0 .63-.088.853-.265.222-.177.387-.41.494-.698.107-.288.16-.6.16-.937a2.7 2.7 0 00-.16-.94 1.585 1.585 0 00-.494-.705c-.223-.179-.507-.268-.852-.268s-.63.09-.852.268c-.223.18-.388.414-.495.705a2.7 2.7 0 00-.16.94c0 .337.053.649.16.937.107.289.272.521.495.698.223.177.507.265.852.265zm3.462.59v-5.032h.747v.76h.052c.092-.25.258-.451.498-.606.24-.155.511-.233.813-.233a8.51 8.51 0 01.406.013v.787a2.259 2.259 0 00-.18-.03 1.771 1.771 0 00-.292-.023 1.37 1.37 0 00-.655.154 1.13 1.13 0 00-.616 1.026v3.184H46.5z" fill="#000"/><g filter="url(#prefix__filter0_d_850_2114)"><rect x="129.913" y="11.621" width="27.68" height="23.066" rx="2.307" fill="#70C391" shape-rendering="crispEdges"/><rect x="130.201" y="11.909" width="27.103" height="22.49" rx="2.018" stroke="#000" stroke-opacity=".16" stroke-width=".577" shape-rendering="crispEdges"/><path d="M143.753 17.388a5.77 5.77 0 00-5.767 5.766 5.77 5.77 0 005.767 5.767 5.768 5.768 0 005.766-5.767 5.768 5.768 0 00-5.766-5.766zm-1.154 8.65l-2.883-2.884.813-.813 2.07 2.065 4.377-4.377.813.819-5.19 5.19z" fill="#fff"/></g><rect x="15.735" y="50.833" width="73.812" height="2.307" rx="1.153" fill="#3674ED"/><rect x="89.547" y="50.833" width="63.432" height="2.307" rx="1.153" fill="#4776BA" fill-opacity=".2"/><g clip-path="url(#prefix__clip0_850_2114)"><circle cx="19.194" cy="51.987" r="2.883" fill="#fff" stroke="#3674ED" stroke-width="1.153"/></g><path d="M20.104 62.197v6.71h-.813V63.05h-.04l-1.637 1.088v-.826l1.677-1.114h.813z" fill="#4776BA" fill-opacity=".5"/><g clip-path="url(#prefix__clip1_850_2114)"><circle cx="51.776" cy="51.987" r="2.883" fill="#fff" stroke="#3674ED" stroke-width="1.153"/></g><g filter="url(#prefix__filter1_d_850_2114)"><rect x="75.707" y="43.337" width="17.3" height="17.3" rx="8.65" fill="#3674ED"/><rect x="76.572" y="44.202" width="15.57" height="15.57" rx="7.785" stroke="#fff" stroke-width="1.73"/></g><path d="M84.381 68.999c-.432 0-.818-.074-1.156-.223a1.981 1.981 0 01-.803-.62 1.664 1.664 0 01-.321-.926h.826a.976.976 0 00.222.56c.132.155.303.275.515.36.212.086.447.128.704.128.289 0 .544-.05.767-.15.223-.101.397-.24.524-.42s.19-.387.19-.623c0-.246-.06-.464-.183-.651a1.216 1.216 0 00-.538-.446c-.236-.107-.524-.16-.865-.16h-.537v-.722h.537c.267 0 .5-.047.702-.144a1.09 1.09 0 00.649-1.022c0-.227-.05-.425-.151-.593a1.03 1.03 0 00-.426-.393 1.379 1.379 0 00-.643-.141c-.231 0-.45.043-.655.128a1.22 1.22 0 00-.498.363.946.946 0 00-.21.57h-.786c.013-.351.12-.66.318-.923.199-.267.459-.474.78-.623a2.52 2.52 0 011.065-.223c.415 0 .77.084 1.068.253.297.166.525.385.684.658.16.273.24.568.24.885 0 .378-.1.7-.299.966a1.511 1.511 0 01-.802.554v.052c.424.07.754.25.993.541.238.288.357.646.357 1.072 0 .364-.1.692-.299.983a2.025 2.025 0 01-.805.681c-.341.166-.729.249-1.164.249z" fill="#3674ED"/><g clip-path="url(#prefix__clip2_850_2114)"><circle cx="116.938" cy="51.987" r="2.883" fill="#fff" stroke="#3674ED" stroke-width="1.153"/></g><g clip-path="url(#prefix__clip3_850_2114)"><circle cx="149.519" cy="51.987" r="2.883" fill="#fff" stroke="#3674ED" stroke-width="1.153"/></g><path d="M149.504 68.999c-.384 0-.731-.076-1.039-.23a1.93 1.93 0 01-.74-.629 1.716 1.716 0 01-.305-.91h.787c.03.303.168.554.412.753.247.197.542.295.885.295a1.37 1.37 0 001.242-.724 1.58 1.58 0 00.187-.77 1.57 1.57 0 00-.194-.783 1.413 1.413 0 00-.524-.547 1.481 1.481 0 00-.763-.203 2.097 2.097 0 00-.633.095 1.766 1.766 0 00-.534.245l-.76-.091.406-3.303h3.486v.72h-2.804l-.236 1.98h.039c.138-.11.31-.2.518-.272.207-.072.424-.108.649-.108a2.06 2.06 0 011.857 1.094c.186.339.279.725.279 1.16 0 .428-.096.81-.288 1.147a2.11 2.11 0 01-.787.793 2.243 2.243 0 01-1.14.288z" fill="#4776BA" fill-opacity=".5"/><defs><clipPath id="prefix__clip0_850_2114"><path fill="#fff" transform="translate(15.735 48.527)" d="M0 0h6.92v6.92H0z"/></clipPath><clipPath id="prefix__clip1_850_2114"><path fill="#fff" transform="translate(48.316 48.527)" d="M0 0h6.92v6.92H0z"/></clipPath><clipPath id="prefix__clip2_850_2114"><path fill="#fff" transform="translate(113.478 48.527)" d="M0 0h6.92v6.92H0z"/></clipPath><clipPath id="prefix__clip3_850_2114"><path fill="#fff" transform="translate(146.059 48.527)" d="M0 0h6.92v6.92H0z"/></clipPath><filter id="prefix__filter0_d_850_2114" x="129.913" y="11.621" width="27.68" height="24.066" filterUnits="userSpaceOnUse" color-interpolation-filters="sRGB"><feFlood flood-opacity="0" result="BackgroundImageFix"/><feColorMatrix in="SourceAlpha" values="0 0 0 0 0 0 0 0 0 0 0 0 0 0 0 0 0 0 127 0" result="hardAlpha"/><feOffset dy="1"/><feComposite in2="hardAlpha" operator="out"/><feColorMatrix values="0 0 0 0 0 0 0 0 0 0 0 0 0 0 0 0 0 0 0.05 0"/><feBlend in2="BackgroundImageFix" result="effect1_dropShadow_850_2114"/><feBlend in="SourceGraphic" in2="effect1_dropShadow_850_2114" result="shape"/></filter><filter id="prefix__filter1_d_850_2114" x="75.707" y="43.337" width="17.3" height="18.3" filterUnits="userSpaceOnUse" color-interpolation-filters="sRGB"><feFlood flood-opacity="0" result="BackgroundImageFix"/><feColorMatrix in="SourceAlpha" values="0 0 0 0 0 0 0 0 0 0 0 0 0 0 0 0 0 0 127 0" result="hardAlpha"/><feOffset dy="1"/><feComposite in2="hardAlpha" operator="out"/><feColorMatrix values="0 0 0 0 0 0 0 0 0 0 0 0 0 0 0 0 0 0 0.05 0"/><feBlend in2="BackgroundImageFix" result="effect1_dropShadow_850_2114"/><feBlend in="SourceGraphic" in2="effect1_dropShadow_850_2114" result="shape"/></filter></defs></svg>