<svg viewBox="0 0 751 491" fill="none" xmlns="http://www.w3.org/2000/svg"><g filter="url(#prefix__prefix__drop-shadow)"><rect x="169" y="86.5" width="67.514" height="44.857" rx="3.738" fill="#fff"/><path d="M209.299 109.863h-5.607v5.607h-1.87v-5.607h-5.607v-1.869h5.607v-5.607h1.87v5.607h5.607v1.869z" fill="#3674ED"/><rect x="243.99" y="86.5" width="67.514" height="44.857" rx="3.738" fill="#fff"/><path d="M284.289 109.863h-13.084v-1.869h13.084v1.869z" fill="#3674ED"/><rect x="169" y="138.833" width="67.514" height="44.857" rx="3.738" fill="#fff"/><path fill-rule="evenodd" clip-rule="evenodd" d="M198.907 170.471a.804.804 0 01-.458.137c-.243 0-.43-.08-.56-.24-.13-.16-.195-.374-.195-.642v-2.49h-.398c-.843 0-1.552-.151-2.129-.454a3.018 3.018 0 01-1.314-1.326c-.294-.582-.441-1.292-.441-2.131v-6.554c0-.839.147-1.549.441-2.131a3.018 3.018 0 011.314-1.326c.577-.308 1.286-.462 2.129-.462h10.922c.843 0 1.552.154 2.129.462a2.98 2.98 0 011.306 1.326c.299.582.449 1.292.449 2.131v6.554c0 .839-.15 1.549-.449 2.131a3.03 3.03 0 01-1.306 1.335c-.577.302-1.286.454-2.129.454l-5.732-.009-3.062 2.824a3.475 3.475 0 01-.517.411zm1.425-7.017c.118.148.291.222.517.222.232 0 .407-.071.526-.214.118-.148.178-.345.178-.59v-1.925h1.721c.854 0 1.541-.249 2.061-.745.526-.496.789-1.149.789-1.959 0-.811-.263-1.467-.789-1.969-.52-.502-1.204-.753-2.052-.753h-2.443c-.226 0-.398.075-.517.223-.113.148-.169.342-.169.582v6.546c0 .24.059.433.178.582zm2.747-3.586h-1.526v-3.26h1.526c.509 0 .913.146 1.213.437.3.29.449.69.449 1.198 0 .502-.149.898-.449 1.189-.294.291-.698.436-1.213.436z" fill="#3674ED"/><rect x="243.99" y="138.833" width="67.514" height="44.857" rx="3.738" fill="#fff"/><path d="M277.747 151.917c-5.159 0-9.345 4.187-9.345 9.345 0 5.159 4.186 9.345 9.345 9.345 5.159 0 9.345-4.186 9.345-9.345 0-5.158-4.186-9.345-9.345-9.345zm-7.476 9.345a7.474 7.474 0 017.476-7.476c1.729 0 3.318.589 4.579 1.579l-10.476 10.476a7.386 7.386 0 01-1.579-4.579zm7.476 7.476a7.38 7.38 0 01-4.579-1.579l10.476-10.476a7.388 7.388 0 011.579 4.579 7.473 7.473 0 01-7.476 7.476z" fill="#3674ED"/></g><defs><filter id="prefix__prefix__drop-shadow" x="129" y="58.5" width="237" height="177.19" filterUnits="userSpaceOnUse" color-interpolation-filters="sRGB"><feFlood flood-opacity="0" result="BackgroundImageFix"/><feColorMatrix in="SourceAlpha" values="0 0 0 0 0 0 0 0 0 0 0 0 0 0 0 0 0 0 127 0" result="hardAlpha"/><feOffset dy="12"/><feGaussianBlur stdDeviation="20"/><feComposite in2="hardAlpha" operator="out"/><feColorMatrix values="0 0 0 0 0 0 0 0 0 0.4 0 0 0 0 0.713726 0 0 0 0.24 0"/><feBlend in2="BackgroundImageFix" result="drop-shadow-3"/><feColorMatrix in="SourceAlpha" values="0 0 0 0 0 0 0 0 0 0 0 0 0 0 0 0 0 0 127 0" result="hardAlpha"/><feMorphology radius="2" in="SourceAlpha" result="drop-shadow-2"/><feOffset dy="4"/><feGaussianBlur stdDeviation="3"/><feComposite in2="hardAlpha" operator="out"/><feColorMatrix values="0 0 0 0 0 0 0 0 0 0 0 0 0 0 0 0 0 0 0.08 0"/><feBlend in2="drop-shadow-3" result="drop-shadow-2"/><feBlend in="SourceGraphic" in2="drop-shadow-2" result="shape"/></filter></defs></svg>