<svg width="143" height="98" fill="none" xmlns="http://www.w3.org/2000/svg"><rect width="68" height="45" rx="4" fill="#fff"/><path d="M40.299 23.363H34.69v5.607h-1.869v-5.607h-5.607v-1.87h5.607v-5.606h1.87v5.607h5.607v1.869z" fill="#3674ED"/><rect x="75" width="68" height="45" rx="4" fill="#fff"/><path d="M115.289 23.363h-13.084v-1.869h13.084v1.87z" fill="#3674ED"/><rect y="53" width="68" height="45" rx="4" fill="#fff"/><path fill-rule="evenodd" clip-rule="evenodd" d="M29.907 83.97a.802.802 0 01-.458.138c-.243 0-.43-.08-.56-.24-.13-.16-.195-.374-.195-.642v-2.49h-.398c-.843 0-1.552-.151-2.129-.454a3.028 3.028 0 01-1.314-1.326c-.294-.582-.441-1.292-.441-2.13V70.27c0-.839.147-1.55.44-2.131.3-.582.738-1.024 1.315-1.326.577-.308 1.286-.462 2.129-.462h10.922c.842 0 1.552.154 2.129.462a2.98 2.98 0 011.306 1.326c.3.582.45 1.292.45 2.13v6.555c0 .839-.15 1.55-.45 2.131a3.028 3.028 0 01-1.306 1.335c-.577.302-1.287.454-2.129.454l-5.733-.009-3.06 2.824a3.435 3.435 0 01-.518.41zm1.424-7.016c.12.148.292.222.518.222.232 0 .407-.071.526-.214.118-.148.178-.345.178-.59v-1.925h1.721c.854 0 1.54-.249 2.06-.745.527-.496.79-1.15.79-1.96s-.263-1.466-.79-1.968c-.52-.502-1.203-.753-2.051-.753H31.84c-.226 0-.398.075-.517.223-.113.148-.17.342-.17.582v6.546c0 .24.06.433.178.582zm2.748-3.586h-1.526v-3.26h1.526c.509 0 .913.146 1.213.436.3.291.45.69.45 1.199 0 .502-.15.898-.45 1.189-.294.29-.698.436-1.213.436z" fill="#3674ED"/><rect x="75" y="53" width="68" height="45" rx="4" fill="#fff"/><path d="M108.747 65.417c-5.159 0-9.345 4.187-9.345 9.345 0 5.159 4.186 9.346 9.345 9.346 5.158 0 9.345-4.187 9.345-9.346 0-5.158-4.187-9.345-9.345-9.345zm-7.476 9.345a7.474 7.474 0 017.476-7.476c1.729 0 3.317.589 4.579 1.58L102.85 79.34a7.382 7.382 0 01-1.579-4.579zm7.476 7.476a7.383 7.383 0 01-4.579-1.579l10.476-10.476a7.388 7.388 0 011.579 4.58 7.474 7.474 0 01-7.476 7.475z" fill="#3674ED"/></svg>