<svg viewBox="0 0 227 44" fill="none" xmlns="http://www.w3.org/2000/svg"><rect width="227" height="44" rx="9" fill="#E8EFFB"/><path d="M18.976 26.493c-.667 0-1.235-.182-1.704-.545-.47-.366-.828-.896-1.076-1.589-.248-.696-.372-1.538-.372-2.523 0-.98.124-1.816.372-2.51.25-.696.61-1.228 1.08-1.593.472-.37 1.039-.554 1.7-.554.66 0 1.226.185 1.695.554.472.365.832.897 1.08 1.593.251.694.377 1.53.377 2.51 0 .986-.124 1.827-.372 2.523-.248.693-.607 1.223-1.076 1.59-.47.362-1.037.544-1.704.544zm0-.974c.66 0 1.174-.319 1.54-.956.366-.638.55-1.547.55-2.727 0-.785-.085-1.453-.253-2.005-.165-.552-.404-.973-.717-1.262a1.583 1.583 0 00-1.12-.434c-.655 0-1.167.323-1.536.97-.369.643-.553 1.553-.553 2.73 0 .786.082 1.453.247 2.002.166.549.403.966.713 1.252.313.287.69.43 1.129.43zm9.455-.85v-.478c0-.33.068-.633.203-.908.14-.277.34-.498.602-.664.266-.168.588-.252.965-.252.384 0 .706.084.965.252.26.166.456.387.59.664.132.275.198.577.198.908v.478c0 .33-.067.634-.203.912-.133.274-.33.495-.593.664-.26.165-.579.248-.957.248-.383 0-.706-.083-.969-.248a1.64 1.64 0 01-.598-.664 2.047 2.047 0 01-.203-.912zm.903-.478v.478c0 .274.065.52.195.74.13.215.354.322.672.322.31 0 .529-.108.656-.323.13-.218.194-.465.194-.74v-.477c0-.275-.062-.52-.185-.735-.125-.218-.346-.328-.665-.328-.31 0-.532.11-.668.328-.133.215-.2.46-.2.735zm-5.418-4.71v-.478c0-.33.068-.633.203-.907.14-.278.34-.5.602-.665.266-.168.588-.252.965-.252.384 0 .706.084.965.253.26.165.456.386.59.664.132.274.198.576.198.907v.478c0 .33-.067.634-.203.912-.133.274-.33.496-.593.664-.26.165-.579.248-.957.248-.383 0-.706-.083-.969-.248a1.638 1.638 0 01-.598-.664 2.045 2.045 0 01-.203-.912zm.903-.478v.478c0 .274.065.52.195.74.13.215.354.322.672.322.31 0 .529-.107.656-.323a1.42 1.42 0 00.194-.739v-.478c0-.274-.062-.52-.186-.735-.123-.218-.345-.327-.664-.327-.31 0-.532.109-.668.327-.133.215-.2.46-.2.735zm-.567 7.366l6.233-9.066h1.01l-6.233 9.066h-1.01zM56.763 26.369v-.797l2.993-3.276c.35-.383.64-.717.867-1 .228-.286.396-.555.505-.806a1.95 1.95 0 00.168-.796c0-.32-.077-.595-.23-.828a1.494 1.494 0 00-.62-.54 2.01 2.01 0 00-.885-.19c-.348 0-.652.072-.912.216-.257.142-.456.341-.598.598a1.872 1.872 0 00-.208.903H56.8c0-.531.122-.998.367-1.399a2.553 2.553 0 011-.938 3.015 3.015 0 011.43-.337c.532 0 1.002.112 1.412.337.41.224.732.526.965.907.233.38.35.804.35 1.27 0 .334-.06.66-.181.979-.118.316-.325.668-.62 1.058-.292.386-.698.858-1.217 1.416l-2.037 2.178v.07h4.215v.975h-5.72zm10.505.124c-.667 0-1.236-.182-1.705-.545-.469-.366-.827-.896-1.075-1.589-.248-.696-.372-1.538-.372-2.523 0-.98.124-1.816.372-2.51.25-.696.61-1.228 1.08-1.593.472-.37 1.038-.554 1.7-.554.66 0 1.226.185 1.695.554.472.365.832.897 1.08 1.593.25.694.376 1.53.376 2.51 0 .986-.124 1.827-.372 2.523-.248.693-.606 1.223-1.075 1.59-.47.362-1.037.544-1.704.544zm0-.974c.66 0 1.174-.319 1.54-.956.366-.638.549-1.547.549-2.727 0-.785-.084-1.453-.252-2.005-.166-.552-.405-.973-.718-1.262a1.583 1.583 0 00-1.12-.434c-.655 0-1.167.323-1.535.97-.37.643-.554 1.553-.554 2.73 0 .786.083 1.453.248 2.002.165.549.403.966.713 1.252.313.287.689.43 1.129.43zm9.455-.85v-.478c0-.33.067-.633.203-.908.139-.277.34-.498.602-.664.266-.168.587-.252.965-.252.384 0 .706.084.965.252.26.166.456.387.589.664.133.275.2.577.2.908v.478c0 .33-.069.634-.204.912-.133.274-.331.495-.594.664-.26.165-.578.248-.956.248-.383 0-.707-.083-.97-.248a1.638 1.638 0 01-.597-.664 2.047 2.047 0 01-.203-.912zm.903-.478v.478c0 .274.064.52.194.74.13.215.355.322.673.322.31 0 .528-.108.655-.323.13-.218.195-.465.195-.74v-.477c0-.275-.062-.52-.186-.735-.124-.218-.345-.328-.664-.328-.31 0-.532.11-.668.328-.133.215-.2.46-.2.735zm-5.419-4.71v-.478c0-.33.068-.633.204-.907.139-.278.34-.5.602-.665.266-.168.587-.252.965-.252.384 0 .705.084.965.253.26.165.456.386.589.664.133.274.199.576.199.907v.478c0 .33-.068.634-.204.912-.132.274-.33.496-.593.664-.26.165-.578.248-.956.248-.383 0-.707-.083-.97-.248a1.64 1.64 0 01-.597-.664 2.046 2.046 0 01-.204-.912zm.904-.478v.478c0 .274.064.52.194.74.13.215.354.322.673.322.31 0 .528-.107.655-.323.13-.218.195-.465.195-.739v-.478c0-.274-.062-.52-.186-.735-.124-.218-.345-.327-.664-.327-.31 0-.532.109-.668.327-.133.215-.2.46-.2.735zm-.567 7.366l6.233-9.066h1.009l-6.233 9.066h-1.01zM100.844 24.51v-.904l3.984-6.303h.655v1.399h-.443l-3.01 4.763v.07h5.365v.974h-6.551zm4.267 1.859V17.303h1.045v9.066h-1.045zm6.9.124c-.667 0-1.235-.182-1.704-.545-.47-.366-.828-.896-1.076-1.589-.248-.696-.372-1.538-.372-2.523 0-.98.124-1.816.372-2.51.251-.696.611-1.228 1.08-1.593.472-.37 1.039-.554 1.7-.554s1.226.185 1.695.554c.472.365.832.897 1.08 1.593.251.694.377 1.53.377 2.51 0 .986-.124 1.827-.372 2.523-.248.693-.607 1.223-1.076 1.59-.469.362-1.037.544-1.704.544zm0-.974c.661 0 1.174-.319 1.54-.956.366-.638.549-1.547.549-2.727 0-.785-.084-1.453-.252-2.005-.165-.552-.404-.973-.717-1.262a1.583 1.583 0 00-1.12-.434c-.655 0-1.167.323-1.536.97-.369.643-.553 1.553-.553 2.73 0 .786.082 1.453.247 2.002.166.549.403.966.713 1.252.313.287.689.43 1.129.43zm9.455-.85v-.478c0-.33.068-.633.204-.908.138-.277.339-.498.602-.664.265-.168.587-.252.965-.252.383 0 .705.084.965.252.259.166.455.387.588.664.133.275.199.577.199.908v.478c0 .33-.067.634-.203.912a1.613 1.613 0 01-.593.664c-.26.165-.579.248-.956.248-.384 0-.707-.083-.97-.248a1.637 1.637 0 01-.597-.664 2.043 2.043 0 01-.204-.912zm.903-.478v.478c0 .274.065.52.195.74.13.215.354.322.673.322.309 0 .528-.108.655-.323.13-.218.194-.465.194-.74v-.477c0-.275-.062-.52-.185-.735-.124-.218-.346-.328-.664-.328-.31 0-.533.11-.669.328a1.37 1.37 0 00-.199.735zm-5.418-4.71v-.478c0-.33.068-.633.204-.907.138-.278.339-.5.602-.665.265-.168.587-.252.965-.252.383 0 .705.084.965.253.259.165.455.386.588.664.133.274.199.576.199.907v.478c0 .33-.067.634-.203.912a1.613 1.613 0 01-.593.664c-.26.165-.579.248-.956.248-.384 0-.707-.083-.97-.248a1.63 1.63 0 01-.597-.664 2.043 2.043 0 01-.204-.912zm.903-.478v.478c0 .274.065.52.195.74.13.215.354.322.673.322.309 0 .528-.107.655-.323.129-.218.194-.465.194-.739v-.478c0-.274-.062-.52-.185-.735-.124-.218-.346-.327-.664-.327-.31 0-.533.109-.669.327a1.37 1.37 0 00-.199.735zm-.567 7.366l6.233-9.066h1.009l-6.232 9.066h-1.01z" fill="#3674ED"/><g filter="url(#prefix__filter0_d_850_2000)"><rect x="135.335" y="2.281" width="44.518" height="39.176" rx="6.717" fill="#3674ED" shape-rendering="crispEdges"/><path d="M148.694 26.493a3.389 3.389 0 01-1.115-.213 2.662 2.662 0 01-1.018-.686c-.307-.325-.554-.763-.74-1.315-.186-.555-.279-1.25-.279-2.089 0-.803.076-1.514.226-2.134.151-.622.369-1.146.655-1.571a2.962 2.962 0 011.036-.974 2.835 2.835 0 011.377-.332c.507 0 .959.102 1.354.306.399.2.723.48.974.84s.413.775.487 1.245h-1.08a2.002 2.002 0 00-.584-1.014c-.289-.269-.673-.403-1.151-.403-.703 0-1.256.306-1.66.916-.401.611-.604 1.468-.607 2.572h.071a2.684 2.684 0 011.35-1.058c.278-.097.571-.146.881-.146.52 0 .995.13 1.426.39.43.256.776.612 1.035 1.066.26.452.39.97.39 1.554 0 .56-.126 1.074-.376 1.54a2.87 2.87 0 01-1.058 1.107c-.452.272-.983.404-1.594.399zm0-.974c.372 0 .705-.093 1.001-.28.298-.185.532-.434.703-.747.174-.313.262-.661.262-1.045 0-.375-.085-.715-.253-1.022a1.924 1.924 0 00-.686-.74 1.814 1.814 0 00-.991-.274 1.84 1.84 0 00-.784.168c-.242.11-.454.26-.637.452-.18.192-.322.411-.425.66a2.1 2.1 0 00.097 1.784c.171.312.404.564.699.756.299.192.636.288 1.014.288zm7.726.974c-.667 0-1.235-.182-1.705-.545-.469-.366-.827-.896-1.075-1.589-.248-.696-.372-1.538-.372-2.523 0-.98.124-1.816.372-2.51.251-.696.611-1.228 1.08-1.593.472-.37 1.039-.554 1.7-.554s1.226.185 1.695.554c.472.365.832.897 1.08 1.593.251.694.376 1.53.376 2.51 0 .986-.124 1.827-.372 2.523-.247.693-.606 1.223-1.075 1.59-.469.362-1.038.544-1.704.544zm0-.974c.661 0 1.174-.319 1.54-.956.366-.638.549-1.547.549-2.727 0-.785-.084-1.453-.252-2.005-.166-.552-.405-.973-.718-1.262a1.58 1.58 0 00-1.119-.434c-.656 0-1.168.323-1.536.97-.369.643-.554 1.553-.554 2.73 0 .786.083 1.453.248 2.002.165.549.403.966.713 1.252.313.287.689.43 1.129.43zm9.455-.85v-.478c0-.33.067-.633.203-.908a1.64 1.64 0 01.602-.664c.266-.168.587-.252.965-.252.384 0 .705.084.965.252.26.166.456.387.589.664.133.275.199.577.199.908v.478c0 .33-.068.634-.204.912a1.6 1.6 0 01-.593.664c-.259.165-.578.248-.956.248-.383 0-.707-.083-.969-.248a1.64 1.64 0 01-.598-.664 2.042 2.042 0 01-.203-.912zm.903-.478v.478c0 .274.065.52.194.74.13.215.354.322.673.322.31 0 .528-.108.655-.323.13-.218.195-.465.195-.74v-.477c0-.275-.062-.52-.186-.735-.124-.218-.345-.328-.664-.328-.31 0-.532.11-.668.328a1.37 1.37 0 00-.199.735zm-5.418-4.71v-.478c0-.33.067-.633.203-.907a1.64 1.64 0 01.602-.665c.266-.168.587-.252.965-.252.384 0 .705.084.965.253.26.165.456.386.589.664.133.274.199.576.199.907v.478c0 .33-.068.634-.204.912a1.6 1.6 0 01-.593.664c-.259.165-.578.248-.956.248-.383 0-.707-.083-.969-.248a1.64 1.64 0 01-.598-.664 2.042 2.042 0 01-.203-.912zm.903-.478v.478c0 .274.064.52.194.74.13.215.354.322.673.322.31 0 .528-.107.655-.323.13-.218.195-.465.195-.739v-.478c0-.274-.062-.52-.186-.735-.124-.218-.345-.327-.664-.327-.31 0-.533.109-.668.327a1.37 1.37 0 00-.199.735zm-.567 7.366l6.233-9.066h1.009l-6.233 9.066h-1.009z" fill="#fff"/></g><path d="M193.155 26.493c-.608 0-1.145-.108-1.612-.323a2.642 2.642 0 01-1.084-.9 2.255 2.255 0 01-.385-1.31 2.401 2.401 0 01.854-1.88c.269-.222.568-.362.899-.421v-.053a1.75 1.75 0 01-1.036-.73 2.21 2.21 0 01-.381-1.289c-.003-.46.114-.872.35-1.235.236-.363.561-.649.974-.858.416-.21.89-.315 1.421-.315.525 0 .994.105 1.407.315.413.209.738.495.974.858.239.363.36.775.363 1.235-.003.481-.134.91-.394 1.288a1.747 1.747 0 01-1.022.73v.054c.327.059.622.199.885.42a2.466 2.466 0 01.868 1.881c-.003.49-.136.927-.399 1.31-.26.382-.621.681-1.084.9-.461.215-.993.323-1.598.323zm0-.974c.41 0 .764-.067 1.062-.2.298-.132.528-.32.691-.562a1.51 1.51 0 00.247-.85 1.623 1.623 0 00-.265-.907 1.802 1.802 0 00-.713-.62 2.237 2.237 0 00-1.022-.225c-.387 0-.732.075-1.036.225-.301.15-.539.357-.713.62a1.599 1.599 0 00-.252.907 1.48 1.48 0 00.235.85c.162.242.393.43.694.563.301.132.659.199 1.072.199zm0-4.303c.324 0 .612-.065.863-.195a1.474 1.474 0 00.819-1.363 1.51 1.51 0 00-.217-.801 1.409 1.409 0 00-.589-.531 1.917 1.917 0 00-.876-.19c-.34 0-.636.063-.89.19-.254.124-.45.3-.589.53a1.485 1.485 0 00-.203.802c-.003.313.066.586.208.819.144.233.343.415.597.544.254.13.546.195.877.195zm7.734 5.277c-.667 0-1.235-.182-1.704-.545-.469-.366-.828-.896-1.076-1.589-.248-.696-.372-1.538-.372-2.523 0-.98.124-1.816.372-2.51.251-.696.611-1.228 1.08-1.593.472-.37 1.039-.554 1.7-.554s1.226.185 1.695.554c.472.365.832.897 1.08 1.593.251.694.377 1.53.377 2.51 0 .986-.124 1.827-.372 2.523-.248.693-.607 1.223-1.076 1.59-.469.362-1.037.544-1.704.544zm0-.974c.661 0 1.174-.319 1.54-.956.366-.638.549-1.547.549-2.727 0-.785-.084-1.453-.252-2.005-.165-.552-.404-.973-.717-1.262a1.583 1.583 0 00-1.12-.434c-.655 0-1.167.323-1.536.97-.369.643-.553 1.553-.553 2.73 0 .786.082 1.453.247 2.002.166.549.403.966.713 1.252.313.287.689.43 1.129.43zm9.455-.85v-.478c0-.33.068-.633.204-.908.138-.277.339-.498.602-.664.265-.168.587-.252.965-.252.383 0 .705.084.965.252.259.166.455.387.588.664.133.275.199.577.199.908v.478c0 .33-.067.634-.203.912a1.613 1.613 0 01-.593.664c-.26.165-.579.248-.956.248-.384 0-.707-.083-.97-.248a1.637 1.637 0 01-.597-.664 2.043 2.043 0 01-.204-.912zm.903-.478v.478c0 .274.065.52.195.74.13.215.354.322.673.322.309 0 .528-.108.655-.323.13-.218.194-.465.194-.74v-.477c0-.275-.061-.52-.185-.735-.124-.218-.346-.328-.664-.328-.31 0-.533.11-.669.328a1.37 1.37 0 00-.199.735zm-5.418-4.71v-.478c0-.33.068-.633.204-.907.138-.278.339-.5.602-.665.265-.168.587-.252.965-.252.383 0 .705.084.965.253.259.165.455.386.588.664.133.274.199.576.199.907v.478c0 .33-.067.634-.203.912a1.613 1.613 0 01-.593.664c-.26.165-.579.248-.956.248-.384 0-.707-.083-.97-.248a1.63 1.63 0 01-.597-.664 2.043 2.043 0 01-.204-.912zm.903-.478v.478c0 .274.065.52.195.74.13.215.354.322.673.322.309 0 .528-.107.655-.323.129-.218.194-.465.194-.739v-.478c0-.274-.062-.52-.185-.735-.124-.218-.346-.327-.664-.327-.31 0-.533.109-.669.327a1.37 1.37 0 00-.199.735zm-.567 7.366l6.233-9.066h1.009l-6.232 9.066h-1.01z" fill="#3674ED"/><defs><filter id="prefix__filter0_d_850_2000" x="135.335" y="2.281" width="44.518" height="40.066" filterUnits="userSpaceOnUse" color-interpolation-filters="sRGB"><feFlood flood-opacity="0" result="BackgroundImageFix"/><feColorMatrix in="SourceAlpha" values="0 0 0 0 0 0 0 0 0 0 0 0 0 0 0 0 0 0 127 0" result="hardAlpha"/><feOffset dy=".89"/><feComposite in2="hardAlpha" operator="out"/><feColorMatrix values="0 0 0 0 0 0 0 0 0 0 0 0 0 0 0 0 0 0 0.05 0"/><feBlend in2="BackgroundImageFix" result="effect1_dropShadow_850_2000"/><feBlend in="SourceGraphic" in2="effect1_dropShadow_850_2000" result="shape"/></filter></defs></svg>