<svg viewBox="0 0 751 491" fill="none" xmlns="http://www.w3.org/2000/svg"><g filter="url(#prefix__drop-shadow-1)"><rect x="129" y="380.5" width="226.152" height="42.737" rx="8.957" fill="#E8EFFB" shape-rendering="crispEdges"/><path d="M147.976 406.493c-.667 0-1.235-.182-1.704-.545-.47-.366-.828-.895-1.076-1.589-.248-.696-.372-1.537-.372-2.523 0-.98.124-1.816.372-2.51.251-.696.611-1.228 1.08-1.593.472-.369 1.039-.554 1.7-.554s1.226.185 1.695.554c.472.365.832.897 1.08 1.593.251.694.377 1.53.377 2.51 0 .986-.124 1.827-.372 2.523-.248.694-.607 1.223-1.076 1.589-.469.363-1.037.545-1.704.545zm0-.974c.661 0 1.174-.319 1.54-.956.366-.638.549-1.547.549-2.727 0-.785-.084-1.453-.252-2.005-.165-.552-.404-.973-.717-1.262a1.584 1.584 0 00-1.12-.434c-.655 0-1.167.323-1.536.97-.369.643-.553 1.553-.553 2.731 0 .785.082 1.452.247 2.001.166.549.403.966.713 1.252.313.287.689.43 1.129.43zm9.455-.85v-.478c0-.331.068-.633.204-.908.138-.277.339-.498.602-.664.265-.168.587-.252.965-.252.383 0 .705.084.964.252.26.166.456.387.589.664.133.275.199.577.199.908v.478c0 .33-.067.634-.203.912a1.615 1.615 0 01-.593.664c-.26.165-.579.248-.956.248-.384 0-.707-.083-.97-.248a1.632 1.632 0 01-.597-.664 2.047 2.047 0 01-.204-.912zm.903-.478v.478c0 .274.065.521.195.739.13.216.354.323.673.323.309 0 .528-.107.655-.323.129-.218.194-.465.194-.739v-.478c0-.275-.062-.52-.186-.735-.123-.218-.345-.328-.663-.328-.31 0-.533.11-.669.328-.133.215-.199.46-.199.735zm-5.418-4.71v-.478c0-.331.068-.633.203-.908.139-.277.34-.498.602-.663.266-.169.588-.253.965-.253.384 0 .706.084.965.253.26.165.456.386.589.663.133.275.199.577.199.908v.478c0 .33-.068.634-.203.912a1.615 1.615 0 01-.593.664c-.26.165-.579.248-.957.248-.383 0-.706-.083-.969-.248a1.641 1.641 0 01-.598-.664 2.06 2.06 0 01-.203-.912zm.903-.478v.478c0 .274.065.521.195.739.129.216.354.323.672.323.31 0 .529-.107.656-.323.129-.218.194-.465.194-.739v-.478c0-.275-.062-.519-.186-.735-.124-.218-.345-.327-.664-.327-.309 0-.532.109-.668.327a1.37 1.37 0 00-.199.735zm-.567 7.366l6.233-9.066h1.009l-6.232 9.066h-1.01zM185.763 406.369v-.797l2.993-3.276c.351-.383.64-.717.867-1 .228-.286.396-.555.505-.806.112-.254.168-.519.168-.797 0-.318-.077-.594-.23-.827a1.497 1.497 0 00-.62-.54 2.003 2.003 0 00-.885-.191c-.348 0-.652.073-.912.217a1.488 1.488 0 00-.597.598 1.87 1.87 0 00-.209.903h-1.044c0-.531.122-.998.367-1.399a2.554 2.554 0 011.001-.938 3.005 3.005 0 011.429-.337c.532 0 1.002.112 1.412.337.411.224.732.526.965.907.234.381.35.804.35 1.27 0 .334-.06.66-.181.979-.118.315-.325.668-.62 1.058-.292.386-.698.858-1.217 1.416l-2.037 2.178v.071h4.214v.974h-5.719zm10.505.124c-.667 0-1.235-.182-1.705-.545-.469-.366-.827-.895-1.075-1.589-.248-.696-.372-1.537-.372-2.523 0-.98.124-1.816.372-2.51.251-.696.611-1.228 1.08-1.593.472-.369 1.039-.554 1.7-.554s1.226.185 1.695.554c.472.365.832.897 1.08 1.593.251.694.376 1.53.376 2.51 0 .986-.124 1.827-.372 2.523-.247.694-.606 1.223-1.075 1.589-.469.363-1.038.545-1.704.545zm0-.974c.661 0 1.174-.319 1.54-.956.366-.638.549-1.547.549-2.727 0-.785-.084-1.453-.252-2.005-.166-.552-.405-.973-.718-1.262a1.582 1.582 0 00-1.119-.434c-.656 0-1.168.323-1.536.97-.369.643-.554 1.553-.554 2.731 0 .785.083 1.452.248 2.001.165.549.403.966.713 1.252.313.287.689.43 1.129.43zm9.455-.85v-.478c0-.331.067-.633.203-.908.139-.277.34-.498.602-.664.266-.168.587-.252.965-.252.384 0 .705.084.965.252.26.166.456.387.589.664.133.275.199.577.199.908v.478c0 .33-.068.634-.204.912-.132.274-.33.496-.593.664-.259.165-.578.248-.956.248-.383 0-.707-.083-.969-.248a1.641 1.641 0 01-.598-.664 2.046 2.046 0 01-.203-.912zm.903-.478v.478c0 .274.065.521.194.739.13.216.354.323.673.323.31 0 .528-.107.655-.323.13-.218.195-.465.195-.739v-.478c0-.275-.062-.52-.186-.735-.124-.218-.345-.328-.664-.328-.31 0-.532.11-.668.328-.133.215-.199.46-.199.735zm-5.418-4.71v-.478c0-.331.067-.633.203-.908.139-.277.34-.498.602-.663.266-.169.587-.253.965-.253.384 0 .705.084.965.253.26.165.456.386.589.663.133.275.199.577.199.908v.478c0 .33-.068.634-.204.912-.132.274-.33.496-.593.664-.259.165-.578.248-.956.248-.383 0-.707-.083-.969-.248a1.641 1.641 0 01-.598-.664 2.046 2.046 0 01-.203-.912zm.903-.478v.478c0 .274.064.521.194.739.13.216.354.323.673.323.31 0 .528-.107.655-.323.13-.218.195-.465.195-.739v-.478c0-.275-.062-.519-.186-.735-.124-.218-.345-.327-.664-.327-.31 0-.533.109-.668.327a1.37 1.37 0 00-.199.735zm-.567 7.366l6.232-9.066h1.01l-6.233 9.066h-1.009zM229.844 404.51v-.903l3.984-6.304h.655v1.399h-.443l-3.01 4.763v.071h5.365v.974h-6.551zm4.267 1.859V397.303h1.045v9.066h-1.045zm6.9.124c-.667 0-1.235-.182-1.704-.545-.47-.366-.828-.895-1.076-1.589-.248-.696-.372-1.537-.372-2.523 0-.98.124-1.816.372-2.51.251-.696.611-1.228 1.08-1.593.472-.369 1.039-.554 1.7-.554s1.226.185 1.695.554c.472.365.832.897 1.08 1.593.251.694.377 1.53.377 2.51 0 .986-.124 1.827-.372 2.523-.248.694-.607 1.223-1.076 1.589-.469.363-1.037.545-1.704.545zm0-.974c.661 0 1.174-.319 1.54-.956.366-.638.549-1.547.549-2.727 0-.785-.084-1.453-.252-2.005-.165-.552-.404-.973-.717-1.262a1.584 1.584 0 00-1.12-.434c-.655 0-1.167.323-1.536.97-.369.643-.553 1.553-.553 2.731 0 .785.082 1.452.247 2.001.166.549.403.966.713 1.252.313.287.689.43 1.129.43zm9.455-.85v-.478c0-.331.068-.633.204-.908.138-.277.339-.498.602-.664.265-.168.587-.252.965-.252.383 0 .705.084.965.252.259.166.455.387.588.664.133.275.199.577.199.908v.478c0 .33-.067.634-.203.912a1.615 1.615 0 01-.593.664c-.26.165-.579.248-.956.248-.384 0-.707-.083-.97-.248a1.639 1.639 0 01-.597-.664 2.047 2.047 0 01-.204-.912zm.903-.478v.478c0 .274.065.521.195.739.13.216.354.323.673.323.309 0 .528-.107.655-.323.13-.218.194-.465.194-.739v-.478c0-.275-.062-.52-.185-.735-.124-.218-.346-.328-.664-.328-.31 0-.533.11-.669.328-.133.215-.199.46-.199.735zm-5.418-4.71v-.478c0-.331.068-.633.204-.908.138-.277.339-.498.602-.663.265-.169.587-.253.965-.253.383 0 .705.084.965.253.259.165.455.386.588.663.133.275.199.577.199.908v.478c0 .33-.067.634-.203.912a1.615 1.615 0 01-.593.664c-.26.165-.579.248-.956.248-.384 0-.707-.083-.97-.248a1.632 1.632 0 01-.597-.664 2.047 2.047 0 01-.204-.912zm.903-.478v.478c0 .274.065.521.195.739.13.216.354.323.673.323.309 0 .528-.107.655-.323.129-.218.194-.465.194-.739v-.478c0-.275-.062-.519-.185-.735-.124-.218-.346-.327-.664-.327-.31 0-.533.109-.669.327a1.37 1.37 0 00-.199.735zm-.567 7.366l6.233-9.066h1.009l-6.232 9.066h-1.01z" fill="#3674ED"/><g filter="url(#prefix__drop-shadow-3)"><rect x="264.335" y="382.281" width="44.518" height="39.176" rx="6.717" fill="#3674ED" shape-rendering="crispEdges"/><path d="M277.694 406.493a3.387 3.387 0 01-1.115-.213 2.662 2.662 0 01-1.018-.686c-.307-.325-.554-.763-.74-1.315-.186-.554-.279-1.251-.279-2.089 0-.803.076-1.514.226-2.134.151-.622.369-1.146.655-1.571a2.968 2.968 0 011.036-.974 2.839 2.839 0 011.377-.332c.507 0 .959.102 1.354.306.399.2.723.481.974.841s.413.774.487 1.244h-1.08a1.997 1.997 0 00-.584-1.014c-.289-.269-.673-.403-1.151-.403-.703 0-1.256.305-1.66.916-.401.611-.604 1.468-.607 2.572h.071a2.682 2.682 0 011.35-1.058c.278-.097.571-.146.881-.146.52 0 .995.13 1.426.39.43.256.776.612 1.035 1.066.26.452.39.97.39 1.554 0 .561-.126 1.074-.376 1.541a2.868 2.868 0 01-1.058 1.106c-.452.272-.983.404-1.594.399zm0-.974a1.84 1.84 0 001.001-.279 1.99 1.99 0 00.703-.748c.174-.313.262-.661.262-1.045 0-.375-.085-.715-.253-1.022a1.925 1.925 0 00-.686-.74 1.814 1.814 0 00-.991-.274c-.281 0-.542.056-.784.168-.242.109-.454.26-.637.452-.18.191-.322.411-.425.659a2.1 2.1 0 00.097 1.784c.171.313.404.565.699.757.299.192.636.288 1.014.288zm7.726.974c-.667 0-1.235-.182-1.705-.545-.469-.366-.827-.895-1.075-1.589-.248-.696-.372-1.537-.372-2.523 0-.98.124-1.816.372-2.51.251-.696.611-1.228 1.08-1.593.472-.369 1.039-.554 1.7-.554s1.226.185 1.695.554c.472.365.832.897 1.08 1.593.251.694.376 1.53.376 2.51 0 .986-.124 1.827-.372 2.523-.247.694-.606 1.223-1.075 1.589-.469.363-1.038.545-1.704.545zm0-.974c.661 0 1.174-.319 1.54-.956.366-.638.549-1.547.549-2.727 0-.785-.084-1.453-.252-2.005-.166-.552-.405-.973-.718-1.262a1.582 1.582 0 00-1.119-.434c-.656 0-1.168.323-1.536.97-.369.643-.554 1.553-.554 2.731 0 .785.083 1.452.248 2.001.165.549.403.966.713 1.252.313.287.689.43 1.129.43zm9.455-.85v-.478c0-.331.067-.633.203-.908.139-.277.34-.498.602-.664.266-.168.587-.252.965-.252.384 0 .705.084.965.252.26.166.456.387.589.664.133.275.199.577.199.908v.478c0 .33-.068.634-.204.912-.132.274-.33.496-.593.664-.259.165-.578.248-.956.248-.383 0-.707-.083-.969-.248a1.641 1.641 0 01-.598-.664 2.046 2.046 0 01-.203-.912zm.903-.478v.478c0 .274.065.521.194.739.13.216.354.323.673.323.31 0 .528-.107.655-.323.13-.218.195-.465.195-.739v-.478c0-.275-.062-.52-.186-.735-.124-.218-.345-.328-.664-.328-.31 0-.532.11-.668.328-.133.215-.199.46-.199.735zm-5.418-4.71v-.478c0-.331.067-.633.203-.908.139-.277.34-.498.602-.663.266-.169.587-.253.965-.253.384 0 .705.084.965.253.26.165.456.386.589.663.133.275.199.577.199.908v.478c0 .33-.068.634-.204.912-.132.274-.33.496-.593.664-.259.165-.578.248-.956.248-.383 0-.707-.083-.969-.248a1.641 1.641 0 01-.598-.664 2.046 2.046 0 01-.203-.912zm.903-.478v.478c0 .274.064.521.194.739.13.216.354.323.673.323.31 0 .528-.107.655-.323.13-.218.195-.465.195-.739v-.478c0-.275-.062-.519-.186-.735-.124-.218-.345-.327-.664-.327-.31 0-.533.109-.668.327a1.37 1.37 0 00-.199.735zm-.567 7.366l6.233-9.066h1.009l-6.233 9.066h-1.009z" fill="#fff"/></g><path d="M322.155 406.493c-.608 0-1.145-.108-1.612-.324a2.636 2.636 0 01-1.084-.898 2.257 2.257 0 01-.385-1.31 2.404 2.404 0 01.854-1.882 1.93 1.93 0 01.899-.42v-.053a1.75 1.75 0 01-1.036-.731 2.209 2.209 0 01-.381-1.288 2.19 2.19 0 01.35-1.235c.236-.363.561-.649.974-.859.416-.209.89-.314 1.421-.314.525 0 .994.105 1.407.314.413.21.738.496.974.859.239.363.36.775.363 1.235a2.241 2.241 0 01-.394 1.288 1.747 1.747 0 01-1.022.731v.053c.327.059.622.199.885.42a2.47 2.47 0 01.868 1.882 2.29 2.29 0 01-.399 1.31c-.26.381-.621.68-1.084.898-.461.216-.993.324-1.598.324zm0-.974c.41 0 .764-.067 1.062-.199a1.59 1.59 0 00.691-.563c.162-.242.245-.525.247-.849a1.625 1.625 0 00-.265-.908 1.804 1.804 0 00-.713-.62 2.244 2.244 0 00-1.022-.225 2.31 2.31 0 00-1.036.225 1.804 1.804 0 00-.713.62 1.6 1.6 0 00-.252.908c-.003.324.075.607.235.849.162.242.393.43.694.563.301.132.659.199 1.072.199zm0-4.303c.324 0 .612-.065.863-.195.254-.129.453-.311.597-.544.145-.233.219-.506.222-.819a1.507 1.507 0 00-.217-.801 1.41 1.41 0 00-.589-.531 1.916 1.916 0 00-.876-.191c-.34 0-.636.064-.89.191-.254.124-.45.301-.589.531a1.483 1.483 0 00-.203.801c-.003.313.066.586.208.819.144.233.343.415.597.544.254.13.546.195.877.195zm7.734 5.277c-.667 0-1.235-.182-1.704-.545-.469-.366-.828-.895-1.076-1.589-.248-.696-.372-1.537-.372-2.523 0-.98.124-1.816.372-2.51.251-.696.611-1.228 1.08-1.593.472-.369 1.039-.554 1.7-.554s1.226.185 1.695.554c.472.365.832.897 1.08 1.593.251.694.377 1.53.377 2.51 0 .986-.124 1.827-.372 2.523-.248.694-.607 1.223-1.076 1.589-.469.363-1.037.545-1.704.545zm0-.974c.661 0 1.174-.319 1.54-.956.366-.638.549-1.547.549-2.727 0-.785-.084-1.453-.252-2.005-.165-.552-.404-.973-.717-1.262a1.584 1.584 0 00-1.12-.434c-.655 0-1.167.323-1.536.97-.369.643-.553 1.553-.553 2.731 0 .785.082 1.452.247 2.001.166.549.403.966.713 1.252.313.287.689.43 1.129.43zm9.455-.85v-.478c0-.331.068-.633.204-.908.138-.277.339-.498.602-.664.265-.168.587-.252.965-.252.383 0 .705.084.965.252.259.166.455.387.588.664.133.275.199.577.199.908v.478c0 .33-.067.634-.203.912a1.615 1.615 0 01-.593.664c-.26.165-.579.248-.956.248-.384 0-.707-.083-.97-.248a1.639 1.639 0 01-.597-.664 2.047 2.047 0 01-.204-.912zm.903-.478v.478c0 .274.065.521.195.739.13.216.354.323.673.323.309 0 .528-.107.655-.323.13-.218.194-.465.194-.739v-.478c0-.275-.061-.52-.185-.735-.124-.218-.346-.328-.664-.328-.31 0-.533.11-.669.328-.133.215-.199.46-.199.735zm-5.418-4.71v-.478c0-.331.068-.633.204-.908.138-.277.339-.498.602-.663.265-.169.587-.253.965-.253.383 0 .705.084.965.253.259.165.455.386.588.663.133.275.199.577.199.908v.478c0 .33-.067.634-.203.912a1.615 1.615 0 01-.593.664c-.26.165-.579.248-.956.248-.384 0-.707-.083-.97-.248a1.632 1.632 0 01-.597-.664 2.047 2.047 0 01-.204-.912zm.903-.478v.478c0 .274.065.521.195.739.13.216.354.323.673.323.309 0 .528-.107.655-.323.129-.218.194-.465.194-.739v-.478c0-.275-.062-.519-.185-.735-.124-.218-.346-.327-.664-.327-.31 0-.533.109-.669.327a1.37 1.37 0 00-.199.735zm-.567 7.366l6.233-9.066h1.009l-6.232 9.066h-1.01z" fill="#3674ED"/></g><defs><filter id="prefix__drop-shadow-1" x="89" y="352.5" width="306.152" height="122.737" filterUnits="userSpaceOnUse" color-interpolation-filters="sRGB"><feFlood flood-opacity="0" result="BackgroundImageFix"/><feColorMatrix in="SourceAlpha" values="0 0 0 0 0 0 0 0 0 0 0 0 0 0 0 0 0 0 127 0" result="hardAlpha"/><feOffset dy="12"/><feGaussianBlur stdDeviation="20"/><feComposite in2="hardAlpha" operator="out"/><feColorMatrix values="0 0 0 0 0 0 0 0 0 0.4 0 0 0 0 0.713726 0 0 0 0.24 0"/><feBlend in2="BackgroundImageFix" result="drop-shadow-4"/><feColorMatrix in="SourceAlpha" values="0 0 0 0 0 0 0 0 0 0 0 0 0 0 0 0 0 0 127 0" result="hardAlpha"/><feMorphology radius="2" in="SourceAlpha" result="drop-shadow-2"/><feOffset dy="4"/><feGaussianBlur stdDeviation="3"/><feComposite in2="hardAlpha" operator="out"/><feColorMatrix values="0 0 0 0 0 0 0 0 0 0 0 0 0 0 0 0 0 0 0.08 0"/><feBlend in2="drop-shadow-4" result="drop-shadow-2"/><feBlend in="SourceGraphic" in2="drop-shadow-2" result="shape"/></filter><filter id="prefix__drop-shadow-3" x="264.335" y="382.281" width="44.518" height="40.066" filterUnits="userSpaceOnUse" color-interpolation-filters="sRGB"><feFlood flood-opacity="0" result="BackgroundImageFix"/><feColorMatrix in="SourceAlpha" values="0 0 0 0 0 0 0 0 0 0 0 0 0 0 0 0 0 0 127 0" result="hardAlpha"/><feOffset dy=".89"/><feComposite in2="hardAlpha" operator="out"/><feColorMatrix values="0 0 0 0 0 0 0 0 0 0 0 0 0 0 0 0 0 0 0.05 0"/><feBlend in2="BackgroundImageFix" result="drop-shadow-4"/><feBlend in="SourceGraphic" in2="drop-shadow-4" result="shape"/></filter></defs></svg>