<svg viewBox="0 0 759 491" fill="none" xmlns="http://www.w3.org/2000/svg"><g filter="url(#prefix__filter0_dd_850_1986)"><rect x="534" y="240.5" width="185" height="39.262" rx="3.978" fill="#fff"/><path d="M549.03 260.573h-6.189v-.884h6.189v.884z" fill="#3674ED"/><path d="M561.129 256.944c-.51 0-.962-.105-1.355-.316a2.31 2.31 0 01-.919-.891c-.223-.384-.334-.832-.334-1.346v-4.266l.687-.004v4.182c0 .346.059.647.176.9.118.251.271.458.46.622a2.04 2.04 0 001.285.474c.217 0 .438-.039.664-.116.226-.078.433-.197.622-.358.189-.164.342-.371.46-.622.117-.253.176-.554.176-.9v-4.182h.687v4.27c0 .514-.111.962-.334 1.346a2.343 2.343 0 01-.924.891c-.39.211-.84.316-1.351.316zm7.53-.139v-2.558c0-.278-.026-.534-.079-.766a1.742 1.742 0 00-.255-.612 1.158 1.158 0 00-.45-.409 1.421 1.421 0 00-.668-.144 1.54 1.54 0 00-.641.126 1.251 1.251 0 00-.464.362 1.61 1.61 0 00-.283.566 2.717 2.717 0 00-.098.761l-.482-.107c0-.513.089-.945.269-1.295.179-.349.427-.614.742-.793.316-.18.678-.27 1.087-.27.3 0 .561.047.784.14.226.093.416.218.571.376.158.157.285.339.38.543.096.201.166.416.209.645.044.226.065.452.065.678v2.757h-.687zm-3.625 0v-5.013h.618v1.234h.069v3.779h-.687zm7.434.139c-.467 0-.866-.116-1.197-.348a2.257 2.257 0 01-.761-.952 3.295 3.295 0 01-.265-1.35c0-.499.087-.947.26-1.346.176-.4.429-.715.757-.947.328-.232.721-.348 1.179-.348.47 0 .866.114 1.188.343.322.229.565.543.729.942.167.396.25.848.25 1.356 0 .498-.082.948-.246 1.35a2.182 2.182 0 01-.724.952c-.319.232-.708.348-1.17.348zm.07-.636c.356 0 .65-.087.882-.26.232-.173.405-.411.52-.715.114-.306.172-.653.172-1.039 0-.393-.058-.74-.172-1.04a1.523 1.523 0 00-.52-.71c-.229-.17-.518-.256-.868-.256-.359 0-.656.089-.891.265-.235.176-.41.416-.525.719a2.96 2.96 0 00-.167 1.022c0 .38.057.724.172 1.03.118.303.292.543.524.719.233.177.523.265.873.265zm1.574.497v-3.774h-.075v-2.91h.687v6.684h-.612zm4.036.139c-.489 0-.913-.108-1.272-.325a2.205 2.205 0 01-.831-.914c-.198-.393-.297-.854-.297-1.384 0-.547.097-1.021.292-1.42.195-.399.469-.707.822-.924.356-.216.775-.324 1.258-.324.495 0 .917.114 1.267.343.35.226.614.551.794.975.179.424.261.93.246 1.518h-.697v-.242c-.012-.65-.153-1.14-.422-1.471-.266-.331-.656-.497-1.17-.497-.538 0-.951.175-1.239.525-.285.349-.427.848-.427 1.494 0 .631.142 1.122.427 1.472.288.346.695.519 1.221.519.359 0 .671-.082.937-.246.27-.167.482-.406.636-.719l.636.246c-.198.436-.49.775-.877 1.017a2.425 2.425 0 01-1.304.357zm-1.917-2.455v-.571h3.829v.571h-3.829zm7.096 2.45c-.588 0-1.072-.127-1.453-.38a1.59 1.59 0 01-.696-1.059l.696-.116c.075.285.243.512.506.683.267.167.595.25.984.25.381 0 .681-.079.901-.236a.768.768 0 00.329-.655.616.616 0 00-.106-.376c-.068-.099-.209-.19-.423-.274a10.172 10.172 0 00-.956-.297c-.455-.124-.811-.247-1.067-.371-.257-.124-.44-.266-.548-.427a1.066 1.066 0 01-.163-.599c0-.285.081-.534.242-.747.161-.217.383-.384.668-.501.285-.121.616-.181.993-.181.378 0 .715.061 1.012.185.3.121.542.291.724.511.183.219.291.475.325.766l-.696.125a1 1 0 00-.441-.696c-.244-.174-.555-.263-.933-.269-.356-.01-.645.058-.868.204-.223.142-.334.332-.334.571 0 .133.04.247.121.343.08.093.226.181.436.265.213.083.517.175.91.274.461.117.823.241 1.086.371.263.13.45.283.561.459a1.2 1.2 0 01.168.655c0 .473-.177.846-.53 1.118-.349.27-.832.404-1.448.404zm3.1-6.099v-.766h.682v.766h-.682zm0 5.965v-5.013h.682v5.013h-.682zm2.074 0v-5.013h.612v1.207l-.12-.158a1.687 1.687 0 01.51-.72c.13-.114.282-.201.455-.26.173-.061.348-.097.525-.106.176-.013.337 0 .482.037v.64a1.655 1.655 0 00-.598-.032 1.137 1.137 0 00-.599.26c-.167.13-.293.286-.376.469a1.978 1.978 0 00-.167.575 4.34 4.34 0 00-.042.599v2.502h-.682zm5.375.139c-.489 0-.912-.108-1.271-.325a2.205 2.205 0 01-.831-.914c-.198-.393-.297-.854-.297-1.384 0-.547.097-1.021.292-1.42.195-.399.469-.707.822-.924.356-.216.775-.324 1.258-.324.495 0 .917.114 1.267.343.349.226.614.551.793.975.18.424.262.93.246 1.518h-.696v-.242c-.012-.65-.153-1.14-.422-1.471-.266-.331-.656-.497-1.17-.497-.538 0-.951.175-1.239.525-.285.349-.427.848-.427 1.494 0 .631.142 1.122.427 1.472.288.346.695.519 1.221.519.359 0 .671-.082.937-.246a1.72 1.72 0 00.636-.719l.636.246a2.284 2.284 0 01-.877 1.017 2.426 2.426 0 01-1.305.357zm-1.917-2.455v-.571h3.83v.571h-3.83zm7.171 2.455c-.467 0-.866-.116-1.197-.348a2.257 2.257 0 01-.761-.952 3.295 3.295 0 01-.265-1.35c0-.499.087-.947.26-1.346.176-.4.428-.715.757-.947.328-.232.72-.348 1.178-.348.471 0 .867.114 1.189.343.322.229.564.543.728.942.168.396.251.848.251 1.356 0 .498-.082.948-.246 1.35a2.182 2.182 0 01-.724.952c-.319.232-.709.348-1.17.348zm.07-.636c.356 0 .65-.087.882-.26.232-.173.405-.411.52-.715.114-.306.171-.653.171-1.039 0-.393-.057-.74-.171-1.04a1.523 1.523 0 00-.52-.71c-.229-.17-.518-.256-.868-.256-.359 0-.656.089-.891.265-.235.176-.41.416-.525.719a2.96 2.96 0 00-.167 1.022c0 .38.057.724.172 1.03.117.303.292.543.524.719.232.177.523.265.873.265zm1.573.497v-3.774h-.074v-2.91h.687v6.684h-.613zm3.774 0v-6.684h2.58c.375 0 .701.077.98.232a1.69 1.69 0 01.882 1.49c0 .359-.096.679-.288.961a1.49 1.49 0 01-.771.58l-.009-.228c.433.124.774.341 1.021.65.248.31.372.684.372 1.123 0 .387-.082.721-.246 1.003a1.653 1.653 0 01-.692.645 2.242 2.242 0 01-1.035.228h-2.794zm.687-.655h1.94c.272 0 .517-.048.733-.144.217-.099.387-.238.511-.417.127-.18.19-.396.19-.65a1.307 1.307 0 00-.64-1.142 1.242 1.242 0 00-.669-.181h-2.065v2.534zm0-3.179h1.889c.213 0 .408-.048.585-.144a1.116 1.116 0 00.575-.993.992.992 0 00-.329-.771c-.217-.198-.494-.297-.831-.297h-1.889v2.205zm7.127 3.973c-.489 0-.913-.108-1.272-.325a2.212 2.212 0 01-.831-.914c-.198-.393-.297-.854-.297-1.384 0-.547.098-1.021.293-1.42.195-.399.469-.707.821-.924.356-.216.776-.324 1.258-.324.495 0 .918.114 1.267.343.35.226.615.551.794.975.18.424.262.93.246 1.518h-.696v-.242c-.012-.65-.153-1.14-.422-1.471-.267-.331-.656-.497-1.17-.497-.539 0-.952.175-1.239.525-.285.349-.427.848-.427 1.494 0 .631.142 1.122.427 1.472.287.346.694.519 1.22.519.359 0 .672-.082.938-.246a1.72 1.72 0 00.636-.719l.636.246a2.28 2.28 0 01-.878 1.017 2.42 2.42 0 01-1.304.357zm-1.917-2.455v-.571h3.829v.571h-3.829zm8.847 2.316v-2.558c0-.278-.027-.534-.079-.766a1.762 1.762 0 00-.256-.612 1.158 1.158 0 00-.45-.409 1.418 1.418 0 00-.668-.144 1.54 1.54 0 00-.641.126 1.26 1.26 0 00-.464.362 1.61 1.61 0 00-.283.566 2.719 2.719 0 00-.097.761l-.483-.107c0-.513.09-.945.269-1.295a1.86 1.86 0 01.743-.793 2.15 2.15 0 011.086-.27c.3 0 .561.047.784.14.226.093.416.218.571.376.158.157.285.339.381.543.096.201.165.416.209.645.043.226.065.452.065.678v2.757h-.687zm-3.625 0v-6.684h.617v3.773h.07v2.911h-.687zm6.95.139c-.377 0-.694-.068-.951-.204a1.383 1.383 0 01-.571-.543 1.48 1.48 0 01-.19-.738 1.4 1.4 0 01.162-.697c.111-.195.262-.354.45-.478.192-.123.413-.218.664-.283.254-.062.534-.116.84-.162.31-.05.611-.092.905-.126.297-.037.557-.072.78-.106l-.241.148c.009-.495-.087-.862-.288-1.1-.201-.238-.551-.357-1.049-.357-.344 0-.634.077-.873.232-.235.155-.4.399-.496.733l-.664-.195c.114-.448.345-.797.691-1.044.347-.248.797-.371 1.351-.371.458 0 .847.086 1.165.259.322.171.549.418.683.743.061.146.102.308.12.487.019.18.028.363.028.548v3.115h-.608v-1.258l.176.074c-.17.43-.434.758-.793.984-.359.226-.789.339-1.291.339zm.079-.59c.319 0 .597-.057.836-.171a1.513 1.513 0 00.858-1.147 2.47 2.47 0 00.061-.529c.003-.195.004-.34.004-.436l.26.134a39.54 39.54 0 01-.756.093c-.269.031-.536.067-.799.107a6.71 6.71 0 00-.705.144c-.142.04-.28.097-.413.172a.962.962 0 00-.33.287.778.778 0 00-.125.451.89.89 0 00.107.422.874.874 0 00.352.339c.164.09.381.134.65.134zm4.819.451l-1.819-5.013h.692l1.48 4.122 1.472-4.122h.7l-1.819 5.013h-.706zm3.452-5.965v-.766h.682v.766h-.682zm0 5.965v-5.013h.682v5.013h-.682zm4.167.139c-.498 0-.923-.113-1.276-.339a2.197 2.197 0 01-.812-.937 3.18 3.18 0 01-.284-1.374c0-.526.096-.988.288-1.384.192-.396.464-.704.817-.923.356-.223.778-.334 1.267-.334.502 0 .929.112 1.281.338.356.223.627.534.813.933.188.396.283.853.283 1.37 0 .526-.095.988-.283 1.387a2.168 2.168 0 01-.817.929c-.356.223-.782.334-1.277.334zm0-.655c.557 0 .972-.184 1.244-.552.272-.371.409-.852.409-1.443 0-.607-.138-1.09-.413-1.449-.273-.359-.686-.538-1.24-.538-.374 0-.684.085-.928.255a1.518 1.518 0 00-.543.701 2.78 2.78 0 00-.177 1.031c0 .603.14 1.087.418 1.452.279.362.689.543 1.23.543zm3.401.516v-5.013h.612v1.207l-.12-.158a1.687 1.687 0 01.51-.72c.13-.114.282-.201.455-.26.173-.061.348-.097.525-.106.176-.013.337 0 .482.037v.64a1.655 1.655 0 00-.598-.032 1.137 1.137 0 00-.599.26c-.167.13-.293.286-.376.469a1.978 1.978 0 00-.167.575 4.34 4.34 0 00-.042.599v2.502h-.682z" fill="#000"/><path d="M560.298 271.576c-.353 0-.671-.082-.955-.246a1.84 1.84 0 01-.915-1.624v-2.227a1.842 1.842 0 011.87-1.87c.353 0 .67.082.951.246a1.842 1.842 0 01.919 1.624v2.227a1.827 1.827 0 01-.919 1.624 1.851 1.851 0 01-.951.246zm0-.565c.236 0 .451-.057.644-.171.194-.116.348-.271.462-.465a1.24 1.24 0 00.171-.641v-2.283a1.25 1.25 0 00-.171-.645 1.284 1.284 0 00-.462-.461 1.219 1.219 0 00-.644-.175 1.29 1.29 0 00-1.106.636 1.25 1.25 0 00-.171.645v2.283c0 .234.057.447.171.641.114.194.268.349.461.465.194.114.409.171.645.171zm5.016.565c-.353 0-.671-.082-.955-.246a1.85 1.85 0 01-.669-.669 1.871 1.871 0 01-.246-.955v-2.227a1.851 1.851 0 01.915-1.624c.284-.164.602-.246.955-.246.352 0 .669.082.95.246.284.165.508.389.673.673.164.281.246.598.246.951v2.227c0 .353-.082.672-.246.955a1.838 1.838 0 01-1.623.915zm0-.565c.236 0 .45-.057.644-.171.194-.116.348-.271.462-.465a1.24 1.24 0 00.171-.641v-2.283a1.25 1.25 0 00-.171-.645 1.284 1.284 0 00-.462-.461 1.221 1.221 0 00-.644-.175 1.281 1.281 0 00-1.106.636 1.24 1.24 0 00-.172.645v2.283c0 .234.057.447.172.641a1.3 1.3 0 00.461.465c.194.114.408.171.645.171zm3.464-.191v-.68h.68v.68h-.68zm.004-2.343v-.68h.68v.68h-.68zm4.084 3.099c-.353 0-.671-.082-.955-.246a1.84 1.84 0 01-.915-1.624v-2.227a1.842 1.842 0 011.87-1.87c.353 0 .67.082.951.246a1.842 1.842 0 01.919 1.624v2.227a1.827 1.827 0 01-.919 1.624 1.851 1.851 0 01-.951.246zm0-.565c.236 0 .451-.057.645-.171.193-.116.347-.271.461-.465a1.24 1.24 0 00.171-.641v-2.283a1.25 1.25 0 00-.171-.645 1.29 1.29 0 00-1.106-.636c-.236 0-.451.058-.644.175a1.284 1.284 0 00-.462.461 1.25 1.25 0 00-.171.645v2.283c0 .234.057.447.171.641.114.194.268.349.462.465.193.114.408.171.644.171zm5.016.565c-.353 0-.671-.082-.955-.246a1.84 1.84 0 01-.915-1.624v-2.227a1.842 1.842 0 011.87-1.87c.353 0 .67.082.951.246a1.842 1.842 0 01.919 1.624v2.227a1.827 1.827 0 01-.919 1.624 1.851 1.851 0 01-.951.246zm0-.565c.236 0 .451-.057.644-.171.194-.116.348-.271.462-.465a1.24 1.24 0 00.171-.641v-2.283a1.25 1.25 0 00-.171-.645 1.284 1.284 0 00-.462-.461 1.219 1.219 0 00-.644-.175 1.29 1.29 0 00-1.106.636 1.25 1.25 0 00-.171.645v2.283c0 .234.057.447.171.641.114.194.268.349.461.465.194.114.409.171.645.171zm3.464-.191v-.68h.68v.68h-.68zm.004-2.343v-.68h.68v.68h-.68zm4.084 3.099a1.87 1.87 0 01-.954-.246 1.842 1.842 0 01-.669-.669 1.871 1.871 0 01-.246-.955v-2.227a1.851 1.851 0 01.915-1.624 1.87 1.87 0 01.954-.246c.353 0 .67.082.951.246.284.165.508.389.673.673.164.281.246.598.246.951v2.227c0 .353-.082.672-.246.955a1.838 1.838 0 01-1.624.915zm0-.565c.237 0 .451-.057.645-.171a1.31 1.31 0 00.462-.465 1.24 1.24 0 00.171-.641v-2.283a1.25 1.25 0 00-.171-.645 1.292 1.292 0 00-1.107-.636 1.292 1.292 0 00-1.106.636 1.25 1.25 0 00-.171.645v2.283c0 .234.057.447.171.641.115.194.268.349.462.465.194.114.408.171.644.171zm4.893.565c-.358 0-.675-.071-.951-.214a1.632 1.632 0 01-.645-.601 1.764 1.764 0 01-.23-.911c0-.356.086-.671.258-.947.173-.279.435-.49.788-.633l-.008.231a1.293 1.293 0 01-.672-.533 1.518 1.518 0 01-.231-.82c0-.318.073-.591.219-.819.146-.231.345-.409.597-.533.254-.125.546-.187.875-.187.329 0 .62.062.875.187.255.124.455.302.601.533.146.228.219.501.219.819 0 .3-.075.572-.223.816-.146.244-.37.423-.672.537l-.02-.231c.352.141.616.35.791.629.178.278.267.595.267.951 0 .347-.078.651-.235.911a1.614 1.614 0 01-.648.601 2.046 2.046 0 01-.955.214zm0-.561c.361 0 .654-.099.879-.298.226-.202.338-.491.338-.867 0-.382-.111-.671-.334-.868-.223-.199-.517-.298-.883-.298s-.659.099-.879.298c-.221.197-.331.486-.331.868 0 .376.112.665.335.867.222.199.514.298.875.298zm0-2.896c.318 0 .577-.081.776-.243.199-.164.298-.407.298-.728s-.099-.561-.298-.72c-.199-.162-.458-.242-.776-.242s-.577.08-.776.242c-.196.159-.294.399-.294.72 0 .321.098.564.294.728.199.162.458.243.776.243z" fill="#6891CF"/><path d="M703.749 252.363c-.608 0-1.105.497-1.105 1.105s.497 1.105 1.105 1.105 1.105-.497 1.105-1.105-.497-1.105-1.105-1.105zm6.631 0c-.608 0-1.105.497-1.105 1.105s.497 1.105 1.105 1.105 1.105-.497 1.105-1.105-.497-1.105-1.105-1.105zm-3.316 0c-.607 0-1.105.497-1.105 1.105s.498 1.105 1.105 1.105c.608 0 1.106-.497 1.106-1.105s-.498-1.105-1.106-1.105z" fill="#3674ED"/><path d="M684.999 270.544c-.358 0-.675-.071-.951-.215a1.622 1.622 0 01-.645-.6 1.765 1.765 0 01-.23-.912c0-.355.086-.671.258-.946.173-.279.435-.49.788-.633l-.008.231a1.298 1.298 0 01-.672-.533 1.518 1.518 0 01-.231-.82c0-.318.073-.591.219-.819.146-.231.345-.409.597-.534.254-.124.546-.187.875-.187.329 0 .621.063.875.187.255.125.455.303.601.534.146.228.219.501.219.819 0 .3-.075.572-.223.816-.146.244-.37.423-.672.537l-.02-.231c.352.141.616.35.791.629.178.278.267.595.267.95 0 .348-.078.652-.235.912a1.605 1.605 0 01-.648.6 2.034 2.034 0 01-.955.215zm0-.561c.361 0 .654-.099.879-.298.226-.202.338-.491.338-.868 0-.381-.111-.671-.334-.867-.223-.199-.517-.298-.883-.298s-.659.099-.879.298c-.221.196-.331.486-.331.867 0 .377.112.666.335.868.222.199.514.298.875.298zm0-2.896c.318 0 .577-.081.776-.243.199-.164.298-.407.298-.728s-.099-.561-.298-.72c-.199-.162-.458-.243-.776-.243s-.577.081-.776.243c-.196.159-.294.399-.294.72 0 .321.098.564.294.728.199.162.458.243.776.243zm3.346 2.701v-.68h.681v.68h-.681zm.004-2.343v-.68h.681v.68h-.681zm4.085 3.099a1.829 1.829 0 01-1.87-1.87v-2.228a1.848 1.848 0 01.915-1.623c.284-.164.602-.247.955-.247s.67.083.951.247a1.848 1.848 0 01.919 1.623v2.228c0 .353-.082.671-.247.955a1.842 1.842 0 01-1.623.915zm0-.565c.236 0 .451-.057.644-.171.194-.117.348-.272.462-.465a1.24 1.24 0 00.171-.641v-2.284c0-.236-.057-.45-.171-.644a1.279 1.279 0 00-.462-.462 1.228 1.228 0 00-.644-.175 1.284 1.284 0 00-1.106.637 1.246 1.246 0 00-.171.644v2.284c0 .234.057.447.171.641.114.193.268.348.461.465.194.114.409.171.645.171zm3.452.446l2.109-5.16h-2.654v-.569h3.278v.569l-2.104 5.16h-.629zm5.201 0l1.973-5.729h.776l1.974 5.729h-.609l-1.874-5.403h.231l-1.862 5.403h-.609zm.879-1.389v-.549h2.96v.549h-2.96zm4.721 1.389v-5.729h.537l2.252 4.818 2.24-4.818h.545v5.725h-.557v-4.42l-2.041 4.424h-.378l-2.037-4.424v4.424h-.561z" fill="#6B7280"/></g><defs><filter id="prefix__filter0_dd_850_1986" x="494" y="212.5" width="265" height="119.262" filterUnits="userSpaceOnUse" color-interpolation-filters="sRGB"><feFlood flood-opacity="0" result="BackgroundImageFix"/><feColorMatrix in="SourceAlpha" values="0 0 0 0 0 0 0 0 0 0 0 0 0 0 0 0 0 0 127 0" result="hardAlpha"/><feOffset dy="12"/><feGaussianBlur stdDeviation="20"/><feComposite in2="hardAlpha" operator="out"/><feColorMatrix values="0 0 0 0 0 0 0 0 0 0.4 0 0 0 0 0.713726 0 0 0 0.24 0"/><feBlend in2="BackgroundImageFix" result="effect1_dropShadow_850_1986"/><feColorMatrix in="SourceAlpha" values="0 0 0 0 0 0 0 0 0 0 0 0 0 0 0 0 0 0 127 0" result="hardAlpha"/><feMorphology radius="2" in="SourceAlpha" result="effect2_dropShadow_850_1986"/><feOffset dy="4"/><feGaussianBlur stdDeviation="3"/><feComposite in2="hardAlpha" operator="out"/><feColorMatrix values="0 0 0 0 0 0 0 0 0 0 0 0 0 0 0 0 0 0 0.08 0"/><feBlend in2="effect1_dropShadow_850_1986" result="effect2_dropShadow_850_1986"/><feBlend in="SourceGraphic" in2="effect2_dropShadow_850_1986" result="shape"/></filter></defs></svg>