<svg viewBox="0 0 185 40" fill="none" xmlns="http://www.w3.org/2000/svg"><rect width="185" height="40" rx="4" fill="#FFF"/><path d="M9.946 19.88a1.49 1.49 0 01-1.094-.454 1.49 1.49 0 01-.453-1.094c0-.427.151-.792.453-1.094a1.49 1.49 0 011.094-.453c.428 0 .792.151 1.094.453.302.302.453.667.453 1.094 0 .428-.15.792-.453 1.094a1.49 1.49 0 01-1.094.454zm0-.885c.184 0 .34-.064.47-.193a.638.638 0 00.193-.47.638.638 0 00-.193-.47.638.638 0 00-.47-.193.638.638 0 00-.47.194.638.638 0 00-.193.47c0 .184.065.34.194.469.129.129.285.193.47.193zm3.979 4.863a1.49 1.49 0 01-1.094-.453 1.49 1.49 0 01-.454-1.094c0-.427.152-.792.454-1.094a1.49 1.49 0 011.094-.453c.427 0 .792.15 1.094.453.302.302.453.667.453 1.094 0 .427-.151.792-.453 1.094a1.49 1.49 0 01-1.094.453zm0-.884c.184 0 .34-.065.47-.194a.638.638 0 00.193-.47.638.638 0 00-.194-.469.638.638 0 00-.47-.193.638.638 0 00-.469.193.638.638 0 00-.193.47c0 .184.064.34.193.47.13.128.286.193.47.193zm-4.907.884l-.619-.619 6.454-6.454.619.619-6.454 6.454z" fill="#3674ED"/><path d="M24.52 16.996v-6.684h4.178v.654h-3.495v2.312h2.938v.654h-2.938v2.41h3.495v.654h-4.177zm6.01 2.228l.97-2.632.014.78-2.196-5.39h.724l1.801 4.508h-.297l1.662-4.507h.696l-2.692 7.24h-.682zm6.12-2.09c-.489 0-.912-.108-1.271-.324a2.205 2.205 0 01-.831-.914c-.198-.393-.297-.855-.297-1.384 0-.547.097-1.02.292-1.42.195-.4.469-.707.822-.924.355-.216.775-.324 1.258-.324.495 0 .917.114 1.267.343.35.226.614.55.793.975.18.424.262.93.246 1.518h-.696v-.242c-.012-.65-.153-1.14-.422-1.471-.266-.331-.656-.497-1.17-.497-.538 0-.951.175-1.24.525-.284.35-.426.847-.426 1.494 0 .631.142 1.122.427 1.471.288.347.694.52 1.22.52.36 0 .672-.082.938-.246a1.72 1.72 0 00.636-.72l.636.247c-.198.436-.49.775-.877 1.017a2.422 2.422 0 01-1.305.357zm-1.917-2.454v-.572h3.83v.572h-3.83zm9.791 2.455c-.665 0-1.227-.147-1.685-.441a2.795 2.795 0 01-1.04-1.23c-.235-.523-.352-1.127-.352-1.81 0-.684.117-1.288.352-1.81a2.765 2.765 0 011.04-1.226c.458-.297 1.02-.446 1.685-.446.777 0 1.411.2 1.903.6.492.395.83.928 1.012 1.596l-.696.181c-.143-.53-.398-.948-.766-1.258-.368-.31-.853-.464-1.453-.464-.523 0-.958.12-1.304.357a2.19 2.19 0 00-.785.998c-.173.424-.263.915-.269 1.472-.003.557.082 1.047.255 1.471.177.424.44.757.79.998.352.238.79.357 1.313.357.6 0 1.084-.154 1.453-.464.368-.312.623-.732.766-1.258l.696.181c-.183.669-.52 1.203-1.012 1.602-.492.396-1.126.594-1.903.594zm6.032 0c-.498 0-.923-.113-1.276-.339a2.205 2.205 0 01-.812-.938c-.19-.399-.284-.857-.284-1.373 0-.526.096-.988.288-1.384.192-.396.464-.704.817-.923.356-.223.778-.335 1.267-.335.502 0 .929.113 1.281.34.356.222.627.533.813.932.189.396.283.853.283 1.37 0 .526-.094.988-.283 1.387a2.17 2.17 0 01-.817.929c-.356.223-.782.334-1.277.334zm0-.655c.557 0 .972-.184 1.244-.552.273-.371.409-.853.409-1.444 0-.606-.138-1.089-.413-1.448-.273-.359-.686-.538-1.24-.538-.374 0-.683.085-.928.255-.241.167-.422.4-.543.701-.118.297-.176.64-.176 1.03 0 .604.139 1.088.417 1.453.279.362.689.543 1.23.543zm7.021.516v-2.558c0-.278-.026-.534-.079-.766a1.767 1.767 0 00-.255-.613 1.167 1.167 0 00-.45-.408 1.423 1.423 0 00-.669-.144c-.241 0-.455.042-.64.126a1.262 1.262 0 00-.464.362 1.621 1.621 0 00-.284.566 2.72 2.72 0 00-.097.761l-.483-.107c0-.513.09-.945.27-1.295.179-.35.427-.614.742-.793.316-.18.678-.27 1.086-.27.3 0 .562.047.785.14.226.092.416.218.57.376.158.157.285.338.381.543.096.2.166.416.21.645.042.226.064.452.064.678v2.757h-.687zm-3.625 0v-5.013h.617v1.234h.07v3.779h-.687zm8.246 0a3.34 3.34 0 01-.836.07 1.851 1.851 0 01-.733-.177 1.058 1.058 0 01-.487-.492 1.446 1.446 0 01-.149-.562c-.006-.192-.01-.41-.01-.654v-4.59h.678v4.562c0 .21.002.387.005.529.006.14.039.263.098.371a.698.698 0 00.529.372c.244.04.546.03.905-.028v.599zm-3.286-4.428v-.585h3.286v.585h-3.286zm5.708 4.567c-.378 0-.695-.068-.952-.204a1.385 1.385 0 01-.57-.543 1.482 1.482 0 01-.191-.739c0-.272.054-.504.163-.696.11-.195.26-.354.45-.478.191-.123.413-.218.663-.283a9.71 9.71 0 01.84-.162c.31-.05.612-.092.906-.126.297-.037.557-.072.78-.106l-.242.148c.01-.495-.087-.862-.288-1.1-.2-.238-.55-.357-1.049-.357-.343 0-.634.077-.872.232-.236.154-.401.399-.497.733l-.664-.195c.115-.449.345-.797.692-1.044.346-.248.797-.371 1.35-.371.459 0 .847.086 1.166.26.321.17.549.417.682.742.062.146.102.308.12.487.02.18.028.362.028.548v3.115h-.608v-1.258l.177.074c-.17.43-.435.758-.794.984-.359.226-.789.339-1.29.339zm.079-.59c.318 0 .597-.057.835-.171a1.51 1.51 0 00.859-1.147c.037-.16.057-.337.06-.529.003-.195.005-.34.005-.436l.26.134c-.232.031-.484.062-.757.093-.27.031-.535.067-.798.107a6.88 6.88 0 00-.706.144c-.142.04-.28.097-.413.171a.954.954 0 00-.33.288.773.773 0 00-.125.45.9.9 0 00.107.423c.074.136.192.249.353.339.164.09.38.134.65.134zm5.724.59c-.504 0-.931-.113-1.28-.339a2.16 2.16 0 01-.8-.933c-.179-.4-.272-.857-.278-1.374.007-.526.102-.987.288-1.383.186-.4.453-.709.803-.928.35-.223.774-.335 1.272-.335.507 0 .948.124 1.323.372.377.247.636.586.775 1.016l-.668.214a1.412 1.412 0 00-.562-.696 1.55 1.55 0 00-.873-.251c-.368 0-.673.085-.914.255-.242.167-.421.4-.539.701-.117.3-.177.645-.18 1.035.006.6.145 1.083.417 1.448.272.362.678.543 1.216.543.34 0 .63-.077.868-.232.242-.158.424-.387.548-.687l.687.205c-.186.445-.458.786-.817 1.02-.359.233-.788.349-1.286.349zm5.79-.14c-.281.06-.56.083-.835.07a1.85 1.85 0 01-.734-.176 1.058 1.058 0 01-.487-.492 1.446 1.446 0 01-.148-.562c-.007-.192-.01-.41-.01-.654v-4.59h.678v4.562c0 .21.001.387.004.529.007.14.04.263.098.371a.698.698 0 00.53.372c.244.04.545.03.904-.028v.599zm-3.286-4.428v-.584h3.286v.585h-3.286zm6.04 1.797v-.585h2.784v.585h-2.785zm8.11 2.77c-.418 0-.799-.1-1.142-.3a2.322 2.322 0 01-.817-.827 2.32 2.32 0 01-.302-1.179v-2.316c0-.449.1-.848.302-1.198.2-.352.475-.63.821-.83.35-.205.746-.307 1.189-.307.38 0 .733.084 1.058.25.328.168.595.402.803.702l-.525.431a1.589 1.589 0 00-1.337-.733c-.312 0-.59.076-.835.227a1.642 1.642 0 00-.784 1.397v1.458l-.172-.195c.195-.306.45-.554.766-.743a2.004 2.004 0 011.04-.283 2.18 2.18 0 012.2 2.214c0 .412-.104.786-.311 1.124a2.31 2.31 0 01-.822.807c-.34.201-.718.302-1.133.302zm0-.663c.29 0 .555-.07.793-.209.242-.139.432-.328.571-.566.142-.238.214-.503.214-.794 0-.29-.072-.555-.214-.793a1.543 1.543 0 00-.566-.571 1.519 1.519 0 00-.794-.214 1.58 1.58 0 00-1.365.784c-.139.239-.208.503-.208.794 0 .288.07.551.208.79a1.544 1.544 0 001.36.78zm5.677.664c-.411 0-.783-.096-1.114-.288a2.142 2.142 0 01-.78-.78 2.18 2.18 0 01-.287-1.114v-2.599a2.156 2.156 0 011.067-1.894 2.18 2.18 0 011.114-.288 2.156 2.156 0 011.894 1.073c.192.328.288.698.288 1.109v2.6a2.13 2.13 0 01-1.072 1.894 2.157 2.157 0 01-1.11.287zm0-.66c.276 0 .526-.066.752-.199.226-.136.406-.317.538-.543.134-.226.2-.475.2-.747V12.32c0-.275-.066-.525-.2-.751a1.496 1.496 0 00-.538-.539 1.428 1.428 0 00-.752-.204 1.496 1.496 0 00-1.29.743c-.133.226-.2.476-.2.752v2.664c0 .272.067.521.2.747.133.226.312.407.538.543.226.133.477.2.752.2zm4.134.52l-.464-.464 6.234-6.22.464.46-6.234 6.225zm4.842.14c-.307 0-.587-.074-.841-.223a1.768 1.768 0 01-.603-.603 1.612 1.612 0 01-.227-.845c0-.303.077-.582.232-.836.154-.253.359-.456.612-.608.254-.151.53-.227.827-.227.306 0 .586.076.84.227.253.149.455.35.603.604.152.25.228.53.228.84 0 .31-.076.59-.228.845a1.71 1.71 0 01-.603.603 1.634 1.634 0 01-.84.223zm0-.618c.188 0 .363-.047.524-.143.161-.096.289-.223.385-.381.096-.16.144-.337.144-.53a.99.99 0 00-.144-.524 1.094 1.094 0 00-.385-.385 1.007 1.007 0 00-.524-.144c-.192 0-.369.048-.53.144a1.154 1.154 0 00-.385.385.99.99 0 00-.144.525c0 .192.048.368.144.529.099.158.228.285.385.38.161.097.338.144.53.144zm-3.913-3.003c-.307 0-.587-.074-.84-.222a1.746 1.746 0 01-.608-.604 1.64 1.64 0 01-.223-.845c0-.303.077-.581.232-.835.155-.254.359-.456.612-.608.254-.152.53-.228.827-.228.306 0 .585.076.835.228.254.149.457.35.608.603.152.251.228.531.228.84 0 .31-.076.591-.228.845-.151.25-.354.452-.608.604-.25.148-.529.222-.835.222zm0-.617a.99.99 0 00.524-.144c.161-.096.29-.223.386-.38.095-.161.143-.338.143-.53a.99.99 0 00-.144-.524 1.093 1.093 0 00-.385-.385.99.99 0 00-.524-.144c-.192 0-.368.048-.53.144a1.106 1.106 0 00-.38.385.99.99 0 00-.144.524c0 .192.048.369.144.53.096.157.223.284.38.38.161.096.338.144.53.144zm8.648 4.099v-6.684h.626l2.627 5.62 2.614-5.62h.635v6.679h-.649v-5.157l-2.382 5.162h-.44l-2.377-5.162v5.162h-.654zm9.239.139c-.377 0-.694-.068-.951-.204a1.384 1.384 0 01-.571-.543 1.48 1.48 0 01-.19-.739c0-.272.054-.504.162-.696.111-.195.261-.354.45-.478.192-.123.413-.218.664-.283.254-.062.534-.116.84-.162.31-.05.611-.092.905-.126.297-.037.557-.072.78-.106l-.241.148c.009-.495-.087-.862-.288-1.1-.201-.238-.551-.357-1.049-.357-.344 0-.634.077-.873.232-.235.154-.4.399-.496.733l-.664-.195c.114-.449.345-.797.691-1.044.347-.248.797-.371 1.351-.371.458 0 .846.086 1.165.26.322.17.549.417.682.742.062.146.103.308.121.487a5.2 5.2 0 01.028.548v3.115h-.608v-1.258l.176.074c-.17.43-.434.758-.793.984-.359.226-.789.339-1.291.339zm.079-.59c.319 0 .597-.057.836-.171a1.507 1.507 0 00.858-1.147c.037-.16.058-.337.061-.529.003-.195.004-.34.004-.436l.26.134a39.58 39.58 0 01-.756.093c-.27.031-.536.067-.799.107-.26.04-.495.088-.705.144a1.9 1.9 0 00-.413.171.959.959 0 00-.33.288.776.776 0 00-.125.45c0 .146.035.287.107.423.074.136.191.249.352.339.164.09.381.134.65.134zm5.516.585c-.588 0-1.072-.127-1.453-.38a1.589 1.589 0 01-.696-1.059l.696-.116c.074.285.243.512.506.683.266.167.594.25.984.25.381 0 .681-.079.901-.236a.77.77 0 00.329-.655.616.616 0 00-.107-.376c-.068-.099-.209-.19-.422-.274a9.97 9.97 0 00-.956-.297 6.465 6.465 0 01-1.068-.371c-.257-.124-.439-.266-.548-.427a1.065 1.065 0 01-.162-.599c0-.285.08-.534.241-.747.161-.217.384-.384.669-.502.284-.12.616-.18.993-.18.378 0 .715.061 1.012.185.3.12.541.291.724.51.183.22.291.476.325.767l-.696.125a1.007 1.007 0 00-.441-.696c-.245-.174-.556-.263-.933-.27-.356-.009-.645.06-.868.205-.223.142-.334.332-.334.57 0 .134.04.248.12.344.081.093.226.181.437.265.213.083.516.174.909.274.461.117.823.24 1.086.37.264.13.451.284.562.46.112.177.167.395.167.655 0 .473-.176.846-.529 1.118-.35.27-.832.404-1.448.404zm5.736-.134c-.282.058-.56.082-.836.07a1.852 1.852 0 01-.733-.177 1.058 1.058 0 01-.487-.492 1.437 1.437 0 01-.149-.562c-.006-.192-.009-.41-.009-.654v-4.59h.678v4.562c0 .21.001.387.004.529.006.14.039.263.098.371a.696.696 0 00.529.372c.244.04.546.03.905-.028v.599zm-3.286-4.428v-.585h3.286v.585h-3.286zm6.213 4.567c-.489 0-.912-.109-1.271-.325a2.204 2.204 0 01-.831-.914c-.198-.393-.297-.855-.297-1.384 0-.547.097-1.02.292-1.42.195-.4.469-.707.822-.924.356-.216.775-.324 1.258-.324.495 0 .917.114 1.267.343.349.226.614.55.793.975.18.424.262.93.246 1.518h-.696v-.242c-.012-.65-.153-1.14-.422-1.471-.266-.331-.656-.497-1.17-.497-.538 0-.951.175-1.239.525-.285.35-.427.847-.427 1.494 0 .631.142 1.122.427 1.471.288.347.695.52 1.221.52.359 0 .671-.082.937-.246.269-.167.481-.407.636-.72l.636.247a2.278 2.278 0 01-.877 1.017 2.425 2.425 0 01-1.305.357zm-1.917-2.456v-.57h3.83v.57h-3.83zm5.226 2.317v-5.013h.613v1.207l-.12-.158a1.69 1.69 0 01.218-.409c.089-.127.187-.23.292-.31.13-.115.282-.202.455-.26.173-.063.348-.098.524-.107.177-.013.338 0 .483.037v.64a1.657 1.657 0 00-.599-.032 1.139 1.139 0 00-.598.26 1.24 1.24 0 00-.376.468c-.084.18-.14.372-.167.576a4.34 4.34 0 00-.042.599v2.502h-.683zm3.997 2.228l.97-2.632.014.78-2.195-5.39h.724l1.801 4.508h-.297l1.661-4.507h.696l-2.692 7.24h-.682z" fill="#000"/><path d="M26.298 31.767a1.836 1.836 0 01-1.623-.915 1.87 1.87 0 01-.247-.955V27.67a1.848 1.848 0 01.915-1.624 1.87 1.87 0 01.955-.246 1.848 1.848 0 011.623.919c.165.28.247.598.247.95v2.228a1.827 1.827 0 01-.919 1.623 1.847 1.847 0 01-.951.247zm0-.565c.236 0 .45-.057.644-.17.194-.117.348-.273.462-.466a1.24 1.24 0 00.171-.64v-2.284c0-.236-.057-.451-.171-.645a1.283 1.283 0 00-1.75-.461 1.283 1.283 0 00-.462.461 1.246 1.246 0 00-.171.645v2.283c0 .234.057.447.17.64.115.194.269.35.462.466.194.114.409.171.645.171zm5.016.565a1.836 1.836 0 01-1.623-.915 1.87 1.87 0 01-.247-.955V27.67a1.848 1.848 0 01.915-1.624 1.87 1.87 0 01.955-.246 1.848 1.848 0 011.623.919c.164.28.246.598.246.95v2.228c0 .353-.082.672-.246.955a1.847 1.847 0 01-1.623.915zm0-.565c.236 0 .45-.057.644-.17.194-.117.348-.273.462-.466a1.24 1.24 0 00.17-.64v-2.284c0-.236-.056-.451-.17-.645a1.283 1.283 0 00-1.751-.461 1.283 1.283 0 00-.462.461 1.246 1.246 0 00-.17.645v2.283c0 .234.056.447.17.64.115.194.268.35.462.466.194.114.409.171.645.171zm3.464-.19v-.68h.68v.68h-.68zm.004-2.344v-.68h.68v.68h-.68zm3.213 2.98V26.57l-1.078.649v-.657l1.078-.644h.593v5.729h-.593zm3.8.115c-.283 0-.544-.05-.783-.15a1.77 1.77 0 01-.617-.43 1.732 1.732 0 01-.378-.673l.557-.167c.096.284.252.499.47.645.22.145.468.216.744.21.254-.005.473-.062.656-.17a1.08 1.08 0 00.426-.454c.098-.194.147-.418.147-.673 0-.39-.114-.703-.342-.939-.226-.238-.524-.358-.895-.358-.104 0-.213.015-.327.044-.114.027-.22.065-.318.116l-.294-.466 2.228-2.057.095.239h-2.92v-.561h3.31v.569l-1.942 1.854-.007-.23c.397-.051.748-.006 1.05.134.302.14.538.356.708.645.172.286.259.623.259 1.01 0 .366-.08.69-.24.971a1.712 1.712 0 01-.648.657 1.869 1.869 0 01-.939.234zm3.336-.752v-.68h.68v.68h-.68zm.004-2.343v-.68h.68v.68h-.68zm4.737 2.98v-1.11h-2.681v-.557l1.917-4.062h.657l-1.918 4.062h2.025V28.31h.59v1.671h.624v.557h-.625v1.11h-.589zm4.021.12c-.297 0-.571-.062-.823-.184a1.903 1.903 0 01-.645-.505 1.968 1.968 0 01-.382-.74l.561-.151c.05.207.142.386.275.537.133.148.288.264.465.346.18.082.369.123.565.123.255 0 .483-.06.685-.183.204-.124.366-.289.485-.493a1.31 1.31 0 00.179-.672c0-.252-.062-.48-.187-.68a1.393 1.393 0 00-.493-.486 1.3 1.3 0 00-.669-.179c-.27 0-.504.06-.7.179a1.417 1.417 0 00-.47.442l-.532-.223.175-2.98h3.059v.56h-2.8l.29-.274-.156 2.543-.147-.195c.165-.189.364-.336.597-.442.233-.106.479-.16.736-.16a1.868 1.868 0 011.882 1.894c0 .35-.089.672-.267.963-.177.29-.413.522-.708.697-.294.175-.62.262-.975.262z" fill="#6891CF"/><path d="M169.749 12.554c-.608 0-1.105.497-1.105 1.105s.497 1.105 1.105 1.105 1.105-.497 1.105-1.105-.497-1.105-1.105-1.105zm6.631 0c-.608 0-1.105.497-1.105 1.105s.497 1.105 1.105 1.105 1.105-.497 1.105-1.105-.497-1.105-1.105-1.105zm-3.316 0c-.607 0-1.105.497-1.105 1.105s.498 1.105 1.105 1.105c.608 0 1.106-.497 1.106-1.105s-.498-1.105-1.106-1.105z" fill="#3674ED"/><path d="M150.999 30.735c-.358 0-.675-.072-.951-.215a1.623 1.623 0 01-.645-.6 1.763 1.763 0 01-.23-.912c0-.355.086-.67.258-.947.173-.278.435-.489.788-.632l-.008.23a1.294 1.294 0 01-.672-.532 1.517 1.517 0 01-.231-.82c0-.318.073-.591.219-.82.146-.23.345-.408.597-.533.254-.124.546-.187.875-.187.329 0 .621.063.875.187.255.125.455.303.601.533.146.229.219.502.219.82 0 .3-.075.572-.223.816-.146.244-.37.423-.672.537l-.02-.231c.352.14.616.35.791.629.178.278.267.595.267.95 0 .348-.078.652-.235.912a1.606 1.606 0 01-.648.6 2.042 2.042 0 01-.955.215zm0-.56c.361 0 .654-.1.879-.3.226-.2.338-.49.338-.867 0-.381-.111-.67-.334-.867-.223-.199-.517-.298-.883-.298s-.659.1-.879.298c-.221.196-.331.486-.331.867 0 .377.112.666.335.868.222.199.514.298.875.298zm0-2.897c.318 0 .577-.081.776-.243.199-.164.298-.407.298-.728 0-.32-.099-.561-.298-.72-.199-.162-.458-.243-.776-.243s-.577.081-.776.243c-.196.159-.294.4-.294.72 0 .32.098.564.294.728.199.162.458.243.776.243zm3.346 2.701v-.68h.681v.68h-.681zm.004-2.343v-.68h.681v.68h-.681zm4.085 3.1a1.831 1.831 0 01-1.87-1.87v-2.229a1.843 1.843 0 01.915-1.623 1.87 1.87 0 01.955-.247 1.848 1.848 0 011.623.92c.165.28.247.598.247.95v2.228c0 .353-.082.671-.247.955a1.847 1.847 0 01-1.623.915zm0-.566c.236 0 .451-.057.644-.17.194-.118.348-.273.462-.466a1.24 1.24 0 00.171-.641v-2.284c0-.236-.057-.45-.171-.644a1.28 1.28 0 00-.462-.462 1.221 1.221 0 00-.644-.175 1.285 1.285 0 00-1.106.637 1.246 1.246 0 00-.171.644v2.284c0 .233.057.447.171.64.114.194.268.35.461.466.194.114.409.171.645.171zm3.452.446l2.109-5.16h-2.654v-.57h3.278v.57l-2.104 5.16h-.629zm5.201 0l1.973-5.73h.776l1.974 5.73h-.609l-1.874-5.403h.231l-1.862 5.403h-.609zm.879-1.389v-.549h2.96v.55h-2.96zm4.721 1.389v-5.73h.537l2.252 4.819 2.24-4.818h.545v5.725h-.557v-4.42l-2.041 4.424h-.378l-2.037-4.424v4.424h-.561z" fill="#6B7280"/></svg>