<svg viewBox="0 0 759 491" fill="none" xmlns="http://www.w3.org/2000/svg"><g filter="url(#filter-0)"><rect x="534" y="390.691" width="185" height="39.262" rx="3.978" fill="#fff"/><path d="M543.946 409.88c-.427 0-.792-.151-1.094-.454a1.49 1.49 0 01-.453-1.094c0-.427.151-.792.453-1.094a1.491 1.491 0 011.094-.453c.428 0 .792.151 1.094.453.302.302.453.667.453 1.094 0 .428-.151.792-.453 1.094a1.487 1.487 0 01-1.094.454zm0-.885a.64.64 0 00.47-.193.638.638 0 00.193-.47.638.638 0 00-.193-.469.64.64 0 00-.47-.194.639.639 0 00-.469.194.639.639 0 00-.194.469.64.64 0 00.194.47.638.638 0 00.469.193zm3.979 4.863a1.49 1.49 0 01-1.094-.453 1.491 1.491 0 01-.453-1.094c0-.427.151-.792.453-1.094a1.49 1.49 0 011.094-.453c.427 0 .792.151 1.094.453.302.302.453.667.453 1.094 0 .427-.151.792-.453 1.094a1.491 1.491 0 01-1.094.453zm0-.884c.184 0 .34-.065.469-.194a.637.637 0 00.194-.469.64.64 0 00-.194-.47.638.638 0 00-.469-.193.64.64 0 00-.47.193.64.64 0 00-.193.47c0 .184.064.341.193.469a.64.64 0 00.47.194zm-4.907.884l-.619-.619 6.454-6.454.619.619-6.454 6.454z" fill="#3674ED"/><path d="M558.521 406.996v-6.684h4.177v.654h-3.495v2.312h2.938v.654h-2.938v2.409h3.495v.655h-4.177zm6.009 2.228l.97-2.632.014.78-2.196-5.389h.725l1.8 4.507h-.297l1.662-4.507h.696l-2.692 7.241h-.682zm6.12-2.089c-.489 0-.912-.108-1.271-.325a2.205 2.205 0 01-.831-.914c-.198-.393-.297-.854-.297-1.384 0-.547.097-1.021.292-1.42.195-.399.469-.707.822-.924.356-.216.775-.325 1.258-.325.495 0 .917.115 1.267.344.349.226.614.551.793.975.18.424.262.93.246 1.517h-.696v-.241c-.012-.65-.153-1.14-.422-1.471-.266-.331-.656-.497-1.17-.497-.538 0-.951.175-1.239.525-.285.349-.427.847-.427 1.494 0 .631.142 1.122.427 1.472.288.346.694.519 1.221.519.358 0 .671-.082.937-.246.269-.167.481-.407.636-.719l.636.246a2.276 2.276 0 01-.877 1.016 2.418 2.418 0 01-1.305.358zm-1.917-2.456v-.57h3.83v.57h-3.83zm9.791 2.456c-.665 0-1.227-.147-1.685-.441a2.8 2.8 0 01-1.04-1.23c-.235-.523-.352-1.126-.352-1.81 0-.684.117-1.288.352-1.811a2.776 2.776 0 011.04-1.225c.458-.297 1.02-.446 1.685-.446.777 0 1.411.2 1.903.599.492.396.829.929 1.012 1.597l-.696.181c-.143-.529-.398-.948-.766-1.258-.368-.309-.853-.464-1.453-.464-.523 0-.958.119-1.304.357a2.196 2.196 0 00-.785.998c-.173.424-.263.915-.269 1.472-.003.557.082 1.047.255 1.471.177.424.44.757.789.998.353.238.791.357 1.314.357.6 0 1.085-.154 1.453-.464.368-.312.623-.732.766-1.258l.696.181c-.183.669-.52 1.203-1.012 1.602-.492.396-1.126.594-1.903.594zm6.032 0c-.498 0-.923-.113-1.276-.339a2.194 2.194 0 01-.812-.938c-.189-.399-.284-.857-.284-1.373 0-.527.096-.988.288-1.384.192-.396.464-.704.817-.923.356-.223.778-.335 1.267-.335.502 0 .929.113 1.281.339.356.223.627.534.813.933.188.396.283.853.283 1.37 0 .526-.095.988-.283 1.387a2.173 2.173 0 01-.817.929c-.356.222-.782.334-1.277.334zm0-.655c.557 0 .972-.184 1.244-.552.273-.371.409-.852.409-1.443 0-.607-.138-1.09-.413-1.449-.273-.359-.686-.538-1.24-.538-.374 0-.684.085-.928.255a1.518 1.518 0 00-.543.701 2.78 2.78 0 00-.176 1.031c0 .603.139 1.087.417 1.452.279.362.689.543 1.23.543zm7.021.516v-2.558c0-.278-.026-.534-.079-.766a1.742 1.742 0 00-.255-.612 1.172 1.172 0 00-.45-.409 1.426 1.426 0 00-.669-.144c-.241 0-.455.042-.64.126a1.251 1.251 0 00-.464.362 1.592 1.592 0 00-.283.566 2.717 2.717 0 00-.098.761l-.483-.107c0-.513.09-.945.27-1.295.179-.349.427-.614.742-.793.316-.18.678-.27 1.086-.27.3 0 .562.047.785.14.226.092.416.218.571.376.157.157.284.338.38.543.096.201.166.416.209.645.043.226.065.452.065.678v2.757h-.687zm-3.625 0v-5.013h.617v1.234h.07v3.779h-.687zm8.246 0a3.35 3.35 0 01-.836.069 1.852 1.852 0 01-.733-.176 1.052 1.052 0 01-.487-.492 1.44 1.44 0 01-.149-.562c-.006-.192-.009-.41-.009-.654v-4.591h.677v4.563c0 .21.002.387.005.529a.84.84 0 00.098.371.697.697 0 00.529.372c.244.04.546.031.905-.028v.599zm-3.286-4.428v-.585h3.286v.585h-3.286zm5.708 4.567c-.378 0-.695-.068-.952-.204a1.395 1.395 0 01-.571-.543 1.48 1.48 0 01-.19-.738 1.4 1.4 0 01.162-.697c.112-.195.262-.354.451-.478a2.26 2.26 0 01.663-.283c.254-.062.534-.116.841-.162.309-.05.611-.092.905-.126.297-.037.557-.072.779-.106l-.241.148c.009-.495-.087-.862-.288-1.1-.201-.238-.55-.357-1.049-.357-.343 0-.634.077-.872.232-.235.154-.401.399-.497.733l-.664-.195c.115-.449.345-.797.692-1.044.346-.248.797-.372 1.351-.372.458 0 .846.087 1.165.26.321.171.549.418.682.743.062.145.102.308.121.487.018.18.027.362.027.548v3.115h-.608v-1.258l.177.074c-.17.43-.435.758-.794.984-.359.226-.789.339-1.29.339zm.079-.59c.318 0 .597-.057.835-.171.238-.115.43-.271.576-.469.145-.201.24-.427.283-.678.037-.161.057-.337.06-.529.003-.195.005-.34.005-.436l.26.134c-.232.031-.485.062-.757.093-.269.031-.535.067-.798.107-.26.04-.495.088-.706.144-.142.04-.28.097-.413.172a.95.95 0 00-.329.287.771.771 0 00-.126.451c0 .145.036.286.107.422a.87.87 0 00.353.339c.164.09.38.134.65.134zm5.724.59c-.504 0-.931-.113-1.281-.339a2.154 2.154 0 01-.798-.933c-.18-.399-.272-.857-.279-1.374.007-.526.102-.987.288-1.383a2.12 2.12 0 01.803-.928c.35-.223.774-.335 1.272-.335.507 0 .948.124 1.323.372.377.247.636.586.775 1.016l-.669.214a1.407 1.407 0 00-.561-.696 1.546 1.546 0 00-.873-.251c-.368 0-.673.085-.914.255a1.486 1.486 0 00-.539.701c-.117.3-.178.645-.181 1.035.007.6.146 1.083.418 1.448.272.362.678.543 1.216.543.341 0 .63-.077.868-.232.242-.158.424-.386.548-.687l.687.205c-.186.445-.458.786-.817 1.021-.359.232-.788.348-1.286.348zm5.79-.139c-.281.058-.56.082-.835.069a1.852 1.852 0 01-.734-.176 1.056 1.056 0 01-.487-.492 1.457 1.457 0 01-.149-.562c-.006-.192-.009-.41-.009-.654v-4.591h.678v4.563c0 .21.001.387.005.529a.84.84 0 00.097.371.7.7 0 00.529.372c.245.04.546.031.905-.028v.599zm-3.286-4.428v-.585h3.286v.585h-3.286zm6.039 1.796v-.585h2.785v.585h-2.785zm8.11 2.771c-.417 0-.798-.101-1.141-.302a2.31 2.31 0 01-.817-.826 2.325 2.325 0 01-.302-1.179v-2.316c0-.449.101-.848.302-1.198a2.22 2.22 0 01.821-.831c.35-.204.746-.306 1.188-.306.381 0 .734.084 1.059.251.328.167.595.4.803.701l-.525.431a1.591 1.591 0 00-1.337-.733c-.312 0-.591.076-.835.227a1.661 1.661 0 00-.576.599 1.59 1.59 0 00-.208.799v1.457l-.172-.195c.195-.306.45-.554.766-.743a2.008 2.008 0 011.039-.283 2.184 2.184 0 012.201 2.214c0 .412-.104.786-.311 1.124a2.32 2.32 0 01-.822.807c-.34.201-.718.302-1.133.302zm0-.664c.291 0 .556-.07.794-.209.241-.139.432-.328.571-.566.142-.238.214-.503.214-.794 0-.291-.072-.555-.214-.793a1.535 1.535 0 00-.566-.571 1.513 1.513 0 00-.794-.214 1.579 1.579 0 00-1.365.785 1.542 1.542 0 00-.208.793c0 .288.069.551.208.789a1.546 1.546 0 001.36.78zm5.678.664c-.411 0-.783-.096-1.114-.288a2.145 2.145 0 01-.78-.78 2.188 2.188 0 01-.287-1.114v-2.599a2.161 2.161 0 011.067-1.894 2.181 2.181 0 011.114-.288 2.152 2.152 0 011.894 1.073c.192.328.288.697.288 1.109v2.599a2.128 2.128 0 01-1.073 1.894 2.152 2.152 0 01-1.109.288zm0-.659c.276 0 .526-.067.752-.2a1.54 1.54 0 00.539-.543c.133-.226.199-.475.199-.747v-2.664a1.45 1.45 0 00-.199-.752 1.505 1.505 0 00-1.291-.743 1.495 1.495 0 00-1.29.743c-.133.225-.2.476-.2.752v2.664c0 .272.067.521.2.747.133.226.312.407.538.543.226.133.477.2.752.2zm4.134.52l-.464-.465 6.234-6.219.464.459-6.234 6.225zm4.842.139a1.63 1.63 0 01-.841-.223 1.775 1.775 0 01-.603-.603 1.614 1.614 0 01-.227-.845c0-.303.077-.582.232-.836a1.78 1.78 0 01.612-.608c.254-.151.53-.227.827-.227.306 0 .586.076.84.227.253.149.455.35.603.604.152.25.228.53.228.84 0 .309-.076.591-.228.845-.148.25-.35.451-.603.603a1.63 1.63 0 01-.84.223zm0-.617c.188 0 .363-.048.524-.144.161-.096.289-.223.385-.381.096-.161.144-.337.144-.529a.992.992 0 00-.144-.525 1.092 1.092 0 00-.385-.385 1.006 1.006 0 00-.524-.144c-.192 0-.369.048-.53.144a1.152 1.152 0 00-.385.385.992.992 0 00-.144.525c0 .192.048.368.144.529.099.158.228.285.385.381.161.096.338.144.53.144zm-3.913-3.004c-.307 0-.587-.074-.84-.222a1.74 1.74 0 01-.608-.604 1.637 1.637 0 01-.223-.845c0-.303.077-.581.232-.835.155-.254.359-.456.613-.608.253-.152.529-.228.826-.228.306 0 .585.076.835.228.254.148.457.35.608.603.152.251.228.531.228.84 0 .31-.076.591-.228.845a1.74 1.74 0 01-.608.604 1.61 1.61 0 01-.835.222zm0-.617a.988.988 0 00.524-.144c.161-.096.29-.223.385-.38.096-.161.144-.338.144-.53a.99.99 0 00-.144-.524 1.084 1.084 0 00-.385-.385.988.988 0 00-.524-.144c-.192 0-.368.048-.529.144a1.106 1.106 0 00-.381.385.99.99 0 00-.144.524c0 .192.048.369.144.53.096.157.223.284.381.38.161.096.337.144.529.144zm8.648 4.099v-6.684h.626l2.627 5.621 2.614-5.621h.635v6.679h-.649v-5.157l-2.382 5.162h-.44l-2.377-5.162v5.162h-.654zm9.239.139c-.377 0-.694-.068-.951-.204a1.395 1.395 0 01-.571-.543 1.48 1.48 0 01-.19-.738 1.4 1.4 0 01.162-.697c.111-.195.261-.354.45-.478.192-.124.413-.218.664-.283.254-.062.534-.116.84-.162.31-.05.611-.092.905-.126.297-.037.557-.072.78-.106l-.241.148c.009-.495-.087-.862-.288-1.1-.201-.238-.551-.357-1.049-.357-.344 0-.634.077-.873.232-.235.154-.4.399-.496.733l-.664-.195c.114-.449.345-.797.691-1.044.347-.248.797-.372 1.351-.372.458 0 .846.087 1.165.26.322.171.549.418.682.743.062.145.103.308.121.487.019.18.028.362.028.548v3.115h-.608v-1.258l.176.074c-.17.43-.434.758-.793.984-.359.226-.789.339-1.291.339zm.079-.59c.319 0 .597-.057.836-.171a1.513 1.513 0 00.858-1.147c.037-.161.058-.337.061-.529.003-.195.004-.34.004-.436l.26.134a39.54 39.54 0 01-.756.093c-.27.031-.536.067-.799.107a6.71 6.71 0 00-.705.144c-.143.04-.28.097-.413.172a.962.962 0 00-.33.287.778.778 0 00-.125.451.89.89 0 00.107.422.867.867 0 00.352.339c.164.09.381.134.65.134zm5.516.585c-.588 0-1.072-.127-1.453-.38a1.59 1.59 0 01-.696-1.059l.696-.116c.074.285.243.512.506.683.266.167.594.25.984.25.381 0 .681-.079.901-.236a.772.772 0 00.329-.655.616.616 0 00-.107-.376c-.068-.099-.209-.19-.422-.274a10.269 10.269 0 00-.956-.297 6.47 6.47 0 01-1.068-.371c-.257-.124-.439-.266-.548-.427a1.066 1.066 0 01-.162-.599c0-.285.08-.534.241-.747.161-.217.384-.384.669-.502a2.54 2.54 0 01.993-.181c.378 0 .715.062 1.012.186.3.121.541.291.724.511.183.219.291.475.325.766l-.696.125a1.006 1.006 0 00-.441-.696c-.245-.174-.556-.263-.933-.27-.356-.009-.645.059-.868.205-.223.142-.334.332-.334.571 0 .133.04.247.12.343.081.093.226.181.437.265.213.083.516.174.909.273.461.118.823.242 1.086.372.264.13.451.283.562.459a1.2 1.2 0 01.167.655c0 .473-.176.846-.529 1.118-.35.27-.832.404-1.448.404zm5.736-.134a3.35 3.35 0 01-.836.069 1.852 1.852 0 01-.733-.176 1.056 1.056 0 01-.487-.492 1.44 1.44 0 01-.149-.562c-.006-.192-.009-.41-.009-.654v-4.591h.678v4.563c0 .21.001.387.004.529a.84.84 0 00.098.371.697.697 0 00.529.372c.244.04.546.031.905-.028v.599zm-3.286-4.428v-.585h3.286v.585h-3.286zm6.213 4.567c-.489 0-.912-.108-1.271-.325a2.205 2.205 0 01-.831-.914c-.198-.393-.297-.854-.297-1.384 0-.547.097-1.021.292-1.42.195-.399.469-.707.822-.924.356-.216.775-.325 1.258-.325.495 0 .917.115 1.267.344.349.226.614.551.793.975.18.424.262.93.246 1.517h-.696v-.241c-.012-.65-.153-1.14-.422-1.471-.266-.331-.656-.497-1.17-.497-.538 0-.951.175-1.239.525-.285.349-.427.847-.427 1.494 0 .631.142 1.122.427 1.472.288.346.695.519 1.221.519.359 0 .671-.082.937-.246.269-.167.481-.407.636-.719l.636.246a2.276 2.276 0 01-.877 1.016 2.418 2.418 0 01-1.305.358zm-1.917-2.456v-.57h3.83v.57h-3.83zm5.226 2.317v-5.013h.613v1.207l-.12-.158c.055-.149.128-.285.218-.409.089-.127.187-.23.292-.311.13-.114.282-.201.455-.26.173-.062.348-.097.524-.106.177-.013.338 0 .483.037v.64a1.66 1.66 0 00-.599-.032 1.137 1.137 0 00-.598.26c-.167.13-.293.286-.376.468-.084.18-.14.372-.167.576a4.34 4.34 0 00-.042.599v2.502h-.683zm3.997 2.228l.97-2.632.014.78-2.195-5.389h.724l1.801 4.507h-.297l1.661-4.507h.696l-2.692 7.241h-.682z" fill="#000"/><path d="M560.298 421.767c-.353 0-.671-.082-.955-.246a1.84 1.84 0 01-.915-1.624v-2.228c0-.352.082-.669.247-.95.164-.284.387-.508.668-.673.284-.164.602-.246.955-.246s.67.082.951.246a1.841 1.841 0 01.919 1.623v2.228a1.827 1.827 0 01-.919 1.624 1.851 1.851 0 01-.951.246zm0-.565c.236 0 .451-.057.644-.171a1.31 1.31 0 00.462-.465 1.24 1.24 0 00.171-.641v-2.283a1.25 1.25 0 00-.171-.645 1.276 1.276 0 00-.462-.461 1.219 1.219 0 00-.644-.175 1.281 1.281 0 00-1.106.636 1.25 1.25 0 00-.171.645v2.283c0 .234.057.447.171.641.114.193.268.349.461.465.194.114.409.171.645.171zm5.016.565c-.353 0-.671-.082-.955-.246a1.85 1.85 0 01-.669-.669 1.874 1.874 0 01-.246-.955v-2.228a1.85 1.85 0 01.915-1.623c.284-.164.602-.246.955-.246.352 0 .669.082.95.246.284.165.508.389.673.673.164.281.246.598.246.95v2.228c0 .353-.082.671-.246.955a1.838 1.838 0 01-1.623.915zm0-.565c.236 0 .45-.057.644-.171a1.31 1.31 0 00.462-.465 1.24 1.24 0 00.171-.641v-2.283a1.25 1.25 0 00-.171-.645 1.276 1.276 0 00-.462-.461 1.221 1.221 0 00-.644-.175c-.237 0-.451.058-.645.175a1.274 1.274 0 00-.633 1.106v2.283c0 .234.057.447.172.641.114.193.267.349.461.465.194.114.408.171.645.171zm3.464-.191v-.68h.68v.68h-.68zm.004-2.343v-.68h.68v.68h-.68zm3.213 2.98v-5.077l-1.078.649v-.657l1.078-.644h.593v5.729h-.593zm3.801.115c-.284 0-.546-.05-.784-.151a1.765 1.765 0 01-.617-.43 1.737 1.737 0 01-.378-.672l.557-.167c.096.284.252.499.47.645.22.145.468.216.744.21.254-.005.473-.062.656-.171.186-.108.328-.26.426-.453.098-.194.147-.418.147-.673 0-.39-.114-.702-.342-.939-.226-.238-.524-.358-.895-.358-.104 0-.213.015-.327.044-.114.027-.22.065-.318.116l-.294-.466 2.228-2.057.095.239h-2.92v-.561h3.31v.569l-1.941 1.854-.008-.231c.397-.05.748-.005 1.05.135.302.141.538.356.708.645.172.286.259.623.259 1.01 0 .366-.08.69-.239.971a1.72 1.72 0 01-.649.657 1.868 1.868 0 01-.938.234zm3.335-.752v-.68h.681v.68h-.681zm.004-2.343v-.68h.681v.68h-.681zm4.737 2.98v-1.11h-2.681v-.557l1.917-4.062h.657l-1.918 4.062h2.025v-1.671h.589v1.671h.625v.557h-.625v1.11h-.589zm4.021.119c-.297 0-.571-.061-.823-.183a1.904 1.904 0 01-.645-.505 1.978 1.978 0 01-.382-.74l.561-.151c.051.207.142.386.275.537.132.148.288.264.465.346.181.082.369.123.565.123.255 0 .483-.061.685-.183.204-.124.366-.289.485-.493a1.31 1.31 0 00.179-.672c0-.252-.062-.479-.187-.681a1.396 1.396 0 00-.493-.485 1.307 1.307 0 00-.669-.179c-.27 0-.504.06-.7.179a1.413 1.413 0 00-.469.442l-.534-.223.176-2.98h3.059v.561h-2.801l.291-.275-.156 2.543-.147-.195c.165-.189.364-.336.597-.442a1.76 1.76 0 01.736-.159 1.86 1.86 0 011.631.935c.167.286.251.606.251.959 0 .35-.089.671-.267.962-.177.29-.413.522-.708.697a1.87 1.87 0 01-.975.262z" fill="#6891CF"/><path d="M703.749 402.554c-.608 0-1.105.497-1.105 1.105s.497 1.105 1.105 1.105 1.105-.497 1.105-1.105-.497-1.105-1.105-1.105zm6.631 0c-.608 0-1.105.497-1.105 1.105s.497 1.105 1.105 1.105 1.105-.497 1.105-1.105-.497-1.105-1.105-1.105zm-3.316 0c-.607 0-1.105.497-1.105 1.105s.498 1.105 1.105 1.105c.608 0 1.106-.497 1.106-1.105s-.498-1.105-1.106-1.105z" fill="#3674ED"/><path d="M684.999 420.735c-.358 0-.675-.072-.951-.215a1.618 1.618 0 01-.645-.601 1.76 1.76 0 01-.23-.911c0-.355.086-.671.258-.946.173-.279.435-.49.788-.633l-.008.231a1.298 1.298 0 01-.672-.533 1.518 1.518 0 01-.231-.82c0-.318.073-.591.219-.82.146-.23.345-.408.597-.533.254-.124.546-.187.875-.187.329 0 .621.063.875.187.255.125.455.303.601.533.146.229.219.502.219.82 0 .3-.075.572-.223.816-.146.244-.37.423-.672.537l-.02-.231c.352.141.616.35.791.629.178.278.267.595.267.95 0 .348-.078.652-.235.911a1.6 1.6 0 01-.648.601 2.046 2.046 0 01-.955.215zm0-.561c.361 0 .654-.099.879-.298.226-.202.338-.491.338-.868 0-.382-.111-.671-.334-.867-.223-.199-.517-.298-.883-.298s-.659.099-.879.298c-.221.196-.331.485-.331.867 0 .377.112.666.335.868.222.199.514.298.875.298zm0-2.896c.318 0 .577-.081.776-.243.199-.164.298-.407.298-.728s-.099-.561-.298-.72c-.199-.162-.458-.243-.776-.243s-.577.081-.776.243c-.196.159-.294.399-.294.72 0 .321.098.564.294.728.199.162.458.243.776.243zm3.346 2.701v-.68h.681v.68h-.681zm.004-2.343v-.68h.681v.68h-.681zm4.085 3.099a1.829 1.829 0 01-1.87-1.87v-2.228a1.845 1.845 0 01.915-1.623c.284-.164.602-.247.955-.247s.67.083.951.247a1.845 1.845 0 01.919 1.623v2.228c0 .353-.082.671-.247.955a1.842 1.842 0 01-1.623.915zm0-.565c.236 0 .451-.057.644-.171.194-.117.348-.272.462-.465.114-.194.171-.408.171-.641v-2.284c0-.236-.057-.451-.171-.644a1.279 1.279 0 00-.462-.462 1.228 1.228 0 00-.644-.175 1.284 1.284 0 00-1.106.637 1.243 1.243 0 00-.171.644v2.284c0 .233.057.447.171.641.114.193.268.348.461.465.194.114.409.171.645.171zm3.452.446l2.109-5.16h-2.654v-.569h3.278v.569l-2.104 5.16h-.629zm5.201 0l1.973-5.729h.776l1.974 5.729h-.609l-1.874-5.403h.231l-1.862 5.403h-.609zm.879-1.389v-.549h2.96v.549h-2.96zm4.721 1.389v-5.729h.537l2.252 4.818 2.24-4.818h.545v5.725h-.557v-4.42l-2.041 4.424h-.378l-2.037-4.424v4.424h-.561z" fill="#6B7280"/></g><defs><filter id="filter-0" x="494" y="362.691" width="265" height="119.262" filterUnits="userSpaceOnUse" color-interpolation-filters="sRGB"><feFlood flood-opacity="0" result="BackgroundImageFix"/><feColorMatrix in="SourceAlpha" values="0 0 0 0 0 0 0 0 0 0 0 0 0 0 0 0 0 0 127 0" result="hardAlpha"/><feOffset dy="12"/><feGaussianBlur stdDeviation="20"/><feComposite in2="hardAlpha" operator="out"/><feColorMatrix values="0 0 0 0 0 0 0 0 0 0.4 0 0 0 0 0.713726 0 0 0 0.24 0"/><feBlend in2="BackgroundImageFix" result="drop-shadow-1"/><feColorMatrix in="SourceAlpha" values="0 0 0 0 0 0 0 0 0 0 0 0 0 0 0 0 0 0 127 0" result="hardAlpha"/><feMorphology radius="2" in="SourceAlpha" result="drop-shadow-2"/><feOffset dy="4"/><feGaussianBlur stdDeviation="3"/><feComposite in2="hardAlpha" operator="out"/><feColorMatrix values="0 0 0 0 0 0 0 0 0 0 0 0 0 0 0 0 0 0 0.08 0"/><feBlend in2="drop-shadow-1" result="drop-shadow-2"/><feBlend in="SourceGraphic" in2="drop-shadow-2" result="shape"/></filter></defs></svg>