<svg viewBox="0 0 185 40" fill="none" xmlns="http://www.w3.org/2000/svg"><rect width="185" height="40" rx="4" fill="#E8EFFB"/><path fill-rule="evenodd" clip-rule="evenodd" d="M10.114 24.216a.38.38 0 01-.216.064.322.322 0 01-.265-.113.467.467 0 01-.092-.304v-1.177h-.189c-.398 0-.734-.072-1.007-.215a1.433 1.433 0 01-.621-.627c-.14-.276-.209-.611-.209-1.008v-3.1c0-.398.07-.733.209-1.009.141-.275.349-.484.621-.627.273-.146.609-.219 1.007-.219h5.167c.398 0 .734.073 1.007.219.273.143.478.352.617.627.142.276.213.611.213 1.008v3.1c0 .398-.07.733-.213 1.009-.139.275-.345.485-.617.631-.273.143-.609.215-1.007.215l-2.712-.004-1.448 1.335c-.096.09-.178.154-.245.195zm.674-3.32c.056.07.138.106.245.106.11 0 .193-.034.249-.101a.433.433 0 00.084-.28v-.91h.814c.404 0 .729-.118.975-.353.249-.234.373-.543.373-.927 0-.383-.124-.693-.373-.93-.246-.238-.57-.357-.97-.357h-1.156c-.107 0-.188.035-.245.106a.442.442 0 00-.08.275v3.096c0 .114.028.205.084.276zm1.3-1.695h-.722v-1.543h.722c.24 0 .432.07.574.207.141.137.212.326.212.566 0 .238-.07.425-.212.563-.14.138-.33.207-.574.207z" fill="#3674ED"/><path d="M24.52 16.534V9.85h2.582c.064 0 .137.003.218.01.083.002.167.011.25.027.35.053.645.175.887.367.244.188.428.427.552.714.127.288.19.607.19.957 0 .346-.063.663-.19.951a1.848 1.848 0 01-.557.72c-.241.188-.535.309-.882.362a3.44 3.44 0 01-.468.037h-1.899v2.539h-.682zm.683-3.19h1.88c.056 0 .12-.002.195-.008.074-.007.147-.017.218-.033.229-.05.416-.144.562-.283.148-.14.258-.305.33-.497.073-.191.11-.391.11-.598 0-.208-.037-.407-.11-.6a1.277 1.277 0 00-.33-.5 1.14 1.14 0 00-.562-.284 1.27 1.27 0 00-.218-.027 2.382 2.382 0 00-.195-.01h-1.88v2.84zm4.92 3.19V11.52h.613v1.207l-.12-.158a1.722 1.722 0 01.51-.72c.13-.114.281-.2.455-.26.173-.062.348-.097.524-.106.177-.013.338 0 .483.037v.64a1.657 1.657 0 00-.599-.032 1.14 1.14 0 00-.599.26c-.167.13-.292.286-.375.469-.084.179-.14.37-.168.575a4.37 4.37 0 00-.041.599v2.502h-.683zm5.348.139c-.498 0-.923-.113-1.276-.339a2.205 2.205 0 01-.813-.938c-.188-.399-.283-.857-.283-1.373 0-.526.096-.987.288-1.384a2.18 2.18 0 01.817-.923c.356-.223.778-.334 1.267-.334.502 0 .929.113 1.281.338.356.223.627.534.813.933.188.396.283.853.283 1.37 0 .526-.095.988-.283 1.387a2.17 2.17 0 01-.817.929c-.356.223-.782.334-1.277.334zm0-.654c.557 0 .972-.185 1.244-.553.272-.371.409-.852.409-1.443 0-.607-.138-1.09-.413-1.449-.273-.358-.686-.538-1.24-.538-.374 0-.684.085-.928.255-.242.167-.422.401-.543.701-.118.297-.176.64-.176 1.03 0 .604.139 1.088.417 1.453.279.363.689.543 1.23.543zm9.379.515l.005-3.291c0-.387-.109-.69-.325-.91a1.082 1.082 0 00-.817-.334c-.189 0-.373.043-.553.13-.18.087-.328.226-.445.418-.115.191-.172.442-.172.752l-.404-.117a1.82 1.82 0 01.21-.942c.15-.269.358-.478.621-.626.266-.152.566-.228.9-.228.505 0 .909.156 1.212.469.303.31.455.729.455 1.258l-.005 3.42h-.682zm-5.983 0V11.52h.613v1.234h.074v3.779h-.687zm2.998 0l.005-3.245c0-.399-.107-.713-.32-.942-.21-.232-.49-.348-.836-.348s-.626.119-.84.357c-.213.235-.32.55-.32.943l-.409-.223c0-.322.076-.61.228-.864.152-.256.359-.458.622-.603.263-.149.562-.223.896-.223.318 0 .602.068.85.204.25.137.446.335.589.595.142.26.213.575.213.946l-.005 3.403h-.673zm7.127.139c-.461 0-.851-.116-1.17-.348a2.183 2.183 0 01-.724-.952 3.548 3.548 0 01-.246-1.35c0-.508.082-.96.246-1.356.167-.399.412-.713.733-.942.322-.229.718-.343 1.188-.343.459 0 .852.116 1.18.348.328.232.578.547.751.947.177.399.265.847.265 1.346 0 .5-.088.951-.265 1.35-.176.4-.43.717-.76.952-.332.232-.731.348-1.198.348zm-2.256 2.089V11.52h.613v3.773h.074v3.468h-.687zm2.186-2.725c.35 0 .64-.088.873-.264.232-.177.405-.417.52-.72.117-.306.176-.65.176-1.03 0-.378-.057-.718-.172-1.021a1.565 1.565 0 00-.524-.72c-.232-.176-.528-.265-.887-.265-.35 0-.64.085-.873.256-.228.17-.4.407-.515.71-.114.3-.171.647-.171 1.04 0 .386.057.733.171 1.04.115.303.288.54.52.714.232.173.526.26.882.26zm6.042.497a3.34 3.34 0 01-.836.07 1.854 1.854 0 01-.733-.177 1.058 1.058 0 01-.488-.492 1.446 1.446 0 01-.148-.562c-.006-.192-.01-.41-.01-.654v-4.59h.678v4.562c0 .21.002.387.005.53.006.138.038.262.097.37a.698.698 0 00.53.372c.244.04.546.03.905-.028v.599zm-3.287-4.428v-.585h3.287v.585h-3.287zm6.214 4.567c-.489 0-.913-.108-1.272-.325a2.205 2.205 0 01-.83-.914c-.199-.393-.298-.854-.298-1.384 0-.547.098-1.02.293-1.42.195-.4.469-.707.821-.924.356-.216.776-.324 1.258-.324.495 0 .918.114 1.267.343.35.226.615.55.794.975.18.424.261.93.246 1.518h-.696v-.242c-.013-.65-.153-1.14-.423-1.471-.266-.331-.656-.497-1.17-.497-.538 0-.95.175-1.239.525-.284.35-.427.848-.427 1.494 0 .632.143 1.122.427 1.472.288.346.695.52 1.221.52.36 0 .672-.082.938-.246a1.72 1.72 0 00.636-.72l.636.246c-.199.436-.49.775-.878 1.017a2.42 2.42 0 01-1.304.357zm-1.917-2.455v-.571h3.83v.57h-3.83zm7.171 2.455c-.467 0-.867-.116-1.198-.348a2.258 2.258 0 01-.76-.952c-.177-.399-.265-.85-.265-1.35 0-.499.086-.947.26-1.346.176-.4.428-.715.756-.947.328-.232.721-.348 1.18-.348.47 0 .865.114 1.187.343.322.229.565.543.73.942.166.396.25.848.25 1.356 0 .498-.082.948-.246 1.35-.164.4-.406.717-.724.952-.32.232-.709.348-1.17.348zm.07-.636c.355 0 .65-.087.882-.26.232-.173.405-.411.52-.715.114-.306.171-.653.171-1.04 0-.392-.057-.739-.172-1.04a1.52 1.52 0 00-.52-.71c-.229-.17-.518-.255-.868-.255-.358 0-.656.089-.89.265-.236.176-.41.416-.525.72a2.945 2.945 0 00-.167 1.02c0 .381.057.725.172 1.031.117.303.292.543.524.72.232.176.523.264.873.264zm1.573.497V12.76h-.074V9.85h.687v6.684h-.613zm3.773 0V9.85h4.178v.654h-3.495v2.312h2.938v.654h-2.938v2.41h3.495v.654H68.56zm6.65 0l-1.82-5.013h.692l1.48 4.121 1.472-4.121h.701l-1.82 5.013h-.705zm5.299.139c-.49 0-.913-.108-1.272-.325a2.205 2.205 0 01-.831-.914c-.198-.393-.297-.854-.297-1.384 0-.547.097-1.02.292-1.42.195-.4.47-.707.822-.924.356-.216.775-.324 1.258-.324.495 0 .917.114 1.267.343.35.226.614.55.794.975.18.424.261.93.246 1.518h-.697v-.242c-.012-.65-.153-1.14-.422-1.471-.266-.331-.656-.497-1.17-.497-.538 0-.951.175-1.239.525-.285.35-.427.848-.427 1.494 0 .632.142 1.122.427 1.472.288.346.695.52 1.22.52.36 0 .672-.082.938-.246a1.72 1.72 0 00.636-.72l.636.246c-.198.436-.49.775-.877 1.017a2.421 2.421 0 01-1.304.357zm-1.917-2.455v-.571h3.829v.57h-3.83zm8.71 2.316v-2.558c0-.278-.026-.534-.079-.766a1.766 1.766 0 00-.255-.612 1.168 1.168 0 00-.45-.409 1.422 1.422 0 00-.669-.144c-.241 0-.454.042-.64.126a1.262 1.262 0 00-.464.362 1.62 1.62 0 00-.283.566 2.72 2.72 0 00-.098.761l-.483-.107c0-.513.09-.945.27-1.295.179-.35.427-.614.742-.793.316-.18.678-.27 1.086-.27.3 0 .562.047.785.14.226.092.416.218.57.376.159.158.285.338.381.543.096.2.166.416.21.645.043.226.064.452.064.678v2.757h-.687zm-3.625 0V11.52h.618v1.234h.07v3.779h-.688zm8.246 0a3.34 3.34 0 01-.836.07 1.854 1.854 0 01-.733-.177 1.058 1.058 0 01-.487-.492 1.444 1.444 0 01-.149-.562 20.81 20.81 0 01-.01-.654v-4.59h.678v4.562c0 .21.002.387.005.53.006.138.039.262.098.37a.698.698 0 00.529.372c.244.04.546.03.905-.028v.599zm-3.286-4.428v-.585h3.286v.585h-3.286z" fill="#000"/><path d="M26.298 31.305a1.836 1.836 0 01-1.87-1.87v-2.228a1.848 1.848 0 01.915-1.623 1.87 1.87 0 01.955-.246 1.848 1.848 0 011.623.919c.165.28.247.598.247.95v2.229a1.826 1.826 0 01-.919 1.623 1.847 1.847 0 01-.951.246zm0-.565c.236 0 .45-.057.644-.17.194-.117.348-.273.462-.466a1.24 1.24 0 00.171-.64V27.18c0-.236-.057-.451-.171-.645a1.283 1.283 0 00-1.75-.461 1.283 1.283 0 00-.462.461 1.246 1.246 0 00-.171.645v2.283c0 .234.057.447.17.64.115.194.269.35.462.466.194.114.409.171.645.171zm5.016.565a1.836 1.836 0 01-1.87-1.87v-2.228a1.848 1.848 0 01.915-1.623 1.87 1.87 0 01.955-.246 1.848 1.848 0 011.623.919c.164.28.246.598.246.95v2.229c0 .352-.082.67-.246.954a1.847 1.847 0 01-1.623.915zm0-.565c.236 0 .45-.057.644-.17.194-.117.348-.273.462-.466a1.24 1.24 0 00.17-.64V27.18c0-.236-.056-.451-.17-.645a1.283 1.283 0 00-1.751-.461 1.283 1.283 0 00-.462.461 1.246 1.246 0 00-.17.645v2.283c0 .234.056.447.17.64.115.194.268.35.462.466.194.114.409.171.645.171zm3.464-.19v-.68h.68v.68h-.68zm.004-2.344v-.68h.68v.68h-.68zm4.084 3.1a1.836 1.836 0 01-1.87-1.87v-2.229a1.848 1.848 0 01.915-1.623 1.87 1.87 0 01.955-.246 1.848 1.848 0 011.623.919c.165.28.247.598.247.95v2.229a1.826 1.826 0 01-.92 1.623 1.847 1.847 0 01-.95.246zm0-.566c.236 0 .451-.057.645-.17.193-.117.347-.273.461-.466a1.24 1.24 0 00.171-.64V27.18c0-.236-.057-.451-.17-.645a1.283 1.283 0 00-1.751-.461 1.283 1.283 0 00-.462.461 1.246 1.246 0 00-.17.645v2.283c0 .234.056.447.17.64.114.194.268.35.462.466.193.114.408.171.644.171zm5.016.565a1.836 1.836 0 01-1.87-1.87v-2.228a1.848 1.848 0 01.915-1.623 1.87 1.87 0 01.955-.246 1.848 1.848 0 011.623.919c.164.28.247.598.247.95v2.229a1.826 1.826 0 01-.92 1.623 1.847 1.847 0 01-.95.246zm0-.565c.236 0 .45-.057.644-.17.194-.117.348-.273.462-.466a1.24 1.24 0 00.171-.64V27.18c0-.236-.057-.451-.171-.645a1.283 1.283 0 00-1.75-.461 1.283 1.283 0 00-.462.461 1.246 1.246 0 00-.171.645v2.283c0 .234.057.447.17.64.115.194.269.35.462.466.194.114.409.171.645.171zm3.464-.19v-.68h.68v.68h-.68zm.004-2.344v-.68h.68v.68h-.68zm3.213 2.98V26.11l-1.078.648v-.656l1.078-.645h.593v5.729h-.593zm4.131.12a1.836 1.836 0 01-1.87-1.87v-2.229a1.848 1.848 0 01.915-1.623 1.87 1.87 0 01.955-.246 1.848 1.848 0 011.623.919c.165.28.247.598.247.95v2.229a1.826 1.826 0 01-.919 1.623 1.847 1.847 0 01-.951.246zm0-.566c.236 0 .45-.057.645-.17.193-.117.347-.273.461-.466a1.24 1.24 0 00.171-.64V27.18c0-.236-.057-.451-.17-.645a1.283 1.283 0 00-1.752-.461 1.283 1.283 0 00-.461.461 1.246 1.246 0 00-.171.645v2.283c0 .234.057.447.171.64.114.194.268.35.462.466.193.114.408.171.644.171zM169.749 12.092c-.608 0-1.105.497-1.105 1.105s.497 1.105 1.105 1.105 1.105-.497 1.105-1.105-.497-1.105-1.105-1.105zm6.631 0c-.608 0-1.105.497-1.105 1.105s.497 1.105 1.105 1.105 1.105-.497 1.105-1.105-.497-1.105-1.105-1.105zm-3.316 0c-.607 0-1.105.497-1.105 1.105s.498 1.105 1.105 1.105c.608 0 1.106-.497 1.106-1.105s-.498-1.105-1.106-1.105z" fill="#3674ED"/><path d="M150.999 30.273c-.358 0-.675-.071-.951-.215a1.624 1.624 0 01-.645-.6 1.763 1.763 0 01-.23-.911c0-.356.086-.672.258-.947.173-.279.435-.49.788-.633l-.008.23a1.294 1.294 0 01-.672-.532 1.517 1.517 0 01-.231-.82c0-.318.073-.591.219-.82.146-.23.345-.408.597-.533.254-.124.546-.187.875-.187.329 0 .621.063.875.187.255.125.455.303.601.534.146.228.219.5.219.82 0 .299-.075.57-.223.815-.146.244-.37.423-.672.537l-.02-.231c.352.14.616.35.791.629.178.278.267.595.267.95 0 .348-.078.652-.235.912a1.606 1.606 0 01-.648.6 2.042 2.042 0 01-.955.215zm0-.56c.361 0 .654-.1.879-.3.226-.2.338-.49.338-.866 0-.382-.111-.672-.334-.868-.223-.199-.517-.298-.883-.298s-.659.1-.879.298c-.221.197-.331.486-.331.868 0 .376.112.665.335.867.222.199.514.298.875.298zm0-2.897c.318 0 .577-.081.776-.243.199-.164.298-.407.298-.728 0-.32-.099-.56-.298-.72-.199-.162-.458-.243-.776-.243s-.577.081-.776.243c-.196.16-.294.4-.294.72 0 .321.098.564.294.728.199.162.458.243.776.243zm3.346 2.701v-.68h.681v.68h-.681zm.004-2.343v-.68h.681v.68h-.681zm4.085 3.1a1.831 1.831 0 01-1.87-1.87v-2.229a1.843 1.843 0 01.915-1.623 1.87 1.87 0 01.955-.247 1.847 1.847 0 011.623.92c.165.28.247.598.247.95v2.228c0 .353-.082.671-.247.955a1.848 1.848 0 01-1.623.915zm0-.566c.236 0 .451-.057.644-.17.194-.118.348-.273.462-.466a1.24 1.24 0 00.171-.64v-2.284c0-.237-.057-.451-.171-.645a1.281 1.281 0 00-.462-.462 1.221 1.221 0 00-.644-.175 1.287 1.287 0 00-1.106.637 1.247 1.247 0 00-.171.645v2.283c0 .233.057.447.171.64.114.194.268.35.461.466.194.114.409.171.645.171zm3.452.446l2.109-5.16h-2.654v-.57h3.278v.57l-2.104 5.16h-.629zm5.201 0l1.973-5.73h.776l1.974 5.73h-.609l-1.874-5.403h.231l-1.862 5.403h-.609zm.879-1.389v-.549h2.96v.55h-2.96zm4.721 1.389v-5.73h.537l2.252 4.819 2.24-4.818h.545v5.725h-.557v-4.42l-2.041 4.424h-.378l-2.037-4.424v4.424h-.561z" fill="#6B7280"/></svg>