<svg viewBox="0 0 759 491" fill="none" xmlns="http://www.w3.org/2000/svg"><g filter="url(#prefix__filter0_dd_850_1986)"><rect x="534" y="291.229" width="185" height="39.262" rx="3.978" fill="#E8EFFB"/><path fill-rule="evenodd" clip-rule="evenodd" d="M544.114 315.216a.378.378 0 01-.216.064c-.115 0-.203-.037-.265-.113a.471.471 0 01-.092-.304v-1.177h-.189c-.398 0-.734-.072-1.007-.215a1.43 1.43 0 01-.621-.627c-.139-.276-.209-.612-.209-1.008v-3.101c0-.396.07-.732.209-1.008a1.43 1.43 0 01.621-.627c.273-.146.609-.219 1.007-.219h5.167c.398 0 .734.073 1.007.219.273.143.478.352.618.627.141.276.212.612.212 1.008v3.101c0 .396-.071.732-.212 1.008-.14.275-.345.485-.618.631-.273.143-.609.215-1.007.215l-2.712-.004-1.448 1.335a1.654 1.654 0 01-.245.195zm.674-3.32c.056.071.138.106.245.106.11 0 .193-.034.249-.101a.438.438 0 00.084-.28v-.91h.814c.404 0 .729-.118.975-.353.249-.234.373-.543.373-.927 0-.383-.124-.693-.373-.931-.246-.237-.57-.356-.971-.356h-1.155c-.107 0-.189.035-.245.105a.448.448 0 00-.08.276v3.096c0 .114.028.205.084.275zm1.3-1.696h-.722v-1.542h.722c.241 0 .432.069.574.207.141.137.212.326.212.566 0 .238-.071.425-.212.563-.139.138-.331.206-.574.206z" fill="#3674ED"/><path d="M558.521 307.534v-6.684h2.581c.064 0 .137.003.218.009.083.003.167.012.25.028.35.053.645.175.887.367.244.188.428.427.552.714.127.288.191.607.191.957 0 .346-.064.663-.191.951a1.845 1.845 0 01-.557.72 1.863 1.863 0 01-.882.362 3.534 3.534 0 01-.468.037h-1.899v2.539h-.682zm.682-3.189h1.88c.056 0 .121-.003.195-.009.074-.007.147-.017.218-.033.229-.049.416-.144.562-.283.148-.139.258-.305.329-.497a1.644 1.644 0 000-1.197 1.277 1.277 0 00-.329-.501 1.143 1.143 0 00-.562-.284 1.312 1.312 0 00-.218-.027 2.085 2.085 0 00-.195-.01h-1.88v2.841zm4.92 3.189v-5.013h.613v1.207l-.121-.158c.056-.149.129-.285.218-.409.09-.127.188-.23.293-.311.13-.114.281-.201.455-.26.173-.061.348-.097.524-.106.177-.013.338 0 .483.037v.64a1.66 1.66 0 00-.599-.032 1.143 1.143 0 00-.599.26c-.167.13-.292.286-.375.469a1.98 1.98 0 00-.168.575 4.5 4.5 0 00-.041.599v2.502h-.683zm5.348.139c-.498 0-.923-.113-1.276-.339a2.197 2.197 0 01-.812-.937 3.18 3.18 0 01-.284-1.374c0-.526.096-.988.288-1.384.192-.396.464-.704.817-.923.356-.223.778-.334 1.267-.334.502 0 .929.112 1.281.338.356.223.627.534.813.933.188.396.283.853.283 1.37 0 .526-.095.988-.283 1.387a2.168 2.168 0 01-.817.929c-.356.223-.782.334-1.277.334zm0-.655c.557 0 .972-.184 1.244-.552.272-.371.409-.852.409-1.443 0-.607-.138-1.09-.413-1.449-.273-.359-.686-.538-1.24-.538-.374 0-.684.085-.928.255a1.518 1.518 0 00-.543.701 2.78 2.78 0 00-.177 1.031c0 .603.14 1.087.418 1.452.279.362.689.543 1.23.543zm9.379.516l.005-3.291c0-.387-.109-.69-.325-.91a1.082 1.082 0 00-.817-.334c-.189 0-.373.043-.553.13a1.06 1.06 0 00-.445.418c-.115.191-.172.442-.172.752l-.404-.117a1.828 1.828 0 01.209-.942c.152-.269.359-.478.622-.626.266-.152.566-.228.901-.228.504 0 .908.156 1.211.469.303.309.455.729.455 1.258l-.005 3.421h-.682zm-5.983 0v-5.013h.613v1.234h.074v3.779h-.687zm2.998 0l.005-3.245c0-.399-.107-.713-.32-.942-.211-.232-.489-.348-.836-.348-.346 0-.626.119-.84.357-.213.235-.32.55-.32.943l-.409-.223c0-.322.076-.61.228-.864.152-.256.359-.458.622-.603.263-.149.561-.223.896-.223.318 0 .602.068.849.204.251.137.447.335.59.595.142.259.213.575.213.946l-.005 3.403h-.673zm7.127.139c-.461 0-.851-.116-1.17-.348a2.182 2.182 0 01-.724-.952 3.544 3.544 0 01-.246-1.35c0-.508.082-.96.246-1.356.167-.399.411-.713.733-.942.322-.229.718-.343 1.189-.343.458 0 .851.116 1.179.348.328.232.578.547.751.947.177.399.265.847.265 1.346 0 .501-.088.951-.265 1.35-.176.399-.43.717-.761.952-.331.232-.73.348-1.197.348zm-2.256 2.089v-7.241h.613v3.773h.074v3.468h-.687zm2.186-2.725c.35 0 .641-.088.873-.265.232-.176.405-.416.52-.719.117-.306.176-.65.176-1.03 0-.378-.057-.718-.172-1.022a1.56 1.56 0 00-.524-.719c-.232-.176-.528-.265-.887-.265-.35 0-.64.086-.872.256-.229.17-.401.407-.516.71-.114.3-.171.647-.171 1.04 0 .386.057.733.171 1.039.115.304.288.542.52.715.232.173.526.26.882.26zm6.042.497a3.355 3.355 0 01-.836.069 1.848 1.848 0 01-.733-.176 1.058 1.058 0 01-.488-.492 1.455 1.455 0 01-.148-.562c-.006-.192-.01-.41-.01-.654v-4.591h.678v4.563c0 .21.002.387.005.529a.84.84 0 00.097.371.698.698 0 00.529.372c.245.04.547.031.906-.028v.599zm-3.287-4.428v-.585h3.287v.585h-3.287zm6.214 4.567c-.489 0-.913-.108-1.272-.325a2.205 2.205 0 01-.831-.914c-.198-.393-.297-.854-.297-1.384 0-.547.098-1.021.293-1.42.195-.399.469-.707.821-.924.356-.216.775-.324 1.258-.324.495 0 .918.114 1.267.343.35.226.615.551.794.975.18.424.262.93.246 1.518h-.696v-.242c-.013-.65-.153-1.14-.423-1.471-.266-.331-.656-.497-1.169-.497-.539 0-.952.175-1.24.525-.284.349-.427.848-.427 1.494 0 .631.143 1.122.427 1.472.288.346.695.519 1.221.519.359 0 .672-.082.938-.246a1.72 1.72 0 00.636-.719l.636.246a2.28 2.28 0 01-.878 1.017 2.42 2.42 0 01-1.304.357zm-1.917-2.455v-.571h3.829v.571h-3.829zm7.171 2.455c-.467 0-.866-.116-1.198-.348a2.264 2.264 0 01-.761-.952 3.312 3.312 0 01-.264-1.35c0-.499.086-.947.26-1.346.176-.4.428-.715.756-.947.328-.232.721-.348 1.179-.348.47 0 .867.114 1.188.343.322.229.565.543.729.942.167.396.251.848.251 1.356 0 .498-.082.948-.246 1.35a2.19 2.19 0 01-.724.952c-.319.232-.709.348-1.17.348zm.07-.636c.355 0 .649-.087.881-.26.233-.173.406-.411.52-.715a2.94 2.94 0 00.172-1.039c0-.393-.057-.74-.172-1.04a1.51 1.51 0 00-.52-.71c-.229-.17-.518-.256-.867-.256-.359 0-.657.089-.892.265a1.56 1.56 0 00-.524.719 2.937 2.937 0 00-.167 1.022c0 .38.057.724.171 1.03.118.303.293.543.525.719.232.177.523.265.873.265zm1.573.497v-3.774h-.074v-2.91h.687v6.684h-.613zm3.773 0v-6.684h4.178v.654h-3.495v2.312h2.938v.654h-2.938v2.409h3.495v.655h-4.178zm6.65 0l-1.819-5.013h.691l1.481 4.122 1.471-4.122h.701l-1.819 5.013h-.706zm5.299.139c-.489 0-.913-.108-1.272-.325a2.205 2.205 0 01-.831-.914c-.198-.393-.297-.854-.297-1.384 0-.547.097-1.021.292-1.42.195-.399.469-.707.822-.924.356-.216.775-.324 1.258-.324.495 0 .917.114 1.267.343.35.226.614.551.794.975.179.424.261.93.246 1.518h-.697v-.242c-.012-.65-.153-1.14-.422-1.471-.266-.331-.656-.497-1.17-.497-.538 0-.951.175-1.239.525-.285.349-.427.848-.427 1.494 0 .631.142 1.122.427 1.472.288.346.695.519 1.221.519.359 0 .671-.082.937-.246.27-.167.482-.406.636-.719l.636.246c-.198.436-.49.775-.877 1.017a2.425 2.425 0 01-1.304.357zm-1.917-2.455v-.571h3.829v.571h-3.829zm8.71 2.316v-2.558c0-.278-.026-.534-.079-.766a1.742 1.742 0 00-.255-.612 1.165 1.165 0 00-.45-.409 1.426 1.426 0 00-.669-.144c-.241 0-.454.042-.64.126a1.251 1.251 0 00-.464.362 1.61 1.61 0 00-.283.566 2.717 2.717 0 00-.098.761l-.483-.107c0-.513.09-.945.27-1.295.179-.349.427-.614.742-.793.316-.18.678-.27 1.086-.27.301 0 .562.047.785.14.226.093.416.218.571.376.158.157.284.339.38.543.096.201.166.416.209.645.043.226.065.452.065.678v2.757h-.687zm-3.625 0v-5.013h.617v1.234h.07v3.779h-.687zm8.246 0a3.35 3.35 0 01-.836.069 1.852 1.852 0 01-.733-.176 1.056 1.056 0 01-.487-.492 1.44 1.44 0 01-.149-.562c-.006-.192-.009-.41-.009-.654v-4.591h.678v4.563c0 .21.001.387.004.529a.84.84 0 00.098.371.695.695 0 00.529.372c.244.04.546.031.905-.028v.599zm-3.286-4.428v-.585h3.286v.585h-3.286z" fill="#000"/><path d="M560.298 322.305c-.353 0-.671-.082-.955-.246a1.84 1.84 0 01-.915-1.624v-2.227a1.842 1.842 0 011.87-1.87c.353 0 .67.082.951.246a1.842 1.842 0 01.919 1.624v2.227a1.827 1.827 0 01-.919 1.624 1.851 1.851 0 01-.951.246zm0-.565c.236 0 .451-.057.644-.171.194-.116.348-.271.462-.465a1.24 1.24 0 00.171-.641v-2.283a1.25 1.25 0 00-.171-.645 1.284 1.284 0 00-.462-.461 1.219 1.219 0 00-.644-.175 1.29 1.29 0 00-1.106.636 1.25 1.25 0 00-.171.645v2.283c0 .234.057.447.171.641.114.194.268.349.461.465.194.114.409.171.645.171zm5.016.565c-.353 0-.671-.082-.955-.246a1.85 1.85 0 01-.669-.669 1.871 1.871 0 01-.246-.955v-2.227a1.851 1.851 0 01.915-1.624c.284-.164.602-.246.955-.246.352 0 .669.082.95.246.284.165.508.389.673.673.164.281.246.598.246.951v2.227c0 .353-.082.672-.246.955a1.838 1.838 0 01-1.623.915zm0-.565c.236 0 .45-.057.644-.171.194-.116.348-.271.462-.465a1.24 1.24 0 00.171-.641v-2.283a1.25 1.25 0 00-.171-.645 1.284 1.284 0 00-.462-.461 1.221 1.221 0 00-.644-.175 1.281 1.281 0 00-1.106.636 1.24 1.24 0 00-.172.645v2.283c0 .234.057.447.172.641a1.3 1.3 0 00.461.465c.194.114.408.171.645.171zm3.464-.191v-.68h.68v.68h-.68zm.004-2.343v-.68h.68v.68h-.68zm4.084 3.099c-.353 0-.671-.082-.955-.246a1.84 1.84 0 01-.915-1.624v-2.227a1.842 1.842 0 011.87-1.87c.353 0 .67.082.951.246a1.842 1.842 0 01.919 1.624v2.227a1.827 1.827 0 01-.919 1.624 1.851 1.851 0 01-.951.246zm0-.565c.236 0 .451-.057.645-.171.193-.116.347-.271.461-.465a1.24 1.24 0 00.171-.641v-2.283a1.25 1.25 0 00-.171-.645 1.29 1.29 0 00-1.106-.636c-.236 0-.451.058-.644.175a1.284 1.284 0 00-.462.461 1.25 1.25 0 00-.171.645v2.283c0 .234.057.447.171.641.114.194.268.349.462.465.193.114.408.171.644.171zm5.016.565c-.353 0-.671-.082-.955-.246a1.84 1.84 0 01-.915-1.624v-2.227a1.842 1.842 0 011.87-1.87c.353 0 .67.082.951.246a1.842 1.842 0 01.919 1.624v2.227a1.827 1.827 0 01-.919 1.624 1.851 1.851 0 01-.951.246zm0-.565c.236 0 .451-.057.644-.171.194-.116.348-.271.462-.465a1.24 1.24 0 00.171-.641v-2.283a1.25 1.25 0 00-.171-.645 1.284 1.284 0 00-.462-.461 1.219 1.219 0 00-.644-.175 1.29 1.29 0 00-1.106.636 1.25 1.25 0 00-.171.645v2.283c0 .234.057.447.171.641.114.194.268.349.461.465.194.114.409.171.645.171zm3.464-.191v-.68h.68v.68h-.68zm.004-2.343v-.68h.68v.68h-.68zm3.213 2.98v-5.077l-1.078.649v-.656l1.078-.645h.593v5.729h-.593zm4.131.119c-.353 0-.671-.082-.955-.246a1.84 1.84 0 01-.915-1.624v-2.227a1.842 1.842 0 011.87-1.87c.353 0 .67.082.951.246a1.842 1.842 0 01.919 1.624v2.227a1.827 1.827 0 01-.919 1.624 1.851 1.851 0 01-.951.246zm0-.565c.236 0 .451-.057.645-.171.193-.116.347-.271.461-.465a1.24 1.24 0 00.171-.641v-2.283a1.25 1.25 0 00-.171-.645 1.29 1.29 0 00-1.106-.636c-.236 0-.451.058-.644.175a1.284 1.284 0 00-.462.461 1.25 1.25 0 00-.171.645v2.283c0 .234.057.447.171.641.114.194.268.349.462.465.193.114.408.171.644.171zM703.749 303.092c-.608 0-1.105.497-1.105 1.105s.497 1.105 1.105 1.105 1.105-.497 1.105-1.105-.497-1.105-1.105-1.105zm6.631 0c-.608 0-1.105.497-1.105 1.105s.497 1.105 1.105 1.105 1.105-.497 1.105-1.105-.497-1.105-1.105-1.105zm-3.316 0c-.607 0-1.105.497-1.105 1.105s.498 1.105 1.105 1.105c.608 0 1.106-.497 1.106-1.105s-.498-1.105-1.106-1.105z" fill="#3674ED"/><path d="M684.999 321.273c-.358 0-.675-.071-.951-.215a1.622 1.622 0 01-.645-.6 1.765 1.765 0 01-.23-.912c0-.355.086-.671.258-.946.173-.279.435-.49.788-.633l-.008.231a1.298 1.298 0 01-.672-.533 1.518 1.518 0 01-.231-.82c0-.318.073-.591.219-.819.146-.231.345-.409.597-.534.254-.124.546-.187.875-.187.329 0 .621.063.875.187.255.125.455.303.601.534.146.228.219.501.219.819 0 .3-.075.572-.223.816-.146.244-.37.423-.672.537l-.02-.231c.352.141.616.35.791.629.178.278.267.595.267.95 0 .348-.078.652-.235.912a1.605 1.605 0 01-.648.6 2.034 2.034 0 01-.955.215zm0-.561c.361 0 .654-.099.879-.298.226-.202.338-.491.338-.868 0-.381-.111-.671-.334-.867-.223-.199-.517-.298-.883-.298s-.659.099-.879.298c-.221.196-.331.486-.331.867 0 .377.112.666.335.868.222.199.514.298.875.298zm0-2.896c.318 0 .577-.081.776-.243.199-.164.298-.407.298-.728s-.099-.561-.298-.72c-.199-.162-.458-.243-.776-.243s-.577.081-.776.243c-.196.159-.294.399-.294.72 0 .321.098.564.294.728.199.162.458.243.776.243zm3.346 2.701v-.68h.681v.68h-.681zm.004-2.343v-.68h.681v.68h-.681zm4.085 3.099a1.829 1.829 0 01-1.87-1.87v-2.228a1.848 1.848 0 01.915-1.623c.284-.164.602-.247.955-.247s.67.083.951.247a1.848 1.848 0 01.919 1.623v2.228c0 .353-.082.671-.247.955a1.842 1.842 0 01-1.623.915zm0-.565c.236 0 .451-.057.644-.171.194-.117.348-.272.462-.465a1.24 1.24 0 00.171-.641v-2.284c0-.236-.057-.45-.171-.644a1.279 1.279 0 00-.462-.462 1.228 1.228 0 00-.644-.175 1.284 1.284 0 00-1.106.637 1.246 1.246 0 00-.171.644v2.284c0 .234.057.447.171.641.114.193.268.348.461.465.194.114.409.171.645.171zm3.452.446l2.109-5.16h-2.654v-.569h3.278v.569l-2.104 5.16h-.629zm5.201 0l1.973-5.729h.776l1.974 5.729h-.609l-1.874-5.403h.231l-1.862 5.403h-.609zm.879-1.389v-.549h2.96v.549h-2.96zm4.721 1.389v-5.729h.537l2.252 4.818 2.24-4.818h.545v5.725h-.557v-4.42l-2.041 4.424h-.378l-2.037-4.424v4.424h-.561z" fill="#6B7280"/></g><defs><filter id="prefix__filter0_dd_850_1986" x="494" y="263.229" width="265" height="119.262" filterUnits="userSpaceOnUse" color-interpolation-filters="sRGB"><feFlood flood-opacity="0" result="BackgroundImageFix"/><feColorMatrix in="SourceAlpha" values="0 0 0 0 0 0 0 0 0 0 0 0 0 0 0 0 0 0 127 0" result="hardAlpha"/><feOffset dy="12"/><feGaussianBlur stdDeviation="20"/><feComposite in2="hardAlpha" operator="out"/><feColorMatrix values="0 0 0 0 0 0 0 0 0 0.4 0 0 0 0 0.713726 0 0 0 0.24 0"/><feBlend in2="BackgroundImageFix" result="effect1_dropShadow_850_1986"/><feColorMatrix in="SourceAlpha" values="0 0 0 0 0 0 0 0 0 0 0 0 0 0 0 0 0 0 127 0" result="hardAlpha"/><feMorphology radius="2" in="SourceAlpha" result="effect2_dropShadow_850_1986"/><feOffset dy="4"/><feGaussianBlur stdDeviation="3"/><feComposite in2="hardAlpha" operator="out"/><feColorMatrix values="0 0 0 0 0 0 0 0 0 0 0 0 0 0 0 0 0 0 0.08 0"/><feBlend in2="effect1_dropShadow_850_1986" result="effect2_dropShadow_850_1986"/><feBlend in="SourceGraphic" in2="effect2_dropShadow_850_1986" result="shape"/></filter></defs></svg>