<svg viewBox="0 0 185 40" fill="none" xmlns="http://www.w3.org/2000/svg"><rect width="185" height="40" rx="4" fill="#fff"/><path d="M15.03 20.573H8.84v-.884h6.189v.884z" fill="#3674ED"/><path d="M27.13 16.944c-.511 0-.963-.105-1.356-.316a2.314 2.314 0 01-.919-.89c-.223-.385-.334-.833-.334-1.347v-4.265l.687-.005v4.182c0 .346.059.647.176.9.118.251.27.458.46.622a2.027 2.027 0 001.286.473c.216 0 .437-.038.663-.115.226-.078.433-.197.622-.358.189-.164.342-.371.46-.622.117-.253.176-.554.176-.9V10.12h.687v4.27c0 .514-.111.962-.334 1.346-.223.38-.531.678-.924.891-.39.21-.84.316-1.35.316zm7.53-.14v-2.557c0-.278-.027-.534-.08-.766a1.766 1.766 0 00-.255-.612 1.166 1.166 0 00-.45-.409 1.421 1.421 0 00-.668-.144c-.242 0-.455.042-.641.126a1.262 1.262 0 00-.464.362 1.623 1.623 0 00-.283.566 2.72 2.72 0 00-.098.761l-.483-.107c0-.513.09-.945.27-1.295.18-.35.427-.614.742-.793.316-.18.678-.27 1.087-.27.3 0 .561.047.784.14.226.093.416.218.57.376.159.157.285.338.381.543.096.2.166.416.21.645.043.226.064.452.064.678v2.757h-.687zm-3.626 0v-5.012h.618v1.234h.07v3.779h-.688zm7.434.14c-.467 0-.866-.116-1.197-.348a2.258 2.258 0 01-.761-.952c-.177-.399-.265-.85-.265-1.35 0-.499.087-.947.26-1.347.176-.399.429-.714.757-.946.328-.232.72-.348 1.179-.348.47 0 .866.114 1.188.343.322.229.565.543.729.942.167.396.25.848.25 1.356 0 .498-.082.948-.246 1.35-.164.4-.405.717-.724.952-.319.232-.709.348-1.17.348zm.07-.636c.356 0 .65-.087.882-.26a1.55 1.55 0 00.52-.715c.114-.306.172-.653.172-1.04 0-.392-.058-.739-.172-1.04a1.52 1.52 0 00-.52-.71c-.229-.17-.518-.255-.868-.255-.359 0-.656.089-.891.265-.235.176-.41.416-.525.72a2.946 2.946 0 00-.167 1.02c0 .381.057.725.172 1.031.117.303.292.543.524.72.233.176.523.264.873.264zm1.574.497V13.03h-.075v-2.91h.687v6.684h-.612zm4.036.139c-.49 0-.913-.108-1.272-.325a2.205 2.205 0 01-.831-.914c-.198-.393-.297-.854-.297-1.384 0-.547.097-1.02.292-1.42.195-.4.47-.707.822-.924.356-.216.775-.325 1.258-.325.495 0 .917.115 1.267.344.35.226.614.55.794.975.18.424.261.93.246 1.518h-.697v-.242c-.012-.65-.153-1.14-.422-1.471-.266-.331-.656-.497-1.17-.497-.538 0-.951.175-1.239.525-.285.35-.427.848-.427 1.494 0 .632.142 1.122.427 1.472.288.346.695.52 1.22.52.36 0 .672-.082.938-.246a1.72 1.72 0 00.636-.72l.636.246c-.198.436-.49.775-.877 1.017a2.421 2.421 0 01-1.304.357zm-1.917-2.455v-.571h3.829v.57h-3.83zm7.096 2.45c-.588 0-1.072-.127-1.453-.38a1.586 1.586 0 01-.696-1.059l.697-.116c.074.285.242.512.505.683.267.167.594.25.984.25.381 0 .681-.079.9-.236.22-.161.33-.38.33-.655a.616.616 0 00-.106-.376c-.068-.099-.21-.19-.423-.274a9.912 9.912 0 00-.956-.297 6.453 6.453 0 01-1.067-.371c-.257-.124-.44-.266-.548-.427a1.063 1.063 0 01-.163-.599c0-.285.08-.534.242-.747.16-.217.383-.384.668-.501.285-.121.616-.181.993-.181.378 0 .715.061 1.012.185.3.12.542.291.724.51.183.22.291.476.325.767l-.696.125a1.003 1.003 0 00-.44-.696c-.245-.174-.556-.263-.934-.27-.356-.009-.645.06-.868.205-.223.142-.334.332-.334.57 0 .134.04.248.12.344.081.093.227.181.437.265.214.083.517.175.91.274.46.117.823.24 1.086.37.263.13.45.284.562.46.11.177.167.395.167.655 0 .473-.177.846-.53 1.118-.35.27-.832.404-1.448.404zm3.1-6.099v-.766h.682v.766h-.682zm0 5.965v-5.013h.682v5.013h-.682zm2.074 0v-5.013h.612v1.207l-.12-.158a1.723 1.723 0 01.51-.72c.13-.114.282-.2.455-.26.173-.062.348-.097.525-.106.176-.013.337 0 .482.037v.64a1.656 1.656 0 00-.598-.032 1.141 1.141 0 00-.6.26c-.166.13-.292.286-.375.469-.084.179-.14.37-.167.575-.028.201-.042.4-.042.599v2.502h-.682zm5.375.139c-.488 0-.912-.108-1.271-.325a2.205 2.205 0 01-.831-.914c-.198-.393-.297-.854-.297-1.384 0-.547.097-1.02.292-1.42.195-.4.469-.707.822-.924.355-.216.775-.325 1.258-.325.495 0 .917.115 1.267.344.35.226.614.55.793.975.18.424.262.93.246 1.518h-.696v-.242c-.012-.65-.153-1.14-.422-1.471-.266-.331-.656-.497-1.17-.497-.538 0-.951.175-1.24.525-.284.35-.426.848-.426 1.494 0 .632.142 1.122.427 1.472.288.346.694.52 1.22.52.36 0 .672-.082.938-.246.27-.168.481-.407.636-.72l.636.246c-.198.436-.49.775-.877 1.017a2.421 2.421 0 01-1.305.357zm-1.917-2.455v-.571h3.83v.57h-3.83zm7.171 2.455c-.467 0-.866-.116-1.197-.348a2.257 2.257 0 01-.761-.952c-.177-.399-.265-.85-.265-1.35 0-.499.087-.947.26-1.347.176-.399.428-.714.756-.946.328-.232.721-.348 1.18-.348.47 0 .866.114 1.188.343.322.229.564.543.728.942.167.396.251.848.251 1.356 0 .498-.082.948-.246 1.35-.164.4-.405.717-.724.952-.319.232-.709.348-1.17.348zm.07-.636c.356 0 .65-.087.882-.26.232-.173.405-.411.52-.715.114-.306.171-.653.171-1.04 0-.392-.057-.739-.171-1.04a1.52 1.52 0 00-.52-.71c-.23-.17-.518-.255-.868-.255-.36 0-.656.089-.891.265-.235.176-.41.416-.525.72a2.946 2.946 0 00-.167 1.02c0 .381.057.725.172 1.031.117.303.292.543.524.72.232.176.523.264.873.264zm1.573.497V13.03H66.7v-2.91h.687v6.684h-.613zm3.774 0V10.12h2.58c.375 0 .701.077.98.232a1.689 1.689 0 01.882 1.49c0 .359-.096.68-.288.96a1.489 1.489 0 01-.77.58l-.01-.227c.433.124.774.34 1.021.65.248.31.372.684.372 1.124 0 .386-.082.72-.246 1.002a1.66 1.66 0 01-.692.645 2.247 2.247 0 01-1.035.228h-2.794zm.687-.655h1.94c.272 0 .517-.048.733-.144a1.22 1.22 0 00.51-.417c.128-.18.191-.396.191-.65a1.298 1.298 0 00-.64-1.142 1.245 1.245 0 00-.669-.181h-2.065v2.534zm0-3.18h1.889c.213 0 .408-.047.585-.143a1.115 1.115 0 00.575-.993.989.989 0 00-.33-.77c-.216-.199-.493-.298-.83-.298h-1.89v2.205zm7.127 3.974c-.489 0-.913-.108-1.272-.325a2.205 2.205 0 01-.83-.914c-.198-.393-.298-.854-.298-1.384 0-.547.098-1.02.293-1.42.195-.4.469-.707.821-.924.356-.216.776-.325 1.258-.325.495 0 .918.115 1.267.344.35.226.615.55.794.975.18.424.262.93.246 1.518h-.696v-.242c-.013-.65-.153-1.14-.422-1.471-.267-.331-.657-.497-1.17-.497-.539 0-.952.175-1.24.525-.284.35-.426.848-.426 1.494 0 .632.142 1.122.426 1.472.288.346.695.52 1.221.52.36 0 .672-.082.938-.246a1.72 1.72 0 00.636-.72l.636.246c-.198.436-.49.775-.878 1.017a2.421 2.421 0 01-1.304.357zm-1.917-2.455v-.571h3.83v.57h-3.83zm8.847 2.316v-2.558c0-.278-.027-.534-.08-.766a1.766 1.766 0 00-.255-.612 1.166 1.166 0 00-.45-.409 1.422 1.422 0 00-.668-.144c-.241 0-.455.042-.64.126a1.263 1.263 0 00-.465.362 1.624 1.624 0 00-.283.566 2.72 2.72 0 00-.097.761l-.483-.107c0-.513.09-.945.269-1.295.18-.35.427-.614.743-.793.315-.18.677-.27 1.086-.27.3 0 .561.047.784.14.226.093.416.218.571.376.158.157.285.338.38.543.097.2.166.416.21.645.043.226.065.452.065.678v2.757h-.687zm-3.625 0V10.12h.617v3.773h.07v2.91h-.687zm6.95.139c-.377 0-.694-.068-.951-.204a1.385 1.385 0 01-.571-.543 1.481 1.481 0 01-.19-.738c0-.273.054-.505.162-.697.111-.195.261-.354.45-.478.192-.123.413-.218.664-.283.254-.062.534-.116.84-.162.31-.05.611-.092.905-.126.297-.037.557-.072.78-.106l-.241.148c.009-.495-.087-.862-.288-1.1-.201-.238-.55-.357-1.05-.357-.343 0-.633.077-.872.232-.235.155-.4.399-.496.733l-.664-.195c.114-.448.345-.797.692-1.044.346-.248.796-.371 1.35-.371.458 0 .847.086 1.165.26.322.17.55.417.683.742.061.146.102.308.12.488.019.179.028.361.028.547v3.115h-.608v-1.258l.176.074c-.17.43-.434.758-.793.984-.36.226-.79.339-1.29.339zm.08-.59c.318 0 .597-.057.835-.171a1.51 1.51 0 00.858-1.147c.038-.16.058-.337.06-.529.004-.195.005-.34.005-.436l.26.134c-.232.031-.484.062-.756.093-.27.031-.536.067-.799.107a6.88 6.88 0 00-.705.144c-.142.04-.28.097-.413.172a.954.954 0 00-.33.287.773.773 0 00-.125.45.9.9 0 00.107.423c.074.136.192.25.352.339.164.09.381.135.65.135zm4.818.45l-1.82-5.012h.692l1.481 4.122 1.472-4.122h.7l-1.819 5.013h-.706zm3.452-5.964v-.766h.682v.766h-.682zm0 5.965v-5.013h.682v5.013h-.682zm4.167.139c-.498 0-.923-.113-1.276-.339a2.205 2.205 0 01-.813-.938c-.188-.399-.283-.857-.283-1.373 0-.527.096-.988.288-1.384a2.18 2.18 0 01.817-.923c.356-.223.778-.335 1.267-.335.502 0 .929.114 1.281.34.356.222.627.533.813.932.188.396.283.853.283 1.37 0 .526-.095.988-.283 1.387a2.17 2.17 0 01-.817.929c-.356.223-.782.334-1.277.334zm0-.654c.557 0 .972-.185 1.244-.553.272-.371.409-.852.409-1.443 0-.607-.138-1.09-.413-1.449-.273-.359-.686-.538-1.24-.538-.374 0-.684.085-.928.255-.242.167-.422.401-.543.701-.118.297-.177.64-.177 1.03 0 .604.14 1.088.418 1.453.279.362.689.543 1.23.543zm3.401.515v-5.013h.612v1.207l-.12-.158c.055-.149.128-.285.218-.409.09-.127.187-.23.292-.31.13-.115.282-.202.455-.26.173-.063.348-.098.525-.107.176-.013.337 0 .482.037v.64a1.653 1.653 0 00-.598-.032 1.138 1.138 0 00-.599.26 1.24 1.24 0 00-.376.469c-.084.179-.139.37-.167.575-.028.201-.042.4-.042.599v2.502h-.682z" fill="#000"/><path d="M26.298 31.576a1.836 1.836 0 01-1.87-1.87V27.48a1.848 1.848 0 01.915-1.624 1.87 1.87 0 01.955-.246 1.848 1.848 0 011.623.919c.165.28.247.598.247.95v2.228a1.826 1.826 0 01-.919 1.623 1.847 1.847 0 01-.951.247zm0-.565c.236 0 .45-.057.644-.17.194-.117.348-.273.462-.466a1.24 1.24 0 00.171-.64V27.45c0-.236-.057-.451-.171-.645a1.283 1.283 0 00-1.75-.461 1.283 1.283 0 00-.462.461 1.246 1.246 0 00-.171.645v2.283c0 .234.057.447.17.64.115.195.269.35.462.466.194.114.409.171.645.171zm5.016.565a1.836 1.836 0 01-1.87-1.87V27.48a1.848 1.848 0 01.915-1.624 1.87 1.87 0 01.955-.246 1.848 1.848 0 011.623.919c.164.28.246.598.246.95v2.228c0 .353-.082.672-.246.955a1.847 1.847 0 01-1.623.915zm0-.565c.236 0 .45-.057.644-.17.194-.117.348-.273.462-.466a1.24 1.24 0 00.17-.64V27.45c0-.236-.056-.451-.17-.645a1.283 1.283 0 00-1.751-.461 1.283 1.283 0 00-.462.461 1.246 1.246 0 00-.17.645v2.283c0 .234.056.447.17.64.115.195.268.35.462.466.194.114.409.171.645.171zm3.464-.19v-.68h.68v.68h-.68zm.004-2.344v-.68h.68v.68h-.68zm4.084 3.1a1.836 1.836 0 01-1.87-1.87v-2.228a1.848 1.848 0 01.915-1.624 1.87 1.87 0 01.955-.246 1.848 1.848 0 011.623.919c.165.28.247.598.247.95v2.228a1.826 1.826 0 01-.92 1.623 1.847 1.847 0 01-.95.247zm0-.566c.236 0 .451-.057.645-.17.193-.117.347-.273.461-.466a1.24 1.24 0 00.171-.64V27.45c0-.236-.057-.451-.17-.645a1.283 1.283 0 00-1.751-.461 1.283 1.283 0 00-.462.461 1.246 1.246 0 00-.17.645v2.283c0 .234.056.447.17.64.114.195.268.35.462.466.193.114.408.171.644.171zm5.016.565a1.836 1.836 0 01-1.87-1.87V27.48a1.848 1.848 0 01.915-1.624 1.87 1.87 0 01.955-.246 1.848 1.848 0 011.623.919c.164.28.247.598.247.95v2.228a1.826 1.826 0 01-.92 1.623 1.847 1.847 0 01-.95.247zm0-.565c.236 0 .45-.057.644-.17.194-.117.348-.273.462-.466a1.24 1.24 0 00.171-.64V27.45c0-.236-.057-.451-.171-.645a1.283 1.283 0 00-1.75-.461 1.283 1.283 0 00-.462.461 1.246 1.246 0 00-.171.645v2.283c0 .234.057.447.17.64.115.195.269.35.462.466.194.114.409.171.645.171zm3.464-.19v-.68h.68v.68h-.68zm.004-2.344v-.68h.68v.68h-.68zm4.084 3.1a1.835 1.835 0 01-1.87-1.87v-2.228a1.847 1.847 0 01.916-1.624 1.87 1.87 0 01.955-.246 1.848 1.848 0 011.623.919c.164.28.246.598.246.95v2.228c0 .353-.082.672-.246.955a1.847 1.847 0 01-1.623.915zm0-.566c.236 0 .451-.057.645-.17.194-.117.347-.273.462-.466.114-.194.17-.407.17-.64V27.45c0-.236-.056-.451-.17-.645a1.282 1.282 0 00-1.751-.461 1.282 1.282 0 00-.462.461 1.246 1.246 0 00-.17.645v2.283c0 .234.056.447.17.64.114.195.268.35.462.466.194.114.408.171.645.171zm4.893.565c-.358 0-.675-.071-.951-.215a1.618 1.618 0 01-.645-.6 1.755 1.755 0 01-.23-.911c0-.356.086-.671.258-.947.173-.279.435-.49.788-.633l-.008.231a1.292 1.292 0 01-.672-.533 1.518 1.518 0 01-.231-.82c0-.318.073-.591.219-.82.146-.23.345-.408.597-.532.254-.125.546-.187.875-.187.329 0 .62.062.875.187.255.124.455.302.6.533.147.228.22.501.22.82 0 .299-.075.57-.223.815-.146.244-.37.423-.672.537l-.02-.23c.352.14.616.35.791.628.178.278.267.595.267.95 0 .348-.078.652-.235.912a1.611 1.611 0 01-.648.6 2.042 2.042 0 01-.955.215zm0-.56c.36 0 .654-.1.88-.299.224-.201.337-.49.337-.867 0-.382-.111-.671-.334-.868-.223-.198-.517-.298-.883-.298s-.66.1-.88.298c-.22.197-.33.486-.33.868 0 .376.112.665.335.867.222.199.514.298.875.298zm0-2.897c.318 0 .577-.08.776-.243.199-.164.298-.407.298-.728 0-.32-.1-.56-.298-.72-.2-.162-.458-.242-.776-.242s-.577.08-.776.242c-.196.16-.294.4-.294.72 0 .321.098.564.294.728.199.162.458.243.776.243z" fill="#6891CF"/><path d="M169.749 12.363c-.608 0-1.105.497-1.105 1.105s.497 1.105 1.105 1.105 1.105-.497 1.105-1.105-.497-1.105-1.105-1.105zm6.631 0c-.608 0-1.105.497-1.105 1.105s.497 1.105 1.105 1.105 1.105-.497 1.105-1.105-.497-1.105-1.105-1.105zm-3.316 0c-.607 0-1.105.497-1.105 1.105s.498 1.105 1.105 1.105c.608 0 1.106-.497 1.106-1.105s-.498-1.105-1.106-1.105z" fill="#3674ED"/><path d="M150.999 30.544c-.358 0-.675-.072-.951-.215a1.624 1.624 0 01-.645-.6 1.763 1.763 0 01-.23-.912c0-.355.086-.67.258-.946.173-.279.435-.49.788-.633l-.008.23a1.294 1.294 0 01-.672-.532 1.517 1.517 0 01-.231-.82c0-.318.073-.591.219-.82.146-.23.345-.408.597-.533.254-.124.546-.187.875-.187.329 0 .621.063.875.187.255.125.455.303.601.534.146.228.219.5.219.82 0 .299-.075.57-.223.815-.146.244-.37.423-.672.537l-.02-.231c.352.14.616.35.791.629.178.278.267.595.267.95 0 .348-.078.652-.235.912a1.606 1.606 0 01-.648.6 2.043 2.043 0 01-.955.215zm0-.56c.361 0 .654-.1.879-.3.226-.2.338-.49.338-.867 0-.381-.111-.67-.334-.867-.223-.199-.517-.298-.883-.298s-.659.1-.879.298c-.221.197-.331.486-.331.867 0 .377.112.666.335.868.222.199.514.298.875.298zm0-2.897c.318 0 .577-.081.776-.243.199-.164.298-.407.298-.728 0-.32-.099-.56-.298-.72-.199-.162-.458-.243-.776-.243s-.577.081-.776.243c-.196.16-.294.4-.294.72 0 .321.098.564.294.728.199.162.458.243.776.243zm3.346 2.701v-.68h.681v.68h-.681zm.004-2.343v-.68h.681v.68h-.681zm4.085 3.1a1.832 1.832 0 01-1.87-1.87v-2.229a1.843 1.843 0 01.915-1.623 1.87 1.87 0 01.955-.247 1.847 1.847 0 011.623.92c.165.28.247.598.247.95v2.228c0 .353-.082.671-.247.955a1.848 1.848 0 01-1.623.915zm0-.566c.236 0 .451-.057.644-.17.194-.118.348-.273.462-.466a1.24 1.24 0 00.171-.64v-2.284c0-.237-.057-.451-.171-.645a1.281 1.281 0 00-.462-.462 1.221 1.221 0 00-.644-.175 1.287 1.287 0 00-1.106.637 1.247 1.247 0 00-.171.645v2.283c0 .233.057.447.171.64.114.194.268.35.461.466.194.114.409.171.645.171zm3.452.446l2.109-5.16h-2.654v-.57h3.278v.57l-2.104 5.16h-.629zm5.201 0l1.973-5.73h.776l1.974 5.73h-.609l-1.874-5.403h.231l-1.862 5.403h-.609zm.879-1.389v-.549h2.96v.55h-2.96zm4.721 1.389v-5.73h.537l2.252 4.819 2.24-4.818h.545v5.725h-.557V26l-2.041 4.424h-.378L173.248 26v4.424h-.561z" fill="#6B7280"/></svg>