<svg viewBox="0 0 185 40" fill="none" xmlns="http://www.w3.org/2000/svg"><rect width="185" height="40" rx="4" fill="#FFF"/><path d="M12.095 17.937l.176.884h2.317v2.652h-1.486l-.176-.884h-3.2v-2.652h2.369zm.725-.884H8.84v7.515h.884v-3.095h2.476l.176.884h3.095v-4.42h-2.476l-.176-.884z" fill="#3674ED"/><path d="M24.52 17.263V10.58h2.582c.374 0 .7.078.979.232a1.688 1.688 0 01.882 1.49c0 .36-.096.68-.288.961a1.488 1.488 0 01-.77.58l-.01-.227c.433.124.774.34 1.021.65.248.31.372.684.372 1.123 0 .387-.082.721-.246 1.003a1.658 1.658 0 01-.692.645 2.246 2.246 0 01-1.035.227h-2.794zm.688-.654h1.94c.272 0 .517-.048.733-.144a1.22 1.22 0 00.51-.418c.128-.18.191-.396.191-.65a1.297 1.297 0 00-.64-1.142 1.244 1.244 0 00-.669-.18h-2.065v2.534zm0-3.18h1.889c.213 0 .408-.048.585-.144a1.114 1.114 0 00.575-.993.99.99 0 00-.33-.77c-.216-.199-.493-.297-.83-.297h-1.89v2.204zm7.127 3.973c-.489 0-.913-.108-1.272-.325a2.205 2.205 0 01-.83-.914c-.198-.393-.297-.854-.297-1.383 0-.548.097-1.021.292-1.42.195-.4.469-.707.821-.924.356-.217.776-.325 1.258-.325.495 0 .918.114 1.267.343.35.226.615.551.794.975.18.424.262.93.246 1.518h-.696v-.241c-.012-.65-.153-1.14-.422-1.472-.267-.33-.656-.496-1.17-.496-.538 0-.952.175-1.24.524-.284.35-.426.848-.426 1.495 0 .631.142 1.121.427 1.471.287.347.694.52 1.22.52.36 0 .672-.082.938-.246a1.72 1.72 0 00.636-.72l.636.247c-.198.436-.49.775-.878 1.016a2.421 2.421 0 01-1.304.357zm-1.917-2.455v-.57h3.83v.57h-3.83zm8.847 2.316v-2.557c0-.279-.027-.534-.08-.766a1.766 1.766 0 00-.255-.613 1.167 1.167 0 00-.45-.408 1.422 1.422 0 00-.668-.144c-.241 0-.455.042-.64.125a1.262 1.262 0 00-.465.362 1.623 1.623 0 00-.283.566 2.724 2.724 0 00-.097.762l-.483-.107c0-.514.09-.946.27-1.295.178-.35.426-.614.742-.794.315-.18.677-.269 1.086-.269.3 0 .562.046.784.14.226.092.416.217.571.375.158.158.285.339.38.543.097.201.166.416.21.645.043.226.065.452.065.678v2.757h-.687zm-3.625 0V10.58h.617v3.774h.07v2.91h-.687zm6.95.14c-.377 0-.694-.069-.951-.205a1.385 1.385 0 01-.571-.543 1.483 1.483 0 01-.19-.738c0-.272.054-.504.162-.696.111-.195.262-.354.45-.478.192-.124.413-.218.664-.283a9.67 9.67 0 01.84-.163c.31-.05.611-.091.905-.125.297-.037.557-.073.78-.107l-.241.149c.009-.495-.087-.862-.288-1.1-.201-.239-.55-.358-1.049-.358-.343 0-.634.078-.873.232-.235.155-.4.4-.496.734l-.664-.195c.114-.449.345-.797.692-1.045.346-.247.796-.371 1.35-.371.458 0 .847.087 1.165.26.322.17.55.418.683.743.062.145.102.307.12.487.019.18.028.362.028.548v3.114h-.608v-1.258l.176.075c-.17.43-.434.758-.793.984-.36.226-.79.338-1.29.338zm.08-.59c.318 0 .596-.057.835-.172a1.51 1.51 0 00.858-1.146c.038-.161.058-.337.06-.53.004-.194.005-.34.005-.436l.26.135c-.232.03-.484.062-.756.093-.27.03-.535.066-.799.107a6.88 6.88 0 00-.705.143c-.142.04-.28.098-.413.172a.954.954 0 00-.33.288.772.772 0 00-.125.45.9.9 0 00.107.423c.074.136.192.249.352.338.165.09.381.135.65.135zm4.819.45l-1.82-5.013h.692l1.48 4.122 1.472-4.122h.7l-1.819 5.013h-.706zM50.94 11.3v-.766h.682v.766h-.682zm0 5.964V12.25h.682v5.013h-.682zm4.167.14c-.498 0-.923-.113-1.276-.34a2.204 2.204 0 01-.812-.937c-.19-.4-.284-.857-.284-1.374 0-.526.096-.987.288-1.383a2.18 2.18 0 01.817-.924c.356-.223.778-.334 1.267-.334.502 0 .929.113 1.281.339.356.223.627.534.813.933.188.396.283.852.283 1.37 0 .525-.095.988-.283 1.387a2.168 2.168 0 01-.817.928c-.356.223-.782.334-1.277.334zm0-.655c.557 0 .972-.184 1.244-.552.273-.372.409-.853.409-1.444 0-.606-.138-1.09-.413-1.448-.273-.359-.686-.539-1.24-.539-.374 0-.684.086-.928.256-.241.167-.422.4-.543.7-.118.298-.177.641-.177 1.031 0 .603.14 1.088.418 1.453.279.362.689.543 1.23.543zm3.4.515V12.25h.613v1.207L59 13.3a1.723 1.723 0 01.51-.72c.13-.114.282-.2.455-.26a1.84 1.84 0 01.525-.106c.176-.012.337 0 .482.037v.64a1.656 1.656 0 00-.598-.032 1.141 1.141 0 00-.6.26c-.166.13-.292.287-.375.47-.084.179-.14.37-.167.575-.028.2-.042.4-.042.598v2.502h-.682zm7.91.14c-.665 0-1.227-.148-1.685-.441a2.796 2.796 0 01-1.04-1.23c-.234-.523-.352-1.127-.352-1.81 0-.685.118-1.288.353-1.811a2.766 2.766 0 011.04-1.225c.457-.297 1.019-.446 1.684-.446.669 0 1.23.149 1.685.446.458.294.805.702 1.04 1.225.238.523.357 1.126.357 1.81 0 .684-.119 1.288-.357 1.81a2.795 2.795 0 01-1.04 1.23c-.455.294-1.016.441-1.685.441zm0-.655c.523 0 .96-.12 1.31-.357.349-.239.61-.57.784-.994.176-.427.264-.919.264-1.476 0-.557-.088-1.047-.264-1.471a2.153 2.153 0 00-.785-.993c-.35-.239-.786-.36-1.309-.363-.523 0-.957.12-1.304.358a2.19 2.19 0 00-.784.998c-.174.424-.262.914-.265 1.471-.003.557.082 1.048.255 1.472.177.42.44.752.79.993.35.238.785.359 1.308.362zm6.091.654c-.504 0-.931-.113-1.28-.338a2.16 2.16 0 01-.8-.933c-.179-.4-.271-.857-.278-1.374.007-.526.102-.987.288-1.383.186-.4.453-.71.803-.929.35-.223.774-.334 1.272-.334.507 0 .948.124 1.323.371.377.248.636.587.775 1.017l-.668.213a1.412 1.412 0 00-.562-.696 1.55 1.55 0 00-.873-.25c-.368 0-.673.085-.914.255-.241.167-.42.4-.538.7-.118.3-.178.646-.181 1.036.006.6.145 1.083.417 1.448.272.362.678.543 1.216.543.34 0 .63-.077.868-.232.242-.158.424-.387.548-.687l.687.204c-.186.446-.458.786-.817 1.021-.359.232-.787.348-1.286.348zm5.005 0c-.505 0-.932-.113-1.282-.338a2.16 2.16 0 01-.798-.933c-.18-.4-.272-.857-.278-1.374.006-.526.102-.987.287-1.383.186-.4.454-.71.803-.929.35-.223.774-.334 1.272-.334.508 0 .949.124 1.323.371.377.248.636.587.775 1.017l-.668.213a1.412 1.412 0 00-.562-.696 1.55 1.55 0 00-.873-.25c-.368 0-.672.085-.914.255-.241.167-.42.4-.538.7-.118.3-.178.646-.181 1.036.006.6.145 1.083.417 1.448.273.362.678.543 1.216.543.34 0 .63-.077.868-.232.242-.158.424-.387.548-.687l.687.204c-.185.446-.458.786-.817 1.021-.359.232-.787.348-1.285.348zm4.977-.014c-.3 0-.563-.046-.789-.139a1.748 1.748 0 01-.57-.376 1.98 1.98 0 01-.377-.538 2.715 2.715 0 01-.209-.645 3.665 3.665 0 01-.065-.683V12.25h.687v2.558c0 .275.027.53.08.766.052.235.135.44.25.617.118.173.268.308.45.404.186.096.41.144.673.144.242 0 .453-.042.636-.126.186-.083.34-.202.464-.357.127-.158.223-.348.288-.571a2.75 2.75 0 00.098-.761l.482.107c0 .513-.09.945-.269 1.295-.18.35-.427.614-.743.793-.315.18-.677.27-1.086.27zm1.685-.125v-1.235h-.07V12.25h.683v5.013h-.613zm1.91 0V12.25h.613v1.207l-.12-.158a1.723 1.723 0 01.51-.72c.13-.114.281-.2.455-.26a1.84 1.84 0 01.524-.106c.177-.012.337 0 .483.037v.64a1.656 1.656 0 00-.599-.032 1.141 1.141 0 00-.599.26c-.167.13-.292.287-.376.47-.083.179-.139.37-.167.575-.028.2-.041.4-.041.598v2.502h-.683zm5.376.14c-.489 0-.913-.109-1.272-.325a2.204 2.204 0 01-.83-.915c-.199-.393-.298-.854-.298-1.383 0-.548.098-1.021.293-1.42.195-.4.468-.707.821-.924.356-.217.775-.325 1.258-.325.495 0 .917.114 1.267.343.35.226.614.551.794.975.18.424.261.93.246 1.518h-.696v-.241c-.013-.65-.153-1.14-.423-1.472-.266-.33-.656-.496-1.17-.496-.538 0-.95.175-1.239.524-.284.35-.427.848-.427 1.495 0 .631.143 1.121.427 1.471.288.347.695.52 1.221.52.359 0 .671-.082.938-.246a1.72 1.72 0 00.636-.72l.635.247c-.198.436-.49.775-.877 1.016a2.421 2.421 0 01-1.304.357zm-1.917-2.456v-.57h3.83v.57h-3.83zm7.17 2.455c-.466 0-.866-.116-1.197-.348a2.257 2.257 0 01-.76-.951c-.177-.4-.266-.85-.266-1.35 0-.5.087-.948.26-1.347.177-.4.429-.715.757-.947.328-.232.721-.348 1.179-.348.47 0 .866.114 1.188.343.322.23.565.544.729.943.167.396.25.848.25 1.355 0 .498-.081.948-.245 1.35-.164.4-.406.717-.724.952-.32.232-.71.348-1.17.348zm.07-.636c.356 0 .65-.086.882-.26.232-.173.406-.41.52-.714.115-.306.172-.653.172-1.04 0-.393-.057-.74-.172-1.04a1.52 1.52 0 00-.52-.71c-.229-.17-.518-.255-.868-.255-.359 0-.656.088-.89.264-.236.177-.41.417-.525.72a2.946 2.946 0 00-.167 1.021c0 .38.057.724.171 1.03.118.304.293.544.525.72.232.176.523.265.872.265zm1.574.497V13.49h-.074v-2.91h.687v6.683h-.613z" fill="#000"/><path d="M26.298 32.035a1.836 1.836 0 01-1.87-1.87v-2.228a1.848 1.848 0 01.915-1.623 1.87 1.87 0 01.955-.247 1.848 1.848 0 011.623.92c.165.28.247.597.247.95v2.228a1.826 1.826 0 01-.919 1.623 1.847 1.847 0 01-.951.247zm0-.565c.236 0 .45-.057.644-.171.194-.117.348-.272.462-.466a1.24 1.24 0 00.171-.64v-2.284c0-.236-.057-.45-.171-.644a1.282 1.282 0 00-1.75-.462 1.282 1.282 0 00-.462.462 1.246 1.246 0 00-.171.644v2.284c0 .233.057.447.17.64.115.194.269.35.462.466.194.114.409.17.645.17zm5.016.565a1.836 1.836 0 01-1.87-1.87v-2.228a1.848 1.848 0 01.915-1.623 1.87 1.87 0 01.955-.247 1.848 1.848 0 011.623.92c.164.28.246.597.246.95v2.228c0 .353-.082.671-.246.955a1.847 1.847 0 01-1.623.915zm0-.565c.236 0 .45-.057.644-.171.194-.117.348-.272.462-.466a1.24 1.24 0 00.17-.64v-2.284c0-.236-.056-.45-.17-.644a1.282 1.282 0 00-1.751-.462 1.282 1.282 0 00-.462.462 1.246 1.246 0 00-.17.644v2.284c0 .233.056.447.17.64.115.194.268.35.462.466.194.114.409.17.645.17zm3.464-.191v-.68h.68v.68h-.68zm.004-2.343v-.68h.68v.68h-.68zm4.084 3.099a1.836 1.836 0 01-1.87-1.87v-2.228a1.848 1.848 0 01.915-1.623 1.87 1.87 0 01.955-.247 1.848 1.848 0 011.623.92c.165.28.247.597.247.95v2.228a1.826 1.826 0 01-.92 1.623 1.847 1.847 0 01-.95.247zm0-.565c.236 0 .451-.057.645-.171.193-.117.347-.272.461-.466a1.24 1.24 0 00.171-.64v-2.284c0-.236-.057-.45-.17-.644a1.282 1.282 0 00-1.751-.462 1.282 1.282 0 00-.462.462 1.246 1.246 0 00-.17.644v2.284c0 .233.056.447.17.64.114.194.268.35.462.466.193.114.408.17.644.17zm4.837.565c-.297 0-.572-.061-.824-.183a1.903 1.903 0 01-.644-.505 1.97 1.97 0 01-.382-.74l.56-.152c.051.207.143.386.275.538.133.148.288.263.466.346.18.082.368.123.565.123.254 0 .483-.061.684-.183.204-.125.366-.29.485-.493.12-.205.18-.429.18-.673 0-.252-.063-.479-.188-.68a1.394 1.394 0 00-.493-.485 1.3 1.3 0 00-.668-.18c-.27 0-.504.06-.7.18a1.418 1.418 0 00-.47.441l-.533-.223.175-2.98h3.06v.561H42.45l.29-.274-.155 2.542-.147-.195c.164-.188.363-.335.596-.441a1.76 1.76 0 01.736-.16 1.87 1.87 0 011.882 1.894c0 .35-.089.671-.266.963-.178.29-.414.521-.708.696-.295.175-.62.263-.975.263zm3.379-.756v-.68h.68v.68h-.68zm.004-2.343v-.68h.68v.68h-.68zm3.213 2.98v-5.077l-1.078.649v-.657l1.078-.645h.593v5.73h-.593zm2.567 0l2.109-5.16H52.32v-.57H55.6v.57l-2.105 5.16h-.629z" fill="#6891CF"/><path d="M169.749 12.821c-.608 0-1.105.498-1.105 1.105 0 .608.497 1.106 1.105 1.106s1.105-.498 1.105-1.106c0-.607-.497-1.105-1.105-1.105zm6.631 0c-.608 0-1.105.498-1.105 1.105 0 .608.497 1.106 1.105 1.106s1.105-.498 1.105-1.106c0-.607-.497-1.105-1.105-1.105zm-3.316 0c-.607 0-1.105.498-1.105 1.105 0 .608.498 1.106 1.105 1.106.608 0 1.106-.498 1.106-1.106 0-.607-.498-1.105-1.106-1.105z" fill="#3674ED"/><path d="M150.999 31.003c-.358 0-.675-.072-.951-.215a1.624 1.624 0 01-.645-.6 1.763 1.763 0 01-.23-.912c0-.355.086-.671.258-.947.173-.278.435-.49.788-.633l-.008.231a1.294 1.294 0 01-.672-.533 1.517 1.517 0 01-.231-.82c0-.318.073-.59.219-.819.146-.23.345-.408.597-.533.254-.125.546-.187.875-.187.329 0 .621.062.875.187.255.125.455.302.601.533.146.228.219.501.219.82 0 .3-.075.571-.223.815-.146.244-.37.423-.672.537l-.02-.23c.352.14.616.35.791.628.178.279.267.596.267.951 0 .347-.078.651-.235.911a1.606 1.606 0 01-.648.6 2.043 2.043 0 01-.955.216zm0-.561c.361 0 .654-.1.879-.299.226-.201.338-.49.338-.867 0-.382-.111-.671-.334-.867-.223-.2-.517-.299-.883-.299s-.659.1-.879.299c-.221.196-.331.485-.331.867 0 .377.112.666.335.867.222.2.514.299.875.299zm0-2.897c.318 0 .577-.08.776-.242.199-.165.298-.408.298-.728 0-.321-.099-.561-.298-.72-.199-.162-.458-.243-.776-.243s-.577.08-.776.243c-.196.159-.294.399-.294.72 0 .32.098.563.294.728.199.161.458.242.776.242zm3.346 2.702v-.68h.681v.68h-.681zm.004-2.344v-.68h.681v.68h-.681zm4.085 3.1a1.833 1.833 0 01-1.87-1.87v-2.228a1.843 1.843 0 01.915-1.623 1.87 1.87 0 01.955-.247 1.847 1.847 0 011.623.919c.165.281.247.598.247.95v2.229a1.821 1.821 0 01-.919 1.623 1.848 1.848 0 01-.951.247zm0-.565c.236 0 .451-.057.644-.171.194-.117.348-.272.462-.466a1.24 1.24 0 00.171-.64v-2.284c0-.236-.057-.45-.171-.645a1.281 1.281 0 00-.462-.461 1.221 1.221 0 00-.644-.175 1.287 1.287 0 00-1.106.636 1.247 1.247 0 00-.171.645v2.284c0 .233.057.447.171.64.114.194.268.349.461.466.194.114.409.17.645.17zm3.452.445l2.109-5.16h-2.654v-.569h3.278v.57l-2.104 5.16h-.629zm5.201 0l1.973-5.729h.776l1.974 5.73h-.609l-1.874-5.404h.231l-1.862 5.403h-.609zm.879-1.388v-.55h2.96v.55h-2.96zm4.721 1.388v-5.729h.537l2.252 4.818 2.24-4.818h.545v5.725h-.557v-4.42l-2.041 4.424h-.378l-2.037-4.424v4.424h-.561z" fill="#6B7280"/></svg>