<svg viewBox="0 0 759 491" fill="none" xmlns="http://www.w3.org/2000/svg"><g filter="url(#prefix__filter0_dd_850_1986)"><rect x="534" y="340.958" width="185" height="39.262" rx="3.978" fill="#fff"/><path d="M546.095 357.937l.177.884h2.316v2.652h-1.485l-.177-.884h-3.201v-2.652h2.37zm.725-.884h-3.979v7.515h.884v-3.095h2.476l.177.884h3.094v-4.42h-2.475l-.177-.884z" fill="#3674ED"/><path d="M558.521 357.263v-6.684h2.581c.374 0 .7.078.979.232.278.155.495.364.65.627.154.26.232.548.232.863 0 .359-.096.68-.288.961a1.486 1.486 0 01-.77.58l-.01-.227c.433.124.774.34 1.021.65.248.309.372.684.372 1.123 0 .387-.082.721-.246 1.003a1.665 1.665 0 01-.692.645 2.254 2.254 0 01-1.035.227h-2.794zm.687-.654h1.94c.272 0 .517-.048.733-.144.217-.099.387-.238.511-.418.127-.179.19-.396.19-.65a1.306 1.306 0 00-.64-1.142 1.251 1.251 0 00-.669-.181h-2.065v2.535zm0-3.18h1.889c.213 0 .408-.048.585-.144a1.113 1.113 0 00.575-.993.99.99 0 00-.329-.77c-.217-.198-.494-.298-.831-.298h-1.889v2.205zm7.127 3.973c-.489 0-.913-.108-1.272-.324a2.213 2.213 0 01-.83-.915c-.198-.393-.298-.854-.298-1.383 0-.548.098-1.021.293-1.42.195-.4.469-.707.821-.924.356-.217.776-.325 1.258-.325.495 0 .918.115 1.267.344.35.225.615.55.794.974.18.424.262.93.246 1.518h-.696v-.241c-.012-.65-.153-1.141-.422-1.472-.267-.331-.656-.496-1.17-.496-.539 0-.952.174-1.239.524-.285.35-.427.848-.427 1.495 0 .631.142 1.121.427 1.471.287.347.694.52 1.22.52.359 0 .672-.082.938-.246.269-.167.481-.407.636-.719l.636.246a2.272 2.272 0 01-.878 1.016 2.42 2.42 0 01-1.304.357zm-1.917-2.455v-.571h3.83v.571h-3.83zm8.847 2.316v-2.557a3.5 3.5 0 00-.079-.766 1.767 1.767 0 00-.256-.613 1.163 1.163 0 00-.45-.408 1.418 1.418 0 00-.668-.144 1.56 1.56 0 00-.641.125 1.27 1.27 0 00-.464.362 1.626 1.626 0 00-.283.566 2.726 2.726 0 00-.097.762l-.483-.107c0-.514.09-.945.269-1.295.18-.35.427-.614.743-.794a2.16 2.16 0 011.086-.269c.3 0 .561.046.784.139.226.093.416.218.571.376.158.158.285.339.381.543.096.201.165.416.209.645.043.226.065.452.065.678v2.757h-.687zm-3.625 0v-6.684h.617v3.774h.07v2.91h-.687zm6.95.139c-.377 0-.694-.068-.951-.204a1.383 1.383 0 01-.571-.543 1.48 1.48 0 01-.19-.738 1.4 1.4 0 01.162-.696c.111-.195.262-.354.45-.478.192-.124.413-.218.664-.283.254-.062.534-.116.84-.163.31-.049.611-.091.905-.125.297-.037.557-.073.78-.107l-.241.149c.009-.495-.087-.862-.288-1.1-.201-.239-.551-.358-1.049-.358-.344 0-.634.078-.873.232-.235.155-.4.399-.496.734l-.664-.195c.114-.449.345-.797.692-1.045.346-.247.796-.371 1.35-.371.458 0 .847.087 1.165.26.322.17.55.418.683.743.061.145.102.308.12.487.019.179.028.362.028.548v3.114h-.608v-1.258l.176.075c-.17.43-.434.758-.793.984-.359.225-.789.338-1.291.338zm.079-.589c.319 0 .598-.057.836-.172.238-.114.43-.271.575-.469.146-.201.24-.427.283-.677.038-.161.058-.338.061-.529.003-.195.004-.341.004-.437l.26.135a39.54 39.54 0 01-.756.093 22.3 22.3 0 00-.799.106 7.325 7.325 0 00-.705.144c-.142.041-.28.098-.413.172a.954.954 0 00-.33.288.777.777 0 00-.125.45c0 .146.036.286.107.423a.865.865 0 00.352.338c.164.09.381.135.65.135zm4.819.45l-1.819-5.013h.692l1.48 4.122 1.472-4.122h.7l-1.819 5.013h-.706zm3.452-5.964v-.766h.682v.766h-.682zm0 5.964v-5.013h.682v5.013h-.682zm4.167.139c-.498 0-.923-.113-1.276-.338a2.2 2.2 0 01-.812-.938c-.189-.399-.284-.857-.284-1.374 0-.526.096-.987.288-1.383.192-.396.464-.704.817-.924.356-.223.778-.334 1.267-.334.502 0 .929.113 1.281.339.356.223.627.534.813.933.188.396.283.852.283 1.369 0 .526-.095.989-.283 1.388a2.17 2.17 0 01-.817.928c-.356.223-.782.334-1.277.334zm0-.654c.557 0 .972-.184 1.244-.552.273-.372.409-.853.409-1.444 0-.606-.138-1.089-.413-1.448-.273-.359-.686-.539-1.24-.539-.374 0-.684.086-.928.256a1.518 1.518 0 00-.543.701c-.118.297-.176.64-.176 1.03 0 .603.139 1.088.417 1.453.279.362.689.543 1.23.543zm3.401.515v-5.013h.612v1.207l-.12-.158c.055-.148.128-.284.218-.408.09-.127.187-.231.292-.311.13-.115.282-.201.455-.26.173-.062.348-.098.525-.107.176-.012.337 0 .482.037v.641a1.655 1.655 0 00-.598-.033 1.145 1.145 0 00-.599.26c-.167.13-.293.286-.376.469-.084.18-.139.371-.167.576-.028.201-.042.4-.042.598v2.502h-.682zm7.909.139c-.665 0-1.227-.147-1.685-.441a2.792 2.792 0 01-1.039-1.23c-.235-.522-.353-1.126-.353-1.81 0-.684.118-1.287.353-1.81a2.762 2.762 0 011.039-1.225c.458-.297 1.02-.446 1.685-.446.669 0 1.23.149 1.685.446.458.294.805.702 1.04 1.225.238.523.357 1.126.357 1.81 0 .684-.119 1.288-.357 1.81a2.794 2.794 0 01-1.04 1.23c-.455.294-1.016.441-1.685.441zm0-.654c.523 0 .96-.119 1.309-.357.35-.239.611-.57.785-.994.176-.427.264-.919.264-1.476 0-.557-.088-1.047-.264-1.471a2.154 2.154 0 00-.785-.993c-.349-.239-.786-.359-1.309-.362-.523 0-.957.119-1.304.357a2.183 2.183 0 00-.784.998c-.174.424-.262.914-.265 1.471-.003.557.082 1.048.255 1.472.177.42.44.752.789.993.35.238.786.359 1.309.362zm6.091.654c-.504 0-.931-.113-1.281-.338a2.16 2.16 0 01-.798-.933c-.18-.4-.272-.858-.279-1.374.007-.526.103-.987.288-1.383.186-.4.454-.709.803-.929.35-.223.774-.334 1.272-.334.507 0 .948.124 1.323.371.377.248.636.587.775 1.017l-.668.213a1.414 1.414 0 00-.562-.696 1.553 1.553 0 00-.873-.251c-.368 0-.673.086-.914.256a1.484 1.484 0 00-.538.701c-.118.3-.178.645-.182 1.035.007.6.146 1.083.418 1.448.273.362.678.543 1.216.543.341 0 .63-.077.868-.232.242-.158.424-.387.548-.687l.687.204c-.186.446-.458.786-.817 1.021-.359.232-.787.348-1.286.348zm5.005 0c-.505 0-.932-.113-1.282-.338a2.167 2.167 0 01-.798-.933 3.432 3.432 0 01-.278-1.374c.006-.526.102-.987.287-1.383.186-.4.454-.709.803-.929.35-.223.774-.334 1.272-.334.508 0 .949.124 1.323.371.378.248.636.587.775 1.017l-.668.213a1.414 1.414 0 00-.562-.696 1.55 1.55 0 00-.872-.251c-.369 0-.674.086-.915.256a1.484 1.484 0 00-.538.701c-.118.3-.178.645-.181 1.035.006.6.145 1.083.417 1.448.273.362.678.543 1.217.543.34 0 .629-.077.867-.232.242-.158.424-.387.548-.687l.687.204c-.186.446-.458.786-.817 1.021-.359.232-.787.348-1.285.348zm4.977-.013c-.3 0-.563-.047-.789-.14a1.747 1.747 0 01-.571-.376 2.003 2.003 0 01-.376-.538 2.735 2.735 0 01-.209-.645 3.698 3.698 0 01-.065-.683v-2.757h.687v2.558c0 .275.027.53.079.766.053.235.136.441.251.617.118.173.268.308.45.404.186.096.41.144.673.144.242 0 .454-.042.636-.126.186-.083.34-.202.464-.357.127-.158.223-.348.288-.571.065-.226.098-.48.098-.761l.482.107c0 .513-.089.945-.269 1.295a1.86 1.86 0 01-.743.793 2.15 2.15 0 01-1.086.27zm1.685-.126v-1.234h-.069v-3.779h.682v5.013h-.613zm1.91 0v-5.013h.613v1.207l-.121-.158c.056-.148.129-.284.218-.408.09-.127.188-.231.293-.311.13-.115.281-.201.455-.26.173-.062.348-.098.524-.107.176-.012.337 0 .483.037v.641a1.66 1.66 0 00-.599-.033 1.148 1.148 0 00-.599.26c-.167.13-.292.286-.376.469-.083.18-.139.371-.167.576-.028.201-.042.4-.042.598v2.502h-.682zm5.376.139c-.489 0-.913-.108-1.272-.324a2.208 2.208 0 01-.831-.915c-.198-.393-.297-.854-.297-1.383 0-.548.098-1.021.293-1.42.195-.4.468-.707.821-.924.356-.217.775-.325 1.258-.325.495 0 .918.115 1.267.344.35.225.614.55.794.974.179.424.261.93.246 1.518h-.696v-.241c-.013-.65-.153-1.141-.423-1.472-.266-.331-.656-.496-1.169-.496-.539 0-.952.174-1.24.524-.284.35-.427.848-.427 1.495 0 .631.143 1.121.427 1.471.288.347.695.52 1.221.52.359 0 .672-.082.938-.246.269-.167.481-.407.636-.719l.635.246a2.27 2.27 0 01-.877 1.016 2.423 2.423 0 01-1.304.357zm-1.917-2.455v-.571h3.829v.571h-3.829zm7.171 2.455c-.467 0-.867-.116-1.198-.348a2.254 2.254 0 01-.761-.951 3.317 3.317 0 01-.265-1.351c0-.498.087-.947.26-1.346.177-.399.429-.715.757-.947.328-.232.721-.348 1.179-.348.47 0 .866.115 1.188.344.322.228.565.543.729.942.167.396.251.848.251 1.355 0 .498-.082.949-.246 1.351a2.181 2.181 0 01-.725.951c-.318.232-.708.348-1.169.348zm.069-.635c.356 0 .65-.087.882-.26.232-.174.406-.412.52-.715.115-.307.172-.653.172-1.04a2.9 2.9 0 00-.172-1.04 1.517 1.517 0 00-.52-.71c-.229-.17-.518-.255-.868-.255-.359 0-.656.088-.891.264-.235.177-.41.417-.524.72a2.931 2.931 0 00-.167 1.021c0 .381.057.724.171 1.031.118.303.293.543.525.719.232.176.523.265.872.265zm1.574.496v-3.773h-.074v-2.911h.687v6.684h-.613z" fill="#000"/><path d="M560.298 372.035a1.829 1.829 0 01-1.87-1.87v-2.228a1.842 1.842 0 011.87-1.87 1.842 1.842 0 011.87 1.87v2.228c0 .353-.082.671-.247.955a1.842 1.842 0 01-1.623.915zm0-.565c.236 0 .451-.057.644-.171.194-.117.348-.272.462-.466.114-.193.171-.407.171-.64v-2.284c0-.236-.057-.451-.171-.644a1.279 1.279 0 00-.462-.462 1.219 1.219 0 00-.644-.175 1.284 1.284 0 00-1.106.637 1.243 1.243 0 00-.171.644v2.284c0 .233.057.447.171.64.114.194.268.349.461.466.194.114.409.171.645.171zm5.016.565a1.84 1.84 0 01-1.624-.915 1.874 1.874 0 01-.246-.955v-2.228a1.851 1.851 0 01.915-1.623c.284-.165.602-.247.955-.247a1.841 1.841 0 011.869 1.87v2.228c0 .353-.082.671-.246.955a1.827 1.827 0 01-.673.668 1.841 1.841 0 01-.95.247zm0-.565c.236 0 .45-.057.644-.171.194-.117.348-.272.462-.466.114-.193.171-.407.171-.64v-2.284c0-.236-.057-.451-.171-.644a1.279 1.279 0 00-.462-.462 1.221 1.221 0 00-.644-.175c-.237 0-.451.058-.645.175a1.276 1.276 0 00-.633 1.106v2.284c0 .233.057.447.172.64.114.194.267.349.461.466.194.114.408.171.645.171zm3.464-.191v-.68h.68v.68h-.68zm.004-2.343v-.681h.68v.681h-.68zm4.084 3.099a1.829 1.829 0 01-1.87-1.87v-2.228a1.842 1.842 0 011.87-1.87 1.842 1.842 0 011.87 1.87v2.228c0 .353-.082.671-.247.955a1.842 1.842 0 01-1.623.915zm0-.565c.236 0 .451-.057.645-.171.193-.117.347-.272.461-.466.114-.193.171-.407.171-.64v-2.284c0-.236-.057-.451-.171-.644a1.284 1.284 0 00-1.106-.637c-.236 0-.451.058-.644.175a1.279 1.279 0 00-.462.462 1.243 1.243 0 00-.171.644v2.284c0 .233.057.447.171.64.114.194.268.349.462.466.193.114.408.171.644.171zm4.837.565a1.867 1.867 0 01-1.468-.688 1.97 1.97 0 01-.382-.74l.561-.152c.05.207.142.386.274.538.133.148.288.263.466.346.18.082.368.123.565.123.254 0 .482-.061.684-.183.204-.125.366-.289.485-.493.12-.205.179-.429.179-.673 0-.252-.062-.478-.187-.68a1.388 1.388 0 00-.493-.485 1.294 1.294 0 00-.668-.179c-.271 0-.504.059-.7.179a1.404 1.404 0 00-.47.441l-.533-.223.175-2.98h3.059v.561h-2.8l.29-.274-.155 2.542-.147-.195a1.763 1.763 0 011.332-.6 1.87 1.87 0 011.882 1.893c0 .35-.089.671-.266.963a2.05 2.05 0 01-.708.696c-.295.175-.62.263-.975.263zm3.379-.756v-.68h.68v.68h-.68zm.004-2.343v-.681h.68v.681h-.68zm3.213 2.98v-5.077l-1.078.648v-.656l1.078-.645h.593v5.73h-.593zm2.567 0l2.109-5.161h-2.654v-.569h3.279v.569l-2.105 5.161h-.629z" fill="#6891CF"/><path d="M703.749 352.821c-.608 0-1.105.498-1.105 1.105 0 .608.497 1.106 1.105 1.106s1.105-.498 1.105-1.106c0-.607-.497-1.105-1.105-1.105zm6.631 0c-.608 0-1.105.498-1.105 1.105 0 .608.497 1.106 1.105 1.106s1.105-.498 1.105-1.106c0-.607-.497-1.105-1.105-1.105zm-3.316 0a1.11 1.11 0 00-1.105 1.105 1.11 1.11 0 001.105 1.106 1.11 1.11 0 001.106-1.106 1.11 1.11 0 00-1.106-1.105z" fill="#3674ED"/><path d="M684.999 371.003c-.358 0-.675-.072-.951-.215a1.625 1.625 0 01-.645-.601 1.764 1.764 0 01-.23-.911c0-.355.086-.671.258-.947.173-.278.435-.489.788-.632l-.008.23a1.288 1.288 0 01-.672-.533 1.517 1.517 0 01-.231-.819c0-.319.073-.592.219-.82.146-.231.345-.408.597-.533.254-.125.546-.187.875-.187.329 0 .621.062.875.187.255.125.455.302.601.533.146.228.219.501.219.82 0 .299-.075.571-.223.815-.146.244-.37.423-.672.537l-.02-.23c.352.14.616.35.791.628.178.279.267.596.267.951 0 .347-.078.651-.235.911a1.607 1.607 0 01-.648.601 2.046 2.046 0 01-.955.215zm0-.561c.361 0 .654-.1.879-.299.226-.201.338-.49.338-.867 0-.382-.111-.671-.334-.867-.223-.199-.517-.299-.883-.299s-.659.1-.879.299c-.221.196-.331.485-.331.867 0 .377.112.666.335.867.222.199.514.299.875.299zm0-2.897c.318 0 .577-.081.776-.242.199-.165.298-.407.298-.728s-.099-.561-.298-.721c-.199-.161-.458-.242-.776-.242s-.577.081-.776.242c-.196.16-.294.4-.294.721 0 .321.098.563.294.728.199.161.458.242.776.242zm3.346 2.702v-.681h.681v.681h-.681zm.004-2.344v-.68h.681v.68h-.681zm4.085 3.1a1.829 1.829 0 01-1.87-1.87v-2.228a1.842 1.842 0 011.87-1.87 1.842 1.842 0 011.87 1.87v2.228c0 .353-.082.671-.247.955a1.852 1.852 0 01-1.623.915zm0-.565c.236 0 .451-.057.644-.171.194-.117.348-.272.462-.466.114-.193.171-.407.171-.64v-2.284a1.25 1.25 0 00-.171-.645 1.284 1.284 0 00-.462-.461 1.219 1.219 0 00-.644-.175 1.29 1.29 0 00-1.106.636 1.25 1.25 0 00-.171.645v2.284c0 .233.057.447.171.64.114.194.268.349.461.466.194.114.409.171.645.171zm3.452.445l2.109-5.16h-2.654v-.569h3.278v.569l-2.104 5.16h-.629zm5.201 0l1.973-5.729h.776l1.974 5.729h-.609l-1.874-5.402h.231l-1.862 5.402h-.609zm.879-1.388v-.549h2.96v.549h-2.96zm4.721 1.388v-5.729h.537l2.252 4.818 2.24-4.818h.545v5.725h-.557v-4.42l-2.041 4.424h-.378l-2.037-4.424v4.424h-.561z" fill="#6B7280"/></g><defs><filter id="prefix__filter0_dd_850_1986" x="494" y="312.958" width="265" height="119.262" filterUnits="userSpaceOnUse" color-interpolation-filters="sRGB"><feFlood flood-opacity="0" result="BackgroundImageFix"/><feColorMatrix in="SourceAlpha" values="0 0 0 0 0 0 0 0 0 0 0 0 0 0 0 0 0 0 127 0" result="hardAlpha"/><feOffset dy="12"/><feGaussianBlur stdDeviation="20"/><feComposite in2="hardAlpha" operator="out"/><feColorMatrix values="0 0 0 0 0 0 0 0 0 0.4 0 0 0 0 0.713726 0 0 0 0.24 0"/><feBlend in2="BackgroundImageFix" result="effect1_dropShadow_850_1986"/><feColorMatrix in="SourceAlpha" values="0 0 0 0 0 0 0 0 0 0 0 0 0 0 0 0 0 0 127 0" result="hardAlpha"/><feMorphology radius="2" in="SourceAlpha" result="effect2_dropShadow_850_1986"/><feOffset dy="4"/><feGaussianBlur stdDeviation="3"/><feComposite in2="hardAlpha" operator="out"/><feColorMatrix values="0 0 0 0 0 0 0 0 0 0 0 0 0 0 0 0 0 0 0.08 0"/><feBlend in2="effect1_dropShadow_850_1986" result="effect2_dropShadow_850_1986"/><feBlend in="SourceGraphic" in2="effect2_dropShadow_850_1986" result="shape"/></filter></defs></svg>