<svg viewBox="0 0 620 592" fill="none" xmlns="http://www.w3.org/2000/svg"><g filter="url(#prefix__filter0_f_713_52041)" fill-rule="evenodd" clip-rule="evenodd"><path d="M284.966 82.254c61.714 6.411 103.649 57.463 147.882 100.991 44.816 44.101 118.169 86.428 105.082 147.938-13.273 62.386-103.509 61.278-156.985 96.015-34.232 22.237-56.373 58.438-95.979 68.307-53.707 13.383-117.413 31.167-159.658-4.605-43.198-36.578-30.684-103.224-34.401-159.717-4.155-63.143-26.997-132.325 11.903-182.224 41.336-53.024 115.298-73.65 182.156-66.705z" fill="#fff"/><path d="M284.966 82.254c61.714 6.411 103.649 57.463 147.882 100.991 44.816 44.101 118.169 86.428 105.082 147.938-13.273 62.386-103.509 61.278-156.985 96.015-34.232 22.237-56.373 58.438-95.979 68.307-53.707 13.383-117.413 31.167-159.658-4.605-43.198-36.578-30.684-103.224-34.401-159.717-4.155-63.143-26.997-132.325 11.903-182.224 41.336-53.024 115.298-73.65 182.156-66.705z" fill="url(#prefix__paint0_linear_713_52041)" fill-opacity=".8"/></g><defs><linearGradient id="prefix__paint0_linear_713_52041" x1="296.97" y1="95.451" x2="-231.429" y2="602.863" gradientUnits="userSpaceOnUse"><stop offset=".01" stop-color="#8EF1CD" stop-opacity=".79"/><stop offset=".339" stop-color="#D0EBFA"/><stop offset=".688" stop-color="#FFE8E2"/><stop offset=".958" stop-color="#9EB3E9"/></linearGradient><filter id="prefix__filter0_f_713_52041" x=".47" y=".951" width="619" height="591" filterUnits="userSpaceOnUse" color-interpolation-filters="sRGB"><feFlood flood-opacity="0" result="BackgroundImageFix"/><feBlend in="SourceGraphic" in2="BackgroundImageFix" result="shape"/><feGaussianBlur stdDeviation="40" result="effect1_foregroundBlur_713_52041"/></filter></defs></svg>