<svg viewBox="0 0 24 24" fill="currentColor" xmlns="http://www.w3.org/2000/svg"><path d="M11.833 4A8.336 8.336 0 003.5 12.333c0 4.6 3.733 8.334 8.333 8.334 4.592 0 8.334-3.733 8.334-8.334 0-4.6-3.742-8.333-8.334-8.333zm5.505 3.841a7.086 7.086 0 011.608 4.43c-.235-.046-2.585-.525-4.953-.227-.054-.117-.099-.244-.153-.37a21.355 21.355 0 00-.47-1.03c2.621-1.067 3.814-2.604 3.968-2.803zM11.833 5.23c1.808 0 3.462.678 4.718 1.79-.126.18-1.202 1.618-3.732 2.567-1.166-2.142-2.459-3.896-2.658-4.167a7.238 7.238 0 011.672-.19zm-3.027.669a44.91 44.91 0 012.639 4.113c-3.326.885-6.264.867-6.58.867a7.151 7.151 0 013.94-4.98zM4.71 12.342v-.216c.307.008 3.76.054 7.312-1.013.208.398.398.805.579 1.211l-.28.082c-3.67 1.184-5.622 4.42-5.785 4.69a7.101 7.101 0 01-1.826-4.754zm7.122 7.114a7.068 7.068 0 01-4.365-1.5c.126-.263 1.572-3.047 5.585-4.448.019-.009.028-.009.046-.018a29.415 29.415 0 011.518 5.396 7 7 0 01-2.784.57zm3.968-1.22c-.072-.434-.452-2.513-1.383-5.071 2.233-.353 4.185.226 4.43.307a7.057 7.057 0 01-3.047 4.763z"/></svg>