<svg viewBox="0 0 24 24" fill="currentColor" xmlns="http://www.w3.org/2000/svg"><path d="M12 2C6.476 2 2 6.59 2 12.253c0 4.53 2.865 8.373 6.839 9.73.5.093.682-.223.682-.495 0-.243-.008-.888-.013-1.744-2.782.62-3.369-1.375-3.369-1.375-.454-1.183-1.11-1.499-1.11-1.499-.908-.636.069-.623.069-.623 1.003.073 1.531 1.056 1.531 1.056.892 1.567 2.341 1.114 2.91.852.092-.662.35-1.114.636-1.37-2.22-.26-4.555-1.139-4.555-5.068 0-1.119.39-2.034 1.029-2.751-.103-.26-.446-1.302.098-2.714 0 0 .84-.275 2.75 1.052A9.356 9.356 0 0112 6.959a9.37 9.37 0 012.504.345c1.909-1.327 2.747-1.052 2.747-1.052.546 1.412.202 2.455.1 2.714.64.717 1.028 1.632 1.028 2.751 0 3.94-2.339 4.806-4.567 5.06.36.316.68.942.68 1.898 0 1.37-.013 2.477-.013 2.813 0 .274.18.593.688.493C19.137 20.622 22 16.782 22 12.253 22 6.59 17.522 2 12 2z"/></svg>