<svg viewBox="0 0 24 24" fill="currentColor" xmlns="http://www.w3.org/2000/svg"><path d="M12.484 3.85a8.318 8.318 0 00-2.629 16.212c.416.076.568-.181.568-.402 0-.197-.007-.72-.011-1.414-2.314.502-2.802-1.115-2.802-1.115-.379-.96-.924-1.217-.924-1.217-.755-.516.057-.506.057-.506.835.06 1.274.858 1.274.858.742 1.27 1.947.903 2.421.69.076-.537.29-.903.528-1.111-1.847-.21-3.789-.924-3.789-4.111 0-.908.325-1.65.857-2.232-.086-.21-.372-1.056.08-2.201 0 0 .7-.224 2.288.852a7.967 7.967 0 012.083-.28 7.978 7.978 0 012.082.28c1.588-1.076 2.285-.852 2.285-.852.454 1.145.169 1.99.083 2.2a3.21 3.21 0 01.855 2.233c0 3.195-1.945 3.898-3.798 4.104.299.257.565.765.565 1.54 0 1.112-.01 2.01-.01 2.282 0 .223.15.482.572.4a8.318 8.318 0 00-2.635-16.21z"/></svg>