<svg viewBox="0 0 90 90" fill="none" stroke="currentColor" stroke-width="2" xmlns="http://www.w3.org/2000/svg"><path d="M50.39 7.649a37.759 37.759 0 0131.96 31.959m-74.708 0a37.764 37.764 0 0131.985-31.96m-.019 74.714A37.756 37.756 0 017.642 50.4m74.708 0a37.734 37.734 0 01-31.96 31.962" /><path d="M50.39 27.847V7.258a3.594 3.594 0 00-3.593-3.594h-3.594a3.594 3.594 0 00-3.594 3.594v20.589" fill="url(#gradient-top)"/><path d="M50.39 27.847V7.258a3.594 3.594 0 00-3.593-3.594h-3.594a3.594 3.594 0 00-3.594 3.594v20.589" /><path d="M39.609 62.149v20.588a3.594 3.594 0 003.594 3.594h3.593a3.594 3.594 0 003.594-3.594V62.15" fill="url(#gradient-bottom)"/><path d="M39.609 62.149v20.588a3.594 3.594 0 003.594 3.594h3.593a3.594 3.594 0 003.594-3.594V62.15" /><path d="M27.856 39.62H7.268a3.594 3.594 0 00-3.594 3.594v3.593a3.594 3.594 0 003.594 3.594h20.588" fill="url(#gradient-left)"/><path d="M27.856 39.62H7.268a3.594 3.594 0 00-3.594 3.594v3.593a3.594 3.594 0 003.594 3.594h20.588" /><path d="M62.147 50.401h20.588a3.593 3.593 0 003.594-3.594v-3.593a3.593 3.593 0 00-3.594-3.594H62.147" fill="url(#gradient-right)"/><path d="M62.147 50.401h20.588a3.593 3.593 0 003.594-3.594v-3.593a3.593 3.593 0 00-3.594-3.594H62.147" /><path d="M27.03 45.006a17.967 17.967 0 0024.845 16.6 17.97 17.97 0 10-24.845-16.6z" /><defs><radialGradient id="gradient-top" cx="0" cy="0" r="1" gradientUnits="userSpaceOnUse" gradientTransform="rotate(57.614 6.31 53.32) scale(13.106 15.9752)"><stop stop-color="#EDE5ED"/><stop offset=".413" stop-color="#D5D4EA"/><stop offset=".656" stop-color="#CDD6F2"/><stop offset="1" stop-color="#B5E1D9"/></radialGradient><radialGradient id="gradient-bottom" cx="0" cy="0" r="1" gradientUnits="userSpaceOnUse" gradientTransform="rotate(57.614 -46.867 82.563) scale(13.106 15.9752)"><stop stop-color="#EDE5ED"/><stop offset=".413" stop-color="#D5D4EA"/><stop offset=".656" stop-color="#CDD6F2"/><stop offset="1" stop-color="#B5E1D9"/></radialGradient><radialGradient id="gradient-left" cx="0" cy="0" r="1" gradientUnits="userSpaceOnUse" gradientTransform="matrix(15.74544 4.93432 -3.79444 12.10807 22.398 46.651)"><stop stop-color="#EDE5ED"/><stop offset=".413" stop-color="#D5D4EA"/><stop offset=".656" stop-color="#CDD6F2"/><stop offset="1" stop-color="#B5E1D9"/></radialGradient><radialGradient id="gradient-right" cx="0" cy="0" r="1" gradientUnits="userSpaceOnUse" gradientTransform="matrix(15.74544 4.93432 -3.79444 12.10807 80.872 46.651)"><stop stop-color="#EDE5ED"/><stop offset=".413" stop-color="#D5D4EA"/><stop offset=".656" stop-color="#CDD6F2"/><stop offset="1" stop-color="#B5E1D9"/></radialGradient></defs></svg>