<svg viewBox="0 0 90 90" fill="none" stroke="currentColor" stroke-width="2" xmlns="http://www.w3.org/2000/svg"><path d="M10.3 80.56l.101-.48-.323-.37A20.012 20.012 0 015.12 66.494c0-10.993 8.852-19.941 19.859-20.155l.002.003h.407c11.192 0 20.261 9.032 20.261 20.158 0 11.127-9.062 20.158-20.261 20.158-3.371 0-6.549-.82-9.34-2.263l-.434-.225-.442.21-6.31 3.01 1.439-6.83z" fill="url(#gradient)"/><path d="M20.664 32.2c0 16.756 13.653 30.343 30.49 30.343a30.457 30.457 0 0019.983-7.429l12.66 2.643-5.582-11.578A30.095 30.095 0 0081.638 32.2c0-16.756-13.653-30.342-30.49-30.342-16.837 0-30.49 13.586-30.49 30.342h.006z"/><defs><radialGradient id="gradient" cx="0" cy="0" r="1" gradientUnits="userSpaceOnUse" gradientTransform="matrix(27.67185 20.03991 -25.65535 35.42585 37.04 73.904)"><stop stop-color="#EDE5ED"/><stop offset=".413" stop-color="#D5D4EA"/><stop offset=".656" stop-color="#CDD6F2"/><stop offset="1" stop-color="#B5E1D9"/></radialGradient></defs></svg>