<svg viewBox="0 0 90 90" fill="none" stroke="currentColor" stroke-width="2" stroke-linecap="round" stroke-linejoin="round" xmlns="http://www.w3.org/2000/svg"><path d="M18.048 61.221H7.267a3.594 3.594 0 01-3.594-3.594V21.69a3.594 3.594 0 013.594-3.594h19.766M45.002 18.096h19.766a3.594 3.594 0 013.593 3.594v35.522M22.409 64.827l-6.16 21.563"/><path d="M45 18.08a3.594 3.594 0 00-3.593-3.593H30.625a3.594 3.594 0 100 7.187h10.782A3.594 3.594 0 0045 18.081zM37.703 57.628h-16.06a3.594 3.594 0 00-3.594 3.593v1.797a1.797 1.797 0 001.797 1.797h9.096"/><path d="M61.175 54.255l-25.157 9.99 25.157 8.877 25.156-8.877-25.157-9.99z" fill="url(#gradient)"/><path d="M36.018 64.237V77.4M46.8 68.045v11.334a2.7 2.7 0 001.692 2.516l11.68 4.313a2.688 2.688 0 002.005 0l11.68-4.313a2.698 2.698 0 001.693-2.516V68.045"/><defs><radialGradient id="gradient" cx="0" cy="0" r="1" gradientUnits="userSpaceOnUse" gradientTransform="matrix(32.7598 8.6349 -5.73512 21.75835 74.975 66.557)"><stop stop-color="#EDE5ED"/><stop offset=".413" stop-color="#D5D4EA"/><stop offset=".656" stop-color="#CDD6F2"/><stop offset="1" stop-color="#B5E1D9"/></radialGradient></defs></svg>