<svg viewBox="0 0 24 24" fill="currentColor" xmlns="http://www.w3.org/2000/svg"><path d="M11.5 5.168c2.225 0 2.489.009 3.367.049.813.037 1.254.173 1.548.287.389.15.666.332.958.623.291.292.472.57.623.958.114.294.25.735.287 1.548.04.878.049 1.142.049 3.367s-.009 2.489-.049 3.367c-.037.813-.173 1.254-.287 1.548a2.582 2.582 0 01-.623.958c-.292.292-.57.472-.958.623-.294.114-.735.25-1.548.287-.878.04-1.142.049-3.367.049s-2.489-.009-3.367-.049c-.813-.037-1.254-.173-1.548-.287a2.581 2.581 0 01-.958-.623 2.581 2.581 0 01-.623-.958c-.114-.294-.25-.735-.287-1.547-.04-.88-.049-1.143-.049-3.368 0-2.225.009-2.489.049-3.367.037-.813.173-1.254.287-1.548.15-.389.331-.666.623-.958.292-.291.57-.472.958-.623.294-.114.735-.25 1.548-.287.878-.04 1.142-.049 3.367-.049zm0-1.501c-2.263 0-2.547.01-3.436.05-.887.04-1.493.181-2.023.387a4.085 4.085 0 00-1.476.961 4.085 4.085 0 00-.96 1.476c-.207.53-.348 1.136-.388 2.023-.04.89-.05 1.173-.05 3.436s.01 2.547.05 3.436c.04.887.181 1.493.387 2.023.213.548.498 1.012.961 1.476.464.463.928.748 1.476.96.53.207 1.136.348 2.023.388.889.04 1.173.05 3.436.05s2.547-.01 3.436-.05c.887-.04 1.493-.181 2.023-.387a4.085 4.085 0 001.476-.961 4.07 4.07 0 00.96-1.476c.207-.53.348-1.136.388-2.023.04-.889.05-1.173.05-3.436s-.01-2.547-.05-3.436c-.04-.887-.181-1.492-.387-2.023a4.085 4.085 0 00-.961-1.476 4.085 4.085 0 00-1.476-.96c-.53-.207-1.136-.348-2.023-.388-.889-.04-1.173-.05-3.436-.05zm0 4.054a4.28 4.28 0 100 8.558 4.28 4.28 0 000-8.558zm0 7.057a2.778 2.778 0 110-5.556 2.778 2.778 0 010 5.556zm5.448-7.226a1 1 0 11-2 0 1 1 0 012 0z"/></svg>