<svg viewBox="0 0 24 24" fill="currentColor" xmlns="http://www.w3.org/2000/svg"><path d="M16.958 4H7.042A3.542 3.542 0 003.5 7.542v9.916A3.542 3.542 0 007.042 21h9.916a3.542 3.542 0 003.542-3.542V7.542A3.542 3.542 0 0016.958 4zM9.167 17.458H7.042V9.667h2.125v7.791zm-1.063-8.69c-.684 0-1.24-.56-1.24-1.249 0-.69.556-1.25 1.24-1.25.684 0 1.24.56 1.24 1.25s-.555 1.25-1.24 1.25zm9.563 8.69h-2.125v-3.97c0-2.385-2.834-2.204-2.834 0v3.97h-2.125V9.667h2.125v1.25c.99-1.832 4.959-1.967 4.959 1.754v4.787z"/></svg>