<svg viewBox="0 0 86 28" fill="none" xmlns="http://www.w3.org/2000/svg"><path d="M13.96 11.947c0 3.799-3.122 6.873-6.98 6.873-3.858 0-6.98-3.074-6.98-6.873 0-3.8 3.122-6.874 6.98-6.874 3.858 0 6.98 3.075 6.98 6.874z" fill="#1496BB"/><path d="M20.762 4.458c0 1.976-1.628 3.602-3.657 3.602-2.007 0-3.658-1.604-3.658-3.602 0-1.976 1.628-3.602 3.658-3.602 2.007 0 3.657 1.626 3.657 3.602z" fill="#F26D21"/><path d="M42.773 5.688c0-.308.29-.593.602-.593h1.16c.312 0 .602.285.602.593v12.518c0 .307-.29.593-.602.593h-1.16c-.312 0-.602-.286-.602-.593V5.688zM68.642 5.073c3.501 0 6.2 2.547 6.2 5.995 0 .22-.023.66-.067.879a.587.587 0 01-.603.549h-9.745c.134 2.196 2.052 4.084 4.705 4.084 1.405 0 2.476-.439 3.323-1.076.29-.22.469-.22.692-.022.245.22.512.484.758.703.29.242.379.461.067.813-.67.746-2.453 1.822-4.75 1.822-4.037 0-7.137-3.118-7.137-6.873 0-3.712 2.676-6.874 6.713-6.874h-.156zm3.902 5.622c-.089-1.91-2.007-3.602-4.036-3.602-2.23 0-3.88 1.735-4.014 3.602h8.05zM85.01 17.217l-.958-.944c-.067-.066-.313-.154-.558.044 0 0-.49.44-1.316.44-.58 0-1.048-.199-1.382-.55-.335-.351-.558-.856-.558-1.471 0-.044 0-.066-.022-.088V6.984h3.523a.595.595 0 00.603-.593v-.703c0-.351-.246-.593-.603-.593h-3.523V1.581a.59.59 0 00-.58-.593l-1.026.11c-.312.044-.602.286-.602.593v3.382h-1.672c-.357 0-.602.242-.602.593v.703a.61.61 0 00.602.593h1.672v7.862h.022a4.12 4.12 0 00.625 2.064c.2.307.647.922 1.338 1.405 0 0 .022.022.044.022.335.198 1.049.505 2.164.505 1.16 0 2.14-.417 2.854-1.098a.402.402 0 00.112-.263c-.045-.066-.09-.176-.156-.242zM39.874 5.095h-1.405a.577.577 0 00-.558.351l-4.37 10.212-4.305-10.234a.637.637 0 00-.557-.351h-1.45c-.49 0-.669.307-.49.725l.223.527 5.24 11.88c.112.286.335.594.67.594H34.164c.312 0 .557-.33.669-.593l5.285-11.86.223-.526c.2-.418 0-.725-.468-.725zM56.198 18.842h-4.66c-1.205 0-1.785-.834-1.785-1.625 0-1.273 1.427-1.91 1.427-1.91s1.517.922 3.3.922c3.435 0 5.754-2.657 5.754-5.556 0-2.174-1.338-3.426-1.338-3.426l1.762-.483c.223-.022.357-.33.357-.55v-.548a.605.605 0 00-.624-.615h-6.155c-3.368 0-5.486 2.657-5.486 5.622 0 1.889 1.048 3.184 1.048 3.184s-2.163 1.252-2.163 3.668c0 1.976 1.516 2.81 2.363 3.03v.088c-.334.198-1.873 1.054-1.873 2.965 0 2.108 1.873 4.392 6.222 4.392 3.925 0 6.712-2.525 6.712-5.16 0-2.746-2.14-3.998-4.861-3.998zM54.481 7.137c1.94 0 3.523 1.56 3.523 3.47 0 1.91-1.583 3.47-3.523 3.47-1.94 0-3.524-1.56-3.524-3.47 0-1.91 1.584-3.47 3.524-3.47zm-.156 18.82c-2.208 0-3.88-1.12-3.88-2.657 0-1.888 2.163-2.46 2.163-2.46h3.59c2.275 0 2.453 1.67 2.453 2.065.022 1.889-2.185 3.053-4.326 3.053zM42.594 1.362c0-.77.603-1.362 1.36-1.362.781 0 1.383.593 1.383 1.362 0 .724-.602 1.34-1.382 1.34-.758 0-1.36-.616-1.36-1.34z" fill="#092F40"/></svg>