<svg viewBox="0 0 24 24" fill="currentColor" xmlns="http://www.w3.org/2000/svg"><path d="M9.741 18.333c6.29 0 9.73-5.13 9.73-9.579 0-.145 0-.29-.01-.435a6.9 6.9 0 001.706-1.743 6.91 6.91 0 01-1.964.53 3.388 3.388 0 001.503-1.862 6.918 6.918 0 01-2.171.817 3.44 3.44 0 00-1.94-1.017 3.47 3.47 0 00-2.169.355 3.392 3.392 0 00-1.502 1.58 3.323 3.323 0 00-.217 2.153A9.828 9.828 0 018.804 8.11 9.682 9.682 0 015.66 5.614a3.324 3.324 0 00-.375 2.454 3.37 3.37 0 001.434 2.04 3.435 3.435 0 01-1.552-.421v.043c0 .777.273 1.53.773 2.132a3.43 3.43 0 001.97 1.168 3.467 3.467 0 01-1.544.058 3.373 3.373 0 001.217 1.673c.573.419 1.264.651 1.978.665A6.93 6.93 0 014.5 16.82a9.792 9.792 0 005.241 1.51"/></svg>