<svg viewBox="0 0 24 24" fill="currentColor" xmlns="http://www.w3.org/2000/svg"><path d="M8.29 20c7.547 0 11.675-6.156 11.675-11.495 0-.175 0-.349-.012-.522A8.278 8.278 0 0022 5.892a8.29 8.29 0 01-2.357.635 4.066 4.066 0 001.804-2.234 8.302 8.302 0 01-2.605.98 4.127 4.127 0 00-2.328-1.22 4.163 4.163 0 00-2.602.425 4.07 4.07 0 00-1.803 1.896 3.986 3.986 0 00-.26 2.584 11.793 11.793 0 01-4.684-1.225 11.618 11.618 0 01-3.773-2.996 3.989 3.989 0 00-.45 2.944 4.044 4.044 0 001.72 2.45A4.122 4.122 0 012.8 9.623v.052c0 .932.328 1.836.928 2.558a4.117 4.117 0 002.364 1.402 4.16 4.16 0 01-1.853.07 4.047 4.047 0 001.46 2.007 4.15 4.15 0 002.374.798A8.317 8.317 0 012 18.185a11.75 11.75 0 006.29 1.812"/></svg>