<svg viewBox="0 0 24 24" fill="currentColor" xmlns="http://www.w3.org/2000/svg"><path fill-rule="evenodd" d="M12 2C6.477 2 2 6.477 2 12s4.477 10 10 10 10-4.477 10-10S17.523 2 12 2zm3.213 12.865c1.579-2.03 2.394-3.63 2.448-4.797.071-1.563-.51-2.363-1.744-2.399-1.663-.054-2.79.885-3.38 2.816.305-.13.602-.197.889-.197.61 0 .88.343.808 1.028-.037.415-.306 1.018-.808 1.811-.503.794-.88 1.19-1.132 1.19-.323 0-.62-.61-.889-1.833-.09-.36-.252-1.276-.485-2.75-.216-1.366-.79-2.005-1.724-1.915-.395.036-.989.395-1.778 1.078-.575.52-1.16 1.041-1.751 1.561l.564.727c.538-.376.852-.565.942-.565.412 0 .797.646 1.156 1.937l.592 2.173.376 1.378c.484 1.292 1.076 1.937 1.776 1.937 1.128 0 2.509-1.06 4.14-3.18z"/></svg>