<svg viewBox="0 0 24 24" fill="currentColor" xmlns="http://www.w3.org/2000/svg"><path fill-rule="evenodd" clip-rule="evenodd" d="M12.25 4a8.25 8.25 0 100 16.5 8.25 8.25 0 000-16.5zm2.651 10.614c1.302-1.675 1.975-2.995 2.02-3.958.058-1.29-.422-1.95-1.44-1.98-1.371-.043-2.3.73-2.787 2.324.251-.108.495-.162.732-.162.504 0 .726.283.667.847-.03.343-.252.84-.666 1.495-.416.655-.727.982-.934.982-.267 0-.511-.504-.734-1.513-.074-.296-.207-1.052-.4-2.269-.178-1.127-.652-1.653-1.422-1.58-.326.03-.816.327-1.467.89-.475.43-.956.859-1.445 1.288l.465.6c.444-.31.703-.466.777-.466.34 0 .658.533.954 1.598a9949.007 9949.007 0 01.8 2.93c.398 1.065.887 1.597 1.464 1.597.931 0 2.07-.875 3.416-2.623z"/></svg>