<svg viewBox="0 0 730 452" fill="none" xmlns="http://www.w3.org/2000/svg" class="md:scale-[1.2]"><path d="M195 146.5l109-3M186.354 117.556l116.802 24.047M260 95.5l43 46M389.382 7.966l-85.54 134.666M336.478 41.977l-32.636 100.656M460.149 113.774l35.384-74.204M399.001 49.873l-95.846 90.693M400.031 49.528l96.877-9.62M389.038 8.305l105.808 29.2M591.036 88.348l-94.815-49.126M552.604 100.324L495.19 37.86M590.691 88.359l-69.394 107.526M552.869 99.705l-33.667 98.251M572.108 286.602l-52.906-88.648M235.822 301.688l69.051-158.713M389.038 224.735l-83.479-81.074M397.626 197.939l-92.755-54.278M453.279 307.527l-215.053-6.871M456 159.5l-150.441-15.839M453.966 306.837l66.646-111.305M389.038 225.77l131.573-28.17M397.626 197.6h122.985M457 159.5l64 38M459.463 117.198l61.149 80.388" stroke="#C8F0FF" stroke-width="1.374"/><circle class="prefix__pulse prefix__pulse-group-1" cx="260" cy="92.5" r="13.625" fill="#8FE0FE" stroke="#51BCE3" stroke-width=".75"/><circle class="prefix__pulse prefix__pulse-group-1" cx="260" cy="92.5" r="13.625" fill="#8FE0FE" stroke="#51BCE3" stroke-width=".75"/><circle class="prefix__pulse prefix__pulse-group-1" cx="260" cy="92.5" r="13.625" fill="#8FE0FE" stroke="#51BCE3" stroke-width=".75"/><circle class="prefix__pulse prefix__pulse-group-1" cx="260" cy="92.5" r="13.625" fill="#8FE0FE" stroke="#51BCE3" stroke-width=".75"/><rect x="246.344" y="78.844" width="27.313" height="27.313" rx="13.656" fill="#35C7FF"/><g clip-path="url(#prefix__clip0_863_2161)"><path d="M258.647 88.68a2.297 2.297 0 011.653-.71c.862 0 1.608.48 2.009 1.191.345-.155.731-.24 1.136-.24 1.553 0 2.805 1.267 2.805 2.83 0 1.563-1.257 2.83-2.805 2.83-.19 0-.375-.02-.55-.056a2.055 2.055 0 01-2.69.847 2.345 2.345 0 01-2.154 1.427 2.344 2.344 0 01-2.199-1.533 2.184 2.184 0 01-2.62-2.154c0-.809.436-1.522 1.087-1.903a2.522 2.522 0 012.314-3.526 2.523 2.523 0 012.014.997z" fill="#007EA6"/></g><rect x="246.344" y="78.844" width="27.313" height="27.313" rx="13.656" stroke="#1DA1D1" stroke-width=".687"/><circle class="prefix__pulse prefix__pulse-group-2" cx="457" cy="160" r="13.625" fill="#8FE0FE" stroke="#51BCE3" stroke-width=".75"/><circle class="prefix__pulse prefix__pulse-group-2" cx="457" cy="160" r="13.625" fill="#8FE0FE" stroke="#51BCE3" stroke-width=".75"/><circle class="prefix__pulse prefix__pulse-group-2" cx="457" cy="160" r="13.625" fill="#8FE0FE" stroke="#51BCE3" stroke-width=".75"/><circle class="prefix__pulse prefix__pulse-group-2" cx="457" cy="160" r="13.625" fill="#8FE0FE" stroke="#51BCE3" stroke-width=".75"/><rect x="443.433" y="146.398" width="27.313" height="27.313" rx="13.656" fill="#35C7FF"/><g clip-path="url(#prefix__clip1_863_2161)"><path d="M455.737 156.235a2.297 2.297 0 011.653-.711c.861 0 1.608.481 2.008 1.192.346-.155.732-.24 1.137-.24 1.553 0 2.805 1.267 2.805 2.83 0 1.562-1.257 2.829-2.805 2.829-.19 0-.375-.02-.551-.055a2.053 2.053 0 01-2.689.847 2.346 2.346 0 01-2.154 1.427 2.343 2.343 0 01-2.199-1.533 2.184 2.184 0 01-2.62-2.154c0-.809.436-1.522 1.087-1.903a2.522 2.522 0 012.314-3.526 2.53 2.53 0 012.014.997z" fill="#007EA6"/></g><rect x="443.433" y="146.398" width="27.313" height="27.313" rx="13.656" stroke="#1DA1D1" stroke-width=".687"/><circle class="prefix__pulse prefix__pulse-group-3" cx="437" cy="45.5" r="13.625" fill="#8FE0FE" stroke="#51BCE3" stroke-width=".75"/><circle class="prefix__pulse prefix__pulse-group-3" cx="437" cy="45.5" r="13.625" fill="#8FE0FE" stroke="#51BCE3" stroke-width=".75"/><circle class="prefix__pulse prefix__pulse-group-3" cx="437" cy="45.5" r="13.625" fill="#8FE0FE" stroke="#51BCE3" stroke-width=".75"/><circle class="prefix__pulse prefix__pulse-group-3" cx="437" cy="45.5" r="13.625" fill="#8FE0FE" stroke="#51BCE3" stroke-width=".75"/><rect x="423.344" y="31.843" width="27.313" height="27.313" rx="13.656" fill="#35C7FF"/><g clip-path="url(#prefix__clip2_863_2161)"><path d="M435.647 41.68a2.297 2.297 0 011.653-.71c.862 0 1.608.48 2.009 1.191.345-.155.731-.24 1.136-.24 1.553 0 2.805 1.267 2.805 2.83 0 1.563-1.257 2.83-2.805 2.83-.19 0-.375-.02-.55-.056a2.055 2.055 0 01-2.69.847 2.345 2.345 0 01-2.154 1.427 2.344 2.344 0 01-2.199-1.533 2.184 2.184 0 01-2.62-2.154c0-.809.436-1.522 1.087-1.903a2.522 2.522 0 012.314-3.526 2.523 2.523 0 012.014.997z" fill="#007EA6"/></g><rect x="423.344" y="31.843" width="27.313" height="27.313" rx="13.656" stroke="#1DA1D1" stroke-width=".687"/><circle class="prefix__pulse prefix__pulse-group-4" cx="228" cy="244" r="13.625" fill="#8FE0FE" stroke="#51BCE3" stroke-width=".75"/><circle class="prefix__pulse prefix__pulse-group-4" cx="228" cy="244" r="13.625" fill="#8FE0FE" stroke="#51BCE3" stroke-width=".75"/><circle class="prefix__pulse prefix__pulse-group-4" cx="228" cy="244" r="13.625" fill="#8FE0FE" stroke="#51BCE3" stroke-width=".75"/><circle class="prefix__pulse prefix__pulse-group-4" cx="228" cy="244" r="13.625" fill="#8FE0FE" stroke="#51BCE3" stroke-width=".75"/><rect x="214.344" y="230.344" width="27.313" height="27.313" rx="13.656" fill="#35C7FF"/><g clip-path="url(#prefix__clip3_863_2161)"><path d="M226.647 240.18a2.3 2.3 0 011.653-.711c.862 0 1.608.481 2.009 1.192a2.77 2.77 0 011.136-.24c1.553 0 2.805 1.267 2.805 2.83 0 1.563-1.257 2.83-2.805 2.83-.19 0-.375-.02-.55-.056a2.053 2.053 0 01-2.69.847 2.343 2.343 0 01-2.154 1.427 2.344 2.344 0 01-2.199-1.533 2.183 2.183 0 01-2.62-2.153c0-.81.436-1.523 1.087-1.904a2.522 2.522 0 012.314-3.525 2.517 2.517 0 012.014.996z" fill="#007EA6"/></g><rect x="214.344" y="230.344" width="27.313" height="27.313" rx="13.656" stroke="#1DA1D1" stroke-width=".687"/><rect x="175.252" y="109.752" width="13.741" height="13.741" rx="6.871" fill="#C8592A" opacity=".25"/><rect x="178.687" y="113.187" width="6.871" height="6.871" rx="3.435" fill="#C8592A"/><rect x="187.982" y="139.986" width="13.741" height="13.741" rx="6.871" fill="#F1B61C" opacity=".25"/><rect x="191.417" y="143.421" width="6.871" height="6.871" rx="3.435" fill="#F1B61C"/><rect x="341.623" y="174.041" width="13.741" height="13.741" rx="6.871" fill="#C8592A" opacity=".25"/><rect x="345.058" y="177.476" width="6.871" height="6.871" rx="3.435" fill="#C8592A"/><rect x="349.584" y="153.283" width="13.741" height="13.741" rx="6.871" fill="#F1B61C" opacity=".25"/><rect x="353.019" y="156.718" width="6.871" height="6.871" rx="3.435" fill="#F1B61C"/><rect x="296.97" y="135.76" width="13.741" height="13.741" rx="6.871" fill="#C8592A" opacity=".25"/><rect x="300.406" y="139.195" width="6.871" height="6.871" rx="3.435" fill="#C8592A"/><rect x="246.646" y="172.642" width="13.741" height="13.741" rx="6.871" fill="#E94B36" opacity=".25"/><rect x="250.082" y="176.078" width="6.871" height="6.871" rx="3.435" fill="#E94B36"/><rect x="583.822" y="81.314" width="13.741" height="13.741" rx="6.871" fill="#E89208" opacity=".25"/><rect x="587.257" y="84.749" width="6.871" height="6.871" rx="3.435" fill="#E89208"/><rect x="488.318" y="31.314" width="13.741" height="13.741" rx="6.871" fill="#E9780D" opacity=".25"/><rect x="491.753" y="34.749" width="6.871" height="6.871" rx="3.435" fill="#E9780D"/><rect x="545.002" y="92.83" width="13.741" height="13.741" rx="6.871" fill="#E94B36" opacity=".25"/><rect x="548.437" y="96.265" width="6.871" height="6.871" rx="3.435" fill="#E94B36"/><rect x="382.166" y=".65" width="13.741" height="13.741" rx="6.871" fill="#F1B61C" opacity=".25"/><rect x="385.601" y="4.085" width="6.871" height="6.871" rx="3.435" fill="#F1B61C"/><rect x="452.232" y="108.088" width="13.741" height="13.741" rx="6.871" fill="#F1B61C" opacity=".25"/><rect x="455.667" y="111.523" width="6.871" height="6.871" rx="3.435" fill="#F1B61C"/><rect x="392.131" y="41.971" width="13.741" height="13.741" rx="6.871" fill="#E9780D" opacity=".25"/><rect x="395.566" y="45.406" width="6.871" height="6.871" rx="3.435" fill="#E9780D"/><rect x="330.252" y="32.752" width="13.741" height="13.741" rx="6.871" fill="#E94B36" opacity=".25"/><rect x="333.687" y="36.187" width="6.871" height="6.871" rx="3.435" fill="#E94B36"/><rect x="393.857" y="241.267" width="13.741" height="13.741" rx="6.871" fill="#E94B36" opacity=".25"/><rect x="397.292" y="244.703" width="6.871" height="6.871" rx="3.435" fill="#E94B36"/><rect x="512.904" y="190.728" width="13.741" height="13.741" rx="6.871" fill="#E94B36" opacity=".25"/><rect x="516.339" y="194.164" width="6.871" height="6.871" rx="3.435" fill="#E94B36"/><rect x="448.232" y="277.752" width="13.741" height="13.741" rx="6.871" fill="#F1B61C" opacity=".25"/><rect x="451.667" y="281.187" width="6.871" height="6.871" rx="3.435" fill="#F1B61C"/><path d="M569.507 282.062l-49.093 71.126M569.452 281.973v110.87M569.507 282.062l32.809 90.764" stroke="#0D6CA5" stroke-width=".958"/><g opacity=".32" filter="url(#prefix__filter0_f_863_2161)"><g clip-path="url(#prefix__clip4_863_2161)"><rect x="462.911" y="187.181" width="213.848" height="213.848" rx="106.924" fill="url(#prefix__paint0_linear_863_2161)"/><g opacity=".12" filter="url(#prefix__filter1_f_863_2161)"><rect x="554.113" y="198.47" width="110.512" height="110.512" rx="55.256" fill="#15A2D6"/></g><g opacity=".12" filter="url(#prefix__filter2_f_863_2161)"><rect x="536.113" y="184.47" width="117.286" height="117.286" rx="58.643" fill="#15A2D6"/></g></g></g><path d="M569.028 282.536l51.249 38.796" stroke="#0D6CA5" stroke-width=".958"/><circle class="prefix__pulse prefix__pulse-group-5" cx="569" cy="283" r="30" fill="#FF9734"/><circle class="prefix__pulse prefix__pulse-group-5" cx="569" cy="283" r="30" fill="#FF9734"/><circle class="prefix__pulse prefix__pulse-group-5" cx="569" cy="283" r="30" fill="#FF9734"/><circle class="prefix__pulse prefix__pulse-group-5" cx="569" cy="283" r="30" fill="#FF9734"/><g filter="url(#prefix__filter3_dd_863_2161)"><rect x="539" y="253" width="60" height="60" rx="30" fill="#FF824D"/><path opacity=".87" d="M562.548 287.403v-1.93l5.685-8.982h1.609v2.748h-.981l-3.827 6.064v.105h7.935v1.995h-10.421zm6.391 2.486v-3.075l.026-.863v-9.46h2.29v13.398h-2.316z" fill="#fff"/><rect x="539.384" y="253.384" width="59.232" height="59.232" rx="29.616" stroke="#fff" stroke-opacity=".5" stroke-width=".768"/></g><rect x="611.416" y="311.517" width="18.68" height="18.68" rx="9.34" fill="#2E7BA8"/><path d="M620.755 320.757c-.452 0-.836-.157-1.152-.47a1.562 1.562 0 01-.474-1.157c0-.452.158-.835.474-1.147.316-.313.7-.469 1.152-.469.453 0 .837.156 1.152.469.317.312.475.695.475 1.147 0 .459-.158.845-.475 1.157-.315.313-.699.47-1.152.47zm-3.063 3.262v-1.167c0-.186.051-.363.154-.529.103-.166.245-.302.424-.409a5.304 5.304 0 011.198-.499 4.764 4.764 0 011.287-.179c.439 0 .871.058 1.297.174.426.117.822.285 1.188.504.179.1.321.233.424.399.103.166.155.346.155.539v1.167h-6.127z" fill="#fff"/><rect x="611.416" y="311.517" width="18.68" height="18.68" rx="9.34" stroke="#70C9F5" stroke-width=".479"/><rect x="591.778" y="363.72" width="18.68" height="18.68" rx="9.34" fill="#2E7BA8"/><path d="M601.117 372.959c-.452 0-.836-.156-1.152-.469a1.564 1.564 0 01-.474-1.157c0-.453.158-.835.474-1.148.316-.313.7-.469 1.152-.469.453 0 .837.156 1.153.469.316.313.474.695.474 1.148 0 .459-.158.844-.474 1.157-.316.313-.7.469-1.153.469zm-3.063 3.263v-1.167c0-.187.051-.363.154-.53.104-.166.245-.302.424-.409a5.348 5.348 0 011.198-.498c.426-.12.855-.18 1.287-.18.439 0 .872.058 1.297.175.426.116.822.284 1.188.503.179.1.321.233.424.4.103.166.155.346.155.539v1.167h-6.127z" fill="#fff"/><rect x="591.778" y="363.72" width="18.68" height="18.68" rx="9.34" stroke="#70C9F5" stroke-width=".479"/><rect x="560.722" y="393.082" width="18.68" height="18.68" rx="9.34" fill="#2E7BA8"/><path d="M570.061 402.322c-.452 0-.837-.157-1.152-.47a1.56 1.56 0 01-.475-1.157c0-.452.158-.835.475-1.148.315-.312.7-.469 1.152-.469.452 0 .837.157 1.152.469.316.313.475.696.475 1.148 0 .459-.159.845-.475 1.157-.315.313-.7.47-1.152.47zm-3.063 3.262v-1.167c0-.186.051-.363.154-.529.103-.166.245-.303.424-.409a5.304 5.304 0 011.198-.499c.426-.12.855-.18 1.287-.18a4.914 4.914 0 012.485.679c.179.1.321.233.424.399.103.166.154.346.154.539v1.167h-6.126z" fill="#fff"/><rect x="560.722" y="393.082" width="18.68" height="18.68" rx="9.34" stroke="#70C9F5" stroke-width=".479"/><rect x="511.313" y="342.169" width="18.68" height="18.68" rx="9.34" fill="#2E7BA8"/><path d="M520.652 351.408c-.452 0-.837-.156-1.152-.469a1.565 1.565 0 01-.474-1.157c0-.453.158-.835.474-1.148.315-.313.7-.469 1.152-.469.453 0 .837.156 1.152.469.317.313.475.695.475 1.148 0 .458-.158.844-.475 1.157a1.572 1.572 0 01-1.152.469zm-3.063 3.263v-1.167c0-.187.051-.363.154-.53.103-.166.245-.302.424-.409a5.348 5.348 0 011.198-.498c.426-.12.855-.18 1.287-.18a4.873 4.873 0 012.485.678c.179.1.321.233.424.4.103.166.154.345.154.539v1.167h-6.126z" fill="#fff"/><rect x="511.313" y="342.169" width="18.68" height="18.68" rx="9.34" stroke="#70C9F5" stroke-width=".479"/><defs><clipPath id="prefix__clip0_863_2161"><path fill="#fff" transform="translate(252.871 85.37)" d="M0 0h13.741v13.741H0z"/></clipPath><clipPath id="prefix__clip1_863_2161"><path fill="#fff" transform="translate(449.96 152.925)" d="M0 0h13.741v13.741H0z"/></clipPath><clipPath id="prefix__clip2_863_2161"><path fill="#fff" transform="translate(429.871 38.37)" d="M0 0h13.741v13.741H0z"/></clipPath><clipPath id="prefix__clip3_863_2161"><path fill="#fff" transform="translate(220.871 236.871)" d="M0 0h13.741v13.741H0z"/></clipPath><clipPath id="prefix__clip4_863_2161"><rect x="462.911" y="187.181" width="213.848" height="213.848" rx="106.924" fill="#fff"/></clipPath><filter id="prefix__filter0_f_863_2161" x="412.911" y="137.181" width="313.848" height="313.848" filterUnits="userSpaceOnUse" color-interpolation-filters="sRGB"><feFlood flood-opacity="0" result="BackgroundImageFix"/><feBlend in="SourceGraphic" in2="BackgroundImageFix" result="shape"/><feGaussianBlur stdDeviation="25" result="effect1_foregroundBlur_863_2161"/></filter><filter id="prefix__filter1_f_863_2161" x="497.422" y="141.779" width="223.894" height="223.894" filterUnits="userSpaceOnUse" color-interpolation-filters="sRGB"><feFlood flood-opacity="0" result="BackgroundImageFix"/><feBlend in="SourceGraphic" in2="BackgroundImageFix" result="shape"/><feGaussianBlur stdDeviation="28.346" result="effect1_foregroundBlur_863_2161"/></filter><filter id="prefix__filter2_f_863_2161" x="475.946" y="124.304" width="237.619" height="237.619" filterUnits="userSpaceOnUse" color-interpolation-filters="sRGB"><feFlood flood-opacity="0" result="BackgroundImageFix"/><feBlend in="SourceGraphic" in2="BackgroundImageFix" result="shape"/><feGaussianBlur stdDeviation="30.083" result="effect1_foregroundBlur_863_2161"/></filter><filter id="prefix__filter3_dd_863_2161" x="526.718" y="245.324" width="84.563" height="84.563" filterUnits="userSpaceOnUse" color-interpolation-filters="sRGB"><feFlood flood-opacity="0" result="BackgroundImageFix"/><feColorMatrix in="SourceAlpha" values="0 0 0 0 0 0 0 0 0 0 0 0 0 0 0 0 0 0 127 0" result="hardAlpha"/><feOffset dy="4.606"/><feGaussianBlur stdDeviation="6.141"/><feComposite in2="hardAlpha" operator="out"/><feColorMatrix values="0 0 0 0 0.411765 0 0 0 0 0.337255 0 0 0 0 0.215686 0 0 0 0.12 0"/><feBlend in2="BackgroundImageFix" result="effect1_dropShadow_863_2161"/><feColorMatrix in="SourceAlpha" values="0 0 0 0 0 0 0 0 0 0 0 0 0 0 0 0 0 0 127 0" result="hardAlpha"/><feMorphology radius="1.535" in="SourceAlpha" result="effect2_dropShadow_863_2161"/><feOffset dy="1.535"/><feGaussianBlur stdDeviation="2.303"/><feComposite in2="hardAlpha" operator="out"/><feColorMatrix values="0 0 0 0 0 0 0 0 0 0 0 0 0 0 0 0 0 0 0.08 0"/><feBlend in2="effect1_dropShadow_863_2161" result="effect2_dropShadow_863_2161"/><feBlend in="SourceGraphic" in2="effect2_dropShadow_863_2161" result="shape"/></filter><linearGradient id="prefix__paint0_linear_863_2161" x1="599.339" y1="312.992" x2="569.835" y2="401.029" gradientUnits="userSpaceOnUse"><stop stop-color="#FFC684"/><stop offset="1" stop-color="#FFC684" stop-opacity=".71"/></linearGradient><style>@keyframes pulsing{to{transform:scale(2);opacity:0}}.prefix__pulse{transform-origin:center center;animation:pulsing 4s ease-out infinite}.prefix__pulse:nth-of-type(4n+1){animation-delay:-1s}.prefix__pulse:nth-of-type(4n+2){animation-delay:-2s}.prefix__pulse:nth-of-type(4n+3){animation-delay:-3s}.prefix__pulse-group-1{transform-origin:260px 92.5px}.prefix__pulse-group-2{transform-origin:457px 160px}.prefix__pulse-group-3{transform-origin:437px 45.5px}.prefix__pulse-group-4{transform-origin:228px 244px}.prefix__pulse-group-5{transform-origin:569px 283px}</style></defs></svg>