<svg viewBox="0 0 725 530" fill="none" xmlns="http://www.w3.org/2000/svg"><g filter="url(#prefix__filter0_dd_858_2795)"><rect x="65.471" y="350.022" width="161.796" height="69.976" rx="6" fill="#fff" shape-rendering="crispEdges"/><path d="M77.788 372.144v-7.894h2.883c.727 0 1.323.227 1.785.682.466.452.698 1.048.698 1.791 0 .742-.232 1.345-.698 1.807-.466.462-1.061.693-1.785.693h-1.78v2.921h-1.103zm1.103-3.882h1.6c.473 0 .846-.136 1.119-.409.276-.277.415-.653.415-1.13 0-.473-.137-.843-.41-1.108-.27-.27-.64-.404-1.114-.404h-1.61v3.051zm5.465 3.882v-5.656h1.048v.983l-.022.425h.022c.134-.433.36-.787.677-1.064a1.65 1.65 0 011.113-.415l.279.027v1.07a1.498 1.498 0 00-1.277.322c-.288.237-.496.563-.623.978a3.473 3.473 0 00-.137 1.015v2.315h-1.08zm4.181-6.786v-1.108h1.092v1.108h-1.092zm.011 6.786v-5.656h1.08v5.656h-1.08zm2.38-2.828c0-.845.284-1.549.852-2.113.571-.568 1.297-.851 2.178-.851.266 0 .519.029.759.087.243.055.444.124.6.207.16.08.3.162.42.246.12.08.208.149.263.207l.081.082-.513.759a1.91 1.91 0 00-.278-.224 1.941 1.941 0 00-.322-.196 2.251 2.251 0 00-.437-.159 2.028 2.028 0 00-.53-.07c-.57 0-1.042.191-1.413.573-.368.378-.552.859-.552 1.441 0 .582.188 1.068.563 1.457.374.386.853.579 1.435.579a2.275 2.275 0 001.07-.267c.135-.077.255-.151.36-.224.11-.077.19-.14.24-.191l.077-.082.437.797a2.11 2.11 0 01-.093.098c-.04.04-.133.113-.278.218a3.164 3.164 0 01-.459.273c-.16.08-.37.153-.628.219a3.277 3.277 0 01-.802.098c-.885 0-1.61-.28-2.178-.841-.568-.56-.852-1.268-.852-2.123zm6.125 0c0-.888.266-1.603.797-2.146.535-.545 1.212-.818 2.03-.818.518 0 .963.121 1.338.365a2.2 2.2 0 01.841.956c.182.393.273.837.273 1.332l-.038.469h-4.122c.026.593.222 1.054.59 1.381.371.324.822.486 1.354.486a2.301 2.301 0 001.01-.235c.131-.065.247-.129.349-.191.105-.065.185-.122.24-.169l.076-.065.448.791a1.355 1.355 0 01-.098.087 3.558 3.558 0 01-.284.197 3.633 3.633 0 01-.453.246 3.65 3.65 0 01-.606.191 3.272 3.272 0 01-.748.087 3.119 3.119 0 01-1.561-.388 2.766 2.766 0 01-1.065-1.064 3.09 3.09 0 01-.37-1.512zm1.152-.661h3.019c-.015-.466-.151-.822-.41-1.07a1.316 1.316 0 00-.955-.371c-.426 0-.79.127-1.092.382-.298.251-.486.604-.562 1.059zm8.538 3.489v-7.894h1.103v3.466h4.094v-3.466h1.108v7.894h-1.108v-3.467h-4.094v3.467h-1.103zm8.216-6.786v-1.108h1.091v1.108h-1.091zm.01 6.786v-5.656h1.081v5.656h-1.081zm2.326-.694l.524-.769c.018.018.044.041.077.071a2.718 2.718 0 00.545.36 2.505 2.505 0 00.999.229c.252 0 .47-.062.655-.186.19-.127.284-.3.284-.518a.512.512 0 00-.163-.371 1.338 1.338 0 00-.415-.29 7.49 7.49 0 00-.568-.245 9.252 9.252 0 01-.622-.268 4.113 4.113 0 01-.563-.338 1.522 1.522 0 01-.42-.486 1.424 1.424 0 01-.158-.677c0-.499.194-.892.584-1.179.389-.288.877-.431 1.463-.431.233 0 .453.021.66.065.211.044.384.097.519.158.135.059.253.119.355.181.102.061.174.114.218.158l.071.065-.437.814a.738.738 0 00-.06-.055 1.769 1.769 0 00-.174-.12 2.05 2.05 0 00-.29-.153 2.25 2.25 0 00-.387-.12 2.168 2.168 0 00-.486-.054c-.258 0-.479.058-.661.174a.581.581 0 00-.267.519.52.52 0 00.158.366c.109.109.249.203.421.283.171.077.358.155.562.235.207.077.415.166.622.268.208.102.397.216.568.344.171.123.309.285.415.485.109.197.164.421.164.672 0 .477-.19.87-.568 1.179-.375.309-.868.464-1.48.464-.258 0-.509-.029-.753-.087a2.841 2.841 0 01-.606-.202 5.537 5.537 0 01-.426-.246 2.078 2.078 0 01-.273-.213l-.087-.082zm4.962-4.012v-.874h.775v-1.632h1.049v1.632h1.364v.874h-1.364v2.517c0 .214.029.403.087.567.058.16.129.284.213.371.087.088.189.159.305.213.117.051.221.084.312.099.094.014.191.021.289.021l.262-.021v.96a3.363 3.363 0 01-.89-.016 2.27 2.27 0 01-.562-.164 1.806 1.806 0 01-.546-.344c-.153-.145-.284-.353-.393-.622a2.568 2.568 0 01-.158-.944v-2.637h-.743zm4.1 1.867a2.918 2.918 0 01.89-2.118 3.1 3.1 0 01.971-.612 3.194 3.194 0 011.19-.223 3.15 3.15 0 012.157.835c.276.258.495.571.655.939.16.367.24.76.24 1.179 0 .56-.136 1.07-.409 1.528-.273.455-.643.81-1.109 1.065a3.14 3.14 0 01-1.534.382 3.138 3.138 0 01-1.533-.382 2.887 2.887 0 01-1.109-1.065 2.929 2.929 0 01-.409-1.528zm1.108 0c0 .586.189 1.072.568 1.457.378.386.837.579 1.375.579.546 0 1.007-.193 1.382-.579.374-.385.562-.871.562-1.457 0-.579-.188-1.059-.562-1.441a1.862 1.862 0 00-1.382-.573c-.538 0-.997.191-1.375.573-.379.382-.568.862-.568 1.441zm6.283 2.839v-5.656h1.049v.983l-.022.425h.022c.134-.433.36-.787.676-1.064a1.653 1.653 0 011.114-.415l.278.027v1.07a1.498 1.498 0 00-1.277.322c-.287.237-.495.563-.622.978a3.472 3.472 0 00-.137 1.015v2.315h-1.081zm3.363-5.656h1.217l1.42 3.701c.033.088.065.188.098.3.036.113.064.206.082.279l.033.104h.022c.061-.255.125-.479.191-.672l1.375-3.712h1.174l-2.648 6.671c-.167.429-.415.759-.742.988a1.848 1.848 0 01-1.092.344c-.189 0-.375-.029-.557-.087a1.86 1.86 0 01-.409-.175l-.131-.082.382-.83c.211.157.431.235.661.235a.88.88 0 00.584-.224c.178-.145.322-.347.431-.606l.278-.644-2.369-5.59z" fill="#22282A"/><path d="M82.382 394.792l-5.67.443v13.642h138.682v-14.823l-10.757-4.343-8.867 3.924-8.577-4.215-8.722-3.634-9.013-2.617-8.431 2.18-8.868 7.269-8.577-2.762-8.722-.727-8.867 2.326-8.432-5.669-9.012.581-8.723-2.035-8.722 5.524-8.722 4.936z" fill="url(#prefix__paint0_linear_858_2795)"/><path stroke="#DADADA" stroke-opacity=".4" stroke-width=".291" d="M76.592 407.877h139.263"/><path stroke="#D8DBDB" stroke-width=".291" stroke-dasharray="1.16 1.16" d="M76.592 392.878h139.553M76.592 378.373h139.553"/><path d="M76.713 395.089l5.67-.443 8.867-4.79 8.576-5.524 8.723 2.035 8.867-.582 8.431 5.815 8.722-2.326 9.013.436 8.577 2.617 8.722-6.978 8.722-2.035 8.722 2.471 8.722 3.99 8.432 3.86 9.885-3.86 10.03 4.133" stroke="#A35BFF" stroke-width=".581"/><circle cx="108.694" cy="386.367" r="1.454" fill="#2A1852"/><circle cx="134.86" cy="389.275" r="1.454" fill="#2A1852"/><circle cx="161.027" cy="385.496" r="1.454" fill="#2A1852"/><circle cx="187.193" cy="389.565" r="1.454" fill="#2A1852"/><circle cx="214.522" cy="393.926" r="1.454" fill="#854ABF"/><circle cx="82.528" cy="394.508" r="1.454" fill="#854ABF"/><path d="M92.703 389.857a1.454 1.454 0 11-2.907-.001 1.454 1.454 0 012.907.001z" fill="#854ABF"/><circle cx="99.972" cy="384.333" r="1.454" fill="#371562"/><circle cx="117.416" cy="385.786" r="1.454" fill="#2A1852"/><circle cx="126.138" cy="391.601" r="1.454" fill="#854ABF"/><circle cx="143.582" cy="389.857" r="1.454" fill="#2A1852"/><circle cx="152.304" cy="392.472" r="1.454" fill="#854ABF"/><circle cx="169.749" cy="383.169" r="1.454" fill="#371562"/><circle cx="178.471" cy="385.786" r="1.454" fill="#2A1852"/><circle cx="195.915" cy="393.636" r="1.454" fill="#854ABF"/><circle cx="204.637" cy="389.565" r="1.454" fill="#2A1852"/></g><defs><linearGradient id="prefix__paint0_linear_858_2795" x1="146.054" y1="384.623" x2="146.054" y2="426.925" gradientUnits="userSpaceOnUse"><stop stop-color="#854ABF" stop-opacity=".13"/><stop offset="1" stop-color="#854ABF" stop-opacity="0"/></linearGradient><filter id="prefix__filter0_dd_858_2795" x="49.471" y="340.022" width="193.796" height="101.976" filterUnits="userSpaceOnUse" color-interpolation-filters="sRGB"><feFlood flood-opacity="0" result="BackgroundImageFix"/><feColorMatrix in="SourceAlpha" values="0 0 0 0 0 0 0 0 0 0 0 0 0 0 0 0 0 0 127 0" result="hardAlpha"/><feOffset dy="6"/><feGaussianBlur stdDeviation="8"/><feComposite in2="hardAlpha" operator="out"/><feColorMatrix values="0 0 0 0 0.411765 0 0 0 0 0.337255 0 0 0 0 0.215686 0 0 0 0.12 0"/><feBlend in2="BackgroundImageFix" result="effect1_dropShadow_858_2795"/><feColorMatrix in="SourceAlpha" values="0 0 0 0 0 0 0 0 0 0 0 0 0 0 0 0 0 0 127 0" result="hardAlpha"/><feMorphology radius="2" in="SourceAlpha" result="effect2_dropShadow_858_2795"/><feOffset dy="2"/><feGaussianBlur stdDeviation="3"/><feComposite in2="hardAlpha" operator="out"/><feColorMatrix values="0 0 0 0 0 0 0 0 0 0 0 0 0 0 0 0 0 0 0.08 0"/><feBlend in2="effect1_dropShadow_858_2795" result="effect2_dropShadow_858_2795"/><feBlend in="SourceGraphic" in2="effect2_dropShadow_858_2795" result="shape"/></filter></defs></svg>