<svg viewBox="0 0 725 530" fill="none" xmlns="http://www.w3.org/2000/svg"><g filter="url(#prefix__filter0_dd_858_2795)"><rect x="45.457" y="250.025" width="484" height="27" rx="4" fill="#CDECB5"/></g><rect x="453.474" y="258.233" width="20.557" height="11.101" rx="1.028" fill="#fff" fill-opacity=".75" stroke="#D8DBDB" stroke-width=".411"/><path d="M457.216 266.154l.334-.464.048.051c.022.022.069.06.139.114.072.055.146.103.223.145.078.042.175.08.292.115.116.034.234.051.352.051.25 0 .459-.075.63-.223a.727.727 0 00.259-.573.68.68 0 00-.292-.59 1.196 1.196 0 00-.72-.211h-.304l-.142-.328.952-1.118a4.278 4.278 0 01.235-.247l.036-.036v-.012c-.086.012-.21.018-.37.018h-1.477v-.53h2.606v.388l-1.187 1.365a1.632 1.632 0 01.696.235c.113.068.211.15.296.244.086.094.155.211.207.349a1.353 1.353 0 01-.03.986c-.07.168-.168.317-.295.445a1.366 1.366 0 01-.47.305 1.593 1.593 0 01-.605.114 1.965 1.965 0 01-.928-.232 1.566 1.566 0 01-.211-.126l-.151-.118a.878.878 0 01-.093-.084l-.03-.033zm3.723.518v-.636h.63v.636h-.63zm1.41-3.344l1.046-1.012h.542v3.826h.949v.53h-2.504v-.53h.961v-2.814l.006-.271h-.012c-.034.066-.104.15-.21.253l-.407.4-.371-.382zm2.895 2.178v-.383l2.013-2.807h.699v2.672h.59v.518h-.59v1.166h-.6v-1.166h-2.112zm.675-.518h1.437v-1.585a3.655 3.655 0 01.018-.37l.006-.064h-.012a2.045 2.045 0 01-.217.359l-1.232 1.648v.012z" fill="#22282A"/><path d="M448.258 266.172l.343-.461.054.051a2.477 2.477 0 00.386.253c.082.041.185.078.307.112s.244.051.364.051a.832.832 0 00.536-.172.565.565 0 00.217-.469.49.49 0 00-.075-.265.68.68 0 00-.196-.208 2.078 2.078 0 00-.283-.172 6.678 6.678 0 00-.337-.159 55.672 55.672 0 01-.356-.16 2.818 2.818 0 01-.334-.19 1.885 1.885 0 01-.283-.232.983.983 0 01-.199-.304 1.023 1.023 0 01-.072-.388c0-.301.107-.563.319-.786.213-.223.489-.359.828-.41v-.581h.44v.575c.129.008.252.03.37.064.121.032.22.068.299.108.08.04.15.079.21.117a.987.987 0 01.133.097l.042.039-.277.506a1.217 1.217 0 00-.178-.13 1.467 1.467 0 00-.78-.247.86.86 0 00-.569.187.567.567 0 00-.22.449.47.47 0 00.073.253c.05.076.116.142.198.199.083.056.177.11.284.162.106.05.217.101.334.151.118.048.237.1.355.156.119.054.231.118.337.19.107.072.201.152.283.238a1.069 1.069 0 01.271.723c0 .315-.105.586-.316.813-.209.224-.492.358-.849.4v.569h-.44v-.569a2.343 2.343 0 01-.427-.087 1.83 1.83 0 01-.346-.145 2.834 2.834 0 01-.241-.153 1.11 1.11 0 01-.154-.127l-.051-.048zM61.687 265.6l.312-.433.045.048a1.972 1.972 0 00.337.242c.074.039.164.075.273.107.109.031.218.047.329.047a.861.861 0 00.587-.208.676.676 0 00.242-.534.634.634 0 00-.273-.55 1.112 1.112 0 00-.671-.197h-.284l-.132-.307.888-1.042a3.879 3.879 0 01.22-.231l.033-.033v-.012a2.54 2.54 0 01-.346.017H61.87v-.494h2.431v.362l-1.107 1.273a1.533 1.533 0 01.649.219c.105.064.197.14.275.228a1 1 0 01.194.326 1.268 1.268 0 01-.028.919 1.295 1.295 0 01-.275.416 1.274 1.274 0 01-.439.284 1.483 1.483 0 01-.565.107 1.875 1.875 0 01-.623-.11 2.252 2.252 0 01-.242-.107 1.408 1.408 0 01-.197-.118l-.14-.109a.794.794 0 01-.088-.079l-.028-.031z" fill="#82898A"/><path d="M74.542 266.338a1.492 1.492 0 01.268-.862c.082-.114.177-.222.283-.325a3.73 3.73 0 01.337-.283 21.3 21.3 0 01.353-.25c.118-.082.23-.163.337-.244.108-.08.204-.161.286-.244.082-.084.148-.176.196-.277a.711.711 0 00.072-.313.67.67 0 00-.22-.521.796.796 0 00-.563-.202.87.87 0 00-.31.058.894.894 0 00-.25.138 2.046 2.046 0 00-.178.163.824.824 0 00-.108.138l-.036.058-.449-.302a1.215 1.215 0 01.1-.159c.04-.058.083-.114.13-.166.047-.052.11-.109.189-.171a1.414 1.414 0 01.57-.28c.121-.033.25-.049.384-.049.404 0 .734.116.991.347.257.228.385.53.385.903a1.3 1.3 0 01-.114.542 1.469 1.469 0 01-.298.437 3.678 3.678 0 01-.407.349c-.146.11-.294.215-.442.313a6.392 6.392 0 00-.41.295 1.419 1.419 0 00-.3.328.726.726 0 00-.118.383h2.159v.53h-2.807a2.254 2.254 0 01-.03-.334zm3.484-.196l.34-.446.04.051a1.484 1.484 0 00.313.256 1.243 1.243 0 00.602.163.983.983 0 00.675-.247.804.804 0 00.283-.635.82.82 0 00-.286-.642 1.026 1.026 0 00-.708-.253c-.127 0-.251.018-.373.055a1.168 1.168 0 00-.272.108l-.09.054-.35-.129.215-2.159h2.195v.53h-1.665l-.103.918a1.102 1.102 0 01-.012.114.492.492 0 01-.015.088l-.006.027h.012a.919.919 0 01.274-.096c.099-.027.195-.04.29-.04.449 0 .814.137 1.095.41.281.273.422.609.422 1.009 0 .419-.147.77-.44 1.051-.293.279-.66.418-1.102.418a1.83 1.83 0 01-.482-.063 1.45 1.45 0 01-.376-.148 2.689 2.689 0 01-.262-.18 1.186 1.186 0 01-.163-.154l-.05-.06zm3.481-2.442c0-.428.132-.777.395-1.048s.598-.407 1.005-.407c.23 0 .443.05.642.148.2.098.373.236.518.412.146.175.26.392.343.651.084.257.127.538.127.843 0 .229-.025.457-.073.684a2.81 2.81 0 01-.232.662 2.321 2.321 0 01-.382.563 1.65 1.65 0 01-.554.392 1.74 1.74 0 01-.72.147 2.144 2.144 0 01-.75-.135l-.096-.046.199-.529.084.042c.038.016.111.038.22.066.108.026.214.039.316.039.193 0 .368-.041.527-.123.159-.085.29-.197.395-.338.104-.14.188-.295.252-.463.067-.169.112-.348.136-.536h-.012a.914.914 0 01-.404.295 1.45 1.45 0 01-.56.111c-.407 0-.738-.135-.993-.406-.255-.273-.383-.615-.383-1.024zm.605 0c0 .271.08.492.241.662.16.171.379.256.654.256.24 0 .448-.062.623-.186.177-.127.265-.268.265-.425 0-.189-.043-.375-.13-.56a1.207 1.207 0 00-.358-.458.777.777 0 00-.494-.184.736.736 0 00-.587.253c-.142.167-.214.381-.214.642zm3.099-.371l1.045-1.011h.542v3.824h.948v.53h-2.502v-.53h.96v-2.813l.007-.271h-.012a1.067 1.067 0 01-.211.253l-.407.401-.37-.383zm3.093 1.16c0-.259.016-.497.048-.714.032-.219.085-.424.16-.614.074-.193.168-.356.282-.488.117-.133.263-.237.44-.313.177-.077.378-.115.605-.115.227 0 .429.038.606.115.178.076.326.18.442.313.117.132.212.295.286.488.075.19.128.395.16.614.032.217.048.455.048.714 0 .261-.016.501-.048.719a2.875 2.875 0 01-.16.618c-.074.192-.17.356-.286.491a1.257 1.257 0 01-.442.316 1.52 1.52 0 01-.606.114c-.227 0-.428-.038-.605-.114a1.264 1.264 0 01-.44-.316 1.703 1.703 0 01-.283-.491 2.887 2.887 0 01-.16-.618 4.957 4.957 0 01-.047-.719zm.623 0c0 .251.014.473.042.668.03.195.078.373.145.533a.857.857 0 00.283.368c.122.084.27.126.442.126.14 0 .264-.029.37-.087a.758.758 0 00.263-.235 1.31 1.31 0 00.168-.368c.044-.146.075-.301.09-.463.019-.163.028-.344.028-.542 0-.197-.01-.376-.027-.536a2.375 2.375 0 00-.09-.461 1.29 1.29 0 00-.17-.367.721.721 0 00-.261-.232.762.762 0 00-.37-.088.756.756 0 00-.63.32 1.29 1.29 0 00-.169.367 2.717 2.717 0 00-.09.461c-.016.16-.024.339-.024.536zm3.138 1.653l.34-.446.039.051a1.484 1.484 0 00.313.256 1.243 1.243 0 00.602.163.983.983 0 00.675-.247.804.804 0 00.283-.635.82.82 0 00-.286-.642 1.026 1.026 0 00-.708-.253c-.126 0-.25.018-.373.055a1.17 1.17 0 00-.271.108l-.09.054-.35-.129.214-2.159h2.195v.53h-1.665l-.102.918a1.102 1.102 0 01-.012.114.492.492 0 01-.016.088l-.005.027h.012a.908.908 0 01.274-.096c.098-.027.194-.04.289-.04.45 0 .815.137 1.096.41.28.273.421.609.421 1.009 0 .419-.146.77-.44 1.051-.292.279-.66.418-1.101.418a1.83 1.83 0 01-.482-.063 1.45 1.45 0 01-.377-.148 2.689 2.689 0 01-.262-.18 1.186 1.186 0 01-.162-.154l-.051-.06zm3.52.196a1.492 1.492 0 01.268-.862 2.45 2.45 0 01.283-.325c.108-.102.22-.197.337-.283.118-.086.236-.169.352-.25.119-.082.231-.163.338-.244.108-.08.203-.161.286-.244.082-.084.147-.176.195-.277a.711.711 0 00.073-.313.67.67 0 00-.22-.521.796.796 0 00-.563-.202.87.87 0 00-.31.058.892.892 0 00-.25.138 2.033 2.033 0 00-.178.163.829.829 0 00-.108.138l-.036.058-.45-.302a1.239 1.239 0 01.1-.159 1.74 1.74 0 01.13-.166 1.69 1.69 0 01.19-.171c.08-.065.164-.12.252-.166.089-.046.194-.084.317-.114.122-.033.25-.049.385-.049.403 0 .734.116.99.347.258.228.386.53.386.903a1.3 1.3 0 01-.114.542 1.465 1.465 0 01-.299.437 3.66 3.66 0 01-.406.349c-.147.11-.294.215-.443.313a6.396 6.396 0 00-.41.295 1.423 1.423 0 00-.3.328.726.726 0 00-.118.383h2.16v.53h-2.807a2.256 2.256 0 01-.03-.334z" fill="#1C6E31"/><path d="M117.83 266.672l1.569-4.354h.641l1.566 4.354h-.635l-.44-1.253h-1.638l-.433 1.253h-.63zm1.223-1.759h1.319l-.482-1.379a4.82 4.82 0 01-.075-.253 4.905 4.905 0 01-.067-.259l-.024-.105h-.012a7.794 7.794 0 01-.171.617l-.488 1.379zm3.071 2.993v-4.354h.548v.265l-.012.229h.012l.033-.06c.016-.026.054-.071.112-.136.058-.066.123-.124.196-.174.072-.05.171-.096.298-.136.126-.042.263-.063.409-.063.418 0 .75.151.997.452.249.301.373.695.373 1.183 0 .49-.132.885-.397 1.186-.265.3-.603.449-1.015.449-.128 0-.249-.018-.361-.054a.908.908 0 01-.274-.127c-.069-.05-.129-.1-.181-.15a.67.67 0 01-.111-.13l-.031-.051h-.012c.008.075.012.165.012.271v1.4h-.596zm.578-2.782c0 .191.032.369.097.536a1 1 0 00.304.413.76.76 0 00.482.162c.257 0 .47-.1.641-.301.173-.201.259-.473.259-.816 0-.335-.082-.605-.247-.81a.772.772 0 00-.635-.307.838.838 0 00-.645.283c-.17.187-.256.467-.256.84zm3.12 2.782v-4.354h.548v.265l-.012.229h.012l.033-.06a1.16 1.16 0 01.112-.136c.058-.066.123-.124.195-.174.073-.05.172-.096.298-.136.127-.042.263-.063.41-.063.418 0 .75.151.997.452.249.301.373.695.373 1.183 0 .49-.132.885-.397 1.186-.265.3-.604.449-1.015.449a1.183 1.183 0 01-.636-.181c-.068-.05-.128-.1-.18-.15a.68.68 0 01-.112-.13l-.03-.051h-.012c.008.075.012.165.012.271v1.4h-.596zm.578-2.782c0 .191.032.369.097.536a1 1 0 00.304.413.76.76 0 00.481.162c.257 0 .471-.1.642-.301.173-.201.259-.473.259-.816 0-.335-.082-.605-.247-.81a.772.772 0 00-.635-.307.838.838 0 00-.645.283c-.171.187-.256.467-.256.84zm3.081.696v-3.502h.599v3.399c0 .173.029.29.087.353.058.06.141.09.247.09l.103-.006v.53a1.506 1.506 0 01-.416-.003.86.86 0 01-.22-.069.645.645 0 01-.205-.145.737.737 0 01-.138-.256 1.203 1.203 0 01-.057-.391zm1.454-.708c0-.49.147-.884.44-1.183.295-.301.668-.452 1.12-.452.285 0 .531.067.738.202.208.132.363.308.463.527.101.216.151.461.151.734l-.021.259h-2.274c.014.328.123.582.326.762.204.179.453.268.746.268a1.298 1.298 0 00.557-.129c.073-.036.137-.072.193-.106a1.1 1.1 0 00.133-.093l.042-.036.247.436a.604.604 0 01-.054.049 2.362 2.362 0 01-.407.244 1.957 1.957 0 01-.334.105 1.806 1.806 0 01-.413.048c-.321 0-.608-.071-.861-.214a1.519 1.519 0 01-.587-.587 1.7 1.7 0 01-.205-.834zm.635-.364h1.666c-.008-.257-.084-.454-.226-.591a.728.728 0 00-.527-.204.899.899 0 00-.602.211c-.165.138-.268.333-.311.584zM502.117 266.174l.344-.461.054.051a2.352 2.352 0 00.385.253c.082.041.185.078.307.112.123.034.244.051.365.051a.836.836 0 00.536-.172.567.567 0 00.217-.469.49.49 0 00-.076-.265.668.668 0 00-.196-.208 2.018 2.018 0 00-.283-.172 6.29 6.29 0 00-.337-.159l-.355-.16a2.667 2.667 0 01-.334-.19 1.836 1.836 0 01-.283-.232.949.949 0 01-.271-.692 1.1 1.1 0 01.319-.786c.213-.223.489-.359.828-.41v-.581h.439v.575c.129.008.252.029.371.064.12.032.22.068.298.108.08.04.151.079.211.117.06.039.104.071.132.097l.042.039-.277.506a1.133 1.133 0 00-.177-.13 1.37 1.37 0 00-.467-.204 1.163 1.163 0 00-.313-.043.857.857 0 00-.569.187.564.564 0 00-.22.449c0 .092.024.176.072.253.05.076.117.142.199.198.082.057.177.111.283.163.106.05.218.1.334.151.119.048.237.1.355.156.119.054.231.118.338.19.106.072.2.152.283.238a1.065 1.065 0 01.271.723c0 .315-.106.586-.316.813-.209.224-.492.358-.85.4v.569h-.439v-.569a2.354 2.354 0 01-.428-.087 1.858 1.858 0 01-.346-.145 3.003 3.003 0 01-.241-.153 1.248 1.248 0 01-.154-.127l-.051-.048zm3.499.166c0-.167.024-.324.073-.47.048-.149.113-.279.195-.392.083-.114.177-.222.283-.325.109-.102.221-.197.338-.283.118-.086.236-.17.352-.25.118-.082.231-.163.337-.244.109-.08.204-.161.286-.244.083-.084.148-.176.196-.277a.714.714 0 00.072-.313.668.668 0 00-.22-.521.795.795 0 00-.563-.202.873.873 0 00-.31.058.91.91 0 00-.25.138 2.035 2.035 0 00-.177.163.792.792 0 00-.109.138l-.036.058-.449-.302.024-.045a1.41 1.41 0 01.076-.114c.04-.058.083-.114.129-.166.048-.052.112-.109.19-.171.08-.065.165-.12.253-.166.088-.046.194-.084.316-.115.123-.032.251-.048.386-.048.403 0 .733.116.99.347.257.228.386.53.386.903 0 .193-.038.373-.115.542a1.452 1.452 0 01-.298.437 3.672 3.672 0 01-.406.349c-.147.11-.294.215-.443.313a6.065 6.065 0 00-.41.295 1.448 1.448 0 00-.301.328.728.728 0 00-.117.383h2.159v.53h-2.807a2.266 2.266 0 01-.03-.334zm3.49-2.638c0-.428.132-.777.395-1.048s.598-.407 1.006-.407c.228 0 .442.049.641.148.201.098.373.236.518.412.146.175.261.392.343.651.085.257.127.538.127.843 0 .229-.024.457-.073.684a2.817 2.817 0 01-.231.662c-.105.213-.232.4-.383.563a1.643 1.643 0 01-.554.392 1.743 1.743 0 01-.72.147 2.138 2.138 0 01-.749-.135l-.097-.046.199-.53.084.043c.038.016.112.038.22.066.108.026.214.039.316.039a1.128 1.128 0 00.922-.461c.104-.14.188-.295.253-.463.066-.169.111-.348.135-.536h-.012a.914.914 0 01-.403.295 1.454 1.454 0 01-.561.111c-.407 0-.738-.135-.993-.406-.255-.273-.383-.615-.383-1.024zm.606 0c0 .271.08.492.241.662.16.171.378.256.653.256.241 0 .449-.062.623-.187.177-.126.265-.268.265-.424 0-.189-.043-.376-.129-.56a1.211 1.211 0 00-.359-.458.775.775 0 00-.493-.184.738.738 0 00-.588.253c-.142.167-.213.381-.213.642zM233.624 263.329l1.045-1.011h.542v3.824h.949v.53h-2.503v-.53h.961v-2.813l.006-.271h-.012a1.052 1.052 0 01-.211.253l-.406.401-.371-.383zm3.045 3.009a1.497 1.497 0 01.268-.862c.082-.114.176-.222.283-.325.108-.102.221-.197.337-.283.118-.086.236-.169.352-.25.119-.082.231-.163.338-.244.108-.08.203-.161.286-.244.082-.084.147-.176.195-.277a.701.701 0 00.073-.313.672.672 0 00-.22-.521.796.796 0 00-.563-.202c-.107 0-.21.02-.31.058a.882.882 0 00-.25.138 1.916 1.916 0 00-.178.163.828.828 0 00-.108.138l-.037.058-.448-.302a1.215 1.215 0 01.099-.159 1.61 1.61 0 01.13-.166c.048-.052.111-.109.189-.171a1.55 1.55 0 01.253-.166c.089-.046.194-.084.316-.114a1.48 1.48 0 01.386-.049c.403 0 .734.116.991.347.257.228.385.53.385.903 0 .193-.038.373-.114.542a1.473 1.473 0 01-.299.437 3.582 3.582 0 01-.406.349c-.147.11-.294.215-.443.313a6.405 6.405 0 00-.409.295 1.403 1.403 0 00-.301.328.72.72 0 00-.118.383h2.159v.53h-2.806a2.266 2.266 0 01-.03-.334zm3.324.334l1.06-1.602-1.006-1.518h.687l.578.949.105.186h.012a8.27 8.27 0 01.106-.186l.581-.949h.684l-1.006 1.518 1.06 1.602h-.678l-.653-1.042-.094-.172h-.012a6.84 6.84 0 01-.093.172l-.653 1.042h-.678zm3.243-.518l.334-.464a.872.872 0 01.049.051 1.92 1.92 0 00.361.259 1.468 1.468 0 00.644.166.925.925 0 00.63-.223.727.727 0 00.259-.572.682.682 0 00-.292-.59 1.196 1.196 0 00-.72-.211h-.304l-.142-.328.952-1.117a3.508 3.508 0 01.235-.247l.036-.036v-.012a2.88 2.88 0 01-.371.018h-1.475v-.53h2.605v.388l-1.187 1.364a1.632 1.632 0 01.696.235c.112.068.211.15.295.244.086.094.156.211.208.349a1.365 1.365 0 01-.03.985 1.402 1.402 0 01-.296.446 1.384 1.384 0 01-.469.304 1.594 1.594 0 01-.606.114 1.963 1.963 0 01-.927-.232 1.632 1.632 0 01-.211-.126l-.15-.118a.91.91 0 01-.094-.084l-.03-.033zm5.267-.334v-3.502h.599v3.399c0 .173.029.29.087.353a.33.33 0 00.247.09l.103-.006v.53a1.495 1.495 0 01-.416-.003.871.871 0 01-.22-.069.63.63 0 01-.204-.145.721.721 0 01-.139-.256 1.203 1.203 0 01-.057-.391zm1.671.852v-4.354h.596v1.424l-.012.265h.012l.033-.057c.015-.024.05-.067.106-.127a1.08 1.08 0 01.19-.162c.07-.047.165-.089.286-.127.12-.038.249-.057.385-.057.418 0 .75.151.997.452.249.301.373.695.373 1.183 0 .492-.132.887-.397 1.186a1.3 1.3 0 01-1.021.449c-.131 0-.253-.019-.367-.057a.968.968 0 01-.281-.133 1.746 1.746 0 01-.189-.156.786.786 0 01-.112-.139l-.033-.054h-.012c.008.066.012.145.012.235v.229h-.566zm.578-1.548c0 .193.031.371.094.536a.956.956 0 00.298.41c.138.11.302.165.491.165.257 0 .47-.1.641-.301.173-.201.259-.473.259-.816 0-.335-.082-.605-.247-.81a.772.772 0 00-.635-.307.838.838 0 00-.645.283c-.17.187-.256.467-.256.84zM271.795 266.154l.334-.464.048.051a1.908 1.908 0 00.361.259 1.493 1.493 0 00.645.166.922.922 0 00.629-.223.724.724 0 00.259-.572.68.68 0 00-.292-.59 1.196 1.196 0 00-.72-.211h-.304l-.141-.328.951-1.117a3.53 3.53 0 01.235-.247l.036-.036v-.012c-.086.012-.21.018-.37.018h-1.476v-.53h2.605v.388l-1.186 1.364a1.623 1.623 0 01.695.235c.113.068.211.15.295.244.087.094.156.211.208.349a1.365 1.365 0 01-.03.985c-.07.169-.169.317-.295.446a1.388 1.388 0 01-.47.304 1.589 1.589 0 01-.605.114 1.946 1.946 0 01-.669-.117 2.638 2.638 0 01-.259-.115 1.615 1.615 0 01-.361-.244.878.878 0 01-.093-.084l-.03-.033zm3.604-.741a1.287 1.287 0 01.404-.906c.076-.078.133-.133.171-.163.04-.032.08-.062.121-.09-.326-.235-.488-.525-.488-.87 0-.119.017-.232.051-.341a1.095 1.095 0 01.431-.563c.104-.072.231-.129.382-.171.151-.043.315-.064.494-.064.407 0 .738.106.991.317.253.21.379.493.379.849 0 .371-.173.748-.518 1.132.187.114.331.245.434.391a.905.905 0 01.156.536c0 .227-.06.437-.18.63a1.336 1.336 0 01-.527.469c-.229.119-.49.178-.783.178-.438 0-.8-.124-1.087-.373a1.214 1.214 0 01-.431-.961zm.623-.036c0 .241.089.438.265.59a.939.939 0 00.63.229.925.925 0 00.608-.208.668.668 0 00.253-.539.438.438 0 00-.054-.213.623.623 0 00-.13-.172 1.15 1.15 0 00-.217-.154 2.51 2.51 0 00-.246-.129 10.597 10.597 0 00-.293-.133 14.91 14.91 0 01-.292-.135c-.349.245-.524.533-.524.864zm.19-1.978c0 .052.006.102.018.15a.405.405 0 00.063.133c.03.04.06.077.088.111.03.034.071.069.123.106l.139.087c.04.024.095.053.165.087l.172.075.19.079.183.078c.03-.03.061-.064.091-.102.032-.04.073-.099.123-.175.05-.076.09-.166.121-.268.032-.102.048-.207.048-.313a.586.586 0 00-.217-.476c-.143-.118-.329-.178-.56-.178-.233 0-.416.058-.548.172a.547.547 0 00-.199.434zm4.595 2.421v-3.502h.599v3.399c0 .173.03.29.088.353.058.06.14.09.247.09l.102-.006v.53a1.484 1.484 0 01-.415-.003.847.847 0 01-.22-.069.624.624 0 01-.205-.145.754.754 0 01-.139-.256 1.203 1.203 0 01-.057-.391zm1.671.852v-4.354h.597v1.424l-.012.265h.012l.033-.057a.903.903 0 01.105-.127c.058-.062.122-.116.19-.162.07-.047.166-.089.286-.127.12-.038.249-.057.385-.057.418 0 .75.151.997.452.249.301.374.695.374 1.183 0 .492-.133.887-.398 1.186a1.3 1.3 0 01-1.021.449c-.13 0-.253-.019-.367-.057a.948.948 0 01-.28-.133 1.763 1.763 0 01-.19-.156.773.773 0 01-.111-.139l-.033-.054h-.012c.008.066.012.145.012.235v.229h-.567zm.579-1.548c0 .193.031.371.093.536a.964.964 0 00.298.41c.139.11.302.165.491.165.257 0 .471-.1.641-.301.173-.201.259-.473.259-.816 0-.335-.082-.605-.247-.81a.771.771 0 00-.635-.307.835.835 0 00-.644.283c-.171.187-.256.467-.256.84zM314.487 266.672v-4.354h1.59c.402 0 .73.125.985.376.257.249.385.578.385.988 0 .409-.128.741-.385.996s-.585.383-.985.383h-.981v1.611h-.609zm.609-2.141h.882c.261 0 .467-.075.617-.226.153-.153.229-.36.229-.623 0-.261-.075-.465-.226-.612-.148-.148-.353-.222-.614-.222h-.888v1.683zm3.014 2.141v-3.12h.578v.542l-.012.235h.012a1.26 1.26 0 01.373-.587.912.912 0 01.615-.229l.153.015v.59a.827.827 0 00-.704.178c-.159.13-.273.31-.344.539-.05.165-.075.351-.075.56v1.277h-.596zm2.096-1.56c0-.49.146-.884.439-1.183.295-.301.669-.452 1.121-.452.285 0 .531.067.737.202.209.132.364.308.464.527.1.216.151.461.151.734l-.021.259h-2.274c.014.328.122.582.325.762.205.179.454.268.747.268a1.29 1.29 0 00.557-.129 2.71 2.71 0 00.193-.106c.058-.036.102-.067.132-.093l.042-.036.247.436a.604.604 0 01-.054.049 2.214 2.214 0 01-.406.244 1.971 1.971 0 01-.335.105 1.797 1.797 0 01-.412.048c-.321 0-.608-.071-.861-.214a1.528 1.528 0 01-.588-.587 1.711 1.711 0 01-.204-.834zm.635-.364h1.665c-.008-.257-.083-.454-.226-.591a.726.726 0 00-.526-.204.903.903 0 00-.603.211.935.935 0 00-.31.584zm3.002 1.924v-3.12h.578v.413l-.012.229h.012c.079-.193.218-.361.419-.503.203-.143.422-.214.656-.214.518 0 .831.237.937.711h.012a1.2 1.2 0 01.44-.503c.204-.139.428-.208.671-.208.349 0 .608.099.777.298.169.199.253.498.253.897v2h-.599v-1.87a1.96 1.96 0 00-.021-.31.776.776 0 00-.079-.241.375.375 0 00-.171-.172.607.607 0 00-.283-.06.763.763 0 00-.551.232 1.178 1.178 0 00-.326.566 1.92 1.92 0 00-.045.431v1.424h-.596v-1.87c0-.092-.003-.172-.009-.238a1.037 1.037 0 00-.042-.211.4.4 0 00-.25-.289.596.596 0 00-.241-.045.775.775 0 00-.566.235 1.263 1.263 0 00-.328.587 1.756 1.756 0 00-.039.407v1.424h-.597zm5.631-3.743v-.611h.603v.611h-.603zm.006 3.743v-3.12h.597v3.12h-.597zm1.491-1.123v-1.997h.599v1.861c0 .119.007.221.021.307a.824.824 0 00.085.241c.04.074.1.132.18.172a.706.706 0 00.301.057.886.886 0 00.732-.346c.185-.231.277-.508.277-.831v-1.461h.599v3.12h-.578v-.413l.012-.229h-.012a1.199 1.199 0 01-.421.494 1.201 1.201 0 01-.726.223c-.355 0-.622-.097-.801-.292-.179-.197-.268-.499-.268-.906zm3.731 1.123v-3.12h.578v.413l-.012.229h.012c.078-.193.218-.361.419-.503.202-.143.421-.214.656-.214.518 0 .83.237.937.711h.012c.09-.199.236-.367.439-.503.205-.139.429-.208.672-.208.349 0 .608.099.777.298.168.199.253.498.253.897v2h-.6v-1.87a1.96 1.96 0 00-.021-.31.802.802 0 00-.078-.241.372.372 0 00-.172-.172.602.602 0 00-.283-.06.764.764 0 00-.551.232 1.177 1.177 0 00-.325.566 1.92 1.92 0 00-.045.431v1.424h-.596v-1.87c0-.092-.003-.172-.009-.238a1.041 1.041 0 00-.043-.211.508.508 0 00-.09-.177.386.386 0 00-.16-.112.59.59 0 00-.24-.045.779.779 0 00-.567.235 1.272 1.272 0 00-.328.587 1.756 1.756 0 00-.039.407v1.424h-.596zM358.327 262.848v-.53h3.595v.53h-1.49v3.824h-.612v-3.824h-1.493zm4.095 3.824v-3.12H363v.542l-.012.235H363c.074-.239.199-.434.374-.587a.907.907 0 01.614-.229l.153.015v.59a.827.827 0 00-.704.178c-.159.13-.273.31-.343.539a1.892 1.892 0 00-.076.56v1.277h-.596zm2.06-.876a.887.887 0 01.277-.663c.08-.074.179-.137.298-.19.12-.054.234-.094.34-.12a3.64 3.64 0 01.69-.093c.084-.004.175-.006.274-.006h.135v-.058c0-.455-.228-.683-.683-.683-.091 0-.182.011-.274.033a1.25 1.25 0 00-.241.075 1.819 1.819 0 00-.187.088.99.99 0 00-.126.072l-.043.033-.246-.437a1.031 1.031 0 01.201-.129c.079-.042.16-.079.244-.112.084-.032.192-.061.322-.087.131-.028.263-.042.398-.042.395 0 .699.105.912.316.215.211.322.513.322.907v1.972h-.554v-.295l.012-.247h-.012l-.018.036a.824.824 0 01-.051.087 1.025 1.025 0 01-.226.25.994.994 0 01-.18.124 1.018 1.018 0 01-.235.084 1.127 1.127 0 01-.289.036c-.287 0-.536-.084-.747-.253-.209-.17-.313-.403-.313-.698zm.602-.031c0 .137.051.254.154.353.104.098.248.147.433.147a.693.693 0 00.437-.153.985.985 0 00.295-.377 1.14 1.14 0 00.099-.463v-.1h-.153a3.147 3.147 0 00-.69.057 1.73 1.73 0 00-.22.07.637.637 0 00-.186.105.468.468 0 00-.169.361zm2.451-2.213h.672l.783 2.042a2.3 2.3 0 01.054.165c.02.063.035.114.045.154l.018.057h.012c.034-.14.069-.264.105-.37l.759-2.048h.648l-1.461 3.68a1.154 1.154 0 01-.409.545 1.024 1.024 0 01-.91.142 1.078 1.078 0 01-.226-.097l-.072-.045.211-.458c.116.087.238.13.364.13a.483.483 0 00.323-.124.84.84 0 00.237-.334l.154-.355-1.307-3.084zM402.995 264.471c0-.312.056-.605.169-.88a2.18 2.18 0 01.463-.707c.195-.197.43-.353.705-.467.275-.114.568-.172.879-.172.195 0 .383.02.563.061.181.038.331.085.449.141.119.056.223.113.313.169.091.056.157.103.199.141l.06.06-.301.458a1.359 1.359 0 00-.226-.165 1.937 1.937 0 00-.265-.145 1.957 1.957 0 00-.349-.114 1.7 1.7 0 00-.419-.052c-.317 0-.599.076-.846.226-.247.149-.436.35-.569.603-.13.25-.196.529-.196.837 0 .311.067.597.199.858.133.259.323.468.572.626.249.157.531.235.846.235a1.812 1.812 0 00.829-.199c.102-.056.193-.111.274-.165a1.39 1.39 0 00.18-.142l.061-.06.328.437c-.016.018-.04.043-.073.075-.03.03-.099.085-.207.165a2.25 2.25 0 01-.344.211c-.12.06-.278.116-.472.166-.193.05-.391.075-.594.075-.427 0-.812-.1-1.153-.301a2.135 2.135 0 01-.795-.822 2.393 2.393 0 01-.28-1.153zm4.372 1.325a.9.9 0 01.277-.663c.081-.074.18-.137.299-.19.12-.054.233-.094.34-.12a3.651 3.651 0 01.689-.093c.085-.004.176-.006.274-.006h.136v-.058c0-.455-.228-.683-.684-.683-.09 0-.181.011-.274.033-.092.02-.172.045-.241.075-.068.028-.13.057-.186.088a1.017 1.017 0 00-.127.072l-.042.033-.247-.437a1.031 1.031 0 01.202-.129c.078-.042.16-.079.244-.112.084-.032.192-.061.322-.087.131-.028.263-.042.398-.042.395 0 .699.105.912.316.215.211.322.513.322.907v1.972h-.554v-.295l.012-.247h-.012l-.018.036a.824.824 0 01-.051.087.862.862 0 01-.09.121 1.167 1.167 0 01-.136.129.968.968 0 01-.181.124.985.985 0 01-.235.084c-.09.024-.186.036-.289.036-.287 0-.536-.084-.746-.253-.209-.17-.314-.403-.314-.698zm.603-.031c0 .137.051.254.153.353.105.098.249.147.434.147.16 0 .306-.051.437-.153a.994.994 0 00.295-.377 1.14 1.14 0 00.099-.463v-.1h-.154a3.108 3.108 0 00-.689.057c-.07.017-.144.04-.22.07a.656.656 0 00-.187.105.48.48 0 00-.168.361zm2.869.055v-3.502h.6v3.399c0 .173.029.29.087.353.058.06.14.09.247.09l.102-.006v.53a1.48 1.48 0 01-.415-.003.847.847 0 01-.22-.069.634.634 0 01-.205-.145.737.737 0 01-.138-.256 1.175 1.175 0 01-.058-.391zm1.666-2.891v-.611h.602v.611h-.602zm.006 3.743v-3.12h.596v3.12h-.596zm1.313-2.596v-.482h.388v-.147c0-.195.028-.366.084-.512a.94.94 0 01.211-.34.973.973 0 01.295-.193c.115-.05.216-.081.304-.093a1.816 1.816 0 01.479-.009l.027.006v.511a.99.99 0 00-.31 0 .8.8 0 00-.172.055.526.526 0 00-.162.105.514.514 0 00-.118.193.84.84 0 00-.045.289v.135h.738v.482h-.738v2.596h-.593v-2.596h-.388zm2.065 1.03c0-.231.044-.448.133-.65.088-.203.208-.376.358-.518a1.72 1.72 0 011.193-.461 1.743 1.743 0 011.189.461 1.595 1.595 0 01.494 1.168c0 .309-.075.59-.226.843a1.588 1.588 0 01-.611.587 1.73 1.73 0 01-.846.211c-.308 0-.59-.07-.847-.211a1.588 1.588 0 01-.611-.587 1.623 1.623 0 01-.226-.843zm.612 0c0 .323.104.591.313.804.208.213.461.319.759.319.301 0 .555-.106.761-.319.207-.213.311-.481.311-.804a1.09 1.09 0 00-.311-.795 1.022 1.022 0 00-.761-.316c-.298 0-.551.105-.759.316a1.083 1.083 0 00-.313.795zm3.465 1.566v-3.12h.579v.542l-.012.235h.012c.074-.239.198-.434.373-.587a.91.91 0 01.614-.229l.154.015v.59a.83.83 0 00-.705.178 1.09 1.09 0 00-.343.539c-.05.165-.075.351-.075.56v1.277h-.597zm2.313 0v-3.12h.578v.413l-.012.229h.012c.034-.077.082-.153.142-.229.062-.077.139-.153.232-.229.094-.076.21-.139.349-.187a1.36 1.36 0 01.449-.072c.365 0 .635.099.81.298.176.199.265.498.265.897v2h-.6v-1.861a1.72 1.72 0 00-.024-.31.85.85 0 00-.084-.244.38.38 0 00-.184-.172.67.67 0 00-.301-.06.972.972 0 00-.62.211 1.06 1.06 0 00-.364.554 1.476 1.476 0 00-.052.421v1.461h-.596zm3.71-3.743v-.611h.602v.611h-.602zm.006 3.743v-3.12h.596v3.12h-.596zm1.283-.876c0-.141.026-.268.078-.383a.903.903 0 01.497-.47c.12-.054.234-.094.34-.12a3.593 3.593 0 01.69-.093c.084-.004.175-.006.274-.006h.135v-.058c0-.455-.228-.683-.683-.683-.091 0-.182.011-.274.033a1.25 1.25 0 00-.241.075 1.819 1.819 0 00-.187.088.99.99 0 00-.126.072l-.043.033-.246-.437a1.031 1.031 0 01.201-.129c.079-.042.16-.079.244-.112a2.1 2.1 0 01.322-.087c.131-.028.263-.042.398-.042.395 0 .7.105.912.316.215.211.323.513.323.907v1.972h-.555v-.295l.012-.247h-.012l-.018.036a.824.824 0 01-.051.087 1.025 1.025 0 01-.226.25.994.994 0 01-.18.124 1.018 1.018 0 01-.235.084 1.127 1.127 0 01-.289.036c-.287 0-.536-.084-.747-.253-.209-.17-.313-.403-.313-.698zm.602-.031c0 .137.051.254.154.353.104.098.249.147.433.147a.693.693 0 00.437-.153.985.985 0 00.295-.377 1.14 1.14 0 00.099-.463v-.1h-.153a3.147 3.147 0 00-.69.057 1.73 1.73 0 00-.22.07.637.637 0 00-.186.105.468.468 0 00-.169.361zM166.067 266.672v-4.354h1.52c.376 0 .68.099.913.298.235.198.352.469.352.813 0 .211-.048.398-.145.563a.958.958 0 01-.397.373v.012c.225.067.4.196.527.389.126.192.19.414.19.665 0 .199-.037.379-.112.539a1.069 1.069 0 01-.304.392c-.126.1-.274.177-.443.232a1.826 1.826 0 01-.542.078h-1.559zm.608-.53h.982c.232 0 .415-.067.548-.202.132-.134.198-.314.198-.539a.725.725 0 00-.207-.539.735.735 0 00-.545-.208h-.976v1.488zm0-1.994h.912a.615.615 0 00.467-.183.665.665 0 00.175-.476.64.64 0 00-.172-.467c-.114-.116-.275-.174-.482-.174h-.9v1.3zm3.177 2.524v-3.12h.578v.542l-.012.235h.012a1.26 1.26 0 01.373-.587.912.912 0 01.615-.229l.153.015v.59a.827.827 0 00-.704.178c-.159.13-.273.31-.344.539-.05.165-.075.351-.075.56v1.277h-.596zm2.059-.876a.9.9 0 01.277-.663c.081-.074.18-.137.299-.19.12-.054.233-.094.34-.12a3.651 3.651 0 01.689-.093c.085-.004.176-.006.274-.006h.136v-.058c0-.455-.228-.683-.684-.683-.09 0-.181.011-.274.033-.092.02-.172.045-.241.075-.068.028-.13.057-.186.088a1.017 1.017 0 00-.127.072l-.042.033-.247-.437a1.031 1.031 0 01.202-.129c.078-.042.16-.079.244-.112.084-.032.192-.061.322-.087.131-.028.263-.042.398-.042.395 0 .699.105.912.316.215.211.322.513.322.907v1.972h-.554v-.295l.012-.247h-.012l-.018.036a.824.824 0 01-.051.087.862.862 0 01-.09.121 1.167 1.167 0 01-.136.129.968.968 0 01-.181.124.985.985 0 01-.235.084c-.09.024-.186.036-.289.036-.287 0-.536-.084-.746-.253-.209-.17-.314-.403-.314-.698zm.603-.031c0 .137.051.254.153.353.105.098.249.147.434.147a.69.69 0 00.436-.153.987.987 0 00.296-.377 1.14 1.14 0 00.099-.463v-.1h-.154a3.108 3.108 0 00-.689.057c-.07.017-.144.04-.22.07a.643.643 0 00-.187.105.48.48 0 00-.168.361zm2.692-.653c0-.49.146-.884.439-1.183.295-.301.669-.452 1.121-.452.285 0 .531.067.737.202.209.132.364.308.464.527.1.216.151.461.151.734l-.021.259h-2.274c.014.328.122.582.325.762.205.179.454.268.747.268a1.29 1.29 0 00.557-.129 2.71 2.71 0 00.193-.106c.058-.036.102-.067.132-.093l.042-.036.247.436a.604.604 0 01-.054.049 2.214 2.214 0 01-.406.244 1.971 1.971 0 01-.335.105 1.797 1.797 0 01-.412.048c-.321 0-.608-.071-.861-.214a1.528 1.528 0 01-.588-.587 1.711 1.711 0 01-.204-.834zm.635-.364h1.665c-.008-.257-.083-.454-.226-.591a.726.726 0 00-.527-.204.903.903 0 00-.602.211.935.935 0 00-.31.584zm3.002 1.924v-4.354h.597v1.424l-.013.265h.013l.033-.057a.903.903 0 01.105-.127 1.08 1.08 0 01.19-.162c.07-.047.165-.089.286-.127.12-.038.249-.057.385-.057.418 0 .75.151.997.452.249.301.373.695.373 1.183 0 .492-.132.887-.397 1.186a1.3 1.3 0 01-1.021.449c-.13 0-.253-.019-.367-.057a.948.948 0 01-.28-.133 1.67 1.67 0 01-.19-.156.773.773 0 01-.111-.139l-.034-.054h-.012c.008.066.012.145.012.235v.229h-.566zm.578-1.548c0 .193.032.371.094.536a.956.956 0 00.298.41c.138.11.302.165.491.165.257 0 .471-.1.641-.301.173-.201.259-.473.259-.816 0-.335-.082-.605-.247-.81a.771.771 0 00-.635-.307.838.838 0 00-.645.283c-.17.187-.256.467-.256.84zm3.075.425v-1.997h.599v1.861c0 .119.007.221.021.307a.824.824 0 00.085.241c.04.074.1.132.18.172a.706.706 0 00.301.057.885.885 0 00.732-.346c.185-.231.277-.508.277-.831v-1.461h.599v3.12h-.578v-.413l.012-.229h-.012a1.199 1.199 0 01-.421.494 1.201 1.201 0 01-.726.223c-.355 0-.622-.097-.801-.292-.179-.197-.268-.499-.268-.906zm3.731 1.123v-3.12h.578v.542l-.012.235h.012a1.26 1.26 0 01.373-.587.912.912 0 01.615-.229l.153.015v.59a.827.827 0 00-.704.178c-.159.13-.273.31-.344.539-.05.165-.075.351-.075.56v1.277h-.596zm2.312 0v-3.12h.579v.413l-.012.229h.012c.034-.077.081-.153.141-.229.062-.077.14-.153.232-.229.094-.076.211-.139.349-.187.139-.048.288-.072.449-.072.365 0 .635.099.81.298.177.199.265.498.265.897v2h-.599v-1.861a1.72 1.72 0 00-.024-.31.822.822 0 00-.085-.244.383.383 0 00-.183-.172.675.675 0 00-.301-.06.975.975 0 00-.621.211c-.176.14-.298.325-.364.554a1.515 1.515 0 00-.051.421v1.461h-.597z" fill="#22282A"/><path d="M198.5 266.305a2.064 2.064 0 01-2.064-2.065c0-2.993 3.603-1.457 5.337-2.896a.127.127 0 01.131-.013.14.14 0 01.055.041.14.14 0 01.028.062c.529 3.101-1.754 4.871-3.487 4.871z" stroke="#689D7F" stroke-width=".617" stroke-linecap="round" stroke-linejoin="round"/><path d="M199.327 263.689a6.875 6.875 0 00-2.359 1.175l-1.07.913" stroke="#689D7F" stroke-width=".617" stroke-linecap="round" stroke-linejoin="round"/><defs><filter id="prefix__filter0_dd_858_2795" x="25.457" y="240.025" width="524" height="67" filterUnits="userSpaceOnUse" color-interpolation-filters="sRGB"><feFlood flood-opacity="0" result="BackgroundImageFix"/><feColorMatrix in="SourceAlpha" values="0 0 0 0 0 0 0 0 0 0 0 0 0 0 0 0 0 0 127 0" result="hardAlpha"/><feOffset dy="10"/><feGaussianBlur stdDeviation="10"/><feComposite in2="hardAlpha" operator="out"/><feColorMatrix values="0 0 0 0 0.533333 0 0 0 0 0.456028 0 0 0 0 0.330667 0 0 0 0.32 0"/><feBlend in2="BackgroundImageFix" result="effect1_dropShadow_858_2795"/><feColorMatrix in="SourceAlpha" values="0 0 0 0 0 0 0 0 0 0 0 0 0 0 0 0 0 0 127 0" result="hardAlpha"/><feMorphology radius="2" in="SourceAlpha" result="effect2_dropShadow_858_2795"/><feOffset dy="5"/><feGaussianBlur stdDeviation="2"/><feComposite in2="hardAlpha" operator="out"/><feColorMatrix values="0 0 0 0 0 0 0 0 0 0 0 0 0 0 0 0 0 0 0.08 0"/><feBlend in2="effect1_dropShadow_858_2795" result="effect2_dropShadow_858_2795"/><feBlend in="SourceGraphic" in2="effect2_dropShadow_858_2795" result="shape"/></filter></defs></svg>