<svg viewBox="0 0 725 530" fill="none" xmlns="http://www.w3.org/2000/svg"><g filter="url(#prefix__filter0_dd_858_2795)"><rect x="518.471" y="371.022" width="161.717" height="31.867" rx="6" fill="#418A60" shape-rendering="crispEdges"/><path fill-rule="evenodd" clip-rule="evenodd" d="M549.725 381.535c.1.1.156.235.156.376v8.497a.531.531 0 01-.531.532.265.265 0 01-.266-.266 1.859 1.859 0 00-3.718 0 .267.267 0 01-.265.266h-3.187a.267.267 0 01-.265-.266 1.857 1.857 0 10-3.716.06l.001.06a.132.132 0 01-.082.134.142.142 0 01-.054.012.669.669 0 01-.664-.664v-2.279a.642.642 0 01.197-.473l.942-.94 1.147-2.071a.949.949 0 01.816-.478h.881a.265.265 0 00.266-.266v-1.858a.531.531 0 01.531-.532h7.436c.141 0 .276.056.375.156zm-8.381 4.851a.133.133 0 00.039-.094l-.002-1.134a.133.133 0 00-.132-.133h-.691a.26.26 0 00-.128.033.259.259 0 00-.096.09l-.68 1.073a.132.132 0 00.112.204h1.484a.133.133 0 00.094-.039zm6.335 1.024a.27.27 0 00.077-.188v-1.594a.266.266 0 00-.265-.265h-3.718a.267.267 0 00-.266.265v1.594a.267.267 0 00.266.265h3.718a.27.27 0 00.188-.077zm.608-3.125a.273.273 0 00-.046-.135l-.911-1.328a.265.265 0 00-.218-.115h-2.96a.268.268 0 00-.219.115l-.91 1.328a.273.273 0 00-.046.135.26.26 0 00.03.139.264.264 0 00.235.142h4.78a.264.264 0 00.265-.281zm-9.56 7.186a1.062 1.062 0 102.124 0 1.062 1.062 0 00-2.124 0zm7.436 0a1.062 1.062 0 102.124 0 1.062 1.062 0 00-2.124 0z" fill="#fff" fill-opacity=".9"/><path d="M559.785 389.143l.669-.927s.737.717 1.693.717c.516 0 .984-.268.984-.822 0-1.214-3.202-1.004-3.202-3.088 0-1.128.975-1.969 2.275-1.969 1.338 0 2.027.726 2.027.726l-.536 1.004s-.65-.593-1.501-.593c-.573 0-1.023.335-1.023.813 0 1.204 3.194.908 3.194 3.078 0 1.081-.823 1.989-2.238 1.989-1.51 0-2.342-.928-2.342-.928zm6.575.813v-6.788h4.063v1.062h-2.83v1.778h2.285v1.061h-2.285v1.826h2.983v1.061h-4.216zm6.264 0v-6.788h1.233v5.727h2.935v1.061h-4.168zm5.918 0v-6.788h1.233v5.727h2.935v1.061h-4.168zm5.918 0v-6.788h1.234v6.788h-1.234zm3.715 0v-6.788h1.234l2.571 3.92c.258.392.564 1.052.564 1.052h.019s-.066-.65-.066-1.052v-3.92h1.223v6.788h-1.223l-2.572-3.91c-.258-.392-.564-1.052-.564-1.052h-.019s.067.65.067 1.052v3.91h-1.234zm7.57-3.403c0-1.97 1.482-3.499 3.499-3.499 1.663 0 2.524.86 2.524.86l-.612.918s-.727-.65-1.807-.65c-1.52 0-2.333 1.051-2.333 2.332 0 1.473 1.004 2.429 2.276 2.429 1.022 0 1.701-.708 1.701-.708v-.793h-1.042v-1.061h2.151v3.575h-1.051v-.325c0-.143.009-.287.009-.287h-.019s-.707.727-1.969.727c-1.788 0-3.327-1.386-3.327-3.518zm11.146 1.481c0-.736.44-1.443 1.157-1.692v-.019s-.86-.334-.86-1.482c0-1.204.965-1.787 2.141-1.787.43 0 .889.114.889.114l-.296.975s-.23-.057-.45-.057c-.573 0-1.042.316-1.042.908 0 .392.22.899 1.033.899h1.08v-.88h1.214v.88h.88v1.071h-.88v.803c0 1.386-.908 2.304-2.437 2.304-1.473 0-2.429-.889-2.429-2.037zm1.262-.076c0 .545.469.985 1.167.985.764 0 1.223-.421 1.223-1.243v-.736h-1.147c-.755 0-1.243.334-1.243.994zm9.07 1.185l.669-.927s.736.717 1.692.717c.516 0 .985-.268.985-.822 0-1.214-3.203-1.004-3.203-3.088 0-1.128.975-1.969 2.275-1.969 1.339 0 2.027.726 2.027.726l-.535 1.004s-.65-.593-1.501-.593c-.574 0-1.023.335-1.023.813 0 1.204 3.193.908 3.193 3.078 0 1.081-.822 1.989-2.237 1.989-1.51 0-2.342-.928-2.342-.928zm6.574.813v-6.788h1.234v2.878h3.107v-2.878h1.233v6.788h-1.233v-2.849h-3.107v2.849h-1.234zm8.057 0v-6.788h1.233v6.788h-1.233zm3.715 0v-6.788h2.619c1.272 0 2.161.889 2.161 2.209 0 1.319-.889 2.237-2.161 2.237h-1.386v2.342h-1.233zm1.233-3.413h1.157c.717 0 1.137-.459 1.137-1.166 0-.698-.42-1.147-1.118-1.147h-1.176v2.313zm5.404 3.413v-6.788h2.619c1.272 0 2.161.889 2.161 2.209 0 1.319-.889 2.237-2.161 2.237h-1.386v2.342h-1.233zm1.233-3.413h1.157c.717 0 1.138-.459 1.138-1.166 0-.698-.421-1.147-1.119-1.147h-1.176v2.313zm5.404 3.413v-6.788h1.233v6.788h-1.233zm3.715 0v-6.788h1.233l2.572 3.92c.258.392.564 1.052.564 1.052h.019s-.067-.65-.067-1.052v-3.92h1.224v6.788h-1.224l-2.571-3.91c-.258-.392-.564-1.052-.564-1.052h-.019s.066.65.066 1.052v3.91h-1.233zm7.57-3.403c0-1.97 1.481-3.499 3.499-3.499 1.663 0 2.524.86 2.524.86l-.612.918s-.727-.65-1.807-.65c-1.52 0-2.333 1.051-2.333 2.332 0 1.473 1.004 2.429 2.275 2.429 1.023 0 1.702-.708 1.702-.708v-.793h-1.042v-1.061h2.151v3.575h-1.051v-.325c0-.143.009-.287.009-.287h-.019s-.707.727-1.969.727c-1.788 0-3.327-1.386-3.327-3.518z" fill="#fff" fill-opacity=".9"/></g><defs><filter id="prefix__filter0_dd_858_2795" x="478.471" y="343.022" width="241.717" height="111.867" filterUnits="userSpaceOnUse" color-interpolation-filters="sRGB"><feFlood flood-opacity="0" result="BackgroundImageFix"/><feColorMatrix in="SourceAlpha" values="0 0 0 0 0 0 0 0 0 0 0 0 0 0 0 0 0 0 127 0" result="hardAlpha"/><feOffset dy="12"/><feGaussianBlur stdDeviation="20"/><feComposite in2="hardAlpha" operator="out"/><feColorMatrix values="0 0 0 0 0.411765 0 0 0 0 0.337255 0 0 0 0 0.215686 0 0 0 0.24 0"/><feBlend in2="BackgroundImageFix" result="effect1_dropShadow_858_2795"/><feColorMatrix in="SourceAlpha" values="0 0 0 0 0 0 0 0 0 0 0 0 0 0 0 0 0 0 127 0" result="hardAlpha"/><feMorphology radius="2" in="SourceAlpha" result="effect2_dropShadow_858_2795"/><feOffset dy="4"/><feGaussianBlur stdDeviation="3"/><feComposite in2="hardAlpha" operator="out"/><feColorMatrix values="0 0 0 0 0 0 0 0 0 0 0 0 0 0 0 0 0 0 0.08 0"/><feBlend in2="effect1_dropShadow_858_2795" result="effect2_dropShadow_858_2795"/><feBlend in="SourceGraphic" in2="effect2_dropShadow_858_2795" result="shape"/></filter></defs></svg>