<svg viewBox="0 0 725 530" fill="none" xmlns="http://www.w3.org/2000/svg"><g filter="url(#prefix__filter0_dd_858_2795)"><rect x="518.471" y="411.335" width="114.717" height="31.867" rx="6" fill="#418A60" shape-rendering="crispEdges"/><path fill-rule="evenodd" clip-rule="evenodd" d="M542.841 421.692h4.15v2.594h-4.15v-2.594zm-2.076 3.372h3.631v3.631h-3.631v-3.631zm-.958 7.141a1.041 1.041 0 01.225-1.13 1.041 1.041 0 011.467 0 1.03 1.03 0 01.303.733 1.046 1.046 0 01-.303.734 1.046 1.046 0 01-1.131.224 1.03 1.03 0 01-.561-.561zm7.488.337a1.038 1.038 0 111.468-1.466 1.038 1.038 0 01-1.468 1.466zm1.511-7.478h-3.631v3.631h3.631v-3.631zm-8.557 4.409h9.076a.523.523 0 01.519.519.52.52 0 01-.519.519h-9.338a1.038 1.038 0 01-1.038-1.038v-5.706a.257.257 0 00-.259-.259h-1.037a.52.52 0 010-1.038h1.599a.728.728 0 01.681.453.74.74 0 01.057.282v.004a.15.15 0 000 .03v5.975c0 .069.027.135.076.183a.256.256 0 00.183.076z" fill="#fff" fill-opacity=".9"/><path d="M560.301 430.269v-6.788h1.234v6.788h-1.234zm3.715 0v-6.788h1.234l2.571 3.92c.259.391.564 1.051.564 1.051h.02s-.067-.65-.067-1.051v-3.92h1.223v6.788h-1.223l-2.572-3.911c-.258-.392-.564-1.051-.564-1.051h-.019s.067.65.067 1.051v3.911h-1.234zm9.635 0l-2.476-6.788h1.329l1.491 4.426c.134.392.249.994.258.994h.019c.01 0 .125-.602.258-.994l1.501-4.426h1.32l-2.476 6.788h-1.224zm5.311 0v-6.788h4.063v1.061h-2.83v1.778h2.285v1.061h-2.285v1.826h2.983v1.062h-4.216zm6.264 0v-6.788h1.233l2.572 3.92c.258.391.564 1.051.564 1.051h.019s-.067-.65-.067-1.051v-3.92h1.224v6.788h-1.224l-2.572-3.911c-.258-.392-.564-1.051-.564-1.051h-.019s.067.65.067 1.051v3.911h-1.233zm9.434 0v-5.727h-2.228v-1.061h5.688v1.061h-2.227v5.727h-1.233zm4.595-3.442c0-1.941 1.51-3.461 3.508-3.461 1.999 0 3.509 1.52 3.509 3.461 0 1.998-1.51 3.556-3.509 3.556-1.998 0-3.508-1.558-3.508-3.556zm1.271 0c0 1.396.995 2.428 2.237 2.428 1.243 0 2.238-1.032 2.238-2.428 0-1.339-.995-2.333-2.238-2.333-1.242 0-2.237.994-2.237 2.333zm7.767 3.442v-6.788h2.189c.737 0 1.071.057 1.368.191.678.306 1.108.956 1.108 1.855 0 .812-.43 1.568-1.147 1.854v.02s.096.095.23.334l1.396 2.534h-1.377l-1.348-2.534h-1.186v2.534h-1.233zm1.233-3.605h1.109c.66 0 1.071-.392 1.071-1.07 0-.65-.277-1.052-1.243-1.052h-.937v2.122zm7.127 3.605v-2.84l-2.256-3.948h1.396l1.061 1.998c.22.421.402.918.411.908h.019s.192-.487.411-.908l1.052-1.998h1.396l-2.256 3.948v2.84h-1.234z" fill="#fff" fill-opacity=".9"/></g><defs><filter id="prefix__filter0_dd_858_2795" x="478.471" y="383.335" width="194.717" height="111.867" filterUnits="userSpaceOnUse" color-interpolation-filters="sRGB"><feFlood flood-opacity="0" result="BackgroundImageFix"/><feColorMatrix in="SourceAlpha" values="0 0 0 0 0 0 0 0 0 0 0 0 0 0 0 0 0 0 127 0" result="hardAlpha"/><feOffset dy="12"/><feGaussianBlur stdDeviation="20"/><feComposite in2="hardAlpha" operator="out"/><feColorMatrix values="0 0 0 0 0.411765 0 0 0 0 0.337255 0 0 0 0 0.215686 0 0 0 0.24 0"/><feBlend in2="BackgroundImageFix" result="effect1_dropShadow_858_2795"/><feColorMatrix in="SourceAlpha" values="0 0 0 0 0 0 0 0 0 0 0 0 0 0 0 0 0 0 127 0" result="hardAlpha"/><feMorphology radius="2" in="SourceAlpha" result="effect2_dropShadow_858_2795"/><feOffset dy="4"/><feGaussianBlur stdDeviation="3"/><feComposite in2="hardAlpha" operator="out"/><feColorMatrix values="0 0 0 0 0 0 0 0 0 0 0 0 0 0 0 0 0 0 0.08 0"/><feBlend in2="effect1_dropShadow_858_2795" result="effect2_dropShadow_858_2795"/><feBlend in="SourceGraphic" in2="effect2_dropShadow_858_2795" result="shape"/></filter></defs></svg>